<svg id="svg" width="2066" height="900" version="1.1" viewBox="0 0 2066 900" xmlns="http://www.w3.org/2000/svg" xmlns:xlink="http://www.w3.org/1999/xlink"><defs><pattern id="pattern2065" patternTransform="matrix(1,0,0,1.165,1092,166.7)" xlink:href="#pattern1097"/><radialGradient id="radialGradient6087-1" cx="285.3" cy="93.49" r="78.39" gradientTransform="matrix(.2322 0 0 .2135 601 327.4)" gradientUnits="userSpaceOnUse"><stop stop-color="#fff" offset="0"/><stop stop-color="#fff" offset=".4949"/><stop stop-color="#bababa" offset=".6237"/><stop offset=".7511"/><stop stop-color="#fff" offset="1"/></radialGradient><radialGradient id="radialGradient6065-2" cx="117.7" cy="103.6" r="78.39" gradientTransform="matrix(-.2505 0 0 -.2538 699.4 376.8)" gradientUnits="userSpaceOnUse"><stop stop-color="#fff" stop-opacity="0" offset="0"/><stop stop-color="#6c6c6c" stop-opacity="0" offset=".6189"/><stop stop-color="#43434f" offset=".6991"/><stop stop-color="#fff" stop-opacity="0" offset=".8197"/><stop stop-color="#5d5d5d" offset="1"/></radialGradient><pattern id="pattern1097" width="21.6" height="137.4" patternTransform="translate(1286,292.1)" patternUnits="userSpaceOnUse"><g transform="matrix(2.624,0,0,3.789,-2.755,-4.547)" stroke="#28170b"><path d="m1.32 3.44v18.8c1.28.91 2.57 1.42 3.97 1.36 1.26-.1 1.98-.52 3.48-1.52l.261-18.5z" fill="#520" stroke-dashoffset="2.69" stroke-linejoin="round" stroke-width=".5"/><ellipse cx="5.14" cy="3.55" rx="3.84" ry="2.1" fill="#e9c6af" fill-rule="evenodd" stop-color="#000000" stroke-width=".5" style="font-variation-settings:normal"/><path d="m6.13 12.9v24.3h-1.87v-24.3c.08-.1.811-.35.941-.36.129 0 .711.16.93.36z" fill="#520" stroke-dashoffset="2.69" stroke-linejoin="round" stroke-width=".5"/></g></pattern></defs><g id="$layer1"><g id="$bend"><path d="m879 263.3-144.3-84c-2.2-2.2-3.9-2.9-4-7.2l.5-156.1c0-2.5 3-5.1 5.6-4.9 2.8.1 5.8 2 5.7 5l-.8 151.2c0 1.2-.3 3.3 1.2 4.2l142.1 81.7c3.3 2.5 2.8 6.3 1.2 8.4s-5.1 2.9-7 1.5" fill="#999" stroke="#000" stroke-dashoffset="2.69" stroke-linecap="round" stroke-linejoin="round" stroke-width="1.89"/></g><g id="g_kicker"><g stroke="#000" stroke-dashoffset="2.694"><path d="m601.4 102.4v-14.5l9.4 3.1 1.3 11.6c-.2 1.4.2 3.8-1.1 4.3-.5.3-2.3 1.6-5.6 1.3-3.2-.4-4.2-3.5-4-5.8z" fill="#fc0" stroke-linecap="square" stroke-width=".847"/><path d="m685.8 142.3v-14.4l-11.2 2.8-.3 12.4c0 1.5.8 2.8 1.9 3.8 1.3 1.4 4.5 1.6 5.6 1.3 2.8-.7 4.2-3.5 4-5.9z" fill="#fc0" stroke-linecap="square" stroke-width=".847"/><path d="m674.4 142.4c1.7.3 5.8.9 9.4-2.5.7-.7 2.3-4.2 1.9-6.4 0-1.6-.3-3.1-1.1-4.5l-66.1-111.4c-.6-1.4-.9-2.4-3-4.2-1.8-1.4-4.9-2.2-7.1-1.8-4 .7-7.4 4.7-7.1 9l.2 72.3c.4 4.1 2.1 5.9 4.8 8.1 10.2 6.7 48.3 29.2 68.1 41.4z" fill="#a80" stroke-width="1.012"/><path id="$kicker.fx" d="m674.4 136.4c1.7.3 5.8.9 9.4-2.5.7-.6 2.3-4 1.9-6.2 0-1.6-.3-3.1-1.1-4.4l-66.1-108.9c-.6-1.2-.9-2.3-3-4-1.8-1.4-4.9-2.2-7.1-1.8-4 .7-7.4 4.7-7.1 8.8l.2 70.7c.4 3.8 2.1 5.7 4.8 7.9 10.2 6.5 48.3 28.5 68.1 40.4z" fill="#fc0"/><path id="$kicker.fx-8" d="m674.1 132.8c1.3.8 4.6 1.3 6.6-.5 1.9-1.8 2.6-3 2.4-4.9-.3-1.8-1-2.7-1.7-3.9 0 0-64.2-105.8-64.7-106.6s-1.2-2.39-3.1-3.94c-1.7-1.27-3.5-1.92-5.4-1.32-2.1.65-3.8 3.14-3.5 6.88v67.29c.4 3.47 1.7 5.73 4.2 7.74 9.3 5.92 47.1 28.3 65.2 39.2z" fill="#800000"/></g><path id="$helmet.fx" d="m635.9 58.8-1.6 9.2c.7.3 3 1.4 3.7 4l4 1.7-.7 9.4.7 5.1-7.9 12.5v-16.7c1.5-.89 5.2-2.44 5.1-3.9-.1-1.4-6.1-1.9-6.1.2-.1.7.2 7.4-1.1 7.6-1.2-.23-1.3-5.28-1.3-7.42 0-1.89-5.8-2.15-6.1-.38-.2 1.63 3.2 2.98 5 3.9l.1 16.8-8-12.7.9-4.9-.8-9.5 4-1.6c.4-1.5 1.7-3.4 3.6-4l-1.5-9.3c2.9-.49 5.2-.46 8 0z" fill="#fc0" opacity=".7092"/></g><g id="g_flipper" fill-rule="evenodd" stroke="#000"><path d="m924 34.4c.6 4.3 3.3 7.9 7 9.6l47.8 28.1c1.3.8 2.7 1.2 4.1 1.2 4.1 0 7.5-3.5 7.5-7.8 0-.7-.1-1.5-.3-2.2v.7c0 4.3-3.4 7.8-7.5 7.8-1.4 0-2.8-.5-4-1.3l-47.9-28.1c-3.3-1.5-5.7-4.4-6.7-8z" fill="#530000" stop-color="#000000" stroke-width=".1765" style="font-variation-settings:normal"/><path d="m935.3 18.8c-6.4 0-11.7 5.6-11.7 12.3 0 4.9 2.8 9.4 7.1 11.3l47.9 28.1c1.2.8 2.6 1.3 4 1.3 4.1 0 7.5-3.5 7.5-7.8 0-2.4-1-4.6-2.7-6.1-14.8-12.03-29.6-24.07-44.4-36.1-2.1-1.72-5.2-2.94-7.7-3z" fill="#800000" stop-color="#000000" stroke-width=".5884" style="font-variation-settings:normal"/><path d="m928.9 25c-2.7 2.87-2.5 8.85 1.6 11.9 17.8 9.38 33.7 21.79 49.2 29.74 3.8 1.34 5.4 0 6.2-1.15.8-1.12 1.6-3.22-1.7-6.09-14.7-11.95-29.7-23.83-44.5-35.7-4.3-3.83-8.2-1.56-10.8 1.3z" fill="#fc0" stop-color="#000000" stroke-width=".4119" style="font-variation-settings:normal"/></g><g stroke-width=".0563"><circle cx="669.9" cy="350.6" r="14.54" fill="url(#radialGradient6087-1)" stroke="#b0b0b0"/><circle cx="669.9" cy="350.6" r="14.54" fill="url(#radialGradient6065-2)" stroke="#000"/></g><g stroke="#fc0" stroke-width="2"><path id="$plunger" d="m715.5 341.6h53v18.2h-53z" fill="#800000" stop-color="#000000" stroke="#fc0" stroke-linecap="round" stroke-linejoin="round" stroke-width="2"/></g><g id="g_tree" stroke-dashoffset="2.69" stroke-linecap="round" stroke-linejoin="round"><path d="m826.4 346.3h19.7v26.1h-19.7z" fill="#502d16" stroke="#28170b" stroke-width=".8147"/><path d="m816.4 324.2-7 13.7-10 16c8.1-3.6 12.6-4.6 18.7-7.6l10.6 12.3 13.8-9.7 16.4 8.4 2.6-8.6 8.5 2.9c-7.4-10.5-13.6-22.8-19.3-34.9z" fill="#89a02c" stroke="#677821" stroke-width=".8147"/><path d="m844.1 300.5-19.9 3.8-6 11.9-9.1 15.3 8.7-4.8 5.5 6.9 4.8-7.7 6.7 12.6 8.1-12.4 5.3 8.5 4-9.7 10.6 6.7z" fill="#abc837" stroke="#89a02c" stroke-width=".8161"/><path d="m817.7 311.6c2.8-1 6.8-2.8 9.5-4.9 3.1 2.7 4.8 7.6 8.6 10.5 1.6 0 4-11 5.2-10.7 4 1.4 8.5 3.9 12.9 5.8-1.6-4.7-8.3-16.6-9.6-19.4-3.2-6.7-5.1-11.5-8.7-18.2-2 3.9-5.7 11.6-7.9 17.6z" fill="#bcd35f" stroke="#abc837" stroke-width=".8147"/></g><g id="g_iron"><path d="m931.3 347.4c-.4-1.3-.5-3.3-.4-4.4.7-1.3 1.9-3.4 1.9-3.4s-1.2-4.7-1-6.3c2-2.7 4.5-5.4 7.2-6.9 5.3-1.3 13.8-2.1 13.8-2.1s4.2 1.5 4.7 2.2c.7.9-.1 1.2.9 2.9 1.2 1.2 3.2 3.3 3.2 3.3l-.4 1.9s1.3 1.8 1.4 2.4c-.1 1.8-.9 2.7-1.4 4.5 1.3 2.5 1.5 4.4 1.1 7.2-2.5 2.3-5.5 5.3-7.2 6.2-5.1 0-14.7 2-14.7 2s-1.1 3.7-2.2 5.4c-.3.5-1.7.8-2.2.9-1.6.1-3 .6-4.4 1.3-2.6.2-5.7-.2-7.9-1.5-.6-.8-.8-1.5-.9-1.9-.1-2-1-3.1-1-3.1s1.7-2.1 2-3.1c.4-1.4 0-4.3 0-4.3s2.2-1.4 3.8-1.4c.8-.9 1.6-1.9 1.6-1.9s.9.4 2.1.1z" fill="#999" stroke="#333" stroke-dashoffset="2.69" stroke-linecap="round" stroke-linejoin="round" stroke-width=".7"/><path d="m927.7 353.4c.3-.2.8-1.6 1.4-1.8 1.3.5 2.6 1.9 3.4 2.6-.8 1.4-1.4 3.4-2.4 2.8-1.7-1.2-4.6-2.2-2.4-3.6zm20.1-25.7c1 5.1 2.9 3.6 5.6 1.6-.5-1.8-1.6-2.2-3.2-3.5-1.1.5-1.9.8-2.4 1.9zm-10.7 5c1.3-1.3 4.3-2.4 5.1-2 .4 2.7 2.3 6.3.6 6.9-2 1.1-3.7 3.3-4.9 2.2-.1-2.6-1.6-4.9-.8-7.1z" fill="#d45500" stroke="#a40" stroke-dashoffset="2.69" stroke-linecap="round" stroke-linejoin="round" stroke-width=".7"/><path d="m950.3 344.1c-1 .6-2 .8-2.8 1.8-.6 4.9-3.4 2.5-5.8 3.9-1-1.3-2.4-3.5-3-4.7-3.6-3-4.2-.6-7.7 0 0 .8.1 1.7.3 2.3.8-.2 1.2-.4 1.9-.6 4.5-.3 5.1 2.6 7.1 5.9-4.2 6-10.8 9.3-17.5 8.3-.1.6.5 1.5.8 2.1 2.8 1 4.3 1.3 8 1.5 1.4-.9 2.7-1.1 4.4-1.3 2.1-.1 4.7-3.8 4.4-6.3 7-1.8 11.2-2.3 14.6-2 3.5-1.9 4-3.7 7.2-6.2.8-2.7-.1-5-1-7.3.5-1.6 1.2-3.1 1.4-4.5-.1-.5-1.1-2-1.4-2.4.6-2.7-1.4-3.5-2.8-5.2-.9-3.1-1.9-4.3-5.6-5.1 6.3 11.8 1.8 17.3-2.5 19.8z" opacity=".304"/></g><g id="$gold"><path d="m974.4 477.2h38.6v52.7h-38.6z" fill="#ffdd4f" stroke="#2b2200" stroke-dashoffset="2.7" stroke-linecap="round" stroke-linejoin="round" stroke-width=".3291"/><g stroke="#d4aa00"><path d="m1002 508.4a7.991 15.51 30 01-14.6 9.4 7.991 15.51 30 01.8-17.4 7.991 15.51 30 0114.8-9.4 7.991 15.51 30 01-1 17.4" fill="#ffd42a" fill-rule="evenodd" stop-color="#000000" stroke-width=".4701" style="font-variation-settings:normal"/><path d="m999.4 506.9a7.991 15.51 30 01-14.6 9.4 7.991 15.51 30 01.8-17.4 7.991 15.51 30 0114.4-9.4 7.991 15.51 30 01-.6 17.4" fill="#ffd42a" fill-rule="evenodd" stop-color="#000000" stroke-width=".4701" style="font-variation-settings:normal"/><path d="m989.3 506.9 4.7-7.5" fill="#a80" stroke-dashoffset="2.7" stroke-linecap="round" stroke-linejoin="round" stroke-width="2.115"/></g></g><g id="g_lance" fill="#fff" stroke="#000" stroke-width=".3"><path d="m661.1 558.7 2-1.8.6.5-1.9 1.8h2.2l3.9-6.1-6.8 3.5z"/><path d="m660.3 557.7v2.3h2.5l-.7.8h-1.1l-1.1 1-.4-.5-5.5 4.8-.6-.5 5.4-4.9-.4-.4 1-.9v-1.1z"/></g><g id="g_sword" fill="#fff" stroke="#000"><g stroke-width=".3"><path d="m718.1 560.7 7.3-6.7h3.3v2.9l-7.4 6.7z"/><path d="m715.8 561.3 1.1-.9 4.8 4.4-1 .9z"/><path d="m714.9 561.4 2-1.8-2.5-.4z"/><path d="m722.6 564.8-2 1.8 3 .4z"/></g><path d="m716.8 563-1.3 1.2h-2.5v4h4.5v-2.2l1.3-1.2zm-2.1 2.6h1.2v1.1h-1.2z" stroke-width=".3"/></g><g id="g_gutter" shape-rendering="auto"><path d="m1028 10.17v153.1l218-.6v-46.8c0-.7 0-1.2-1-1.7-29-14-217-104-217-104z" color="#000000" color-rendering="auto" dominant-baseline="auto" fill="#fc0" image-rendering="auto" solid-color="#000000" stop-color="#000000" stroke="#000" stroke-linecap="round" stroke-linejoin="round" stroke-width="1.134" style="font-feature-settings:normal;font-variant-alternates:normal;font-variant-caps:normal;font-variant-east-asian:normal;font-variant-ligatures:normal;font-variant-numeric:normal;font-variant-position:normal;font-variation-settings:normal;inline-size:0;isolation:auto;mix-blend-mode:normal;shape-margin:0;shape-padding:0;text-decoration-color:#000000;text-decoration-line:none;text-decoration-style:solid;text-indent:0;text-orientation:mixed;text-transform:none;white-space:normal"/><path d="m1030 13.45 214 102.4v45h-214z" color="#000000" color-rendering="auto" dominant-baseline="auto" fill="#800000" fill-opacity=".984" image-rendering="auto" solid-color="#000000" stop-color="#000000" style="font-feature-settings:normal;font-variant-alternates:normal;font-variant-caps:normal;font-variant-east-asian:normal;font-variant-ligatures:normal;font-variant-numeric:normal;font-variant-position:normal;font-variation-settings:normal;inline-size:0;isolation:auto;mix-blend-mode:normal;shape-margin:0;shape-padding:0;text-decoration-color:#000000;text-decoration-line:none;text-decoration-style:solid;text-indent:0;text-orientation:mixed;text-transform:none;white-space:normal"/></g><g id="$small-mine-wall" stroke-width="3.614"><path d="m650.4 451.3c-3.3-12.8 8.8-26.5 21.9-21 31.4 2.9 61.5-3.8 89.3-.6 6.2 6.9 7.4 24.2-.3 29.7-13.5 3.9-30-.3-45.1.1-13.3-1-66.5 5.2-65.8-8.2z" fill="#666" stroke="#1a1a1a" stroke-dashoffset="2.69" stroke-linecap="round" stroke-linejoin="round"/><path d="m755.8 453.8c-28.3.5-73.7 8.5-105.5-2.2-1 11.7 65.8 7.9 110.9 7.8 7.7-5.5 6.5-22.8.3-29.8-3.2 3.4 2.9 17.3-5.7 24.2z" opacity=".294"/></g><path id="g_check" d="m107.3 19.44-21.77 23-17.1-18.9-7.3 6.7 17.6 19.4-16.8 17.7 7.2 6.8 16.3-17.2 15.97 17.6 7.3-6.6-16.47-18.1 22.27-23.5z" color="#000000" color-rendering="auto" dominant-baseline="auto" fill="#d40000" image-rendering="auto" shape-rendering="auto" solid-color="#000000" stop-color="#000000" stroke="#000" stroke-dashoffset="2.69" stroke-linejoin="round" stroke-width=".8888" style="font-feature-settings:normal;font-variant-alternates:normal;font-variant-caps:normal;font-variant-east-asian:normal;font-variant-ligatures:normal;font-variant-numeric:normal;font-variant-position:normal;font-variation-settings:normal;inline-size:0;isolation:auto;mix-blend-mode:normal;shape-margin:0;shape-padding:0;text-decoration-color:#000000;text-decoration-line:none;text-decoration-style:solid;text-indent:0;text-orientation:mixed;text-transform:none;white-space:normal"/><path id="g_cross" d="m155.1 59.84c-4.2-4-10.6-9.42-19.7-11.5 1.5 10.92 18.3 26 21.1 26.5 11.1-20.26 27.4-41.96 34.2-55.6-14.6 10.02-30 31.4-35.5 40.6z" color="#000000" color-rendering="auto" dominant-baseline="auto" fill="#0f0" image-rendering="auto" shape-rendering="auto" solid-color="#000000" stop-color="#000000" stroke="#000" stroke-dashoffset="2.69" stroke-linecap="round" stroke-linejoin="round" stroke-width=".8232" style="font-feature-settings:normal;font-variant-alternates:normal;font-variant-caps:normal;font-variant-east-asian:normal;font-variant-ligatures:normal;font-variant-numeric:normal;font-variant-position:normal;font-variation-settings:normal;inline-size:0;isolation:auto;mix-blend-mode:normal;shape-margin:0;shape-padding:0;text-decoration-color:#000000;text-decoration-line:none;text-decoration-style:solid;text-indent:0;text-orientation:mixed;text-transform:none;white-space:normal"/><g id="$fence"><rect x="1200" y="167.1" width="21.63" height="700.6" fill="url(#pattern2065)" opacity=".999" stop-color="#000000" stroke-linecap="round" stroke-linejoin="round" stroke-width=".3238"/></g><g id="g_sign" shape-rendering="auto" stroke-width="1.851"><path d="m200.7 161.2c-1.7 0-3 1.3-3 3v70.3c0 1.7 1.3 3 3 3h113.2c1.7 0 3-1.3 3-3v-70.3c0-1.7-1.3-3-3-3z" color="#000000" color-rendering="auto" dominant-baseline="auto" fill="#deaa87" image-rendering="auto" solid-color="#000000" stop-color="#000000" stroke="#000" stroke-dashoffset="2.69" stroke-linejoin="round" style="font-feature-settings:normal;font-variant-alternates:normal;font-variant-caps:normal;font-variant-east-asian:normal;font-variant-ligatures:normal;font-variant-numeric:normal;font-variant-position:normal;font-variation-settings:normal;inline-size:0;isolation:auto;mix-blend-mode:normal;shape-margin:0;shape-padding:0;text-decoration-color:#000000;text-decoration-line:none;text-decoration-style:solid;text-indent:0;text-orientation:mixed;text-transform:none;white-space:normal"/><path d="m200.7 164.2h113.2v70.3h-113.2z" color="#000000" color-rendering="auto" dominant-baseline="auto" fill="#800000" image-rendering="auto" solid-color="#000000" stop-color="#000000" style="font-feature-settings:normal;font-variant-alternates:normal;font-variant-caps:normal;font-variant-east-asian:normal;font-variant-ligatures:normal;font-variant-numeric:normal;font-variant-position:normal;font-variation-settings:normal;inline-size:0;isolation:auto;mix-blend-mode:normal;shape-margin:0;shape-padding:0;text-decoration-color:#000000;text-decoration-line:none;text-decoration-style:solid;text-indent:0;text-orientation:mixed;text-transform:none;white-space:normal"/></g><g id="g_enemy"><g stroke="#000" stroke-width=".5618"><path d="m721.1 666.6c0 3.1-2 5.3-4.5 5.3-8.9-2-4.5-9.7.8-10.9 2.5 0 3.7 2.5 3.7 5.6zm-27.2-7.7c2.4-1.2 8-2.5 11.2 1.8 1.4-.4.8-.5 2.8-.3 4.6 5.8.7 11.1-5.5 10-6.7.6-10.1-5.5-8.5-11.5zm-6.1 27.3c.4 17.7 11.2 14.5 10.8.8-.2-2.4-1.1-5.1-1.8-6-2 1.5-7 3.9-9 5.2zm-15.2 1.6c-.9 2.7-.2 8.7 4 8.5 2.8-.2 6.3-2.8 6.2-6.3-.5-7.9-7.2-4-10.2-2.2zm2.3-14.7c-4.5 0-8.1-3-8.1-6.7s3.6-6.7 8.1-6.7" fill="#fca" fill-rule="evenodd" stop-color="#000000" style="font-variation-settings:normal"/><path d="m706.5 670.4c2.5-4.4 1.5-7.6 1.4-10.1 3-.7 6.8 1.2 6.4 7.5-.2 3.8-5.3 3.8-7.8 2.6zm-7.6 20.9c.9 3 1.2 7.6 1.1 10.5 9.5 8.5-13.9 6.9-13.6.5.8-2.5.3-7.2 1.6-10.3 5.5 2 7.2.5 10.9-.7zm-26.8.8c-.9 3.1-.7 6.2-.6 9.2-9.5 8.4 13.5 6.3 13.2 1.6-.9-2.5-.2-8.6-1.5-11.6-5.8 2.3-5.3 2.1-11.1.8zm3.6-30.9c-4.3 18.2 1.5 26.8 21.8 18.3-1.5-5.5-.5-4.1-.3-8.5-.6-4.2.7-10.1-5-10.6-4.9.7-11.5.5-16.4.8z" fill="#502d16" stroke-dashoffset="2.69" stroke-linejoin="round"/><path d="m681 686.9c.8 1.7 4.1 1.4 6.1 1.2 3.1-2.2 5.9-3 9.7-5.6 1.8-1.2 1.1-3.5-1.1-2.5-7.9 1.4-14.3 3.9-14.7 6.9z" fill="#04a" stroke-dashoffset="2.69" stroke-linejoin="round"/><path id="$armor.fx" d="m687 677.9c0 7.2-6.8 13.1-15.1 13.1-8.4 0-15.2-5.9-15.2-13.1s6.8-13.1 15.2-13.1c8.3 0 15.1 5.9 15.1 13.1m7.3-16.5c-.1-11.3-1.3-22.1-10.8-21.4-11 .8-9.8 15.3-8.8 24.1 2.4 1.1 8 1.8 10.3 1.7 3.6-.4 7.5-2.2 9.3-4.4z" fill="#d4aa00" fill-rule="evenodd" stop-color="#000000" style="font-variation-settings:normal"/></g><path d="m682.4 655.4 3.6-.1-.2-4.5s5.4-.2 6.2 1.9c1.5 3.9-5.5 4.1-5.5 4.1l.5 8.9h-4.4l-.2-8.8s-6.3.9-6-3.7c.1-1.9 5.8-2.2 5.8-2.2z" stroke="#28170b" stroke-dashoffset="2.69" stroke-linejoin="round" stroke-width=".1872"/><path d="m717.5 633.8c3.9-6.6 4.9-14.7 8.1-22.6 5.2 9.3 2.6 27.6 0 38.2-4.6.6-4.8 7.5-5.6 11.8-1.1 1.5-4.1-.7-4.1-.7s3.8-20.6 1.6-26.7z" fill="#afc6e9" stroke="#000" stroke-dashoffset="2.69" stroke-linejoin="round" stroke-width=".5618"/><path d="m689.6 653.6a.8389.8389 0 01-.8.9.8389.8389 0 01-.8-.9.8389.8389 0 01.8-.8.8389.8389 0 01.8.8m-9.1.2a.8389.8389 0 01-.8.8.8389.8389 0 01-.9-.8.8389.8389 0 01.9-.9.8389.8389 0 01.8.9z" fill="#f00" fill-rule="evenodd" stop-color="#000000" stroke-width="0" style="font-variation-settings:normal"/><rect transform="rotate(7.823)" x="796.5" y="556.1" width="10.14" height="2.717" fill="#fc0" stroke="#000" stroke-dashoffset="2.69" stroke-linejoin="round" stroke-width=".5529"/></g><ellipse cx="1018" cy="341.7" rx="20.97" ry="18.83" fill="#540000" opacity=".999" stop-color="#000000"/><ellipse cx="1018" cy="334.6" rx="25.8" ry="21.75" fill="#fc0" opacity=".999" stop-color="#000000" stroke="#000" stroke-linecap="round" stroke-linejoin="round" stroke-width=".5"/><path d="m1010 314.2-1 8.8-13.2 1 7.2 6.9-9.6 9 13.6-.5-1 14.1 11-9.2 9 10.3 1-13.4 14 1.5-8-9 9-6.5-13-2.4-1-9.4-7 4.3-4-.8z" fill="#800000" stroke-dashoffset="2.694" stroke-width="2.646"/><ellipse cx="1018" cy="329.5" rx="14.15" ry="11.85" fill="#800000" opacity=".999" stop-color="#000000" stroke="#000" stroke-linecap="round" stroke-linejoin="round" stroke-width=".5"/><ellipse cx="1018" cy="329.1" rx="12" ry="9.7" fill="#600" opacity=".999" stop-color="#000000"/><g transform="translate(-70.5,-1.5)"><path d="m1195 457.3-64-61.5v-4.1l63 .3z" fill="#a68400" stroke="#000" stroke-width=".9946px"/><path d="m1195 454.3-64-62.7h64z" fill="#fc0" opacity=".999" stop-color="#000000" stroke="#000" stroke-linecap="round" stroke-linejoin="round"/><path d="m1193 450.1-58-57h58z" fill="#800000" opacity=".999" stop-color="#000000"/></g><g id="g_axe" fill="#fff" stroke="#000"><path d="m695.5 555.3c.2-.3.6-.2.8 0 .3.2.3.4.1.7l-8.4 8.4c.4.2.2.6-.1.8-1.1 1.1-3.3 3.7-3.5 3.6-.4 0-1.6-1.1-1.6-1.4-.2-.3 2.6-2.7 3.7-3.8.2-.2.6.2.6.2 2.8-2.8 5.6-5.6 8.4-8.5z" stroke-width=".3"/><path d="m693.2 560.2 2.9-3c1 .2 1.7-.1 2.5-.6.5 4.1-2.4 6.1-5.9 5.8.7-.7.7-1.5.5-2.2z" stroke-width=".3"/><path d="m694 555.6-3 3.2c-1.1-.3-1.9.1-2.7.6-.6-4.5 1.5-6.6 6.3-6.1-.8.7-.8 1.6-.6 2.3z" stroke-width=".318"/></g></g><g id="$layer2" display="none"><path id="$kicker.collider.3" d="m616.5 11.74 69.5 113.9-15.2 4-62.4-103z"/><path id="$kicker.collider.1" d="m616.5 11.64-8.3-3.601-7.6 6.001v77.6h14.2z"/><path id="$kicker.collider.2" d="m600.5 91.64 73.7 44.96 8.4-2 3.1-9-73.3-41.96z"/><path id="$bend.2.collider" d="m730.3 10.77h12.5v169.7l-12.8-5z"/><path id="$bend.1.collider" d="m733.8 178.9 147.8 86.7 6.7-11-146.2-84.7z"/><path id="$flipper.collider" d="m926.7 23.54 5-3.9 6-.7 52.2 41.4.7 7.5-4.6 3.8h-6.1l-52.9-30.9-3.9-7.9z"/><path id="$ball.collider" d="m682.6 358.3-3 3-3 2.2-3 1.3-4 .3-4-.6-3-1.6-3-2.5-3-3.1-1-3.6v-7.6l2-3.4 2-3 4-2.2 3-1.3 4-.3 4 .6 3 1.6 3 2.5 2 3.1 2 3.6v3.8l-1 3.8z"/><path id="$fence.collider" d="m1204 202.2h13v665.3h-13z"/><path id="$plunger.collider" d="m715.5 341.6h53v18.2h-53z"/><path id="$tree.collider" d="m808.9 274.3h54.5v98.3h-54.5z"/><path id="$iron.collider" d="m921.8 324.1h41.2v40.9h-41.2z"/><path id="$bumper.collider" d="m997.6 350.9-4-14.2 4-14.3 12.4-9h15l13 8.8 4 14.3-4 14.3-12 8.9h-16z"/><path id="$top-wall.collider" d="m1266 0h800v100h-800z"/><path id="$left-wall.collider" d="m1266 100h100v800h-100z"/><path id="$right-wall.collider" d="m1966 100h100v800h-100z"/><path id="$gold.collider" d="m974.2 477.3h38.8v52.5h-38.8z"/><path id="$enemy.collider" d="m665.1 636.3h56.9v71.5h-56.9z"/><path id="$small-mine-wall.collider" d="m649.6 428.6h117v31.4h-117z"/><path id="$deflector.collider" d="m1065 392.7 61 59.1v-59.6z"/><path id="$gutter.collider" d="m1027 10v152.9h218v-49z"/></g></svg>
