<?xml version="1.0" encoding="UTF-8" standalone="no"?>
<svg
   xmlns:dc="http://purl.org/dc/elements/1.1/"
   xmlns:cc="http://creativecommons.org/ns#"
   xmlns:rdf="http://www.w3.org/1999/02/22-rdf-syntax-ns#"
   xmlns:svg="http://www.w3.org/2000/svg"
   xmlns="http://www.w3.org/2000/svg"
   xmlns:xlink="http://www.w3.org/1999/xlink"
   xmlns:sodipodi="http://sodipodi.sourceforge.net/DTD/sodipodi-0.dtd"
   xmlns:inkscape="http://www.inkscape.org/namespaces/inkscape"
   width="2066"
   height="900"
   viewBox="0 0 2066 900"
   version="1.1"
   id="svg1070"
   inkscape:version="1.0 (4035a4fb49, 2020-05-01)"
   sodipodi:docname="atlas.svg">
  <defs
     id="defs1064">
    <pattern
       patternTransform="matrix(1,0,0,1.165,1092,166.7)"
       id="pattern2065"
       xlink:href="#pattern1097"
       inkscape:collect="always" />
    <radialGradient
       id="radialGradient6087-1"
       cx="285.3"
       cy="93.49"
       r="78.39"
       gradientTransform="matrix(0.2322,0,0,0.2135,601,327.4)"
       gradientUnits="userSpaceOnUse">
      <stop
         stop-color="#fff"
         offset="0"
         id="stop10077" />
      <stop
         stop-color="#fff"
         offset=".49493"
         id="stop10079" />
      <stop
         stop-color="#bababa"
         offset=".62372"
         id="stop10081" />
      <stop
         offset=".75109"
         id="stop10083" />
      <stop
         stop-color="#fff"
         offset="1"
         id="stop10085" />
    </radialGradient>
    <radialGradient
       id="radialGradient6065-2"
       cx="117.7"
       cy="103.6"
       r="78.39"
       gradientTransform="matrix(-0.2505,0,0,-0.2538,699.4,376.8)"
       gradientUnits="userSpaceOnUse">
      <stop
         stop-color="#fff"
         stop-opacity="0"
         offset="0"
         id="stop10066" />
      <stop
         stop-color="#6c6c6c"
         stop-opacity="0"
         offset=".61894"
         id="stop10068" />
      <stop
         stop-color="#43434f"
         offset=".69913"
         id="stop10070" />
      <stop
         stop-color="#fff"
         stop-opacity="0"
         offset=".81967"
         id="stop10072" />
      <stop
         stop-color="#5d5d5d"
         offset="1"
         id="stop10074" />
    </radialGradient>
    <filter
       color-interpolation-filters="sRGB"
       height="1.11"
       width="1.11"
       y="-0.05506"
       x="-0.05475"
       id="filter1385">
      <feGaussianBlur
         id="feGaussianBlur5"
         stdDeviation="4.5858825" />
    </filter>
    <filter
       color-interpolation-filters="sRGB"
       height="1.648"
       width="1.594"
       y="-0.3239"
       x="-0.2969"
       id="filter1033">
      <feGaussianBlur
         id="feGaussianBlur2"
         stdDeviation="0.32272887" />
    </filter>
    <filter
       color-interpolation-filters="sRGB"
       height="1.648"
       width="1.594"
       y="-0.3239"
       x="-0.2969"
       id="filter1813">
      <feGaussianBlur
         id="feGaussianBlur1811"
         stdDeviation="0.32272887" />
    </filter>
    <filter
       color-interpolation-filters="sRGB"
       height="1.144"
       width="1.111"
       y="-0.07209"
       x="-0.05554"
       id="filter1397">
      <feGaussianBlur
         id="feGaussianBlur8"
         stdDeviation="1.7859282" />
    </filter>
    <pattern
       id="pattern1097"
       patternTransform="translate(1286,292.1)"
       height="137.4"
       width="21.6"
       patternUnits="userSpaceOnUse">
      <g
         transform="matrix(2.624,0,0,3.789,-2.755,-4.547)"
         stroke="#28170b"
         id="g1079">
        <path
           d="m 1.32,3.44 v 18.8 c 1.28,0.91 2.57,1.42 3.97,1.36 1.26,-0.1 1.98,-0.52 3.48,-1.52 L 9.031,3.58 Z"
           fill="#552200"
           stroke-dashoffset="2.69"
           stroke-linejoin="round"
           stroke-width="0.5"
           id="path1073" />
        <ellipse
           cx="5.14"
           cy="3.55"
           rx="3.84"
           ry="2.1"
           fill="#e9c6af"
           fill-rule="evenodd"
           stop-color="#000000"
           stroke-width="0.5"
           style="font-variation-settings:normal"
           id="ellipse1075" />
        <path
           d="M 6.13,12.9 V 37.2 H 4.26 V 12.9 c 0.08,-0.1 0.811,-0.35 0.941,-0.36 0.129,0 0.711,0.16 0.93,0.36 z"
           fill="#552200"
           stroke-dashoffset="2.69"
           stroke-linejoin="round"
           stroke-width="0.5"
           id="path1077" />
      </g>
    </pattern>
  </defs>
  <sodipodi:namedview
     id="namedview23"
     inkscape:document-rotation="0"
     showgrid="false"
     inkscape:zoom="1.032"
     inkscape:cx="648.3"
     inkscape:cy="338.7"
     inkscape:window-width="1920"
     inkscape:window-height="1017"
     inkscape:window-x="-8"
     inkscape:window-y="-8"
     inkscape:window-maximized="1"
     inkscape:current-layer="kicker"
     inkscape:snap-global="false" />
  <metadata
     id="metadata1067">
    <rdf:RDF>
      <cc:Work
         rdf:about="">
        <dc:format>image/svg+xml</dc:format>
        <dc:type
           rdf:resource="http://purl.org/dc/dcmitype/StillImage" />
        <dc:title />
      </cc:Work>
    </rdf:RDF>
  </metadata>
  <g
     style="display:inline"
     id="layer1"
     inkscape:groupmode="layer"
     inkscape:label="atlas">
    <g
       id="bend">
      <path
         id="path1115"
         stroke-width="1.88976"
         stroke-linejoin="round"
         stroke-linecap="round"
         stroke-dashoffset="2.69"
         stroke="#000000"
         fill="#999999"
         d="m 879,263.3 -144.3,-84 c -2.2,-2.2 -3.9,-2.9 -4,-7.2 L 731.2,16 c 0,-2.5 3,-5.1 5.6,-4.9 2.8,0.1 5.8,2 5.7,5 l -0.8,151.2 c 0,1.2 -0.3,3.3 1.2,4.2 L 885,253.2 c 3.3,2.5 2.8,6.3 1.2,8.4 -1.6,2.1 -5.1,2.9 -7,1.5"
         sodipodi:nodetypes="cccsscsscsc" />
    </g>
    <g
       id="kicker">
      <path
         style="display:inline"
         id="path1676"
         stroke-width="0.847"
         stroke-linecap="square"
         stroke-dashoffset="2.694"
         stroke="#000000"
         fill="#ffcc00"
         d="M 601.4,102.4 V 87.9 l 9.4,3.1 1.3,11.6 c -0.2,1.4 0.2,3.8 -1.1,4.3 -0.5,0.3 -2.3,1.6 -5.6,1.3 -3.2,-0.4 -4.2,-3.5 -4,-5.8 z" />
      <path
         style="display:inline"
         id="path1678"
         stroke-width="0.847"
         stroke-linecap="square"
         stroke-dashoffset="2.694"
         stroke="#000000"
         fill="#ffcc00"
         d="m 685.8,142.3 v -14.4 l -11.2,2.8 -0.3,12.4 c 0,1.5 0.8,2.8 1.9,3.8 1.3,1.4 4.5,1.6 5.6,1.3 2.8,-0.7 4.2,-3.5 4,-5.9 z" />
      <path
         style="display:inline;fill:#aa8800"
         d="m 674.4,142.4 c 1.7,0.3 5.8,0.9 9.4,-2.5 0.7,-0.7 2.3,-4.2 1.9,-6.4 0,-1.6 -0.3,-3.1 -1.1,-4.5 L 618.5,17.6 c -0.6,-1.4 -0.9,-2.4 -3,-4.2 -1.8,-1.4 -4.9,-2.2 -7.1,-1.8 -4,0.7 -7.4,4.7 -7.1,9 l 0.2,72.3 c 0.4,4.1 2.1,5.9 4.8,8.1 10.2,6.7 48.3,29.2 68.1,41.4 z"
         stroke="#000000"
         stroke-dashoffset="2.694"
         stroke-width="1.0118"
         id="path1684" />
      <path
         id="kicker.fx"
         stroke-dashoffset="2.694"
         stroke="#000000"
         fill="#ffcc00"
         d="m 674.4,136.4 c 1.7,0.3 5.8,0.9 9.4,-2.5 0.7,-0.6 2.3,-4 1.9,-6.2 0,-1.6 -0.3,-3.1 -1.1,-4.4 L 618.5,14.4 c -0.6,-1.2 -0.9,-2.3 -3,-4 -1.8,-1.4 -4.9,-2.2 -7.1,-1.8 -4,0.7 -7.4,4.7 -7.1,8.8 l 0.2,70.7 c 0.4,3.8 2.1,5.7 4.8,7.9 10.2,6.5 48.3,28.5 68.1,40.4 z"
         style="display:inline" />
      <path
         id="path1690"
         stroke-width="0.7"
         stroke-dashoffset="2.694"
         stroke="#000000"
         fill="#800000"
         d="m 604.6,87.6 0.1,1.1 v 0.2 c 0.1,0.3 0.3,0.6 0.3,0.9 0.2,0.3 0.4,0.7 0.6,0.9 0.2,0.3 0.5,0.6 0.7,0.9 0.3,0.1 0.5,0.3 0.8,0.6 l 65.7,38.9 0.3,0.1 c 0.2,0.3 0.4,0.4 0.6,0.5 0.4,0.2 0.7,0.4 1,0.6 0.4,0.2 0.7,0.3 1.2,0.4 0.3,0.1 0.6,0.1 1,0.1 0.1,0 0.3,0 0.4,0 0.2,0 0.5,-0.1 0.7,-0.1 0.3,-0.1 0.8,-0.2 1.1,-0.3 0.3,-0.3 0.7,-0.4 0.9,-0.6 0.3,-0.2 0.7,-0.6 0.9,-0.8 0,-0.1 0.1,-0.1 0.1,-0.1 0.2,-0.3 0.3,-0.5 0.6,-0.8 0.1,-0.3 0.2,-0.6 0.3,-1 0.1,-0.3 0.2,-0.8 0.2,-1.1 0,-0.3 0,-0.7 0,-1.1 -0.1,-0.4 -0.1,-0.7 -0.2,-1.1 -0.1,-0.4 -0.2,-0.7 -0.4,-1 -0.2,-0.2 -0.2,-0.4 -0.3,-0.5 l -0.3,-0.6 -2.4,-3.8 -1.6,-2.8 -2.4,-3.9 -1.7,-2.8 -1.8,-2.9 -2.3,-3.8 -1.7,-2.9 -2.3,-3.8 -0.6,-0.9 -0.7,-1 -0.5,-0.9 -1.7,-2.9 -2.4,-3.8 -1.8,-3 -1.6,-2.9 -2.4,-3.8 -1.9,-2.8 -37,-61 c -0.1,-0.1 -0.1,-0.2 -0.2,-0.3 -0.2,-0.3 -0.4,-0.5 -0.7,-0.8 -0.3,-0.2 -0.6,-0.4 -0.9,-0.6 -0.4,-0.1 -0.7,-0.2 -1.1,-0.3 -0.4,-0.2 -0.7,-0.2 -1.1,-0.2 0,0 -0.1,0 -0.1,0 -0.4,0 -0.7,0 -1,0.1 -0.4,0.1 -0.7,0.2 -1.1,0.3 -0.3,0.1 -0.6,0.3 -0.9,0.6 -0.3,0.2 -0.6,0.4 -0.9,0.7 -0.2,0.2 -0.4,0.6 -0.6,0.9 -0.2,0.3 -0.4,0.6 -0.6,1 -0.1,0.3 -0.2,0.7 -0.3,1 0,0.2 0,0.4 0,0.5 v 0.7 2.2 1.1 3.4 1.1 3.4 1.1 3.3 1.2 4.4 1.2 3.3 1.1 3.4 1.1 3.4 1.1 3.4 1.1 4.5 1.1 3.3 1.2 3.3 1.1 3.4 1.1 4.5 1.1 3.4 1.1 0.7 0.4"
         style="display:inline" />
      <path
         id="helmet.fx"
         opacity="0.70915"
         fill="#ffcc00"
         d="m 635.9,58.8 -1.6,9.2 c 0.7,0.3 3,1.4 3.7,4 l 4,1.7 -0.7,9.4 0.7,5.1 -7.9,12.5 V 84 c 0.7,-0.4 1.3,-0.7 1.9,-0.9 0.9,-0.7 3.4,-1.9 3.2,-3 -0.1,-1.4 -6.1,-1.9 -6.1,0.2 -0.1,0.7 0.2,7.4 -1.1,7.6 -0.9,0 -1.2,-2.8 -1.2,-3.2 0,-0.6 -0.1,-1.1 -0.1,-1.7 -0.1,-1 0.3,-3.2 -0.4,-3.5 -1.1,-0.8 -3.6,-1 -5.2,0 -0.2,0.1 -0.5,0.2 -0.5,0.6 0,0.9 0.7,1.4 1.3,1.8 0.6,0.4 1.4,0.9 1.9,1.2 0.2,0.2 1.4,0.5 1.8,0.9 l 0.1,16.8 -8,-12.7 0.9,-4.9 -0.8,-9.5 4,-1.6 c 0.4,-1.5 1.7,-3.4 3.6,-4 l -1.5,-9.3 c 0.6,-0.1 1.4,-0.2 1.9,-0.2 0.7,0 2.5,-0.2 3.8,0 0.8,0.1 1.7,0.1 2.3,0.2 z"
         style="display:inline" />
    </g>
    <g
       id="flipper">
      <path
         id="path1754"
         style="font-variation-settings:normal;display:inline;vector-effect:none;fill:#800000;fill-opacity:1;fill-rule:evenodd;stroke:#000000;stroke-width:0.176531;stroke-linecap:butt;stroke-linejoin:miter;stroke-miterlimit:4;stroke-dasharray:none;stroke-dashoffset:0;stroke-opacity:1;stop-color:#000000"
         d="m 924,34.4 c 0.6,4.3 3.3,7.9 7,9.6 l 47.8,28.1 c 1.3,0.8 2.7,1.2 4.1,1.2 4.1,0 7.5,-3.5 7.5,-7.8 0,-0.7 -0.1,-1.5 -0.3,-2.2 0,0.2 0,0.5 0,0.7 0,4.3 -3.4,7.8 -7.5,7.8 -1.4,0 -2.8,-0.5 -4,-1.3 L 930.7,42.4 C 927.4,40.9 925,38 924,34.4 Z" />
      <path
         d="m 924,34.4 c 0.6,4.3 3.3,7.9 7,9.6 l 47.8,28.1 c 1.3,0.8 2.7,1.2 4.1,1.2 4.1,0 7.5,-3.5 7.5,-7.8 0,-0.7 -0.1,-1.5 -0.3,-2.2 0,0.2 0,0.5 0,0.7 0,4.3 -3.4,7.8 -7.5,7.8 -1.4,0 -2.8,-0.5 -4,-1.3 L 930.7,42.4 C 927.4,40.9 925,38 924,34.4 Z"
         style="font-variation-settings:normal;display:inline;opacity:0.352941;vector-effect:none;fill:#000000;fill-opacity:1;fill-rule:evenodd;stroke:none;stroke-width:0.588288;stroke-linecap:butt;stroke-linejoin:miter;stroke-miterlimit:4;stroke-dasharray:none;stroke-dashoffset:0;stroke-opacity:1;stop-color:#000000"
         id="path1756" />
      <path
         id="path1758"
         style="font-variation-settings:normal;display:inline;vector-effect:none;fill:#800000;fill-opacity:1;fill-rule:evenodd;stroke:#000000;stroke-width:0.588437;stroke-linecap:butt;stroke-linejoin:miter;stroke-miterlimit:4;stroke-dasharray:none;stroke-dashoffset:0;stroke-opacity:1;stop-color:#000000"
         d="m 935.3,18.8 c -6.4,0 -11.7,5.6 -11.7,12.3 0,4.9 2.8,9.4 7.1,11.3 l 47.9,28.1 c 1.2,0.8 2.6,1.3 4,1.3 4.1,0 7.5,-3.5 7.5,-7.8 0,-2.4 -1,-4.6 -2.7,-6.1 v 0 L 943,21.8 c -0.3,-0.3 -0.6,-0.5 -0.9,-0.7 l -0.4,-0.4 v 0.1 c -1.9,-1.3 -4.1,-2 -6.3,-2 z" />
      <path
         id="path1760"
         style="font-variation-settings:normal;display:inline;vector-effect:none;fill:#ffcc00;fill-opacity:1;fill-rule:evenodd;stroke:#000000;stroke-width:0.178297;stroke-linecap:butt;stroke-linejoin:miter;stroke-miterlimit:4;stroke-dasharray:none;stroke-dashoffset:0;stroke-opacity:1;stop-color:#000000"
         d="m 927,29.7 c 0,0.2 0,0.5 -0.1,0.8 0,2.8 1.3,5.5 3.5,7.1 v 0.1 l 50.5,29.5 v 0 c 0.6,0.4 1.2,0.6 1.9,0.6 1.9,0 3.4,-1.7 3.4,-3.8 0.1,-0.4 0,-0.7 -0.1,-1.1 0,2.1 -1.5,3.7 -3.4,3.7 -0.6,0 -1.3,-0.2 -1.8,-0.6 v 0.1 L 930.4,37 v -0.1 c -2.1,-1.5 -3.5,-4.2 -3.5,-7.1 0,0 0,-0.1 0,-0.1 z" />
      <path
         d="m 927,29.7 c 0,0.2 0,0.5 -0.1,0.8 0,2.8 1.3,5.5 3.5,7.1 v 0.1 l 50.5,29.5 v 0 c 0.6,0.4 1.2,0.6 1.9,0.6 1.9,0 3.4,-1.7 3.4,-3.8 0.1,-0.4 0,-0.7 -0.1,-1.1 0,2.1 -1.5,3.7 -3.4,3.7 -0.6,0 -1.3,-0.2 -1.8,-0.6 v 0.1 L 930.4,37 v -0.1 c -2.1,-1.5 -3.5,-4.2 -3.5,-7.1 0,0 0,-0.1 0,-0.1 z"
         style="font-variation-settings:normal;display:inline;opacity:0.359477;vector-effect:none;fill:#000000;fill-opacity:1;fill-rule:evenodd;stroke:none;stroke-width:0.413911;stroke-linecap:butt;stroke-linejoin:miter;stroke-miterlimit:4;stroke-dasharray:none;stroke-dashoffset:0;stroke-opacity:1;stop-color:#000000"
         id="path1762" />
      <path
         id="path1764"
         style="font-variation-settings:normal;display:inline;vector-effect:none;fill:#ffcc00;fill-opacity:1;fill-rule:evenodd;stroke:#000000;stroke-width:0.411906;stroke-linecap:butt;stroke-linejoin:miter;stroke-miterlimit:4;stroke-dasharray:none;stroke-dashoffset:0;stroke-opacity:1;stop-color:#000000"
         d="m 934.5,21.4 c -4.1,0 -7.5,3.8 -7.5,8.4 0,2.9 1.3,5.6 3.5,7.1 V 37 l 50.4,29.1 V 66 c 0.6,0.4 1.2,0.6 1.8,0.6 0.9,0.1 1.8,-0.3 2.4,-1 0.7,-0.7 1.1,-1.7 1.1,-2.7 0,-1.5 -0.8,-2.9 -2,-3.5 V 59.3 L 939.7,23.7 c -0.5,-0.5 -1,-0.9 -1.5,-1.2 v 0 0 c -1.1,-0.7 -2.3,-1.1 -3.6,-1.1 z" />
    </g>
    <g
       id="ball">
      <circle
         cx="669.9"
         cy="350.6"
         r="14.54"
         fill="url(#radialGradient6087)"
         stroke="#b0b0b0"
         stroke-width="0.0562974"
         id="circle10092"
         style="fill:url(#radialGradient6087-1)" />
      <circle
         cx="669.9"
         cy="350.6"
         r="14.54"
         fill="url(#radialGradient6065)"
         stroke="#000000"
         stroke-width="0.0562974"
         id="circle10094"
         style="fill:url(#radialGradient6065-2)" />
      <path
         d="m 656.6,356.5 a 14.54,14.54 0 0 0 13.3,8.5 14.54,14.54 0 0 0 12.6,-7.4 21.31,14.33 0 0 1 -11.9,2.5 21.31,14.33 0 0 1 -14,-3.6 z"
         fill="#f2f2f2"
         opacity="0.20513"
         id="path10096"
         style="stroke-width:0.1858" />
    </g>
    <g
       id="g4148">
      <path
         id="plunger"
         style="display:inline;fill:#800000;fill-opacity:1;stroke:none;stroke-width:0;stroke-linecap:round;stroke-linejoin:round;stop-color:#000000"
         d="m 715.5,341.6 h 53 v 18.2 h -53 z" />
    </g>
    <g
       id="tree">
      <path
         id="rect2139"
         style="fill:#502d16;stroke:#28170b;stroke-width:0.8147;stroke-linecap:round;stroke-linejoin:round;stroke-dashoffset:2.69"
         d="m 826.4,346.3 h 19.7 v 26.1 h -19.7 z" />
      <path
         style="stroke-width:0.8147;stroke-linecap:round;stroke-linejoin:round;stroke-dashoffset:2.69"
         id="path2141"
         stroke="#677821"
         fill="#89a02c"
         d="m 816.4,324.2 -7,13.7 -10,16 9.9,-3.3 8.8,-4.3 10.6,12.3 13.8,-9.7 16.4,8.4 2.6,-8.6 8.5,2.9 -10.1,-15.5 -9.2,-19.4 z" />
      <path
         style="stroke-linecap:round;stroke-linejoin:round;stroke-dashoffset:2.69"
         id="path2143"
         stroke-width="0.816102"
         stroke="#89a02c"
         fill="#abc837"
         d="m 844.1,300.5 -19.9,3.8 -6,11.9 -9.1,15.3 8.7,-4.8 5.5,6.9 4.8,-7.7 6.7,12.6 8.1,-12.4 5.3,8.5 4,-9.7 10.6,6.7 z" />
      <path
         style="stroke-width:0.8147;stroke-linecap:round;stroke-linejoin:round;stroke-dashoffset:2.69"
         id="path2145"
         stroke="#abc837"
         fill="#bcd35f"
         d="m 817.7,311.6 c 2.8,-1 6.8,-2.8 9.5,-4.9 3.1,2.7 4.8,7.6 8.6,10.5 1.6,0 4,-11 5.2,-10.7 4,1.4 8.5,3.9 12.9,5.8 -1.6,-4.7 -8.3,-16.6 -9.6,-19.4 -3.2,-6.7 -5.1,-11.5 -8.7,-18.2 -2,3.9 -5.7,11.6 -7.9,17.6 z" />
      <path
         style="stroke-width:0.8147;stroke-linecap:round;stroke-linejoin:round;stroke-dashoffset:2.69"
         d="m 835.5,274.6 13.1,33.1 -4,-1.6 -5.2,-2.2 -3.4,12.8 5.5,-8.8 5.4,2.2 8.1,13.9 -3.9,-0.9 -0.4,-0.3 -3.1,8 -4.6,-7.4 -8.6,14 8.7,-8.6 4.8,7.1 4.8,-8.4 4.4,10.7 5.6,7.4 -4.5,-1.5 -1.7,7.8 -13.3,-5.3 -14.6,11.9 14.6,-6.8 v 20.1 h 2.8 v -21.3 l 12.9,6.7 2.6,-8.7 8.4,2.8 -10,-15.4 -4.3,-9 6.9,4.4 -12.5,-20.9 c 1.3,0.6 2.6,1.2 3.8,1.8 -1.5,-4.8 -8.3,-16.6 -9.6,-19.4 -3.2,-6.7 -5,-11.6 -8.6,-18.2 z"
         opacity="0.449"
         stroke="#000000"
         id="path2149" />
    </g>
    <g
       id="iron">
      <path
         d="m 931.3,347.4 c -0.4,-1.3 -0.5,-3.3 -0.4,-4.4 0.7,-1.3 2,-2.7 1.9,-3.4 0.1,-1.9 -1.2,-4.7 -1,-6.3 0.9,-1.5 1.5,-1.9 2.5,-3.1 1.8,-1.6 2.9,-2.8 4.7,-3.8 1.1,-0.4 4.8,-0.2 6,-0.1 3.7,-0.1 5.6,-1.3 7.8,-2 2.8,0.2 4.2,1.5 4.7,2.2 0.7,0.9 -0.1,1.2 0.9,2.9 1.2,1.2 2.1,1.9 3.2,3.3 -0.1,1.1 -0.2,0.8 -0.4,1.9 0.4,0.4 1.3,1.8 1.4,2.4 -0.2,1.1 -0.1,1.7 -0.7,2.5 -0.4,0.6 -0.6,1.6 -0.7,2 0.2,0.8 1.2,2 1.3,3.5 0,0.7 0,3.2 -0.2,3.7 -1.4,1 -3.1,2.6 -3.9,3.8 -1.7,1.8 -1.2,1.3 -3.3,2.4 -0.9,0.5 -4,0.1 -4.9,0.1 -3.5,0.7 -5.6,1 -9.8,1.9 0,0.5 0.1,0.8 0.1,1.2 -0.1,0.6 -1.9,3.6 -2.3,4.2 -0.3,0.5 -1.7,0.8 -2.2,0.9 -0.5,0.1 -1.7,0.3 -2.2,0.3 -0.5,0 -1.6,0.9 -2.2,1 -0.6,0.2 -2.7,-0.1 -3.3,0.1 -0.3,0.1 -1,-0.7 -1.2,-0.7 -2.3,-0.4 -1.7,0.1 -3.4,-0.9 -0.6,-0.8 -0.8,-1.5 -0.9,-1.9 -0.2,-0.6 0.2,-1.3 0.1,-1.9 -0.3,-0.4 -0.7,-0.7 -0.6,-1.2 0.2,-1.2 1.3,-2.1 1.5,-3.1 -0.3,-1.4 -0.8,-3.3 0,-4.3 0.4,-0.6 1.2,-1.1 1.8,-1.4 0.2,-0.1 1.9,0.1 2,0 0.8,-0.9 0.8,-1 1.6,-1.9 0.6,-0.2 0.4,0.5 2.2,0.1 z"
         fill="#999999"
         stroke="#333333"
         stroke-dashoffset="2.69"
         stroke-linecap="round"
         stroke-linejoin="round"
         stroke-width="0.7"
         id="path2196" />
      <path
         d="m 925.1,357.5 c 0,-0.5 0.8,-1.7 1.5,-1.4 0.3,0.1 0.5,0.7 0.7,0.8 0.4,0.1 1.5,0.4 1.6,1.1 0.1,0.5 -0.6,1.3 -0.9,1.7 -0.1,0.2 -1.7,0.2 -1.7,0.2 -0.3,-0.2 -0.1,-0.8 -0.3,-1.1 -0.6,-0.7 -0.9,-0.9 -0.9,-1.3 z m 4.7,-6.3 c 0.3,-0.2 0.8,-1.6 1.4,-1.8 0.6,-0.3 1,0.7 1.2,0.9 0.4,0.3 1,0.2 1.3,0.5 0.2,0.1 0.1,0.5 0.3,0.7 0.1,0.1 0.6,0.2 0.6,0.5 0,0.4 -0.5,0.8 -0.7,1.2 -0.3,0.7 -0.5,2.4 -1.7,1.6 -1.7,-1.2 -4.6,-2.2 -2.4,-3.6 z m 15.6,-12.5 c 0.4,-0.3 1.5,-0.9 1.9,-0.9 0.3,0.1 1.4,1.8 2.7,2 0.1,0.9 0,1.2 -0.7,1.7 -0.2,0.1 -0.5,0.8 -0.9,0.9 -0.1,0 -1.6,0.4 -1.7,0.3 -0.4,-1.3 -0.3,-1.9 -0.8,-2.3 -0.8,-0.5 -1,-0.6 -0.5,-1.7 z m 1.8,-8.7 c 0.2,1.5 1.2,3.8 1.9,3.9 0.4,0.2 1,-0.6 1.4,-0.8 1,-0.7 2.5,-1.1 2.3,-1.5 -0.2,-0.7 -0.2,-0.7 -0.6,-1.3 0,-0.9 -0.8,-0.5 -1.3,-1 -0.2,-0.2 -0.4,-0.4 -0.5,-0.6 -0.3,-0.4 -0.3,-0.2 -0.8,-0.6 -0.4,0.3 -1.2,0.5 -1.8,0.9 -0.4,0.2 -0.5,0.6 -0.6,1 z m -10.5,3.7 c 0.1,-0.6 0.1,-1.2 0.5,-1.6 1.3,-1.3 5.2,-2.3 6,-1.9 0.4,0.2 -0.1,1.5 0,1.9 0.2,0.8 0.7,0.6 1,1.5 0.2,0.5 -0.6,0.9 -0.5,1.5 0.1,0.7 0.9,1.3 -0.8,1.9 -0.6,0.2 -1.6,1.1 -2.1,1.5 -1.3,1 -1.6,1.9 -2.8,0.7 -0.7,-0.8 -0.2,-2.6 -0.3,-3.1 -0.2,-0.6 -0.7,-0.6 -1,-2.4 z"
         fill="#d45500"
         stroke="#aa4400"
         stroke-dashoffset="2.69"
         stroke-linecap="round"
         stroke-linejoin="round"
         stroke-width="0.7"
         id="path2198" />
      <path
         d="m 952.9,324.3 c 0.3,0.1 1,1.2 1.1,1.6 0.7,1.4 1,2.7 1.2,4.5 0.4,2.9 -0.4,5.4 -0.2,8 0.4,1.7 -0.5,2.4 -1,4.1 -1.3,0.6 -2.8,1.1 -3.7,1.6 -1,0.6 -2,0.8 -2.8,1.8 -0.6,0.9 0.2,1.7 -0.6,2.6 -0.8,0.8 -1.2,1 -1.9,1.3 -1.2,-0.5 -2.2,-0.7 -3.3,0 -0.3,-0.6 -1.2,-1.8 -1.3,-2.3 -0.1,-0.4 -0.2,-1.5 -0.8,-2 -1.3,-0.8 -3.3,-2.4 -4.7,-1.9 -1,0.3 -3.2,1.8 -3.9,1.5 0,0.5 0.1,1 0.1,1.4 0,0.3 0.1,0.5 0.2,0.9 0.8,-0.2 1.2,-0.4 1.9,-0.6 1,-0.3 0.8,-0.5 2.1,-0.1 1.8,0.6 2.6,0.6 2.7,2.1 0.1,0.8 2.3,3.6 2.3,3.9 -2,1.7 -3.1,2.4 -4.3,3 -0.2,0.5 -0.7,0.6 -0.8,2.2 -0.7,0.3 -1,0.9 -1.4,1.2 -0.3,0.4 0,0 -0.6,0.7 -0.4,0 -1.1,-0.3 -2.7,0.3 -0.5,0 -1.3,1.2 -1.3,1.2 -1,0.3 -2,0.4 -2.5,0.5 -0.4,1 -2.8,-0.7 -3.9,-0.8 0,0 -0.1,0.1 -0.1,0.1 0,0 0,0.1 0,0.1 0.2,0.4 0.3,1.1 0.9,1.9 1.8,1 1.1,0.4 3.4,0.9 0.3,0 0.9,0.8 1.2,0.7 0.7,-0.2 2.7,0.1 3.4,-0.1 0.5,-0.1 1.6,-1 2.2,-1 0.5,-0.1 1.7,-0.2 2.2,-0.3 0.4,-0.1 1.9,-0.4 2.2,-0.9 0.4,-0.6 2.2,-3.6 2.3,-4.3 0,-0.3 0,-0.6 -0.1,-1.1 4.2,-0.9 6.2,-1.2 9.7,-1.9 1,0 4.1,0.3 4.9,-0.1 2.1,-1.2 1.6,-0.7 3.4,-2.4 0.8,-1.3 2.5,-2.8 3.8,-3.8 0.3,-0.6 0.3,-3.1 0.3,-3.7 -0.1,-1.6 -1.2,-2.8 -1.3,-3.6 0.1,-0.3 0.3,-1.3 0.7,-2 0.6,-0.8 0.5,-1.4 0.7,-2.5 -0.1,-0.5 -1.1,-2 -1.4,-2.4 0.2,-1.1 0.3,-0.8 0.4,-1.9 -1.1,-1.4 -2.1,-2 -3.2,-3.3 -1,-1.7 -0.2,-2 -0.9,-2.9 -0.6,-0.6 -1.9,-2 -4.7,-2.2 z"
         opacity="0.304"
         id="path2200" />
    </g>
    <g
       id="bumper">
      <path
         id="path2233"
         style="font-variation-settings:normal;display:inline;fill:#540000;fill-rule:evenodd;stroke:#000000;stroke-width:0.283849;stop-color:#000000"
         d="m 1038,343.3 c 0,4.6 -2,9 -6,12.2 -4,3.2 -9,5 -15,5 -11,0 -20.5,-7.7 -20.5,-17.2 0,-4.5 2.2,-8.9 6.5,-12.1 4,-3.2 9,-5 14,-5 6,0 11,1.8 15,5 4,3.2 6,7.6 6,12.1" />
      <path
         id="path2235"
         style="font-variation-settings:normal;display:inline;fill:#ffcc00;fill-rule:evenodd;stroke:#000000;stop-color:#000000"
         d="m 1043,334.6 c 0,11.8 -11,21.3 -25,21.3 -14,0 -25.6,-9.5 -25.6,-21.3 0,-5.6 2.7,-11 7.5,-15 5.1,-4 11.1,-6.2 18.1,-6.2 14,0 25,9.5 25,21.2" />
      <path
         style="display:inline"
         d="m 1010,314.2 -1,8.8 -13.2,1 7.2,6.9 -9.6,9 13.6,-0.5 -1,14.1 11,-9.2 9,10.3 1,-13.4 14,1.5 -8,-9 9,-6.5 -13,-2.4 -1,-9.4 -7,4.3 -4,-0.8 z"
         fill="#800000"
         stroke-dashoffset="2.694"
         stroke-width="2.6457"
         id="path2237" />
      <path
         d="m 1032,329.5 c 0,3.1 -1,6.1 -4,8.3 -3,2.2 -6,3.4 -10,3.4 -4,0 -7,-1.2 -10,-3.4 -3,-2.2 -4,-5.2 -4,-8.3 0,-3.1 1,-6 4,-8.2 3,-2.2 6,-3.5 10,-3.5 4,0 7,1.3 10,3.5 3,2.2 4,5.1 4,8.2"
         style="font-variation-settings:normal;display:inline;fill:#800000;fill-rule:evenodd;stroke:#000000;stroke-width:0.283849;stop-color:#000000"
         id="path2241" />
      <path
         d="m 1030,329.1 c 0,2.6 -1,5.1 -3,6.9 -3,1.8 -6,2.8 -9,2.8 -3,0 -6,-1 -9,-2.8 -2,-1.8 -3,-4.3 -3,-6.9 0,-2.6 1,-5.1 3,-6.9 3,-1.8 6,-2.8 9,-2.8 7,0 12,4.3 12,9.7"
         style="font-variation-settings:normal;opacity:0.20513;fill-rule:evenodd;stroke-width:0;stop-color:#000000"
         id="path2245" />
    </g>
    <g
       id="gold">
      <path
         id="rect3474"
         style="fill:#ffdd4f;stroke:#2b2200;stroke-width:0.32907;stroke-linecap:round;stroke-linejoin:round;stroke-dashoffset:2.7"
         d="m 974.4,477.2 h 38.6 v 52.7 h -38.6 z" />
      <path
         id="ellipse3476"
         style="font-variation-settings:normal;fill:#ffd42a;fill-rule:evenodd;stroke:#d4aa00;stroke-width:0.470059;stop-color:#000000"
         d="m 1002,508.4 a 7.991,15.51 30 0 1 -14.6,9.4 7.991,15.51 30 0 1 0.8,-17.4 7.991,15.51 30 0 1 14.8,-9.4 7.991,15.51 30 0 1 -1,17.4" />
      <path
         id="ellipse3480"
         style="font-variation-settings:normal;fill:#ffd42a;fill-rule:evenodd;stroke:#d4aa00;stroke-width:0.470059;stop-color:#000000"
         d="m 999.4,506.9 a 7.991,15.51 30 0 1 -14.6,9.4 7.991,15.51 30 0 1 0.8,-17.4 7.991,15.51 30 0 1 14.4,-9.4 7.991,15.51 30 0 1 -0.6,17.4" />
      <path
         style="stroke:#d4aa00"
         id="path3484"
         stroke-width="2.11545"
         stroke-linejoin="round"
         stroke-linecap="round"
         stroke-dashoffset="2.7"
         fill="#aa8800"
         d="m 989.3,506.9 4.7,-7.5" />
    </g>
    <g
       id="lance">
      <path
         style="fill:#ffffff;stroke:#000000;stroke-width:0.300012;stroke-miterlimit:4;stroke-dasharray:none;stroke-opacity:1"
         d="m 661.1,558.7 2,-1.8 0.6,0.5 -1.9,1.8 h 2.2 l 3.9,-6.1 -6.8,3.5 z"
         id="path1721-6" />
      <path
         style="fill:#ffffff;stroke:#000000;stroke-width:0.300012;stroke-miterlimit:4;stroke-dasharray:none;stroke-opacity:1"
         d="m 660.3,557.7 v 2.3 h 2.5 l -0.7,0.8 H 661 l -1.1,1 -0.4,-0.5 -5.5,4.8 -0.6,-0.5 5.4,-4.9 -0.4,-0.4 1,-0.9 v -1.1 z"
         id="path1723" />
    </g>
    <g
       id="axe">
      <path
         style="fill:#ffffff;stroke:#000000;stroke-width:0.299977;stroke-miterlimit:4;stroke-dasharray:none;stroke-opacity:1"
         d="m 687.1,563.8 8.4,-8.5 c 0.3,-0.2 0.6,-0.2 0.8,0 0.3,0.2 0.3,0.4 0.1,0.7 l -8.4,8.4 c 0.4,0.2 0.2,0.6 -0.1,0.8 l -3.3,3.3 c -0.1,0.1 -0.3,0.2 -0.4,0.1 0,0 -0.1,-0.1 -0.1,-0.1 l -1.1,-0.9 c -0.2,-0.1 -0.1,-0.3 0,-0.4 l 3.5,-3.6 c 0.2,-0.2 0.4,0 0.6,0.2"
         id="path1663-1" />
      <path
         style="fill:#ffffff;stroke:#000000;stroke-width:0.299977;stroke-miterlimit:4;stroke-dasharray:none;stroke-opacity:1"
         d="m 694.2,555.7 c -0.5,-1.5 0.4,-2.1 0.5,-2.3 -0.5,0 -0.9,-0.1 -1.4,-0.1 -0.9,0.1 -1.2,0.2 -1.8,0.5 -1.3,0.5 -2.2,1.4 -2.7,2.6 -0.3,0.9 -0.4,1.8 0,2.9 0.4,-0.4 1.4,-0.9 2.5,-0.6"
         id="path1667-9" />
      <path
         style="fill:#ffffff;stroke:#000000;stroke-width:0.299977;stroke-miterlimit:4;stroke-dasharray:none;stroke-opacity:1"
         d="m 693.2,560.2 2.9,-3 c 0.4,0.1 0.9,0.1 1.4,0 0.5,-0.1 0.8,-0.4 1.1,-0.6 0.9,2.8 -1,5 -3.3,5.7 -0.7,0.2 -2,0.3 -2.6,0.1 0.7,-0.7 0.7,-1.5 0.5,-2.2 z"
         id="path1669" />
    </g>
    <g
       id="sword">
      <g
         id="g1020">
        <path
           style="fill:#ffffff;stroke:#000000;stroke-width:0.299987;stroke-miterlimit:4;stroke-dasharray:none;stroke-opacity:1"
           id="path1773"
           d="m 718.1,560.7 7.3,-6.7 h 3.3 v 2.9 l -7.4,6.7 -1.4,-1.2 6.9,-6.2 -0.1,-0.5 h -0.4 l -6.8,6.2 z" />
        <path
           style="fill:#ffffff;stroke:#000000;stroke-width:0.299987;stroke-miterlimit:4;stroke-dasharray:none;stroke-opacity:1"
           id="path1775"
           d="m 715.8,561.3 1.1,-0.9 4.8,4.4 -1,0.9 z" />
        <path
           style="fill:#ffffff;stroke:#000000;stroke-width:0.299987;stroke-miterlimit:4;stroke-dasharray:none;stroke-opacity:1"
           id="path1777"
           d="m 714.9,561.4 2,-1.8 c 0,-0.3 -0.1,-0.5 -0.3,-0.5 h -1.9 c -0.3,0 -0.3,0.2 -0.3,0.4 v 1.6 c 0,0.3 0.2,0.3 0.5,0.3 z" />
        <path
           style="fill:#ffffff;stroke:#000000;stroke-width:0.299987;stroke-miterlimit:4;stroke-dasharray:none;stroke-opacity:1"
           id="path1779"
           d="m 722.6,564.8 -2,1.8 c -0.1,0.3 0.1,0.4 0.3,0.4 l 1.9,0.1 c 0.2,-0.1 0.3,-0.2 0.3,-0.5 v -1.5 c 0,-0.3 -0.3,-0.3 -0.5,-0.3 z" />
        <path
           style="fill:#ffffff;stroke:#000000;stroke-width:0.300003;stroke-miterlimit:4;stroke-dasharray:none;stroke-opacity:1"
           id="path1781"
           d="m 716.8,563 -1.3,1.2 h -2 c -0.2,0 -0.3,0 -0.4,0.3 v 3.4 c 0.1,0.2 0.2,0.2 0.3,0.3 h 3.7 c 0,0 0.4,0 0.4,-0.3 V 566 l 1.3,-1.2 z m -2.1,2.6 h 1.2 v 1.1 h -1.2 z" />
      </g>
    </g>
    <g
       id="gutter">
      <path
         id="path991"
         style="font-variant-ligatures:normal;font-variant-position:normal;font-variant-caps:normal;font-variant-numeric:normal;font-variant-alternates:normal;font-variant-east-asian:normal;font-feature-settings:normal;font-variation-settings:normal;text-indent:0;text-decoration:none;text-decoration-line:none;text-decoration-style:solid;text-decoration-color:#000000;text-transform:none;text-orientation:mixed;white-space:normal;shape-padding:0;shape-margin:0;inline-size:0;isolation:auto;mix-blend-mode:normal;stroke:#000000;stroke-width:1.134;stroke-linecap:round;stroke-linejoin:round;shape-rendering:auto"
         stop-color="#000000"
         solid-color="#000000"
         image-rendering="auto"
         fill-opacity="0.984"
         fill="#800000"
         dominant-baseline="auto"
         color-rendering="auto"
         color="#000000"
         d="m 1030,13.45 214,102.45 v 45 h -214 z" />
      <path
         id="path993"
         style="font-variant-ligatures:normal;font-variant-position:normal;font-variant-caps:normal;font-variant-numeric:normal;font-variant-alternates:normal;font-variant-east-asian:normal;font-feature-settings:normal;font-variation-settings:normal;text-indent:0;text-decoration:none;text-decoration-line:none;text-decoration-style:solid;text-decoration-color:#000000;text-transform:none;text-orientation:mixed;white-space:normal;shape-padding:0;shape-margin:0;inline-size:0;isolation:auto;mix-blend-mode:normal;stroke:#000000;stroke-width:1.134;stroke-linecap:round;stroke-linejoin:round;shape-rendering:auto"
         stop-color="#000000"
         solid-color="#000000"
         image-rendering="auto"
         fill="#ffcc00"
         dominant-baseline="auto"
         color-rendering="auto"
         color="#000000"
         d="m 1030,11.56 a 1.89,1.89 0 0 0 -2,1.89 V 160.9 a 1.89,1.89 0 0 0 2,1.9 h 214 a 1.89,1.89 0 0 0 2,-1.9 v -45 a 1.89,1.89 0 0 0 -1,-1.7 L 1031,11.74 a 1.89,1.89 0 0 0 -1,-0.19 z m 2,4.88 210,100.56 v 41.9 h -210 z" />
    </g>
    <g
       inkscape:label="small-mine-wall"
       id="small-mine-wall">
      <path
         d="m 650.4,451.3 c -3.3,-12.8 8.8,-26.5 21.9,-21 31.4,2.9 61.5,-3.8 89.3,-0.6 6.2,6.9 7.4,24.2 -0.3,29.7 -13.5,3.9 -30,-0.3 -45.1,0.1 -13.3,-1 -66.5,5.2 -65.8,-8.2 z"
         fill="#666666"
         stroke="#1a1a1a"
         stroke-dashoffset="2.69"
         stroke-linecap="round"
         stroke-linejoin="round"
         stroke-width="3.61367"
         id="path1062" />
      <path
         d="m 755.8,453.8 c -28.3,0.5 -73.7,8.5 -105.5,-2.2 -1,11.7 65.8,7.9 110.9,7.8 7.7,-5.5 6.5,-22.8 0.3,-29.8 -3.2,3.4 2.9,17.3 -5.7,24.2 z"
         opacity="0.294"
         id="path1064"
         style="stroke-width:3.61367" />
    </g>
    <g
       inkscape:label="large-mine-wall"
       id="large-mine-wall">
      <path
         d="m 927.2,700.8 c -5.3,-10.9 1.9,-22.4 1,-33.6 -1.8,-9.9 -5.5,-20 -2.3,-29.9 2.6,-7.2 0.5,-14.5 -0.8,-21.6 0.1,-7.9 4.3,-14.8 1.8,-22.6 -2.3,-10.7 -7.1,-29.7 10.9,-29.9 31.4,-1 24.1,6.8 25.9,19.1 1.4,15.6 -1.6,31.2 -1.2,46.9 -0.3,19.5 -0.5,39.1 0.4,58.6 1.8,20.9 -32.2,19.5 -35.8,13.1 z"
         fill="#666666"
         stroke="#1a1a1a"
         stroke-dashoffset="2.69"
         stroke-linecap="round"
         stroke-linejoin="round"
         stroke-width="1.91399"
         id="path1110"
         style="stroke-width:3.514;stroke-miterlimit:4;stroke-dasharray:none" />
      <path
         style="display:inline;stroke-width:0.599452"
         d="m 956.1,564.2 c 4.4,40.8 -6.8,92.3 0,117.5 -4.2,21.8 -19.3,19 -29.9,16.3 8.3,14.2 39.3,5.3 36.8,-10.3 -6.2,-25 11.3,-125.9 -6.9,-123.8 z"
         opacity="0.301"
         id="path1112" />
    </g>
    <g
       inkscape:label="deflector"
       id="deflector">
      <path
         d="m 1066,391.4 c 0,1.1 0,2.8 0,4.1 l 58,57 c 1,0.8 2,0.3 2,-0.8 v -57 c -16,-5.5 -42,-2.7 -60,-3.5 z"
         color="#000000"
         color-rendering="auto"
         dominant-baseline="auto"
         fill="#a68400"
         image-rendering="auto"
         solid-color="#000000"
         stop-color="#000000"
         stroke="#000000"
         stroke-linejoin="round"
         stroke-width="1.7"
         style="font-variant-ligatures:normal;font-variant-position:normal;font-variant-caps:normal;font-variant-numeric:normal;font-variant-alternates:normal;font-variant-east-asian:normal;font-feature-settings:normal;font-variation-settings:normal;text-indent:0;text-decoration:none;text-decoration-line:none;text-decoration-style:solid;text-decoration-color:#000000;text-transform:none;text-orientation:mixed;white-space:normal;shape-padding:0;shape-margin:0;inline-size:0;display:inline;isolation:auto;mix-blend-mode:normal;paint-order:stroke fill markers"
         id="path1163" />
      <path
         d="m 1068,390.4 a 1.2,1.2 0 0 0 -1,2 l 58,57 a 1.2,1.2 0 0 0 2,-0.8 v -57 a 1.2,1.2 0 0 0 -1,-1.2 z m 3,2.4 h 54 v 53 z"
         color="#000000"
         color-rendering="auto"
         dominant-baseline="auto"
         fill="#ffcc00"
         image-rendering="auto"
         solid-color="#000000"
         stop-color="#000000"
         stroke="#000000"
         stroke-linejoin="round"
         stroke-width="1.7"
         style="font-variant-ligatures:normal;font-variant-position:normal;font-variant-caps:normal;font-variant-numeric:normal;font-variant-alternates:normal;font-variant-east-asian:normal;font-feature-settings:normal;font-variation-settings:normal;text-indent:0;text-decoration:none;text-decoration-line:none;text-decoration-style:solid;text-decoration-color:#000000;text-transform:none;text-orientation:mixed;white-space:normal;shape-padding:0;shape-margin:0;inline-size:0;isolation:auto;mix-blend-mode:normal;paint-order:stroke fill markers"
         id="path1167" />
      <path
         d="m 1068,391.6 58,57 v -57 z"
         color="#000000"
         color-rendering="auto"
         dominant-baseline="auto"
         fill="#800000"
         image-rendering="auto"
         solid-color="#000000"
         stop-color="#000000"
         stroke-width="0"
         style="font-variant-ligatures:normal;font-variant-position:normal;font-variant-caps:normal;font-variant-numeric:normal;font-variant-alternates:normal;font-variant-east-asian:normal;font-feature-settings:normal;font-variation-settings:normal;text-indent:0;text-decoration:none;text-decoration-line:none;text-decoration-style:solid;text-decoration-color:#000000;text-transform:none;text-orientation:mixed;white-space:normal;shape-padding:0;shape-margin:0;inline-size:0;isolation:auto;mix-blend-mode:normal"
         id="path1165" />
    </g>
    <g
       id="sign">
      <path
         d="m 201.6,141.3 h 179 v 71.8 h -179 z"
         color="#000000"
         color-rendering="auto"
         dominant-baseline="auto"
         fill="#800000"
         fill-opacity="0.984"
         image-rendering="auto"
         solid-color="#000000"
         stop-color="#000000"
         style="font-variant-ligatures:normal;font-variant-position:normal;font-variant-caps:normal;font-variant-numeric:normal;font-variant-alternates:normal;font-variant-east-asian:normal;font-feature-settings:normal;font-variation-settings:normal;text-indent:0;text-decoration:none;text-decoration-line:none;text-decoration-style:solid;text-decoration-color:#000000;text-transform:none;text-orientation:mixed;white-space:normal;shape-padding:0;shape-margin:0;inline-size:0;isolation:auto;mix-blend-mode:normal;paint-order:normal"
         id="path1293" />
      <path
         d="m 201.6,138.9 a 2.4,2.4 0 0 0 -2.4,2.4 v 71.8 a 2.4,2.4 0 0 0 2.4,2.4 h 179 a 2.4,2.4 0 0 0 2.4,-2.4 v -71.8 a 2.4,2.4 0 0 0 -2.4,-2.4 z m 2.4,4.8 h 174 v 67 H 204 Z"
         color="#000000"
         color-rendering="auto"
         dominant-baseline="auto"
         fill="#d38d5f"
         image-rendering="auto"
         solid-color="#000000"
         stop-color="#000000"
         stroke="#000000"
         stroke-dashoffset="2.69"
         stroke-linecap="round"
         stroke-linejoin="round"
         stroke-width="1.5"
         style="font-variant-ligatures:normal;font-variant-position:normal;font-variant-caps:normal;font-variant-numeric:normal;font-variant-alternates:normal;font-variant-east-asian:normal;font-feature-settings:normal;font-variation-settings:normal;text-indent:0;text-decoration:none;text-decoration-line:none;text-decoration-style:solid;text-decoration-color:#000000;text-transform:none;text-orientation:mixed;white-space:normal;shape-padding:0;shape-margin:0;inline-size:0;isolation:auto;mix-blend-mode:normal;paint-order:normal"
         id="path1295" />
    </g>
    <path
       inkscape:label="red_X"
       id="cross"
       style="font-variant-ligatures:normal;font-variant-position:normal;font-variant-caps:normal;font-variant-numeric:normal;font-variant-alternates:normal;font-variant-east-asian:normal;font-feature-settings:normal;font-variation-settings:normal;text-indent:0;text-decoration:none;text-decoration-line:none;text-decoration-style:solid;text-decoration-color:#000000;text-transform:none;text-orientation:mixed;white-space:normal;shape-padding:0;shape-margin:0;inline-size:0;isolation:auto;mix-blend-mode:normal"
       stroke-width="0.888788"
       stroke-linejoin="round"
       stroke-dashoffset="2.69"
       stroke="#000000"
       stop-color="#000000"
       solid-color="#000000"
       shape-rendering="auto"
       image-rendering="auto"
       fill="#d40000"
       dominant-baseline="auto"
       color-rendering="auto"
       color="#000000"
       d="m 107.3,19.44 -21.77,23 -17.1,-18.9 -7.3,6.7 17.6,19.4 -16.8,17.7 7.2,6.8 16.3,-17.2 15.97,17.6 7.3,-6.6 -16.47,-18.1 22.27,-23.5 z" />
    <g
       id="g979">
      <path
         d="m 155.1,59.84 c -4.2,-4 -15.7,-17.2 -19.7,-11.5 -3.9,5.7 18.3,26 21.1,26.5 4.6,0.8 15.2,-22.6 18.5,-29.4 5.3,-11 11.2,-16.9 15.7,-26.2 -16.5,2.6 -30,31.4 -35.5,40.6 z"
         color="#000000"
         color-rendering="auto"
         dominant-baseline="auto"
         fill="#00ff00"
         image-rendering="auto"
         shape-rendering="auto"
         solid-color="#000000"
         stop-color="#000000"
         stroke="#000000"
         stroke-dashoffset="2.69"
         stroke-linecap="round"
         stroke-linejoin="round"
         stroke-width="0.823202"
         style="font-variant-ligatures:normal;font-variant-position:normal;font-variant-caps:normal;font-variant-numeric:normal;font-variant-alternates:normal;font-variant-east-asian:normal;font-feature-settings:normal;font-variation-settings:normal;text-indent:0;text-decoration:none;text-decoration-line:none;text-decoration-style:solid;text-decoration-color:#000000;text-transform:none;text-orientation:mixed;white-space:normal;shape-padding:0;shape-margin:0;inline-size:0;isolation:auto;mix-blend-mode:normal"
         id="check"
         inkscape:label="green_V" />
    </g>
    <g
       id="fence">
      <rect
         style="opacity:0.999;fill:url(#pattern2065);fill-opacity:1;stroke-width:0.323801;stroke-linecap:round;stroke-linejoin:round;stop-color:#000000"
         id="rect2063"
         width="21.63"
         height="700.6"
         x="1200"
         y="167.1" />
    </g>
  </g>
  <g
     style="display:inline"
     inkscape:label="colliders"
     id="layer2"
     inkscape:groupmode="layer">
    <path
       style="display:inline;fill:#fb0000;fill-opacity:0.5;stroke:none;stroke-width:1px;stroke-linecap:butt;stroke-linejoin:miter;stroke-opacity:1"
       d="M 616.5,11.74 686,125.6 670.8,129.6 608.4,26.64 Z"
       id="kicker.collider.3" />
    <path
       style="display:inline;fill:#fb0000;fill-opacity:0.5;stroke:none;stroke-width:1px;stroke-linecap:butt;stroke-linejoin:miter;stroke-opacity:1"
       d="m 616.5,11.64 -8.3,-3.601 -7.6,6.001 v 77.6 h 14.2 z"
       id="kicker.collider.1" />
    <path
       style="display:inline;fill:#fb0000;fill-opacity:0.5;stroke:none;stroke-width:1px;stroke-linecap:butt;stroke-linejoin:miter;stroke-opacity:1"
       d="m 600.5,91.64 73.7,44.96 8.4,-2 3.1,-9 -73.3,-41.96 z"
       id="kicker.collider.2" />
    <path
       sodipodi:nodetypes="ccccc"
       id="bend.2.collider"
       style="display:inline;fill:#fb0000;fill-opacity:0.5;stroke:none;stroke-width:0;stroke-linecap:round;stroke-linejoin:round;stop-color:#000000"
       d="m 730.3,10.77 h 12.5 V 180.5 l -12.8,-5 z" />
    <path
       sodipodi:nodetypes="ccccc"
       style="display:inline;fill:#fb0000;fill-opacity:0.5;stroke:none;stroke-width:1px;stroke-linecap:butt;stroke-linejoin:miter;stroke-opacity:1"
       d="m 733.8,178.9 147.8,86.7 6.7,-11 -146.2,-84.7 z"
       id="bend.1.collider" />
    <path
       style="display:inline;fill:#fb0000;fill-opacity:0.5;stroke:#000000;stroke-width:1px;stroke-linecap:butt;stroke-linejoin:miter;stroke-opacity:1"
       d="m 926.7,23.54 5,-3.9 6,-0.7 52.2,41.4 0.7,7.5 -4.6,3.8 h -6.1 l -52.9,-30.9 -3.9,-7.9 z"
       id="flipper.collider" />
    <path
       style="display:inline;fill:#fb0000;fill-opacity:0.5;stroke:none;stroke-width:0;stroke-linecap:round;stroke-linejoin:round;stop-color:#000000"
       id="ball.collider"
       d="m 682.6,358.3 -3,3 -3,2.2 -3,1.3 -4,0.3 -4,-0.6 -3,-1.6 -3,-2.5 -3,-3.1 -1,-3.6 v -3.8 -3.8 l 2,-3.4 2,-3 4,-2.2 3,-1.3 4,-0.3 4,0.6 3,1.6 3,2.5 2,3.1 2,3.6 v 3.8 l -1,3.8 z" />
    <path
       d="m 1204,202.2 h 13 v 665.3 h -13 z"
       style="display:inline;fill:#fb0000;fill-opacity:0.5;stroke:none;stroke-width:0;stroke-linecap:round;stroke-linejoin:round;stop-color:#000000"
       id="fence.collider" />
    <path
       id="plunger.collider"
       style="display:inline;fill:#fb0000;fill-opacity:0.5;stroke:none;stroke-width:0;stroke-linecap:round;stroke-linejoin:round;stop-color:#000000"
       d="m 715.5,341.6 h 53 v 18.2 h -53 z" />
    <path
       d="m 808.9,274.3 h 54.5 v 98.3 h -54.5 z"
       style="opacity:0.999;fill:#fb0000;fill-opacity:0.5;stroke-width:0.430915;stroke-linecap:round;stroke-linejoin:round;stop-color:#000000"
       id="tree.collider" />
    <path
       d="M 921.8,324.1 H 963 V 365 h -41.2 z"
       style="opacity:0.999;fill:#fb0000;fill-opacity:0.5;stroke-width:0.449542;stroke-linecap:round;stroke-linejoin:round;stop-color:#000000"
       id="iron.collider" />
    <path
       style="display:inline;fill:#fb0000;fill-opacity:0.5;stroke-width:0;stroke-linecap:round;stroke-linejoin:round;stop-color:#000000"
       id="bumper.collider"
       d="m 997.6,350.9 -4,-14.2 4,-14.3 12.4,-9 h 15 l 13,8.8 4,14.3 -4,14.3 -12,8.9 h -16 z" />
    <path
       id="top-wall.collider"
       style="display:inline;fill:#fb0000;fill-opacity:0.5;stroke:none;stroke-width:0;stroke-linecap:round;stroke-linejoin:round;stop-color:#000000"
       d="m 1266,0 h 800 v 100 h -800 z" />
    <path
       d="m 1266,100 h 100 v 800 h -100 z"
       style="display:inline;fill:#fb0000;fill-opacity:0.5;stroke:none;stroke-width:0;stroke-linecap:round;stroke-linejoin:round;stop-color:#000000"
       id="left-wall.collider" />
    <path
       id="right-wall.collider"
       style="display:inline;fill:#fb0000;fill-opacity:0.5;stroke:none;stroke-width:0;stroke-linecap:round;stroke-linejoin:round;stop-color:#000000"
       d="m 1966,100 h 100 v 800 h -100 z" />
    <path
       d="m 974.2,477.3 h 38.8 v 52.5 h -38.8 z"
       style="display:inline;fill:#fb0000;fill-opacity:0.5;stroke-width:0;stroke-linecap:round;stroke-linejoin:round;stop-color:#000000"
       id="gold.collider" />
    <path
       id="enemy.collider"
       style="opacity:0.999;fill:#fb0000;fill-opacity:0.5;stroke:none;stroke-width:0.3;stroke-linecap:round;stroke-linejoin:round;stroke-miterlimit:4;stroke-dasharray:none;stroke-opacity:1;stop-color:#000000"
       d="m 654.8,599.5 h 62.1 v 108.3 h -62.1 z" />
    <path
       id="boss.collider"
       style="opacity:0.999;fill:#fb0000;fill-opacity:0.5;stroke:none;stroke-width:0.3;stroke-linecap:round;stroke-linejoin:round;stroke-miterlimit:4;stroke-dasharray:none;stroke-opacity:1;stop-color:#000000"
       d="M 796.1,602.1 H 889 v 113.2 h -92.9 z" />
    <path
       id="large-mine-wall.collider"
       style="fill:#fb0000;fill-opacity:0.487805;stroke:none;stroke-width:3.23365;stroke-linecap:round;stroke-linejoin:round;stroke-miterlimit:4;stroke-dasharray:none;stroke-dashoffset:2.69405"
       inkscape:label="large-mine-wall.colider"
       d="M 926.3,563.8 H 963 v 140.1 h -36.7 z" />
    <path
       id="small-mine-wall.collider"
       style="fill:#fb0000;fill-opacity:0.487805;stroke:none;stroke-width:3.25522;stroke-linecap:round;stroke-linejoin:round;stroke-miterlimit:4;stroke-dasharray:none;stroke-dashoffset:2.69405"
       inkscape:label="small-mine-wall.colider"
       d="m 649.6,428.6 h 117 V 460 h -117 z" />
    <path
       inkscape:label="deflector.collider"
       id="deflector.collider"
       d="m 1065,392.7 61,59.1 v -59.6 z"
       style="fill:#fb0000;fill-opacity:0.487805;stroke:none;stroke-width:3.51203;stroke-linecap:round;stroke-linejoin:round;stroke-miterlimit:4;stroke-dasharray:none;stroke-dashoffset:2.69405" />
    <path
       inkscape:label="gutter.colider"
       id="gutter.collider"
       d="m 1027,10 v 152.9 h 218 v -49 z"
       style="fill:#fb0000;fill-opacity:0.487805;stroke:none;stroke-width:3.514;stroke-linecap:round;stroke-linejoin:round;stroke-miterlimit:4;stroke-dasharray:none;stroke-dashoffset:2.69405" />
  </g>
</svg>
