<?xml version="1.0" encoding="UTF-8" standalone="no"?>
<svg
   xmlns:dc="http://purl.org/dc/elements/1.1/"
   xmlns:cc="http://creativecommons.org/ns#"
   xmlns:rdf="http://www.w3.org/1999/02/22-rdf-syntax-ns#"
   xmlns:svg="http://www.w3.org/2000/svg"
   xmlns="http://www.w3.org/2000/svg"
   xmlns:sodipodi="http://sodipodi.sourceforge.net/DTD/sodipodi-0.dtd"
   xmlns:inkscape="http://www.inkscape.org/namespaces/inkscape"
   width="2066"
   height="900"
   viewBox="0 0 2066 900"
   version="1.1"
   id="svg1070"
   inkscape:version="1.0 (4035a4fb49, 2020-05-01)"
   sodipodi:docname="atlas.svg">
  <defs
     id="defs1064">
    <radialGradient
       id="radialGradient6087-1"
       cx="285.3"
       cy="93.49"
       r="78.39"
       gradientTransform="matrix(0.2322,0,0,0.2135,601,327.4)"
       gradientUnits="userSpaceOnUse">
      <stop
         stop-color="#fff"
         offset="0"
         id="stop10077" />
      <stop
         stop-color="#fff"
         offset=".49493"
         id="stop10079" />
      <stop
         stop-color="#bababa"
         offset=".62372"
         id="stop10081" />
      <stop
         offset=".75109"
         id="stop10083" />
      <stop
         stop-color="#fff"
         offset="1"
         id="stop10085" />
    </radialGradient>
    <radialGradient
       id="radialGradient6065-2"
       cx="117.7"
       cy="103.6"
       r="78.39"
       gradientTransform="matrix(-0.2505,0,0,-0.2538,699.4,376.8)"
       gradientUnits="userSpaceOnUse">
      <stop
         stop-color="#fff"
         stop-opacity="0"
         offset="0"
         id="stop10066" />
      <stop
         stop-color="#6c6c6c"
         stop-opacity="0"
         offset=".61894"
         id="stop10068" />
      <stop
         stop-color="#43434f"
         offset=".69913"
         id="stop10070" />
      <stop
         stop-color="#fff"
         stop-opacity="0"
         offset=".81967"
         id="stop10072" />
      <stop
         stop-color="#5d5d5d"
         offset="1"
         id="stop10074" />
    </radialGradient>
  </defs>
  <sodipodi:namedview
     fit-margin-bottom="0"
     fit-margin-right="0"
     fit-margin-left="0"
     fit-margin-top="0"
     inkscape:window-maximized="1"
     inkscape:window-y="-8"
     inkscape:window-x="-8"
     inkscape:window-height="1017"
     inkscape:window-width="1920"
     inkscape:snap-global="false"
     units="px"
     showgrid="false"
     inkscape:document-rotation="0"
     inkscape:current-layer="layer1"
     inkscape:document-units="px"
     inkscape:cy="422"
     inkscape:cx="921.7"
     inkscape:zoom="0.7"
     inkscape:pageshadow="2"
     inkscape:pageopacity="0.0"
     borderopacity="1.0"
     bordercolor="#666666"
     pagecolor="#ffffff"
     id="base" />
  <metadata
     id="metadata1067">
    <rdf:RDF>
      <cc:Work
         rdf:about="">
        <dc:format>image/svg+xml</dc:format>
        <dc:type
           rdf:resource="http://purl.org/dc/dcmitype/StillImage" />
        <dc:title />
      </cc:Work>
    </rdf:RDF>
  </metadata>
  <g
     style="display:inline"
     id="layer1"
     inkscape:groupmode="layer"
     inkscape:label="atlas">
    <g
       id="kicker">
      <path
         id="path1676"
         stroke-width="0.847"
         stroke-linecap="square"
         stroke-dashoffset="2.694"
         stroke="#000000"
         fill="#ffcc00"
         d="M 669.3,102.4 V 87.9 l 9.4,3.1 1.3,11.6 c -0.2,1.4 0.2,3.8 -1.1,4.3 -0.5,0.3 -2.3,1.6 -5.6,1.3 -3.2,-0.4 -4.2,-3.5 -4,-5.8 z" />
      <path
         id="path1678"
         stroke-width="0.847"
         stroke-linecap="square"
         stroke-dashoffset="2.694"
         stroke="#000000"
         fill="#ffcc00"
         d="m 753.7,142.3 v -14.4 l -11.3,2.8 -0.2,12.4 c 0,1.5 0.8,2.8 1.9,3.8 1.3,1.4 4.5,1.6 5.6,1.3 2.7,-0.7 4.1,-3.5 4,-5.9 z" />
      <path
         style="fill:#aa8800"
         d="m 753.2,137 c 0,1 0.1,2.2 0.1,3.3 -0.1,0.7 0.1,2.9 -0.3,4.2 -0.5,1.1 -1.6,2.7 -3,3.1 -0.3,0.1 -0.6,0.3 -2,0.2 0,-2 -0.3,-7.9 1.1,-9.6 0.7,-0.7 1.5,-0.1 2.3,-0.6 0.4,-0.3 1.2,-1 1.8,-0.6"
         opacity="0.70915"
         id="path1680" />
      <path
         style="fill:#aa8800"
         d="m 674,100.2 c 0.1,1 0,1.9 0,2.9 0,1.3 -0.1,3.4 0.2,4.6 1.2,0.3 4,-0.8 4.6,-1.2 0.6,-0.5 1.2,-2.2 0.1,-3.5 -1.4,-1.4 -3.3,-1.1 -4.8,-2.8 z"
         opacity="0.70915"
         id="path1682" />
      <path
         style="fill:#aa8800"
         d="m 742.3,142.4 c 1.7,0.3 5.8,0.9 9.4,-2.5 0.7,-0.7 2.3,-4.2 1.9,-6.4 0,-1.6 -0.3,-3.1 -1.1,-4.5 L 686.4,17.6 c -0.6,-1.4 -0.9,-2.4 -3,-4.2 -1.8,-1.4 -4.9,-2.2 -7.1,-1.8 -4,0.7 -7.4,4.7 -7.1,9 l 0.2,72.3 c 0.4,4.1 2.1,5.9 4.8,8.1 10.2,6.7 48.3,29.2 68.1,41.4 z"
         stroke="#000000"
         stroke-dashoffset="2.694"
         stroke-width="1.0118"
         id="path1684" />
      <path
         id="path1688"
         stroke-dashoffset="2.694"
         stroke="#000000"
         fill="#ffcc00"
         d="m 742.3,136.4 c 1.7,0.3 5.8,0.9 9.4,-2.5 0.7,-0.6 2.3,-4 1.9,-6.2 0,-1.6 -0.3,-3.1 -1.1,-4.4 L 686.4,14.4 c -0.6,-1.2 -0.9,-2.3 -3,-4 -1.8,-1.4 -4.9,-2.2 -7.1,-1.8 -4,0.7 -7.4,4.7 -7.1,8.8 l 0.2,70.7 c 0.4,3.8 2.1,5.7 4.8,7.9 10.2,6.5 48.3,28.5 68.1,40.4 z" />
      <path
         id="path1690"
         stroke-width="0.7"
         stroke-dashoffset="2.694"
         stroke="#000000"
         fill="#800000"
         d="m 672.5,87.6 0.1,1.1 v 0.2 c 0.1,0.3 0.2,0.6 0.3,0.9 0.2,0.3 0.4,0.7 0.6,0.9 0.2,0.3 0.5,0.6 0.7,0.9 0.3,0.1 0.5,0.3 0.7,0.6 l 65.7,38.9 0.3,0.1 c 0.2,0.3 0.4,0.4 0.6,0.5 0.4,0.2 0.7,0.4 1,0.6 0.4,0.2 0.7,0.3 1.2,0.4 0.3,0.1 0.6,0.1 1,0.1 0.1,0 0.3,0 0.4,0 0.2,0 0.5,-0.1 0.7,-0.1 0.3,-0.1 0.8,-0.2 1.1,-0.3 0.3,-0.3 0.7,-0.4 0.9,-0.6 0.3,-0.2 0.7,-0.6 0.9,-0.8 0,-0.1 0.1,-0.1 0.1,-0.1 0.2,-0.3 0.3,-0.5 0.6,-0.8 0.1,-0.3 0.2,-0.6 0.3,-1 0.1,-0.3 0.2,-0.8 0.2,-1.1 0,-0.3 0,-0.7 0,-1.1 -0.1,-0.4 -0.1,-0.7 -0.2,-1.1 -0.1,-0.4 -0.2,-0.7 -0.4,-1 -0.2,-0.2 -0.2,-0.4 -0.3,-0.5 l -0.3,-0.6 -2.4,-3.8 -1.6,-2.8 -2.4,-3.9 -1.7,-2.8 -1.8,-2.9 -2.3,-3.8 -1.7,-2.9 -2.3,-3.8 -0.6,-0.9 -0.7,-1 -0.5,-0.9 -1.7,-2.9 -2.4,-3.8 -1.8,-3 -1.6,-2.9 -2.4,-3.8 L 719,75 682,14 c -0.1,-0.1 -0.1,-0.2 -0.2,-0.3 -0.2,-0.3 -0.4,-0.5 -0.7,-0.8 -0.3,-0.2 -0.6,-0.4 -0.9,-0.6 -0.4,-0.1 -0.7,-0.2 -1.1,-0.3 -0.4,-0.2 -0.7,-0.2 -1.1,-0.2 0,0 -0.1,0 -0.1,0 -0.4,0 -0.7,0 -1,0.1 -0.4,0.1 -0.7,0.2 -1.1,0.3 -0.3,0.1 -0.6,0.3 -0.9,0.6 -0.3,0.2 -0.6,0.4 -0.9,0.7 -0.2,0.2 -0.4,0.6 -0.6,0.9 -0.2,0.3 -0.4,0.6 -0.6,1 -0.1,0.3 -0.2,0.7 -0.3,1 0,0.2 0,0.4 0,0.5 v 0.7 2.2 1.1 3.4 1.1 3.4 1.1 3.3 1.2 4.4 1.2 3.3 1.1 3.4 1.1 3.4 1.1 3.4 1.1 4.5 1.1 3.3 1.2 3.3 1.1 3.4 1.1 4.5 1.1 3.4 1.1 0.7 0.4" />
      <path
         id="path1692"
         opacity="0.70915"
         fill="#ffcc00"
         d="m 703.8,58.8 -1.6,9.2 c 0.7,0.3 3,1.4 3.7,4 l 4,1.7 -0.7,9.4 0.7,5.1 -7.9,12.5 V 84 c 0.7,-0.4 1.3,-0.7 1.9,-0.9 0.9,-0.7 3.4,-1.9 3.2,-3 -0.1,-1.4 -6.1,-1.9 -6.1,0.2 -0.1,0.7 0.2,7.4 -1.1,7.6 -0.9,0 -1.2,-2.8 -1.2,-3.2 0,-0.6 -0.1,-1.1 -0.1,-1.7 -0.1,-1 0.3,-3.2 -0.4,-3.5 -1.1,-0.8 -3.6,-1 -5.2,0 -0.2,0.1 -0.5,0.2 -0.5,0.6 0,0.9 0.7,1.4 1.3,1.8 0.6,0.4 1.4,0.9 1.9,1.2 0.2,0.2 1.4,0.5 1.8,0.9 l 0.1,16.8 -8,-12.7 0.9,-4.9 -0.8,-9.5 4,-1.6 c 0.4,-1.5 1.7,-3.4 3.6,-4 l -1.5,-9.3 c 0.6,-0.1 1.4,-0.2 1.9,-0.2 0.7,0 2.5,-0.2 3.8,0 0.8,0.1 1.7,0.1 2.3,0.2 z" />
    </g>
    <path
       id="bend"
       stroke-width="1.88976"
       stroke-linejoin="round"
       stroke-linecap="round"
       stroke-dashoffset="2.69"
       stroke="#000000"
       fill="#999999"
       d="M 900.4,254.7 779.8,173.4 c -2.2,-2.2 -3.9,-2.9 -4,-7.2 l 0.5,-156.1 c 0,-2.5 3,-5.1 5.6,-4.9 2.7,0.1 5.7,2 5.6,5 l -0.8,151.2 c 0,1.2 -0.3,3.2 1.2,4.2 l 118.4,79 c 3.3,2.5 2.8,6.3 1.2,8.4 -1.6,2.1 -5.1,2.9 -7,1.5" />
    <g
       id="flipper">
      <path
         id="path1754"
         style="font-variation-settings:normal;display:inline;vector-effect:none;fill:#800000;fill-opacity:1;fill-rule:evenodd;stroke:#000000;stroke-width:0.176531;stroke-linecap:butt;stroke-linejoin:miter;stroke-miterlimit:4;stroke-dasharray:none;stroke-dashoffset:0;stroke-opacity:1;stop-color:#000000"
         d="m 924,34.4 c 0.6,4.3 3.3,7.9 7,9.6 l 47.8,28.1 c 1.3,0.8 2.7,1.2 4.1,1.2 4.1,0 7.5,-3.5 7.5,-7.8 0,-0.7 -0.1,-1.5 -0.3,-2.2 0,0.2 0,0.5 0,0.7 0,4.3 -3.4,7.8 -7.5,7.8 -1.4,0 -2.8,-0.5 -4,-1.3 L 930.7,42.4 C 927.4,40.9 925,38 924,34.4 Z" />
      <path
         d="m 924,34.4 c 0.6,4.3 3.3,7.9 7,9.6 l 47.8,28.1 c 1.3,0.8 2.7,1.2 4.1,1.2 4.1,0 7.5,-3.5 7.5,-7.8 0,-0.7 -0.1,-1.5 -0.3,-2.2 0,0.2 0,0.5 0,0.7 0,4.3 -3.4,7.8 -7.5,7.8 -1.4,0 -2.8,-0.5 -4,-1.3 L 930.7,42.4 C 927.4,40.9 925,38 924,34.4 Z"
         style="font-variation-settings:normal;display:inline;opacity:0.352941;vector-effect:none;fill:#000000;fill-opacity:1;fill-rule:evenodd;stroke:none;stroke-width:0.588288;stroke-linecap:butt;stroke-linejoin:miter;stroke-miterlimit:4;stroke-dasharray:none;stroke-dashoffset:0;stroke-opacity:1;stop-color:#000000"
         id="path1756" />
      <path
         id="path1758"
         style="font-variation-settings:normal;display:inline;vector-effect:none;fill:#800000;fill-opacity:1;fill-rule:evenodd;stroke:#000000;stroke-width:0.588437;stroke-linecap:butt;stroke-linejoin:miter;stroke-miterlimit:4;stroke-dasharray:none;stroke-dashoffset:0;stroke-opacity:1;stop-color:#000000"
         d="m 935.3,18.8 c -6.4,0 -11.7,5.6 -11.7,12.3 0,4.9 2.8,9.4 7.1,11.3 l 47.9,28.1 c 1.2,0.8 2.6,1.3 4,1.3 4.1,0 7.5,-3.5 7.5,-7.8 0,-2.4 -1,-4.6 -2.7,-6.1 v 0 L 943,21.8 c -0.3,-0.3 -0.6,-0.5 -0.9,-0.7 l -0.4,-0.4 v 0.1 c -1.9,-1.3 -4.1,-2 -6.3,-2 z" />
      <path
         id="path1760"
         style="font-variation-settings:normal;display:inline;vector-effect:none;fill:#ffcc00;fill-opacity:1;fill-rule:evenodd;stroke:#000000;stroke-width:0.178297;stroke-linecap:butt;stroke-linejoin:miter;stroke-miterlimit:4;stroke-dasharray:none;stroke-dashoffset:0;stroke-opacity:1;stop-color:#000000"
         d="m 927,29.7 c 0,0.2 0,0.5 -0.1,0.8 0,2.8 1.3,5.5 3.5,7.1 v 0.1 l 50.5,29.5 v 0 c 0.6,0.4 1.2,0.6 1.9,0.6 1.9,0 3.4,-1.7 3.4,-3.8 0.1,-0.4 0,-0.7 -0.1,-1.1 0,2.1 -1.5,3.7 -3.4,3.7 -0.6,0 -1.3,-0.2 -1.8,-0.6 v 0.1 L 930.4,37 v -0.1 c -2.1,-1.5 -3.5,-4.2 -3.5,-7.1 0,0 0,-0.1 0,-0.1 z" />
      <path
         d="m 927,29.7 c 0,0.2 0,0.5 -0.1,0.8 0,2.8 1.3,5.5 3.5,7.1 v 0.1 l 50.5,29.5 v 0 c 0.6,0.4 1.2,0.6 1.9,0.6 1.9,0 3.4,-1.7 3.4,-3.8 0.1,-0.4 0,-0.7 -0.1,-1.1 0,2.1 -1.5,3.7 -3.4,3.7 -0.6,0 -1.3,-0.2 -1.8,-0.6 v 0.1 L 930.4,37 v -0.1 c -2.1,-1.5 -3.5,-4.2 -3.5,-7.1 0,0 0,-0.1 0,-0.1 z"
         style="font-variation-settings:normal;display:inline;opacity:0.359477;vector-effect:none;fill:#000000;fill-opacity:1;fill-rule:evenodd;stroke:none;stroke-width:0.413911;stroke-linecap:butt;stroke-linejoin:miter;stroke-miterlimit:4;stroke-dasharray:none;stroke-dashoffset:0;stroke-opacity:1;stop-color:#000000"
         id="path1762" />
      <path
         id="path1764"
         style="font-variation-settings:normal;display:inline;vector-effect:none;fill:#ffcc00;fill-opacity:1;fill-rule:evenodd;stroke:#000000;stroke-width:0.411906;stroke-linecap:butt;stroke-linejoin:miter;stroke-miterlimit:4;stroke-dasharray:none;stroke-dashoffset:0;stroke-opacity:1;stop-color:#000000"
         d="m 934.5,21.4 c -4.1,0 -7.5,3.8 -7.5,8.4 0,2.9 1.3,5.6 3.5,7.1 V 37 l 50.4,29.1 V 66 c 0.6,0.4 1.2,0.6 1.8,0.6 0.9,0.1 1.8,-0.3 2.4,-1 0.7,-0.7 1.1,-1.7 1.1,-2.7 0,-1.5 -0.8,-2.9 -2,-3.5 V 59.3 L 939.7,23.7 c -0.5,-0.5 -1,-0.9 -1.5,-1.2 v 0 0 c -1.1,-0.7 -2.3,-1.1 -3.6,-1.1 z" />
    </g>
    <path
       d="m 1021,12.14 214,102.46 v 45 h -214 z"
       style="display:inline;fill:#800000;fill-opacity:1;stroke:none;stroke-width:0;stroke-linecap:round;stroke-linejoin:round;stop-color:#000000"
       id="gutter" />
    <g
       id="ball">
      <circle
         cx="669.9"
         cy="350.6"
         r="14.54"
         fill="url(#radialGradient6087)"
         stroke="#b0b0b0"
         stroke-width="0.0562974"
         id="circle10092"
         style="fill:url(#radialGradient6087-1)" />
      <circle
         cx="669.9"
         cy="350.6"
         r="14.54"
         fill="url(#radialGradient6065)"
         stroke="#000000"
         stroke-width="0.0562974"
         id="circle10094"
         style="fill:url(#radialGradient6065-2)" />
      <path
         d="m 656.6,356.5 a 14.54,14.54 0 0 0 13.3,8.5 14.54,14.54 0 0 0 12.6,-7.4 21.31,14.33 0 0 1 -11.9,2.5 21.31,14.33 0 0 1 -14,-3.6 z"
         fill="#f2f2f2"
         opacity="0.20513"
         id="path10096"
         style="stroke-width:0.1858" />
    </g>
    <g
       id="fence">
      <path
         id="path9984"
         stroke-width="2.30592"
         stroke-linejoin="round"
         stroke-linecap="round"
         stroke-dashoffset="2.7"
         stroke="#28170b"
         fill="#502d16"
         d="m 1202,791.5 v 69 c 3,3.4 5,5.6 8,5.6 4,0 5,-1.3 8,-6.5 v -68.9 z m 0,-120.6 v 69 c 3,3.4 5,5.5 8,5.5 4,0 5,-1.3 8,-6.5 V 670 Z m 0,-120.7 v 68.9 c 3,3.4 5,5.6 8,5.6 4,0 5,-1.2 8,-6.4 v -68.9 z m 0,-116.3 v 68.9 c 3,3.6 5,5.6 8,5.6 4,0 5,-1.4 8,-6.5 V 433 Z m 0,-125 v 68.9 c 3,3.6 5,5.7 8,5.7 4,0 5,-1.6 8,-6.5 v -69 z m 0,-120.7 v 69 c 3,3.6 5,5.6 8,5.6 4,0 5,-1.5 8,-6.5 v -68.9 z" />
      <path
         style="stroke-width:0.856485"
         id="path9986"
         opacity="0.29"
         d="m 1216,193.1 c 0,31.4 -3,59.4 -8,72.9 4,1.3 8,-3.1 10,-6.3 v -66.1 z" />
      <path
         style="stroke-width:3.29417"
         d="m 1217,317.5 c 0,32.2 -3,60.3 -8,73.2 4,1.3 8,-3.2 10,-6.4 v -69 z"
         opacity="0.29"
         id="path9988" />
      <path
         style="stroke-width:3.29417"
         d="m 1217,438.2 c 0,32.3 -3,60.3 -8,73.2 4,1.4 8,-3.2 10,-6.4 v -69 z"
         opacity="0.29"
         id="path9992" />
      <path
         style="stroke-width:3.29417"
         d="m 1217,554.5 c 0,32.3 -3,60.3 -8,73.2 4,1.3 8,-3.2 10,-6.4 v -69 z"
         opacity="0.29"
         id="path9996" />
      <path
         style="stroke-width:3.29417"
         d="m 1217,675.2 c 0,32.3 -3,60.3 -8,73.2 4,1.4 8,-3.2 10,-6.4 v -69 z"
         opacity="0.29"
         id="path10000" />
      <path
         d="M 1207,787.3 V 714 c 2,-4.4 5,-5.2 6,0.4 1,10.3 1,47.5 0,73.2 z m 0,-120.7 v -73.2 c 2,-4.4 5,-5.3 6,0.1 1,10.4 1,47.4 0,73.3 z m 0,-116.3 V 477 c 2,-4.4 5,-5.2 6,0 1,10.3 1,47.4 0,73.3 z m 0,-125.1 V 352 c 2,-4.3 5,-5.2 6,0 1,10.4 1,47.5 0,73.2 z m 0,-120.6 v -73.3 c 2,-4.2 5,-5.1 6,0 1,10.4 1,47.4 0,73.3 z"
         fill="#502d16"
         stroke="#28170b"
         stroke-dashoffset="2.7"
         stroke-linecap="round"
         stroke-linejoin="round"
         stroke-width="2.30592"
         id="path10002" />
      <path
         style="stroke-width:3.29417"
         d="m 1217,795.8 c 0,32.3 -3,60.3 -8,73.2 4,1.4 8,-3.2 10,-6.4 v -68.9 z"
         opacity="0.29"
         id="path10006" />
      <path
         d="m 1210,781.6 c -4,-0.1 -7,3.7 -7,9 -1,15.6 10,19 15,9.1 4,-9.5 -3,-18.1 -8,-18.6 z m 0,-120.6 c -4,0 -7,3.6 -7,9 -1,15.5 10,18.9 15,9 4,-9.5 -3,-18 -8,-18.5 z m 0,-120.8 c -4,0 -7,3.8 -7,9.2 -1,15.5 10,18.9 15,9 4,-9.5 -3,-18.2 -8,-18.6 z m 0,-116.2 c -4,0 -7,3.6 -7,9 -1,15.5 10,18.9 15,9 4,-9.5 -3,-18 -8,-18.5 z m 0,-125.1 c -4,0 -7,3.9 -7,9.1 -1,15.5 10,18.9 15,9 4,-9.4 -3,-18.1 -8,-18.4 z m 0,-120.6 c -4,0 -7,3.9 -7,9 -1,15.6 10,19 15,9.1 4,-9.4 -3,-18.1 -8,-18.6 z"
         fill="#e9c6af"
         stroke="#28170b"
         stroke-dashoffset="2.7"
         stroke-linecap="round"
         stroke-linejoin="round"
         stroke-width="2.30592"
         id="path10008" />
    </g>
    <g
       id="g4148">
      <path
         id="plunger"
         style="display:inline;fill:#800000;fill-opacity:1;stroke:none;stroke-width:0;stroke-linecap:round;stroke-linejoin:round;stop-color:#000000"
         d="m 715.5,341.6 h 53 v 18.2 h -53 z" />
    </g>
    <g
       id="tree">
      <path
         id="rect2139"
         style="fill:#502d16;stroke:#28170b;stroke-width:0.8147;stroke-linecap:round;stroke-linejoin:round;stroke-dashoffset:2.69"
         d="m 826.4,346.3 h 19.7 v 26.1 h -19.7 z" />
      <path
         style="stroke-width:0.8147;stroke-linecap:round;stroke-linejoin:round;stroke-dashoffset:2.69"
         id="path2141"
         stroke="#677821"
         fill="#89a02c"
         d="m 816.4,324.2 -7,13.7 -10,16 9.9,-3.3 8.8,-4.3 10.6,12.3 13.8,-9.7 16.4,8.4 2.6,-8.6 8.5,2.9 -10.1,-15.5 -9.2,-19.4 z" />
      <path
         style="stroke-linecap:round;stroke-linejoin:round;stroke-dashoffset:2.69"
         id="path2143"
         stroke-width="0.816102"
         stroke="#89a02c"
         fill="#abc837"
         d="m 844.1,300.5 -19.9,3.8 -6,11.9 -9.1,15.3 8.7,-4.8 5.5,6.9 4.8,-7.7 6.7,12.6 8.1,-12.4 5.3,8.5 4,-9.7 10.6,6.7 z" />
      <path
         style="stroke-width:0.8147;stroke-linecap:round;stroke-linejoin:round;stroke-dashoffset:2.69"
         id="path2145"
         stroke="#abc837"
         fill="#bcd35f"
         d="m 817.7,311.6 c 2.8,-1 6.8,-2.8 9.5,-4.9 3.1,2.7 4.8,7.6 8.6,10.5 1.6,0 4,-11 5.2,-10.7 4,1.4 8.5,3.9 12.9,5.8 -1.6,-4.7 -8.3,-16.6 -9.6,-19.4 -3.2,-6.7 -5.1,-11.5 -8.7,-18.2 -2,3.9 -5.7,11.6 -7.9,17.6 z" />
      <path
         style="stroke-width:0.8147;stroke-linecap:round;stroke-linejoin:round;stroke-dashoffset:2.69"
         d="m 835.5,274.6 13.1,33.1 -4,-1.6 -5.2,-2.2 -3.4,12.8 5.5,-8.8 5.4,2.2 8.1,13.9 -3.9,-0.9 -0.4,-0.3 -3.1,8 -4.6,-7.4 -8.6,14 8.7,-8.6 4.8,7.1 4.8,-8.4 4.4,10.7 5.6,7.4 -4.5,-1.5 -1.7,7.8 -13.3,-5.3 -14.6,11.9 14.6,-6.8 v 20.1 h 2.8 v -21.3 l 12.9,6.7 2.6,-8.7 8.4,2.8 -10,-15.4 -4.3,-9 6.9,4.4 -12.5,-20.9 c 1.3,0.6 2.6,1.2 3.8,1.8 -1.5,-4.8 -8.3,-16.6 -9.6,-19.4 -3.2,-6.7 -5,-11.6 -8.6,-18.2 z"
         opacity="0.449"
         stroke="#000000"
         id="path2149" />
    </g>
    <g
       id="iron">
      <path
         d="m 931.3,347.4 c -0.4,-1.3 -0.5,-3.3 -0.4,-4.4 0.7,-1.3 2,-2.7 1.9,-3.4 0.1,-1.9 -1.2,-4.7 -1,-6.3 0.9,-1.5 1.5,-1.9 2.5,-3.1 1.8,-1.6 2.9,-2.8 4.7,-3.8 1.1,-0.4 4.8,-0.2 6,-0.1 3.7,-0.1 5.6,-1.3 7.8,-2 2.8,0.2 4.2,1.5 4.7,2.2 0.7,0.9 -0.1,1.2 0.9,2.9 1.2,1.2 2.1,1.9 3.2,3.3 -0.1,1.1 -0.2,0.8 -0.4,1.9 0.4,0.4 1.3,1.8 1.4,2.4 -0.2,1.1 -0.1,1.7 -0.7,2.5 -0.4,0.6 -0.6,1.6 -0.7,2 0.2,0.8 1.2,2 1.3,3.5 0,0.7 0,3.2 -0.2,3.7 -1.4,1 -3.1,2.6 -3.9,3.8 -1.7,1.8 -1.2,1.3 -3.3,2.4 -0.9,0.5 -4,0.1 -4.9,0.1 -3.5,0.7 -5.6,1 -9.8,1.9 0,0.5 0.1,0.8 0.1,1.2 -0.1,0.6 -1.9,3.6 -2.3,4.2 -0.3,0.5 -1.7,0.8 -2.2,0.9 -0.5,0.1 -1.7,0.3 -2.2,0.3 -0.5,0 -1.6,0.9 -2.2,1 -0.6,0.2 -2.7,-0.1 -3.3,0.1 -0.3,0.1 -1,-0.7 -1.2,-0.7 -2.3,-0.4 -1.7,0.1 -3.4,-0.9 -0.6,-0.8 -0.8,-1.5 -0.9,-1.9 -0.2,-0.6 0.2,-1.3 0.1,-1.9 -0.3,-0.4 -0.7,-0.7 -0.6,-1.2 0.2,-1.2 1.3,-2.1 1.5,-3.1 -0.3,-1.4 -0.8,-3.3 0,-4.3 0.4,-0.6 1.2,-1.1 1.8,-1.4 0.2,-0.1 1.9,0.1 2,0 0.8,-0.9 0.8,-1 1.6,-1.9 0.6,-0.2 0.4,0.5 2.2,0.1 z"
         fill="#999999"
         stroke="#333333"
         stroke-dashoffset="2.69"
         stroke-linecap="round"
         stroke-linejoin="round"
         stroke-width="0.7"
         id="path2196" />
      <path
         d="m 925.1,357.5 c 0,-0.5 0.8,-1.7 1.5,-1.4 0.3,0.1 0.5,0.7 0.7,0.8 0.4,0.1 1.5,0.4 1.6,1.1 0.1,0.5 -0.6,1.3 -0.9,1.7 -0.1,0.2 -1.7,0.2 -1.7,0.2 -0.3,-0.2 -0.1,-0.8 -0.3,-1.1 -0.6,-0.7 -0.9,-0.9 -0.9,-1.3 z m 4.7,-6.3 c 0.3,-0.2 0.8,-1.6 1.4,-1.8 0.6,-0.3 1,0.7 1.2,0.9 0.4,0.3 1,0.2 1.3,0.5 0.2,0.1 0.1,0.5 0.3,0.7 0.1,0.1 0.6,0.2 0.6,0.5 0,0.4 -0.5,0.8 -0.7,1.2 -0.3,0.7 -0.5,2.4 -1.7,1.6 -1.7,-1.2 -4.6,-2.2 -2.4,-3.6 z m 15.6,-12.5 c 0.4,-0.3 1.5,-0.9 1.9,-0.9 0.3,0.1 1.4,1.8 2.7,2 0.1,0.9 0,1.2 -0.7,1.7 -0.2,0.1 -0.5,0.8 -0.9,0.9 -0.1,0 -1.6,0.4 -1.7,0.3 -0.4,-1.3 -0.3,-1.9 -0.8,-2.3 -0.8,-0.5 -1,-0.6 -0.5,-1.7 z m 1.8,-8.7 c 0.2,1.5 1.2,3.8 1.9,3.9 0.4,0.2 1,-0.6 1.4,-0.8 1,-0.7 2.5,-1.1 2.3,-1.5 -0.2,-0.7 -0.2,-0.7 -0.6,-1.3 0,-0.9 -0.8,-0.5 -1.3,-1 -0.2,-0.2 -0.4,-0.4 -0.5,-0.6 -0.3,-0.4 -0.3,-0.2 -0.8,-0.6 -0.4,0.3 -1.2,0.5 -1.8,0.9 -0.4,0.2 -0.5,0.6 -0.6,1 z m -10.5,3.7 c 0.1,-0.6 0.1,-1.2 0.5,-1.6 1.3,-1.3 5.2,-2.3 6,-1.9 0.4,0.2 -0.1,1.5 0,1.9 0.2,0.8 0.7,0.6 1,1.5 0.2,0.5 -0.6,0.9 -0.5,1.5 0.1,0.7 0.9,1.3 -0.8,1.9 -0.6,0.2 -1.6,1.1 -2.1,1.5 -1.3,1 -1.6,1.9 -2.8,0.7 -0.7,-0.8 -0.2,-2.6 -0.3,-3.1 -0.2,-0.6 -0.7,-0.6 -1,-2.4 z"
         fill="#d45500"
         stroke="#aa4400"
         stroke-dashoffset="2.69"
         stroke-linecap="round"
         stroke-linejoin="round"
         stroke-width="0.7"
         id="path2198" />
      <path
         d="m 952.9,324.3 c 0.3,0.1 1,1.2 1.1,1.6 0.7,1.4 1,2.7 1.2,4.5 0.4,2.9 -0.4,5.4 -0.2,8 0.4,1.7 -0.5,2.4 -1,4.1 -1.3,0.6 -2.8,1.1 -3.7,1.6 -1,0.6 -2,0.8 -2.8,1.8 -0.6,0.9 0.2,1.7 -0.6,2.6 -0.8,0.8 -1.2,1 -1.9,1.3 -1.2,-0.5 -2.2,-0.7 -3.3,0 -0.3,-0.6 -1.2,-1.8 -1.3,-2.3 -0.1,-0.4 -0.2,-1.5 -0.8,-2 -1.3,-0.8 -3.3,-2.4 -4.7,-1.9 -1,0.3 -3.2,1.8 -3.9,1.5 0,0.5 0.1,1 0.1,1.4 0,0.3 0.1,0.5 0.2,0.9 0.8,-0.2 1.2,-0.4 1.9,-0.6 1,-0.3 0.8,-0.5 2.1,-0.1 1.8,0.6 2.6,0.6 2.7,2.1 0.1,0.8 2.3,3.6 2.3,3.9 -2,1.7 -3.1,2.4 -4.3,3 -0.2,0.5 -0.7,0.6 -0.8,2.2 -0.7,0.3 -1,0.9 -1.4,1.2 -0.3,0.4 0,0 -0.6,0.7 -0.4,0 -1.1,-0.3 -2.7,0.3 -0.5,0 -1.3,1.2 -1.3,1.2 -1,0.3 -2,0.4 -2.5,0.5 -0.4,1 -2.8,-0.7 -3.9,-0.8 0,0 -0.1,0.1 -0.1,0.1 0,0 0,0.1 0,0.1 0.2,0.4 0.3,1.1 0.9,1.9 1.8,1 1.1,0.4 3.4,0.9 0.3,0 0.9,0.8 1.2,0.7 0.7,-0.2 2.7,0.1 3.4,-0.1 0.5,-0.1 1.6,-1 2.2,-1 0.5,-0.1 1.7,-0.2 2.2,-0.3 0.4,-0.1 1.9,-0.4 2.2,-0.9 0.4,-0.6 2.2,-3.6 2.3,-4.3 0,-0.3 0,-0.6 -0.1,-1.1 4.2,-0.9 6.2,-1.2 9.7,-1.9 1,0 4.1,0.3 4.9,-0.1 2.1,-1.2 1.6,-0.7 3.4,-2.4 0.8,-1.3 2.5,-2.8 3.8,-3.8 0.3,-0.6 0.3,-3.1 0.3,-3.7 -0.1,-1.6 -1.2,-2.8 -1.3,-3.6 0.1,-0.3 0.3,-1.3 0.7,-2 0.6,-0.8 0.5,-1.4 0.7,-2.5 -0.1,-0.5 -1.1,-2 -1.4,-2.4 0.2,-1.1 0.3,-0.8 0.4,-1.9 -1.1,-1.4 -2.1,-2 -3.2,-3.3 -1,-1.7 -0.2,-2 -0.9,-2.9 -0.6,-0.6 -1.9,-2 -4.7,-2.2 z"
         opacity="0.304"
         id="path2200" />
    </g>
    <g
       id="bumper">
      <path
         id="path2233"
         style="font-variation-settings:normal;fill:#540000;fill-rule:evenodd;stroke:#000000;stroke-width:0.283849;stop-color:#000000"
         d="m 1038,343.3 c 0,4.6 -2,9 -6,12.2 -4,3.2 -9,5 -15,5 -11,0 -20.5,-7.7 -20.5,-17.2 0,-4.5 2.2,-8.9 6.5,-12.1 4,-3.2 9,-5 14,-5 6,0 11,1.8 15,5 4,3.2 6,7.6 6,12.1" />
      <path
         id="path2235"
         style="font-variation-settings:normal;fill:#ffcc00;fill-rule:evenodd;stroke:#000000;stop-color:#000000"
         d="m 1043,334.6 c 0,11.8 -11,21.3 -25,21.3 -14,0 -25.6,-9.5 -25.6,-21.3 0,-5.6 2.7,-11 7.5,-15 5.1,-4 11.1,-6.2 18.1,-6.2 14,0 25,9.5 25,21.2" />
      <path
         d="m 1010,314.2 -1,8.8 -13.2,1 7.2,6.9 -9.6,9 13.6,-0.5 -1,14.1 11,-9.2 9,10.3 1,-13.4 14,1.5 -8,-9 9,-6.5 -13,-2.4 -1,-9.4 -7,4.3 -4,-0.8 z"
         fill="#800000"
         stroke-dashoffset="2.694"
         stroke-width="2.6457"
         id="path2237" />
      <path
         d="m 1040,324.3 c 1,2 1,4 1,6 0,6 -3,11.7 -8,15.9 -5,4.2 -13,6.6 -20,6.6 -4,0 -8,-0.7 -12,-2 5,3.3 11,5.1 17,5.1 7,0 13,-2.2 18,-6.2 5,-4 7,-9.4 7,-15 0,-3.7 -1,-7.2 -3,-10.4 z"
         fill-rule="evenodd"
         opacity="0.25163"
         stop-color="#000000"
         style="font-variation-settings:normal"
         id="path2239" />
      <path
         d="m 1032,329.5 c 0,3.1 -1,6.1 -4,8.3 -3,2.2 -6,3.4 -10,3.4 -4,0 -7,-1.2 -10,-3.4 -3,-2.2 -4,-5.2 -4,-8.3 0,-3.1 1,-6 4,-8.2 3,-2.2 6,-3.5 10,-3.5 4,0 7,1.3 10,3.5 3,2.2 4,5.1 4,8.2"
         style="font-variation-settings:normal;fill:#800000;fill-rule:evenodd;stroke:#000000;stroke-width:0.283849;stop-color:#000000"
         id="path2241" />
      <path
         id="path2243"
         style="font-variation-settings:normal;fill-rule:evenodd"
         stroke-width="0"
         stop-color="#000000"
         opacity="0.24183"
         d="m 1032,327.5 c 0,0.7 0,1.4 0,2 0,3.1 -1,6.1 -4,8.3 -3,2.2 -6,3.4 -10,3.4 -7,0 -12,-3.5 -14,-8.7 1,5.9 7,10.3 14,10.3 8,0 14,-5.4 14,-12.1 0,-1.1 0,-2.2 0,-3.2 z" />
      <path
         d="m 1030,329.1 c 0,2.6 -1,5.1 -3,6.9 -3,1.8 -6,2.8 -9,2.8 -3,0 -6,-1 -9,-2.8 -2,-1.8 -3,-4.3 -3,-6.9 0,-2.6 1,-5.1 3,-6.9 3,-1.8 6,-2.8 9,-2.8 7,0 12,4.3 12,9.7"
         style="font-variation-settings:normal;opacity:0.20513;fill-rule:evenodd;stroke-width:0;stop-color:#000000"
         id="path2245" />
    </g>
    <g
       id="large-mine-wall">
      <path
         style="stroke:#1c2422;stroke-width:2.23744;stroke-linecap:round;stroke-linejoin:round;stroke-dashoffset:2.69"
         d="m 1104,184.9 c 10,20.1 12,45.4 19,67.3 1,11.2 6,21.5 5,33 0,15.8 -1,31.5 0,47.1 -1,15.5 -2,30.9 -3,46.5 -7,9.4 -1,22.8 -1,34 0,12.3 -4,29.1 -4,41.3 -14,7.3 -36,3.5 -38,-2.5 -19,-33.2 -11,-31.8 -10,-42.7 6,-55.6 15,-110.4 23,-165.2 3,-19.6 6,-39.1 9,-58.8 z"
         fill="#374845"
         id="path1663" />
      <path
         style="stroke:#1c2422;stroke-width:2.23744;stroke-linecap:round;stroke-linejoin:round;stroke-dashoffset:2.69"
         d="m 1076,245.1 c 1,28.3 1,46.8 -5,74.5 -1,12.5 -6,48.6 -5,61.8 0,13.5 1,27.1 3,40.5 4,9.2 12,-2.8 17,3 15,1.5 10,-47.5 11,-59.2 0,-28.6 8,-51.9 6,-78.6 1,-24.1 3,-45.3 1,-70.1 0,-9.2 6,-25.7 0,-32.1 -7,0.4 -14,-1.7 -21,0.3 -10,9.5 -9,44.6 -7,59.9 z"
         fill="#536c67"
         id="path1665" />
      <path
         style="stroke:#1c2422;stroke-width:2.23744;stroke-linecap:round;stroke-linejoin:round;stroke-dashoffset:2.69"
         d="m 1110,281.6 c 2,4.7 6,11.3 6,15.3 2,-7 6,-35.7 2,-28.2 m -5,162.9 c 0,-9.1 0,-18.5 0,-27.7 0,-0.8 1,-10.3 0,-10.2 m -8,-18.4 c 1,0.3 6,8.9 6,7.3 2,-12.8 5,-39.5 10,-48.3 0,-1.3 7,4.8 2,3.5 m -3,116.2 c -12,-7.7 -21,-19.1 -27,-32.3 m 13,-211.2 c -14,8.4 -6,13.6 -5,25 -5,23 -13,22.4 -24,31 m 3,25.9 c 5,-0.4 20,-9.4 21,-12.4 m -30,39.5 c 7,-4.1 11,-0.6 19,3.4 6,8.1 -18,23.3 -20,19.4 m 11,22.1 c 0,18.8 0,38.3 0,57 m -12,-54.5 c 7,-2.1 22,-2.3 26,0.9"
         fill="none"
         id="path1667" />
    </g>
    <g
       id="small-mine-wall">
      <path
         style="stroke:#1c2422;stroke-width:3.2571;stroke-linecap:round;stroke-linejoin:round;stroke-dashoffset:2.69"
         id="path1719"
         fill="#374845"
         d="m 781.5,449 c -3.7,14.5 -5,29.4 -8.4,44 -1.1,8.5 -1.4,17 -1.6,25.6 -5.9,1.2 -12,1.7 -18,2 -13,0 -26.1,0.5 -39,-0.6 -6,-1 -11.5,-4.1 -17.6,-3 -8.1,0.5 -16.4,1.6 -24.4,0 -5.7,-0.4 -12.6,1.8 -17,-3 -5,-11.6 -3.9,-24.8 -9.5,-36.2 -2.5,-6.9 -1.8,-14.3 -1.5,-21.4 -0.2,-4.6 -1.6,-9.5 0.5,-13.9" />
      <path
         style="stroke:#1c2422;stroke-width:3.2571;stroke-linecap:round;stroke-linejoin:round;stroke-dashoffset:2.69"
         id="path1721"
         fill="#536c67"
         d="m 645.3,430.8 c 7.7,-4.5 16.7,-0.6 25,-0.4 14.1,8.3 20.4,10.9 37,11.8 14.5,0.9 25.1,-8.7 38.1,-10.3 7,0 14.5,3 21.1,-0.8 5.1,-2.3 12.2,-5.3 17.2,-1.4 1.3,5.1 -5.4,9.5 -2.7,14.8 1.5,4.7 -0.8,12.5 -6.9,11 -10.1,-2 -20.8,-1.2 -30.6,1.9 -8.6,3.2 -18.2,4.9 -27.2,2.5 -8.6,-0.4 -17.2,4.9 -25.5,1.2 -12.6,-12.7 -24.9,-3.8 -41.2,-7.8 -10.6,-5 -5,-15.1 -4.4,-22.5 z" />
      <path
         style="stroke:#1c2422;stroke-width:3.2571;stroke-linecap:round;stroke-linejoin:round;stroke-dashoffset:2.69"
         id="path1723-5"
         fill="none"
         d="m 767.1,432.3 c -0.8,6.8 0.5,16.4 -0.5,21.5 m -31.3,-17.2 c 1.6,7.7 2.5,13.6 4.4,20.9 m -22.4,-15.3 c 0.5,5.6 3.8,12.4 2.4,18 m -25.4,-17 c 0,4.9 2.2,14.8 2.7,18.3 m -20.1,-27.4 c 0.8,4.2 4.5,16.9 3,19.9" />
      <path
         style="stroke:#1c2422;stroke-width:3.2571;stroke-linecap:round;stroke-linejoin:round;stroke-dashoffset:2.69"
         id="path1725"
         fill="none"
         d="m 671.7,484.4 c -0.9,6.5 6.3,6.7 8.7,11 1.9,5.7 1,13.8 1.5,18.1 m -5.3,-48.4 c -1.1,5.4 1.4,15.9 -2.2,18.8 -4.7,3.3 -16.6,-4 -17,0.6 m 99.5,5.6 c -2.9,4.3 3.8,6.3 6.7,4.3 4.1,2.4 0.5,8.2 1.2,12.1 m -21.5,-26.1 c 8.7,-0.8 17.4,2 25.3,0.5 2.6,-2.6 1.5,-8 2.8,-10.2 -12.4,-0.8 -4.1,-11.9 -7,-10.4 M 692.7,497 c 4.1,-0.5 8.5,-3.2 12.5,-0.8 4.2,1.5 9.1,4 13.5,1.5 3.9,-2 8.5,3.9 11.9,0 m -38.5,-12.1 c 7.8,1.2 15.3,-3.6 23.1,-1.6 4.3,0.7 8.8,1 13.1,-0.5 m -11.8,-12.6 c -8.8,14.9 -4.6,29.1 -7.3,42.5" />
    </g>
    <g
       transform="matrix(0.458,0,0,0.458,932.9,229.3)"
       id="wall"
       style="display:inline">
      <g
         id="g3435"
         transform="matrix(3.78,0,0,3.78,-196.7,485.7)">
        <rect
           id="rect3425"
           fill="#4b2d2e"
           ry="0.27"
           height="45"
           width="47"
           y="0.067"
           x="-0.27" />
        <g
           id="g3433">
          <path
             id="path3427"
             stroke-width="0.26"
             fill="#623c34"
             d="m -0.18,-0.12 v 15 c 0.69,-2.3 3.7,-3 5.1,-0.92 2.4,-1.3 -0.53,-3.4 -0.8,-4.9 1.6,-0.54 3.9,0.42 5.2,-1.3 1.8,-1.6 2.2,-4.3 1.3,-6.5 C 8.92,-0.94 2.42,0 -0.38,0 Z m 44,2.2 c -1.8,1.7 -1.1,4.7 0.23,6.5 1.2,1.5 2,0.3 1.7,-1 v -5.8 c -0.66,-0.11 -1.3,0.07 -1.9,0.38 z m -22,8 c -1.5,5.3 -2.4,11 -1.4,16 1.9,3.5 3.2,7.3 4.1,11 1.4,-0.97 2.6,-2.7 4.1,-3.8 1.7,-4 -2.9,-11 1.5,-13 1.9,-0.85 2.5,-3.2 0.82,-4.6 -2.7,-3.2 -5.1,-7.7 -9.2,-5.8 z m 13,9.2 c -0.16,7 2.5,9.4 7.4,13 2.4,-2.1 2.5,-5.9 0.73,-8.4 -1.3,-3.1 -4.9,-4.6 -8.1,-4.2 z" />
          <path
             id="path3429"
             stroke-width="0.26"
             fill="#80503f"
             d="m 28,1.9 c -2.5,3.5 0.63,8.5 3.8,4.1 2.5,-1.8 3.8,1.2 2.6,3.2 0.79,3.3 3.5,6.3 7,6.5 3.3,1.1 6.2,-2.6 5,-5.7 C 44.9,6.7 44.3,2.3 40.6,0.6 36.2,0.39 31.1,-0.36 27.6,1.9 Z M 10,3.7 c -1.6,3.1 3.2,5.2 1.6,8.5 2.4,3.5 0.44,7.9 1.5,12 1.9,3.4 5.5,9 10,7.4 5.5,-10 1.2,-19 -3.5,-27 C 15.6,0.9 11.9,1.1 10,4.37 Z M 0.6,10.1 C 0.16,11.5 0.98,15 1.33,11.7 1.293,11.09 1.01,10.5 0.6,10.1 Z m 7.7,5.1 C 4.7,17.3 5.9,22.7 8.61,25 11.71,24.84 7.89,20.2 9.03,18.2 9.7,17.29 10.13,15 8.3,15.2 Z m -2.6,25 c 2,2.2 4.7,4.4 7.9,3.5 2.5,0.56 7.3,-0.67 5.4,-4.1 -2.7,-2.9 -2.8,-7.4 -5.6,-10 -2.9,-1.6 -5.7,-4.4 -9.3,-4.2 -6.8,2.3 -1.7,13 1.5,15 z m 30,-7.4 c -3.6,-0.42 -5.2,3.6 -7.6,5.5 -2.4,-0.1 -6.8,-0.31 -5.5,3.5 1.9,4.2 6.9,0.72 10,1.6 5.2,0.75 6.1,-7.9 2.9,-11 z" />
          <path
             id="path3431"
             stroke="#5aa02c"
             fill="#71c837"
             d="m -0.36,42 c 3.6,0.18 7.4,2.1 11,0.42 3.8,-1.3 7.8,-0.47 12,-0.79 2,1.9 4.7,1.3 7.2,1.4 2.4,0.58 4.3,-0.51 6.6,-0.89 2.4,-0.1 4.9,0.77 7.2,-0.31 2.2,-1.1 6,2.7 3.1,3.3 -15,-0.1 -31,0 -47,0 z m 47,-42 v 5.2 c -1.8,-1.7 -4.5,0.62 -6.4,-0.15 -2.6,1.2 -4.6,-2.2 -7.2,-1.3 -2.3,1 -4.4,-0.31 -6.8,0.71 -2.2,0.74 -4.3,0.17 -6.4,0.92 -2,-0.71 -4,-0.87 -6.1,-0.28 C 12.24,4 10.54,3 8.84,4.43 c -2.1,-1.5 -4.7,0.06 -7,-0.04 -1.84,1 -2.4,-0.44 -2.1,-2 v -2.5 z" />
        </g>
      </g>
    </g>
    <g
       id="gold">
      <path
         id="rect3474"
         style="fill:#ffdd4f;stroke:#2b2200;stroke-width:0.32907;stroke-linecap:round;stroke-linejoin:round;stroke-dashoffset:2.7"
         d="m 974.4,477.2 h 38.6 v 52.7 h -38.6 z" />
      <path
         id="ellipse3476"
         style="font-variation-settings:normal;fill:#ffd42a;fill-rule:evenodd;stroke:#d4aa00;stroke-width:0.470059;stop-color:#000000"
         d="m 1002,508.4 a 7.991,15.51 30 0 1 -14.6,9.4 7.991,15.51 30 0 1 0.8,-17.4 7.991,15.51 30 0 1 14.8,-9.4 7.991,15.51 30 0 1 -1,17.4" />
      <path
         id="ellipse3480"
         style="font-variation-settings:normal;fill:#ffd42a;fill-rule:evenodd;stroke:#d4aa00;stroke-width:0.470059;stop-color:#000000"
         d="m 999.4,506.9 a 7.991,15.51 30 0 1 -14.6,9.4 7.991,15.51 30 0 1 0.8,-17.4 7.991,15.51 30 0 1 14.4,-9.4 7.991,15.51 30 0 1 -0.6,17.4" />
      <path
         style="stroke:#d4aa00"
         id="path3484"
         stroke-width="2.11545"
         stroke-linejoin="round"
         stroke-linecap="round"
         stroke-dashoffset="2.7"
         fill="#aa8800"
         d="m 989.3,506.9 4.7,-7.5" />
    </g>
    <g
       id="deflector">
      <rect
         id="rect8029"
         fill="#4b2d2e"
         ry="0.4782"
         height="79.69"
         width="118.4"
         y="-558"
         x="1474"
         transform="matrix(0.7115,0.7027,0,1,0,0)"
         style="stroke-width:2.11264" />
      <path
         d="M 1049,477.5 V 504 c 1,-6.2 15,16.5 9,0.6 -1,-6.2 12,11.5 11,1.7 2,-7 -8,-16.8 -14,-22.6 -2,-1.9 -4,-3.9 -6,-5.7 z m 80,83.6 c -7,-2.9 6,23 4,9.3 -1,-3.3 2,-7.2 -4,-9.3 z m -39,-24.7 c -4,8.9 -6,21.1 2,38.8 -1,7.6 6,19.9 10,14.2 4,-4.4 -6,-23.4 4,-20.9 6,-0.4 -9,-30.1 -16,-33.1 z m 23,39.4 c 1,8.8 3,23.5 13,33.4 9,4.6 1,-19.8 -8,-28.8 -2,-1.8 -3,-3.3 -5,-4.6 z"
         fill="#623c34"
         stroke-width="0.463311"
         id="path8031" />
      <path
         d="m 1099,531 c -5,-0.4 3,18.4 8,14.8 9,8.7 1,15.7 11,26.9 7,10.9 17,16.3 14,5 -2,-10.1 -7,-25 -17,-34.2 -5,-4.5 -11,-11.7 -16,-12.5 z m -32,-28.7 c -1,5.9 5,17.5 5,24.2 -1,8.7 -1,18.8 7,32.1 5,12 16,19.3 15,9.7 2,-7.5 2,-17.2 -3,-29.7 -4,-11 -9,-29.8 -20,-37.2 -2,-1.1 -4,-0.9 -5,0.2 z m -17,-5.4 c -2,2.5 4,11.7 0,0 z m 14,22.7 c -7,-3.2 -5,10.6 2,19 1,-5.5 1,-14.4 -2,-19 z m -12,9.2 c -6,6 4,29.1 15,43.1 5,8.3 19,21.7 16,8.8 -4,-11.7 -7,-23.7 -16,-36.3 -4,-6.9 -12,-17.9 -15,-15.5 z m 61,70.3 c -9,-8.1 -13,0.2 -22,-9.9 -4,3.9 7,16.5 13,20.2 6,6.7 13,14.7 13,5.3 1,-3.2 0,-8.4 -3,-14.7 z"
         fill="#80503f"
         stroke-width="0.463311"
         id="path8033" />
      <path
         d="m 1048,551.7 c 8,9.6 17,18.6 24,22.9 8,7.1 17,17.1 25,27.1 8,9.2 17,14.1 25,23.2 3,2.1 12,11.1 7,11.1 -5,-3.5 -11,-10.7 -17,-15.9 l -66,-65.6 c 0,-1.7 0,-3.4 0,-5.2 z m 85,8.9 v 9.2 c -7,-9 -15,-11.5 -20,-21.8 -8,-8.9 -16,-13.8 -23,-20.9 -7,-6.5 -13,-11.9 -18,-19.4 -6,-6.9 -13,-12.3 -18,-16.9 -8,-8.5 -2,-13 4,-4.1 9,9 17,17.2 25,25 17,16.7 34,33.7 50,49.6 z"
         fill="#71c837"
         stroke="#5aa02c"
         id="path8035"
         style="stroke-width:1.78197" />
      <path
         d="m 1133,477.1 v 84 l -84,-84 c 19,0 70,-0.1 84,-0.1 z"
         fill="#71c837"
         stroke-dashoffset="2.7"
         stroke-linecap="round"
         stroke-linejoin="round"
         stroke-width="1.589"
         id="path8041" />
    </g>
    <g
       id="background"
       style="display:inline">
      <rect
         style="display:inline"
         id="rect1147"
         fill="#71c837"
         height="800"
         width="600"
         y="0.49"
         x="0.182" />
      <path
         style="display:inline"
         id="path1149"
         stroke-width="2.65"
         stroke-linejoin="round"
         stroke-linecap="round"
         stroke-dashoffset="2.69"
         stroke="#f0c980"
         fill="#f8e898"
         d="m 164.2,205.4 c 25.7,-4 42.9,24.2 68.7,20.7 10.5,7.4 18.4,18.5 23.8,28.2 22.6,2.4 12.7,37 40.7,24.4 19.3,4.6 18,-28 30,-16 8.8,-13.1 23.8,-24.7 38.1,-26 5.4,-4.4 16.6,-6.8 13.3,8 -13.9,12 26.2,-1.4 21.8,19.7 16.7,-7.9 0.5,30.1 18.9,9.4 13.6,3.8 38.4,23.6 12.4,33.7 0,4.1 14,25.1 -6.7,20.8 6.1,12.1 -13.5,16.3 -1.8,29.3 -8.1,8.3 0.6,31.2 13.2,18.5 10.4,2.1 23.9,-0.9 22.1,15.2 12.6,11.5 -28.4,19.8 -4.2,31.1 -2.1,7 -30.8,16.3 -11.1,14.5 -3.3,26.8 -42,20.8 -44.3,48 -2.3,21.9 -8.4,42.2 -30.5,51.9 -13.8,23.8 -39.3,-0.7 -57.4,7 -16.3,-25 -32.4,14 -52.5,19.6 -6.7,13.5 -14.9,6.8 -18.9,-5.4 0.2,26.1 -14.3,1.2 -26.2,3.1 -7.8,2.7 -15.3,-25.7 -29.9,-25.3 -12.1,-10.2 -20.3,-16.4 -18.7,-30.5 -16.3,7 -39.4,-1.5 -37.7,-23.9 -20.2,9.8 -14.4,-24.8 -24.4,-37 8.4,-11.9 9.6,-7.8 -1.4,-13.7 0,-10.7 24.9,-7.2 13.3,-21.6 14.6,-3.9 6.2,-17.1 24,-18.3 -10,-21.2 32.2,-3.6 25.1,-31.1 -2.4,-14.6 1.7,-41.3 -18,-35.4 -13.5,-6.6 2.4,-30 -12.8,-36.2 0.9,-15.8 4.1,-19.7 -3.9,-34 2.6,-21.5 32.2,-28.4 35,-48.6 z m 433,-139.99 c -5.9,20.9 7,63.89 -17.2,68.49 -20.9,1.9 -45.5,28.5 -65.1,6.2 -8,-8.1 -25.4,-13.4 -17.4,-27.2 -10.5,5.7 -13.4,-6.5 -24.4,-5.1 21.5,-12.65 -19.2,-35.85 1.6,-45.25 12.9,-4.22 -24.9,-7.32 -3.5,-15.1 18.2,6.84 -0.4,-21.5 22.7,-13.4 4.8,-9.87 19.5,-34.8029 38.5,-21 21.6,17.4 43.2,34.9 64.8,52.3 z" />
      <path
         style="display:inline"
         id="path1151"
         stroke-width="2.65"
         stroke-linejoin="round"
         stroke-linecap="round"
         stroke-dashoffset="2.69"
         stroke="#f0c980"
         fill="#71c837"
         d="m 264.4,392.4 c 32.7,23 50.5,-11.8 74,-20.6 6.1,1.4 5.4,11 3.3,16 -8.9,21.1 -7.9,25.2 1.5,44.7 -0.8,12.4 7.5,23.7 18.4,28.9 7.6,15.3 -12,20.2 -22.5,15.6 -7,-4.3 -8.8,-14.3 -17,-16.9 -13.8,-0.3 -25.5,8.7 -34.8,18 -4.4,10.4 -16.4,18.7 -27.8,14.5 -10.2,-5 -7,-26 -0.8,-28.7 4,-2.9 11.5,-7.7 7.4,-13.4 -8.7,-10.4 17,-18.6 1.8,-30.9 -7.5,-9.9 -31.2,-0.4 -31.1,-14 0.8,-17.9 13.8,-20.1 27.6,-13.3 z" />
      <path
         style="display:inline"
         d="M 0,0.4071 V 254.5 a 142,174 0 0 0 56.1,29.2 h 52.8 a 142,174 0 0 0 87.4,-66.3 V 7.39 A 142,174 0 0 0 191.5,0 Z"
         fill="#53676c"
         id="path1155" />
      <path
         style="display:inline"
         d="m 196.4,212.4 c 1.3,7.2 -4.3,12.9 -8.6,17.9 -4.7,6.4 -10.1,12.3 -15.9,17.7 -4.1,3.7 -7.5,8 -11.7,11.4 -5.4,3.9 -11.5,6.7 -16.7,10.7 -6.4,6.1 -18.4,6.1 -23.6,10.9"
         fill="none"
         stroke="#1c2422"
         stroke-dashoffset="2.69"
         stroke-linecap="round"
         stroke-linejoin="round"
         stroke-width="2.65"
         id="path1157" />
    </g>
  </g>
  <g
     style="display:inline"
     inkscape:label="colliders"
     id="layer2"
     inkscape:groupmode="layer">
    <path
       style="display:inline;fill:#fb0000;fill-opacity:0.5;stroke:none;stroke-width:1px;stroke-linecap:butt;stroke-linejoin:miter;stroke-opacity:1"
       d="m 684.9,11.74 69.5,113.86 -15.2,4 -62.4,-102.96 z"
       id="kicker.collider.3" />
    <path
       style="display:inline;fill:#fb0000;fill-opacity:0.5;stroke:none;stroke-width:1px;stroke-linecap:butt;stroke-linejoin:miter;stroke-opacity:1"
       d="M 684.9,11.64 676.6,8.039 669,14.04 v 77.6 h 14.2 z"
       id="kicker.collider.1" />
    <path
       style="display:inline;fill:#fb0000;fill-opacity:0.5;stroke:none;stroke-width:1px;stroke-linecap:butt;stroke-linejoin:miter;stroke-opacity:1"
       d="m 668.9,91.64 73.7,44.96 8.4,-2 3.1,-9 -73.3,-41.96 z"
       id="kicker.collider.2" />
    <path
       sodipodi:nodetypes="ccccc"
       id="bend.2.collider"
       style="display:inline;fill:#fb0000;fill-opacity:0.5;stroke:none;stroke-width:0;stroke-linecap:round;stroke-linejoin:round;stop-color:#000000"
       d="M 775.5,4.939 H 788 V 174.6 l -12.8,-5 z" />
    <path
       sodipodi:nodetypes="ccccc"
       style="display:inline;fill:#fb0000;fill-opacity:0.5;stroke:none;stroke-width:1px;stroke-linecap:butt;stroke-linejoin:miter;stroke-opacity:1"
       d="m 776.5,171.6 126,85 6.7,-11 -124.4,-83 z"
       id="bend.1.collider" />
    <path
       style="display:inline;fill:#fb0000;fill-opacity:0.5;stroke:#000000;stroke-width:1px;stroke-linecap:butt;stroke-linejoin:miter;stroke-opacity:1"
       d="m 926.7,23.54 5,-3.9 6,-0.7 52.2,41.4 0.7,7.5 -4.6,3.8 h -6.1 l -52.9,-30.9 -3.9,-7.9 z"
       id="flipper.collider" />
    <path
       id="gutter.collider"
       style="display:inline;fill:#fb0000;fill-opacity:0.5;stroke:none;stroke-width:0;stroke-linecap:round;stroke-linejoin:round;stop-color:#000000"
       d="m 1021,12.14 214,102.46 v 45 h -214 z" />
    <path
       style="display:inline;fill:#fb0000;fill-opacity:0.5;stroke:none;stroke-width:0;stroke-linecap:round;stroke-linejoin:round;stop-color:#000000"
       id="ball.collider"
       d="m 682.6,358.3 -3,3 -3,2.2 -3,1.3 -4,0.3 -4,-0.6 -3,-1.6 -3,-2.5 -3,-3.1 -1,-3.6 v -3.8 -3.8 l 2,-3.4 2,-3 4,-2.2 3,-1.3 4,-0.3 4,0.6 3,1.6 3,2.5 2,3.1 2,3.6 v 3.8 l -1,3.8 z" />
    <path
       d="m 1204,202.2 h 13 v 665.3 h -13 z"
       style="display:inline;fill:#fb0000;fill-opacity:0.5;stroke:none;stroke-width:0;stroke-linecap:round;stroke-linejoin:round;stop-color:#000000"
       id="fence.collider" />
    <path
       id="plunger.collider"
       style="display:inline;fill:#fb0000;fill-opacity:0.5;stroke:none;stroke-width:0;stroke-linecap:round;stroke-linejoin:round;stop-color:#000000"
       d="m 715.5,341.6 h 53 v 18.2 h -53 z" />
    <path
       d="m 808.9,274.3 h 54.5 v 98.3 h -54.5 z"
       style="opacity:0.999;fill:#fb0000;fill-opacity:0.5;stroke-width:0.430915;stroke-linecap:round;stroke-linejoin:round;stop-color:#000000"
       id="tree.collider" />
    <path
       d="M 921.8,324.1 H 963 V 365 h -41.2 z"
       style="opacity:0.999;fill:#fb0000;fill-opacity:0.5;stroke-width:0.449542;stroke-linecap:round;stroke-linejoin:round;stop-color:#000000"
       id="iron.collider" />
    <path
       style="display:inline;fill:#fb0000;fill-opacity:0.5;stroke-width:0;stroke-linecap:round;stroke-linejoin:round;stop-color:#000000"
       id="bumper.collider"
       d="m 997.6,350.9 -4,-14.2 4,-14.3 12.4,-9 h 15 l 13,8.8 4,14.3 -4,14.3 -12,8.9 h -16 z" />
    <path
       d="m 1085,264.6 h 42 v 194 h -42 z"
       style="display:inline;fill:#fb0000;fill-opacity:0.5;stroke-width:0;stroke-linecap:round;stroke-linejoin:round;stop-color:#000000"
       id="large-mine-wall.collider" />
    <path
       d="M 654.2,477.1 H 773 v 45.1 H 654.2 Z"
       style="display:inline;fill:#fb0000;fill-opacity:0.5;stroke-width:0;stroke-linecap:round;stroke-linejoin:round;stop-color:#000000"
       id="small-mine-wall.collider" />
    <path
       id="top-wall.collider"
       style="display:inline;fill:#fb0000;fill-opacity:0.5;stroke:none;stroke-width:0;stroke-linecap:round;stroke-linejoin:round;stop-color:#000000"
       d="m 1266,0 h 800 v 100 h -800 z" />
    <path
       d="m 1266,100 h 100 v 800 h -100 z"
       style="display:inline;fill:#fb0000;fill-opacity:0.5;stroke:none;stroke-width:0;stroke-linecap:round;stroke-linejoin:round;stop-color:#000000"
       id="left-wall.collider" />
    <path
       id="right-wall.collider"
       style="display:inline;fill:#fb0000;fill-opacity:0.5;stroke:none;stroke-width:0;stroke-linecap:round;stroke-linejoin:round;stop-color:#000000"
       d="m 1966,100 h 100 v 800 h -100 z" />
    <path
       d="m 841.9,451 h 82.9 v 50.5 h -82.9 z"
       style="display:inline;opacity:0.999;fill:#fb0000;fill-opacity:0.5;stroke-width:0.4758;stroke-linecap:round;stroke-linejoin:round;stop-color:#000000"
       id="wall.collider" />
    <path
       sodipodi:nodetypes="cccc"
       style="display:inline;fill:#fb0000;fill-opacity:0.5;stroke:none;stroke-width:0.8513px;stroke-linecap:butt;stroke-linejoin:miter;stroke-opacity:1"
       d="m 1047,556.4 85,83.7 v -83.7 z"
       id="deflector.collider" />
    <path
       d="m 974.2,477.3 h 38.8 v 52.5 h -38.8 z"
       style="display:inline;fill:#fb0000;fill-opacity:0.5;stroke-width:0;stroke-linecap:round;stroke-linejoin:round;stop-color:#000000"
       id="gold.collider" />
  </g>
</svg>
