<svg id="svg1070" width="2066" height="900" version="1.1" viewBox="0 0 2066 900" xmlns="http://www.w3.org/2000/svg"><defs id="defs1064"><radialGradient id="radialGradient6087-1" cx="285.3" cy="93.49" r="78.39" gradientTransform="matrix(.2322 0 0 .2135 601 327.4)" gradientUnits="userSpaceOnUse"><stop id="stop10077" stop-color="#fff" offset="0"/><stop id="stop10079" stop-color="#fff" offset=".4949"/><stop id="stop10081" stop-color="#bababa" offset=".6237"/><stop id="stop10083" offset=".7511"/><stop id="stop10085" stop-color="#fff" offset="1"/></radialGradient><radialGradient id="radialGradient6065-2" cx="117.7" cy="103.6" r="78.39" gradientTransform="matrix(-.2505 0 0 -.2538 699.4 376.8)" gradientUnits="userSpaceOnUse"><stop id="stop10066" stop-color="#fff" stop-opacity="0" offset="0"/><stop id="stop10068" stop-color="#6c6c6c" stop-opacity="0" offset=".6189"/><stop id="stop10070" stop-color="#43434f" offset=".6991"/><stop id="stop10072" stop-color="#fff" stop-opacity="0" offset=".8197"/><stop id="stop10074" stop-color="#5d5d5d" offset="1"/></radialGradient></defs><g id="layer1"><g id="kicker"><path id="path1676" d="m669.3 102.4v-14.5l9.4 3.1 1.3 11.6c-0.2 1.4 0.2 3.8-1.1 4.3-0.5 0.3-2.3 1.6-5.6 1.3-3.2-0.4-4.2-3.5-4-5.8z" fill="#fc0" stroke="#000" stroke-dashoffset="2.694" stroke-linecap="square" stroke-width=".847"/><path id="path1678" d="m753.7 142.3v-14.4l-11.3 2.8-0.2 12.4c0 1.5 0.8 2.8 1.9 3.8 1.3 1.4 4.5 1.6 5.6 1.3 2.7-0.7 4.1-3.5 4-5.9z" fill="#fc0" stroke="#000" stroke-dashoffset="2.694" stroke-linecap="square" stroke-width=".847"/><g fill="#a80"><path id="path1680" d="m753.2 137c0 1 0.1 2.2 0.1 3.3-0.1 0.7 0.1 2.9-0.3 4.2-0.5 1.1-1.6 2.7-3 3.1-0.3 0.1-0.6 0.3-2 0.2 0-2-0.3-7.9 1.1-9.6 0.7-0.7 1.5-0.1 2.3-0.6 0.4-0.3 1.2-1 1.8-0.6" opacity=".7092"/><path id="path1682" d="m674 100.2c0.1 1 0 1.9 0 2.9 0 1.3-0.1 3.4 0.2 4.6 1.2 0.3 4-0.8 4.6-1.2 0.6-0.5 1.2-2.2 0.1-3.5-1.4-1.4-3.3-1.1-4.8-2.8z" opacity=".7092"/><path id="path1684" d="m742.3 142.4c1.7 0.3 5.8 0.9 9.4-2.5 0.7-0.7 2.3-4.2 1.9-6.4 0-1.6-0.3-3.1-1.1-4.5l-66.1-111.4c-0.6-1.4-0.9-2.4-3-4.2-1.8-1.4-4.9-2.2-7.1-1.8-4 0.7-7.4 4.7-7.1 9l0.2 72.3c0.4 4.1 2.1 5.9 4.8 8.1 10.2 6.7 48.3 29.2 68.1 41.4z" stroke="#000" stroke-dashoffset="2.694" stroke-width="1.012"/></g><path id="path1688" d="m742.3 136.4c1.7 0.3 5.8 0.9 9.4-2.5 0.7-0.6 2.3-4 1.9-6.2 0-1.6-0.3-3.1-1.1-4.4l-66.1-108.9c-0.6-1.2-0.9-2.3-3-4-1.8-1.4-4.9-2.2-7.1-1.8-4 0.7-7.4 4.7-7.1 8.8l0.2 70.7c0.4 3.8 2.1 5.7 4.8 7.9 10.2 6.5 48.3 28.5 68.1 40.4z" fill="#fc0" stroke="#000" stroke-dashoffset="2.694"/><path id="path1690" d="m672.5 87.6 0.1 1.1v0.2l0.3 0.9c0.2 0.3 0.4 0.7 0.6 0.9 0.2 0.3 0.5 0.6 0.7 0.9 0.3 0.1 0.5 0.3 0.7 0.6l65.7 38.9 0.3 0.1c0.2 0.3 0.4 0.4 0.6 0.5 0.4 0.2 0.7 0.4 1 0.6 0.4 0.2 0.7 0.3 1.2 0.4 0.3 0.1 0.6 0.1 1 0.1h0.4c0.2 0 0.5-0.1 0.7-0.1 0.3-0.1 0.8-0.2 1.1-0.3 0.3-0.3 0.7-0.4 0.9-0.6 0.3-0.2 0.7-0.6 0.9-0.8 0-0.1 0.1-0.1 0.1-0.1 0.2-0.3 0.3-0.5 0.6-0.8 0.1-0.3 0.2-0.6 0.3-1 0.1-0.3 0.2-0.8 0.2-1.1v-1.1c-0.1-0.4-0.1-0.7-0.2-1.1s-0.2-0.7-0.4-1c-0.2-0.2-0.2-0.4-0.3-0.5l-0.3-0.6-2.4-3.8-1.6-2.8-2.4-3.9-1.7-2.8-1.8-2.9-2.3-3.8-1.7-2.9-2.3-3.8-0.6-0.9-0.7-1-0.5-0.9-1.7-2.9-2.4-3.8-1.8-3-1.6-2.9-2.4-3.8-1.8-2.8-37-61c-0.1-0.1-0.1-0.2-0.2-0.3-0.2-0.3-0.4-0.5-0.7-0.8l-0.9-0.6c-0.4-0.1-0.7-0.2-1.1-0.3-0.4-0.2-0.7-0.2-1.1-0.2h-0.1c-0.4 0-0.7 0-1 0.1-0.4 0.1-0.7 0.2-1.1 0.3-0.3 0.1-0.6 0.3-0.9 0.6-0.3 0.2-0.6 0.4-0.9 0.7-0.2 0.2-0.4 0.6-0.6 0.9s-0.4 0.6-0.6 1c-0.1 0.3-0.2 0.7-0.3 1v0.5 71.2" fill="#800000" stroke="#000" stroke-dashoffset="2.694" stroke-width=".7"/><path id="path1692" d="m703.8 58.8-1.6 9.2c0.7 0.3 3 1.4 3.7 4l4 1.7-0.7 9.4 0.7 5.1-7.9 12.5v-16.7c0.7-0.4 1.3-0.7 1.9-0.9 0.9-0.7 3.4-1.9 3.2-3-0.1-1.4-6.1-1.9-6.1 0.2-0.1 0.7 0.2 7.4-1.1 7.6-0.9 0-1.2-2.8-1.2-3.2 0-0.6-0.1-1.1-0.1-1.7-0.1-1 0.3-3.2-0.4-3.5-1.1-0.8-3.6-1-5.2 0-0.2 0.1-0.5 0.2-0.5 0.6 0 0.9 0.7 1.4 1.3 1.8s1.4 0.9 1.9 1.2c0.2 0.2 1.4 0.5 1.8 0.9l0.1 16.8-8-12.7 0.9-4.9-0.8-9.5 4-1.6c0.4-1.5 1.7-3.4 3.6-4l-1.5-9.3c0.6-0.1 1.4-0.2 1.9-0.2 0.7 0 2.5-0.2 3.8 0 0.8 0.1 1.7 0.1 2.3 0.2z" fill="#fc0" opacity=".7092"/></g><path id="bend" d="m900.4 254.7-120.6-81.3c-2.2-2.2-3.9-2.9-4-7.2l0.5-156.1c0-2.5 3-5.1 5.6-4.9 2.7 0.1 5.7 2 5.6 5l-0.8 151.2c0 1.2-0.3 3.2 1.2 4.2l118.4 79c3.3 2.5 2.8 6.3 1.2 8.4s-5.1 2.9-7 1.5" fill="#999" stroke="#000" stroke-dashoffset="2.69" stroke-linecap="round" stroke-linejoin="round" stroke-width="1.89"/><g id="flipper" fill-rule="evenodd"><path id="path1754" d="m924 34.4c0.6 4.3 3.3 7.9 7 9.6l47.8 28.1c1.3 0.8 2.7 1.2 4.1 1.2 4.1 0 7.5-3.5 7.5-7.8 0-0.7-0.1-1.5-0.3-2.2v0.7c0 4.3-3.4 7.8-7.5 7.8-1.4 0-2.8-0.5-4-1.3l-47.9-28.1c-3.3-1.5-5.7-4.4-6.7-8z" fill="#800000" stop-color="#000000" stroke="#000" stroke-width=".1765" style="font-variation-settings:normal"/><path id="path1756" d="m924 34.4c0.6 4.3 3.3 7.9 7 9.6l47.8 28.1c1.3 0.8 2.7 1.2 4.1 1.2 4.1 0 7.5-3.5 7.5-7.8 0-0.7-0.1-1.5-0.3-2.2v0.7c0 4.3-3.4 7.8-7.5 7.8-1.4 0-2.8-0.5-4-1.3l-47.9-28.1c-3.3-1.5-5.7-4.4-6.7-8z" opacity=".3529" stop-color="#000000" style="font-variation-settings:normal"/><path id="path1758" d="m935.3 18.8c-6.4 0-11.7 5.6-11.7 12.3 0 4.9 2.8 9.4 7.1 11.3l47.9 28.1c1.2 0.8 2.6 1.3 4 1.3 4.1 0 7.5-3.5 7.5-7.8 0-2.4-1-4.6-2.7-6.1l-44.4-36.1c-0.3-0.3-0.6-0.5-0.9-0.7l-0.4-0.4v0.1c-1.9-1.3-4.1-2-6.3-2z" fill="#800000" stop-color="#000000" stroke="#000" stroke-width=".5884" style="font-variation-settings:normal"/><path id="path1760" d="m927 29.7c0 0.2 0 0.5-0.1 0.8 0 2.8 1.3 5.5 3.5 7.1v0.1l50.5 29.5c0.6 0.4 1.2 0.6 1.9 0.6 1.9 0 3.4-1.7 3.4-3.8 0.1-0.4 0-0.7-0.1-1.1 0 2.1-1.5 3.7-3.4 3.7-0.6 0-1.3-0.2-1.8-0.6v0.1l-50.5-29.1v-0.1c-2.1-1.5-3.5-4.2-3.5-7.1v-0.1z" fill="#fc0" stop-color="#000000" stroke="#000" stroke-width=".1783" style="font-variation-settings:normal"/><path id="path1762" d="m927 29.7c0 0.2 0 0.5-0.1 0.8 0 2.8 1.3 5.5 3.5 7.1v0.1l50.5 29.5c0.6 0.4 1.2 0.6 1.9 0.6 1.9 0 3.4-1.7 3.4-3.8 0.1-0.4 0-0.7-0.1-1.1 0 2.1-1.5 3.7-3.4 3.7-0.6 0-1.3-0.2-1.8-0.6v0.1l-50.5-29.1v-0.1c-2.1-1.5-3.5-4.2-3.5-7.1v-0.1z" opacity=".3595" stop-color="#000000" style="font-variation-settings:normal"/><path id="path1764" d="m934.5 21.4c-4.1 0-7.5 3.8-7.5 8.4 0 2.9 1.3 5.6 3.5 7.1v0.1l50.4 29.1v-0.1c0.6 0.4 1.2 0.6 1.8 0.6 0.9 0.1 1.8-0.3 2.4-1 0.7-0.7 1.1-1.7 1.1-2.7 0-1.5-0.8-2.9-2-3.5v-0.1l-44.5-35.6c-0.5-0.5-1-0.9-1.5-1.2-1.1-0.7-2.3-1.1-3.6-1.1z" fill="#fc0" stop-color="#000000" stroke="#000" stroke-width=".4119" style="font-variation-settings:normal"/></g><path id="gutter" d="m1021 12.14 214 102.5v45h-214z" fill="#800000" stop-color="#000000"/><g id="ball"><circle id="circle10092" cx="669.9" cy="350.6" r="14.54" fill="url(#radialGradient6087-1)" stroke="#b0b0b0" stroke-width=".0563"/><circle id="circle10094" cx="669.9" cy="350.6" r="14.54" fill="url(#radialGradient6065-2)" stroke="#000" stroke-width=".0563"/><path id="path10096" d="m656.6 356.5a14.54 14.54 0 0 0 13.3 8.5 14.54 14.54 0 0 0 12.6-7.4 21.31 14.33 0 0 1-11.9 2.5 21.31 14.33 0 0 1-14-3.6z" fill="#f2f2f2" opacity=".2051" stroke-width=".1858"/></g><g id="fence"><path id="path9984" d="m1202 791.5v69c3 3.4 5 5.6 8 5.6 4 0 5-1.3 8-6.5v-68.9zm0-120.6v69c3 3.4 5 5.5 8 5.5 4 0 5-1.3 8-6.5v-68.9zm0-120.7v68.9c3 3.4 5 5.6 8 5.6 4 0 5-1.2 8-6.4v-68.9zm0-116.3v68.9c3 3.6 5 5.6 8 5.6 4 0 5-1.4 8-6.5v-68.9zm0-125v68.9c3 3.6 5 5.7 8 5.7 4 0 5-1.6 8-6.5v-69zm0-120.7v69c3 3.6 5 5.6 8 5.6 4 0 5-1.5 8-6.5v-68.9z" fill="#502d16" stroke="#28170b" stroke-dashoffset="2.7" stroke-linecap="round" stroke-linejoin="round" stroke-width="2.306"/><path id="path9986" d="m1216 193.1c0 31.4-3 59.4-8 72.9 4 1.3 8-3.1 10-6.3v-66.1z" opacity=".29" stroke-width=".8565"/><g stroke-width="3.294"><path id="path9988" d="m1217 317.5c0 32.2-3 60.3-8 73.2 4 1.3 8-3.2 10-6.4v-69z" opacity=".29"/><path id="path9992" d="m1217 438.2c0 32.3-3 60.3-8 73.2 4 1.4 8-3.2 10-6.4v-69z" opacity=".29"/><path id="path9996" d="m1217 554.5c0 32.3-3 60.3-8 73.2 4 1.3 8-3.2 10-6.4v-69z" opacity=".29"/><path id="path10000" d="m1217 675.2c0 32.3-3 60.3-8 73.2 4 1.4 8-3.2 10-6.4v-69z" opacity=".29"/></g><path id="path10002" d="m1207 787.3v-73.3c2-4.4 5-5.2 6 0.4 1 10.3 1 47.5 0 73.2zm0-120.7v-73.2c2-4.4 5-5.3 6 0.1 1 10.4 1 47.4 0 73.3zm0-116.3v-73.3c2-4.4 5-5.2 6 0 1 10.3 1 47.4 0 73.3zm0-125.1v-73.2c2-4.3 5-5.2 6 0 1 10.4 1 47.5 0 73.2zm0-120.6v-73.3c2-4.2 5-5.1 6 0 1 10.4 1 47.4 0 73.3z" fill="#502d16" stroke="#28170b" stroke-dashoffset="2.7" stroke-linecap="round" stroke-linejoin="round" stroke-width="2.306"/><path id="path10006" d="m1217 795.8c0 32.3-3 60.3-8 73.2 4 1.4 8-3.2 10-6.4v-68.9z" opacity=".29" stroke-width="3.294"/><path id="path10008" d="m1210 781.6c-4-0.1-7 3.7-7 9-1 15.6 10 19 15 9.1 4-9.5-3-18.1-8-18.6zm0-120.6c-4 0-7 3.6-7 9-1 15.5 10 18.9 15 9 4-9.5-3-18-8-18.5zm0-120.8c-4 0-7 3.8-7 9.2-1 15.5 10 18.9 15 9 4-9.5-3-18.2-8-18.6zm0-116.2c-4 0-7 3.6-7 9-1 15.5 10 18.9 15 9 4-9.5-3-18-8-18.5zm0-125.1c-4 0-7 3.9-7 9.1-1 15.5 10 18.9 15 9 4-9.4-3-18.1-8-18.4zm0-120.6c-4 0-7 3.9-7 9-1 15.6 10 19 15 9.1 4-9.4-3-18.1-8-18.6z" fill="#e9c6af" stroke="#28170b" stroke-dashoffset="2.7" stroke-linecap="round" stroke-linejoin="round" stroke-width="2.306"/></g><g id="g4148"><path id="plunger" d="m715.5 341.6h53v18.2h-53z" fill="#800000" stop-color="#000000"/></g><g id="tree" stroke-dashoffset="2.69" stroke-linecap="round" stroke-linejoin="round"><path id="rect2139" d="m826.4 346.3h19.7v26.1h-19.7z" fill="#502d16" stroke="#28170b" stroke-width=".8147"/><path id="path2141" d="m816.4 324.2-7 13.7-10 16 9.9-3.3 8.8-4.3 10.6 12.3 13.8-9.7 16.4 8.4 2.6-8.6 8.5 2.9-10.1-15.5-9.2-19.4z" fill="#89a02c" stroke="#677821" stroke-width=".8147"/><path id="path2143" d="m844.1 300.5-19.9 3.8-6 11.9-9.1 15.3 8.7-4.8 5.5 6.9 4.8-7.7 6.7 12.6 8.1-12.4 5.3 8.5 4-9.7 10.6 6.7z" fill="#abc837" stroke="#89a02c" stroke-width=".8161"/><path id="path2145" d="m817.7 311.6c2.8-1 6.8-2.8 9.5-4.9 3.1 2.7 4.8 7.6 8.6 10.5 1.6 0 4-11 5.2-10.7 4 1.4 8.5 3.9 12.9 5.8-1.6-4.7-8.3-16.6-9.6-19.4-3.2-6.7-5.1-11.5-8.7-18.2-2 3.9-5.7 11.6-7.9 17.6z" fill="#bcd35f" stroke="#abc837" stroke-width=".8147"/><path id="path2149" d="m835.5 274.6 13.1 33.1-4-1.6-5.2-2.2-3.4 12.8 5.5-8.8 5.4 2.2 8.1 13.9-3.9-0.9-0.4-0.3-3.1 8-4.6-7.4-8.6 14 8.7-8.6 4.8 7.1 4.8-8.4 4.4 10.7 5.6 7.4-4.5-1.5-1.7 7.8-13.3-5.3-14.6 11.9 14.6-6.8v20.1h2.8v-21.3l12.9 6.7 2.6-8.7 8.4 2.8-10-15.4-4.3-9 6.9 4.4-12.5-20.9c1.3 0.6 2.6 1.2 3.8 1.8-1.5-4.8-8.3-16.6-9.6-19.4-3.2-6.7-5-11.6-8.6-18.2z" opacity=".449" stroke="#000" stroke-width=".8147"/></g><g id="iron"><path id="path2196" d="m931.3 347.4c-0.4-1.3-0.5-3.3-0.4-4.4 0.7-1.3 2-2.7 1.9-3.4 0.1-1.9-1.2-4.7-1-6.3 0.9-1.5 1.5-1.9 2.5-3.1 1.8-1.6 2.9-2.8 4.7-3.8 1.1-0.4 4.8-0.2 6-0.1 3.7-0.1 5.6-1.3 7.8-2 2.8 0.2 4.2 1.5 4.7 2.2 0.7 0.9-0.1 1.2 0.9 2.9 1.2 1.2 2.1 1.9 3.2 3.3-0.1 1.1-0.2 0.8-0.4 1.9 0.4 0.4 1.3 1.8 1.4 2.4-0.2 1.1-0.1 1.7-0.7 2.5-0.4 0.6-0.6 1.6-0.7 2 0.2 0.8 1.2 2 1.3 3.5 0 0.7 0 3.2-0.2 3.7-1.4 1-3.1 2.6-3.9 3.8-1.7 1.8-1.2 1.3-3.3 2.4-0.9 0.5-4 0.1-4.9 0.1-3.5 0.7-5.6 1-9.8 1.9 0 0.5 0.1 0.8 0.1 1.2-0.1 0.6-1.9 3.6-2.3 4.2-0.3 0.5-1.7 0.8-2.2 0.9s-1.7 0.3-2.2 0.3-1.6 0.9-2.2 1c-0.6 0.2-2.7-0.1-3.3 0.1-0.3 0.1-1-0.7-1.2-0.7-2.3-0.4-1.7 0.1-3.4-0.9-0.6-0.8-0.8-1.5-0.9-1.9-0.2-0.6 0.2-1.3 0.1-1.9-0.3-0.4-0.7-0.7-0.6-1.2 0.2-1.2 1.3-2.1 1.5-3.1-0.3-1.4-0.8-3.3 0-4.3 0.4-0.6 1.2-1.1 1.8-1.4 0.2-0.1 1.9 0.1 2 0 0.8-0.9 0.8-1 1.6-1.9 0.6-0.2 0.4 0.5 2.2 0.1z" fill="#999" stroke="#333" stroke-dashoffset="2.69" stroke-linecap="round" stroke-linejoin="round" stroke-width=".7"/><path id="path2198" d="m925.1 357.5c0-0.5 0.8-1.7 1.5-1.4 0.3 0.1 0.5 0.7 0.7 0.8 0.4 0.1 1.5 0.4 1.6 1.1 0.1 0.5-0.6 1.3-0.9 1.7-0.1 0.2-1.7 0.2-1.7 0.2-0.3-0.2-0.1-0.8-0.3-1.1-0.6-0.7-0.9-0.9-0.9-1.3zm4.7-6.3c0.3-0.2 0.8-1.6 1.4-1.8 0.6-0.3 1 0.7 1.2 0.9 0.4 0.3 1 0.2 1.3 0.5 0.2 0.1 0.1 0.5 0.3 0.7 0.1 0.1 0.6 0.2 0.6 0.5 0 0.4-0.5 0.8-0.7 1.2-0.3 0.7-0.5 2.4-1.7 1.6-1.7-1.2-4.6-2.2-2.4-3.6zm15.6-12.5c0.4-0.3 1.5-0.9 1.9-0.9 0.3 0.1 1.4 1.8 2.7 2 0.1 0.9 0 1.2-0.7 1.7-0.2 0.1-0.5 0.8-0.9 0.9-0.1 0-1.6 0.4-1.7 0.3-0.4-1.3-0.3-1.9-0.8-2.3-0.8-0.5-1-0.6-0.5-1.7zm1.8-8.7c0.2 1.5 1.2 3.8 1.9 3.9 0.4 0.2 1-0.6 1.4-0.8 1-0.7 2.5-1.1 2.3-1.5-0.2-0.7-0.2-0.7-0.6-1.3 0-0.9-0.8-0.5-1.3-1-0.2-0.2-0.4-0.4-0.5-0.6-0.3-0.4-0.3-0.2-0.8-0.6-0.4 0.3-1.2 0.5-1.8 0.9-0.4 0.2-0.5 0.6-0.6 1zm-10.5 3.7c0.1-0.6 0.1-1.2 0.5-1.6 1.3-1.3 5.2-2.3 6-1.9 0.4 0.2-0.1 1.5 0 1.9 0.2 0.8 0.7 0.6 1 1.5 0.2 0.5-0.6 0.9-0.5 1.5 0.1 0.7 0.9 1.3-0.8 1.9-0.6 0.2-1.6 1.1-2.1 1.5-1.3 1-1.6 1.9-2.8 0.7-0.7-0.8-0.2-2.6-0.3-3.1-0.2-0.6-0.7-0.6-1-2.4z" fill="#d45500" stroke="#a40" stroke-dashoffset="2.69" stroke-linecap="round" stroke-linejoin="round" stroke-width=".7"/><path id="path2200" d="m952.9 324.3c0.3 0.1 1 1.2 1.1 1.6 0.7 1.4 1 2.7 1.2 4.5 0.4 2.9-0.4 5.4-0.2 8 0.4 1.7-0.5 2.4-1 4.1-1.3 0.6-2.8 1.1-3.7 1.6-1 0.6-2 0.8-2.8 1.8-0.6 0.9 0.2 1.7-0.6 2.6-0.8 0.8-1.2 1-1.9 1.3-1.2-0.5-2.2-0.7-3.3 0-0.3-0.6-1.2-1.8-1.3-2.3-0.1-0.4-0.2-1.5-0.8-2-1.3-0.8-3.3-2.4-4.7-1.9-1 0.3-3.2 1.8-3.9 1.5 0 0.5 0.1 1 0.1 1.4 0 0.3 0.1 0.5 0.2 0.9 0.8-0.2 1.2-0.4 1.9-0.6 1-0.3 0.8-0.5 2.1-0.1 1.8 0.6 2.6 0.6 2.7 2.1 0.1 0.8 2.3 3.6 2.3 3.9-2 1.7-3.1 2.4-4.3 3-0.2 0.5-0.7 0.6-0.8 2.2-0.7 0.3-1 0.9-1.4 1.2-0.3 0.4 0 0-0.6 0.7-0.4 0-1.1-0.3-2.7 0.3-0.5 0-1.3 1.2-1.3 1.2-1 0.3-2 0.4-2.5 0.5-0.4 1-2.8-0.7-3.9-0.8l-0.1 0.1v0.1c0.2 0.4 0.3 1.1 0.9 1.9 1.8 1 1.1 0.4 3.4 0.9 0.3 0 0.9 0.8 1.2 0.7 0.7-0.2 2.7 0.1 3.4-0.1 0.5-0.1 1.6-1 2.2-1 0.5-0.1 1.7-0.2 2.2-0.3 0.4-0.1 1.9-0.4 2.2-0.9 0.4-0.6 2.2-3.6 2.3-4.3 0-0.3 0-0.6-0.1-1.1 4.2-0.9 6.2-1.2 9.7-1.9 1 0 4.1 0.3 4.9-0.1 2.1-1.2 1.6-0.7 3.4-2.4 0.8-1.3 2.5-2.8 3.8-3.8 0.3-0.6 0.3-3.1 0.3-3.7-0.1-1.6-1.2-2.8-1.3-3.6 0.1-0.3 0.3-1.3 0.7-2 0.6-0.8 0.5-1.4 0.7-2.5-0.1-0.5-1.1-2-1.4-2.4 0.2-1.1 0.3-0.8 0.4-1.9-1.1-1.4-2.1-2-3.2-3.3-1-1.7-0.2-2-0.9-2.9-0.6-0.6-1.9-2-4.7-2.2z" opacity=".304"/></g><g id="bumper"><path id="path2233" d="m1038 343.3c0 4.6-2 9-6 12.2s-9 5-15 5c-11 0-20.5-7.7-20.5-17.2 0-4.5 2.2-8.9 6.5-12.1 4-3.2 9-5 14-5 6 0 11 1.8 15 5s6 7.6 6 12.1" fill="#540000" fill-rule="evenodd" stop-color="#000000" stroke="#000" stroke-width=".2838" style="font-variation-settings:normal"/><path id="path2235" d="m1043 334.6c0 11.8-11 21.3-25 21.3s-25.6-9.5-25.6-21.3c0-5.6 2.7-11 7.5-15 5.1-4 11.1-6.2 18.1-6.2 14 0 25 9.5 25 21.2" fill="#fc0" fill-rule="evenodd" stop-color="#000000" stroke="#000" style="font-variation-settings:normal"/><path id="path2237" d="m1010 314.2-1 8.8-13.2 1 7.2 6.9-9.6 9 13.6-0.5-1 14.1 11-9.2 9 10.3 1-13.4 14 1.5-8-9 9-6.5-13-2.4-1-9.4-7 4.3-4-0.8z" fill="#800000" stroke-dashoffset="2.694" stroke-width="2.646"/><g fill-rule="evenodd"><path id="path2239" d="m1040 324.3c1 2 1 4 1 6 0 6-3 11.7-8 15.9s-13 6.6-20 6.6c-4 0-8-0.7-12-2 5 3.3 11 5.1 17 5.1 7 0 13-2.2 18-6.2s7-9.4 7-15c0-3.7-1-7.2-3-10.4z" opacity=".2516" stop-color="#000000" style="font-variation-settings:normal"/><path id="path2241" d="m1032 329.5c0 3.1-1 6.1-4 8.3s-6 3.4-10 3.4-7-1.2-10-3.4-4-5.2-4-8.3 1-6 4-8.2 6-3.5 10-3.5 7 1.3 10 3.5 4 5.1 4 8.2" fill="#800000" stop-color="#000000" stroke="#000" stroke-width=".2838" style="font-variation-settings:normal"/><path id="path2243" d="m1032 327.5v2c0 3.1-1 6.1-4 8.3s-6 3.4-10 3.4c-7 0-12-3.5-14-8.7 1 5.9 7 10.3 14 10.3 8 0 14-5.4 14-12.1v-3.2z" opacity=".2418" stop-color="#000000" stroke-width="0" style="font-variation-settings:normal"/><path id="path2245" d="m1030 329.1c0 2.6-1 5.1-3 6.9-3 1.8-6 2.8-9 2.8s-6-1-9-2.8c-2-1.8-3-4.3-3-6.9s1-5.1 3-6.9c3-1.8 6-2.8 9-2.8 7 0 12 4.3 12 9.7" opacity=".2051" stop-color="#000000" stroke-width="0" style="font-variation-settings:normal"/></g></g><g id="large-mine-wall" stroke="#1c2422" stroke-dashoffset="2.69" stroke-linecap="round" stroke-linejoin="round" stroke-width="2.237"><path id="path1663" d="m1104 184.9c10 20.1 12 45.4 19 67.3 1 11.2 6 21.5 5 33 0 15.8-1 31.5 0 47.1-1 15.5-2 30.9-3 46.5-7 9.4-1 22.8-1 34 0 12.3-4 29.1-4 41.3-14 7.3-36 3.5-38-2.5-19-33.2-11-31.8-10-42.7 6-55.6 15-110.4 23-165.2 3-19.6 6-39.1 9-58.8z" fill="#374845"/><path id="path1665" d="m1076 245.1c1 28.3 1 46.8-5 74.5-1 12.5-6 48.6-5 61.8 0 13.5 1 27.1 3 40.5 4 9.2 12-2.8 17 3 15 1.5 10-47.5 11-59.2 0-28.6 8-51.9 6-78.6 1-24.1 3-45.3 1-70.1 0-9.2 6-25.7 0-32.1-7 0.4-14-1.7-21 0.3-10 9.5-9 44.6-7 59.9z" fill="#536c67"/><path id="path1667" d="m1110 281.6c2 4.7 6 11.3 6 15.3 2-7 6-35.7 2-28.2m-5 162.9v-27.7c0-0.8 1-10.3 0-10.2m-8-18.4c1 0.3 6 8.9 6 7.3 2-12.8 5-39.5 10-48.3 0-1.3 7 4.8 2 3.5m-3 116.2c-12-7.7-21-19.1-27-32.3m13-211.2c-14 8.4-6 13.6-5 25-5 23-13 22.4-24 31m3 25.9c5-0.4 20-9.4 21-12.4m-30 39.5c7-4.1 11-0.6 19 3.4 6 8.1-18 23.3-20 19.4m11 22.1v57m-12-54.5c7-2.1 22-2.3 26 0.9" fill="none"/></g><g id="small-mine-wall" stroke="#1c2422" stroke-dashoffset="2.69" stroke-linecap="round" stroke-linejoin="round" stroke-width="3.257"><path id="path1719" d="m781.5 449c-3.7 14.5-5 29.4-8.4 44-1.1 8.5-1.4 17-1.6 25.6-5.9 1.2-12 1.7-18 2-13 0-26.1 0.5-39-0.6-6-1-11.5-4.1-17.6-3-8.1 0.5-16.4 1.6-24.4 0-5.7-0.4-12.6 1.8-17-3-5-11.6-3.9-24.8-9.5-36.2-2.5-6.9-1.8-14.3-1.5-21.4-0.2-4.6-1.6-9.5 0.5-13.9" fill="#374845"/><path id="path1721" d="m645.3 430.8c7.7-4.5 16.7-0.6 25-0.4 14.1 8.3 20.4 10.9 37 11.8 14.5 0.9 25.1-8.7 38.1-10.3 7 0 14.5 3 21.1-0.8 5.1-2.3 12.2-5.3 17.2-1.4 1.3 5.1-5.4 9.5-2.7 14.8 1.5 4.7-0.8 12.5-6.9 11-10.1-2-20.8-1.2-30.6 1.9-8.6 3.2-18.2 4.9-27.2 2.5-8.6-0.4-17.2 4.9-25.5 1.2-12.6-12.7-24.9-3.8-41.2-7.8-10.6-5-5-15.1-4.4-22.5z" fill="#536c67"/><path id="path1723-5" d="m767.1 432.3c-0.8 6.8 0.5 16.4-0.5 21.5m-31.3-17.2c1.6 7.7 2.5 13.6 4.4 20.9m-22.4-15.3c0.5 5.6 3.8 12.4 2.4 18m-25.4-17c0 4.9 2.2 14.8 2.7 18.3m-20.1-27.4c0.8 4.2 4.5 16.9 3 19.9" fill="none"/><path id="path1725" d="m671.7 484.4c-0.9 6.5 6.3 6.7 8.7 11 1.9 5.7 1 13.8 1.5 18.1m-5.3-48.4c-1.1 5.4 1.4 15.9-2.2 18.8-4.7 3.3-16.6-4-17 0.6m99.5 5.6c-2.9 4.3 3.8 6.3 6.7 4.3 4.1 2.4 0.5 8.2 1.2 12.1m-21.5-26.1c8.7-0.8 17.4 2 25.3 0.5 2.6-2.6 1.5-8 2.8-10.2-12.4-0.8-4.1-11.9-7-10.4m-71.7 36.7c4.1-0.5 8.5-3.2 12.5-0.8 4.2 1.5 9.1 4 13.5 1.5 3.9-2 8.5 3.9 11.9 0m-38.5-12.1c7.8 1.2 15.3-3.6 23.1-1.6 4.3 0.7 8.8 1 13.1-0.5m-11.8-12.6c-8.8 14.9-4.6 29.1-7.3 42.5" fill="none"/></g><g id="gold"><path id="rect3474" d="m974.4 477.2h38.6v52.7h-38.6z" fill="#ffdd4f" stroke="#2b2200" stroke-dashoffset="2.7" stroke-linecap="round" stroke-linejoin="round" stroke-width=".3291"/><g stroke="#d4aa00"><path id="ellipse3476" d="m1002 508.4a7.991 15.51 30 0 1-14.6 9.4 7.991 15.51 30 0 1 0.8-17.4 7.991 15.51 30 0 1 14.8-9.4 7.991 15.51 30 0 1-1 17.4" fill="#ffd42a" fill-rule="evenodd" stop-color="#000000" stroke-width=".4701" style="font-variation-settings:normal"/><path id="ellipse3480" d="m999.4 506.9a7.991 15.51 30 0 1-14.6 9.4 7.991 15.51 30 0 1 0.8-17.4 7.991 15.51 30 0 1 14.4-9.4 7.991 15.51 30 0 1-0.6 17.4" fill="#ffd42a" fill-rule="evenodd" stop-color="#000000" stroke-width=".4701" style="font-variation-settings:normal"/><path id="path3484" d="m989.3 506.9 4.7-7.5" fill="#a80" stroke-dashoffset="2.7" stroke-linecap="round" stroke-linejoin="round" stroke-width="2.115"/></g></g><g id="background"><rect id="rect1147" x=".182" y=".49" width="600" height="800" fill="#71c837"/><path id="path1149" d="m164.2 205.4c25.7-4 42.9 24.2 68.7 20.7 10.5 7.4 18.4 18.5 23.8 28.2 22.6 2.4 12.7 37 40.7 24.4 19.3 4.6 18-28 30-16 8.8-13.1 23.8-24.7 38.1-26 5.4-4.4 16.6-6.8 13.3 8-13.9 12 26.2-1.4 21.8 19.7 16.7-7.9 0.5 30.1 18.9 9.4 13.6 3.8 38.4 23.6 12.4 33.7 0 4.1 14 25.1-6.7 20.8 6.1 12.1-13.5 16.3-1.8 29.3-8.1 8.3 0.6 31.2 13.2 18.5 10.4 2.1 23.9-0.9 22.1 15.2 12.6 11.5-28.4 19.8-4.2 31.1-2.1 7-30.8 16.3-11.1 14.5-3.3 26.8-42 20.8-44.3 48-2.3 21.9-8.4 42.2-30.5 51.9-13.8 23.8-39.3-0.7-57.4 7-16.3-25-32.4 14-52.5 19.6-6.7 13.5-14.9 6.8-18.9-5.4 0.2 26.1-14.3 1.2-26.2 3.1-7.8 2.7-15.3-25.7-29.9-25.3-12.1-10.2-20.3-16.4-18.7-30.5-16.3 7-39.4-1.5-37.7-23.9-20.2 9.8-14.4-24.8-24.4-37 8.4-11.9 9.6-7.8-1.4-13.7 0-10.7 24.9-7.2 13.3-21.6 14.6-3.9 6.2-17.1 24-18.3-10-21.2 32.2-3.6 25.1-31.1-2.4-14.6 1.7-41.3-18-35.4-13.5-6.6 2.4-30-12.8-36.2 0.9-15.8 4.1-19.7-3.9-34 2.6-21.5 32.2-28.4 35-48.6zm433-140c-5.9 20.9 7 63.89-17.2 68.49-20.9 1.9-45.5 28.5-65.1 6.2-8-8.1-25.4-13.4-17.4-27.2-10.5 5.7-13.4-6.5-24.4-5.1 21.5-12.65-19.2-35.85 1.6-45.25 12.9-4.22-24.9-7.32-3.5-15.1 18.2 6.84-0.4-21.5 22.7-13.4 4.8-9.87 19.5-34.8 38.5-21 21.6 17.4 43.2 34.9 64.8 52.3z" fill="#f8e898" stroke="#f0c980" stroke-dashoffset="2.69" stroke-linecap="round" stroke-linejoin="round" stroke-width="2.65"/><path id="path1151" d="m264.4 392.4c32.7 23 50.5-11.8 74-20.6 6.1 1.4 5.4 11 3.3 16-8.9 21.1-7.9 25.2 1.5 44.7-0.8 12.4 7.5 23.7 18.4 28.9 7.6 15.3-12 20.2-22.5 15.6-7-4.3-8.8-14.3-17-16.9-13.8-0.3-25.5 8.7-34.8 18-4.4 10.4-16.4 18.7-27.8 14.5-10.2-5-7-26-0.8-28.7 4-2.9 11.5-7.7 7.4-13.4-8.7-10.4 17-18.6 1.8-30.9-7.5-9.9-31.2-0.4-31.1-14 0.8-17.9 13.8-20.1 27.6-13.3z" fill="#71c837" stroke="#f0c980" stroke-dashoffset="2.69" stroke-linecap="round" stroke-linejoin="round" stroke-width="2.65"/><path id="path1155" d="m0 0.4071v254.1a142 174 0 0 0 56.1 29.2h52.8a142 174 0 0 0 87.4-66.3v-210a142 174 0 0 0-4.8-7.39z" fill="#53676c"/><path id="path1157" d="m196.4 212.4c1.3 7.2-4.3 12.9-8.6 17.9-4.7 6.4-10.1 12.3-15.9 17.7-4.1 3.7-7.5 8-11.7 11.4-5.4 3.9-11.5 6.7-16.7 10.7-6.4 6.1-18.4 6.1-23.6 10.9" fill="none" stroke="#1c2422" stroke-dashoffset="2.69" stroke-linecap="round" stroke-linejoin="round" stroke-width="2.65"/></g><g id="lance" fill="#fff" stroke="#000" stroke-width=".3"><path id="path1721-6" d="m661.1 558.7 2-1.8 0.6 0.5-1.9 1.8h2.2l3.9-6.1-6.8 3.5z"/><path id="path1723" d="m660.3 557.7v2.3h2.5l-0.7 0.8h-1.1l-1.1 1-0.4-0.5-5.5 4.8-0.6-0.5 5.4-4.9-0.4-0.4 1-0.9v-1.1z"/></g><g id="axe" fill="#fff" stroke="#000" stroke-width=".3"><path id="path1663-1" d="m687.1 563.8 8.4-8.5c0.3-0.2 0.6-0.2 0.8 0 0.3 0.2 0.3 0.4 0.1 0.7l-8.4 8.4c0.4 0.2 0.2 0.6-0.1 0.8l-3.3 3.3c-0.1 0.1-0.3 0.2-0.4 0.1l-0.1-0.1-1.1-0.9c-0.2-0.1-0.1-0.3 0-0.4l3.5-3.6c0.2-0.2 0.4 0 0.6 0.2"/><path id="path1667-9" d="m694.2 555.7c-0.5-1.5 0.4-2.1 0.5-2.3-0.5 0-0.9-0.1-1.4-0.1-0.9 0.1-1.2 0.2-1.8 0.5-1.3 0.5-2.2 1.4-2.7 2.6-0.3 0.9-0.4 1.8 0 2.9 0.4-0.4 1.4-0.9 2.5-0.6"/><path id="path1669" d="m693.2 560.2 2.9-3c0.4 0.1 0.9 0.1 1.4 0s0.8-0.4 1.1-0.6c0.9 2.8-1 5-3.3 5.7-0.7 0.2-2 0.3-2.6 0.1 0.7-0.7 0.7-1.5 0.5-2.2z"/></g><g id="sword"><g id="g1020" fill="#fff" stroke="#000"><g stroke-width=".3"><path id="path1773" d="m718.1 560.7 7.3-6.7h3.3v2.9l-7.4 6.7-1.4-1.2 6.9-6.2-0.1-0.5h-0.4l-6.8 6.2z"/><path id="path1775" d="m715.8 561.3 1.1-0.9 4.8 4.4-1 0.9z"/><path id="path1777" d="m714.9 561.4 2-1.8c0-0.3-0.1-0.5-0.3-0.5h-1.9c-0.3 0-0.3 0.2-0.3 0.4v1.6c0 0.3 0.2 0.3 0.5 0.3z"/><path id="path1779" d="m722.6 564.8-2 1.8c-0.1 0.3 0.1 0.4 0.3 0.4l1.9 0.1c0.2-0.1 0.3-0.2 0.3-0.5v-1.5c0-0.3-0.3-0.3-0.5-0.3z"/></g><path id="path1781" d="m716.8 563-1.3 1.2h-2c-0.2 0-0.3 0-0.4 0.3v3.4c0.1 0.2 0.2 0.2 0.3 0.3h3.7s0.4 0 0.4-0.3v-1.9l1.3-1.2zm-2.1 2.6h1.2v1.1h-1.2z" stroke-width=".3"/></g></g></g><g id="layer2" fill="#fb0000" fill-opacity=".5"><path id="kicker.collider.3" d="m684.9 11.74 69.5 113.9-15.2 4-62.4-103z"/><path id="kicker.collider.1" d="m684.9 11.64-8.3-3.601-7.6 6.001v77.6h14.2z"/><path id="kicker.collider.2" d="m668.9 91.64 73.7 44.96 8.4-2 3.1-9-73.3-41.96z"/><path id="bend.2.collider" d="m775.5 4.939h12.5v169.7l-12.8-5z" stop-color="#000000"/><path id="bend.1.collider" d="m776.5 171.6 126 85 6.7-11-124.4-83z"/><path id="flipper.collider" d="m926.7 23.54 5-3.9 6-0.7 52.2 41.4 0.7 7.5-4.6 3.8h-6.1l-52.9-30.9-3.9-7.9z" stroke="#000" stroke-width="1px"/><path id="gutter.collider" d="m1021 12.14 214 102.5v45h-214z" stop-color="#000000"/><path id="ball.collider" d="m682.6 358.3-3 3-3 2.2-3 1.3-4 0.3-4-0.6-3-1.6-3-2.5-3-3.1-1-3.6v-7.6l2-3.4 2-3 4-2.2 3-1.3 4-0.3 4 0.6 3 1.6 3 2.5 2 3.1 2 3.6v3.8l-1 3.8z" stop-color="#000000"/><path id="fence.collider" d="m1204 202.2h13v665.3h-13z" stop-color="#000000"/><path id="plunger.collider" d="m715.5 341.6h53v18.2h-53z" stop-color="#000000"/><path id="tree.collider" d="m808.9 274.3h54.5v98.3h-54.5z" opacity=".999" stop-color="#000000" stroke-linecap="round" stroke-linejoin="round" stroke-width=".4309"/><path id="iron.collider" d="m921.8 324.1h41.2v40.9h-41.2z" opacity=".999" stop-color="#000000" stroke-linecap="round" stroke-linejoin="round" stroke-width=".4495"/><g stroke-width="0"><path id="bumper.collider" d="m997.6 350.9-4-14.2 4-14.3 12.4-9h15l13 8.8 4 14.3-4 14.3-12 8.9h-16z" stop-color="#000000"/><path id="large-mine-wall.collider" d="m1085 264.6h42v194h-42z" stop-color="#000000"/><path id="small-mine-wall.collider" d="m654.2 477.1h118.8v45.1h-118.8z" stop-color="#000000"/></g><path id="top-wall.collider" d="m1266 0h800v100h-800z" stop-color="#000000"/><path id="left-wall.collider" d="m1266 100h100v800h-100z" stop-color="#000000"/><path id="right-wall.collider" d="m1966 100h100v800h-100z" stop-color="#000000"/><path id="gold.collider" d="m974.2 477.3h38.8v52.5h-38.8z" stop-color="#000000" stroke-width="0"/><path id="enemy.collider" d="m654.8 599.5h62.1v108.3h-62.1z" opacity=".999" stop-color="#000000"/><path id="boss.collider" d="m796.1 602.1h92.9v113.2h-92.9z" opacity=".999" stop-color="#000000"/></g></svg>
