<svg id="svg" width="2066" height="900" version="1.1" viewBox="0 0 2066 900" xmlns="http://www.w3.org/2000/svg" xmlns:xlink="http://www.w3.org/1999/xlink"><defs><pattern id="pattern2065" patternTransform="matrix(1 0 0 1.16 1092 167)" xlink:href="#pattern1097"/><radialGradient id="radialGradient6087-1" cx="285" cy="93.5" r="78.4" gradientTransform="matrix(.232 0 0 .214 601 327)" gradientUnits="userSpaceOnUse"><stop stop-color="#fff" offset="0"/><stop stop-color="#fff" offset=".495"/><stop stop-color="#bababa" offset=".624"/><stop offset=".751"/><stop stop-color="#fff" offset="1"/></radialGradient><radialGradient id="radialGradient6065-2" cx="118" cy="104" r="78.4" gradientTransform="matrix(-.25 0 0 -.254 699 377)" gradientUnits="userSpaceOnUse"><stop stop-color="#fff" stop-opacity="0" offset="0"/><stop stop-color="#6c6c6c" stop-opacity="0" offset=".619"/><stop stop-color="#43434f" offset=".699"/><stop stop-color="#fff" stop-opacity="0" offset=".82"/><stop stop-color="#5d5d5d" offset="1"/></radialGradient><pattern id="pattern1097" width="21.6" height="137.4" patternTransform="translate(1286 292)" patternUnits="userSpaceOnUse"><g transform="matrix(2.62 0 0 3.79 -2.76 -4.55)" stroke="#28170b"><path d="m1.32 3.44v18.8c1.28.91 2.57 1.42 3.97 1.36 1.26-.1 1.98-.52 3.48-1.52l.261-18.5z" fill="#520" stroke-linejoin="round" stroke-width=".5"/><ellipse cx="5.14" cy="3.55" rx="3.84" ry="2.1" fill="#e9c6af" stroke-width=".5"/><path d="m6.13 12.9v24.3h-1.87v-24.3c.08-.1.811-.35.941-.36.129 0 .711.16.93.36z" fill="#520" stroke-linejoin="round" stroke-width=".5"/></g></pattern></defs><g id="$layer1"><path id="$bend" d="m735 179c-2.2-2.2-3.9-2.9-4-7.2l.5-156c.1-7.26 11.3-6.82 11.3.1l-.8 151c0 1.2-.3 3.3 1.2 4.2l142 81.7c3.3 2.5 2.8 6.3 1.2 8.4s-5.1 2.9-7 1.5z" fill="#999" stroke="#000" stroke-width="2"/><g id="$kicker"><g stroke="#000"><g><path d="m601 102v-14.5c12.5 2.28 11.4 17.1 9.6 19-4.1 2.3-10 1.1-9.6-4.5z" fill="#fc0"/><path d="m686 142v-14.4c-14.1 3.2-11.2 1.2-11.5 15.2 2.3 7.6 11.3 5.1 11.5-.8z" fill="#fc0"/><path d="m675 142c8.1 1.8 11.7-4.3 10.8-13.3-89.2-66.6-84-35.5-84-35.5s2.1 5.9 4.8 8.1c10.2 6.7 48.6 28.5 68.4 40.7z" fill="#a80"/></g><path id="$kicker.fx" d="m674 136c3.1 1.9 6.4.8 9.4-2.5s2.7-7.4.8-10.6l-66.1-109c-1.8-3.73-5.6-6.51-10.1-5.8-4 .7-7.4 4.7-7.1 8.8l.2 70.7c.4 3.8 2.1 5.7 4.8 7.9 10.2 6.5 48.2 28.6 68.1 40.4z" fill="#fc0"/><path d="m674 133c1.3.8 4.6 1.3 6.6-.5 1.9-1.8 2.6-3 2.4-4.9-.3-1.8-1-2.7-1.7-3.9 0 0-64.2-106-64.7-107s-1.2-2.39-3.1-3.94c-1.7-1.27-3.5-1.92-5.4-1.32-2.1.65-3.8 3.14-3.5 6.88v67.3c.4 3.47 1.7 5.73 4.2 7.74 9.3 5.92 47.1 28.3 65.2 39.2z" fill="#800000"/></g><path id="$helmet.fx" d="m636 58.8-1.6 9.2c.7.3 3 1.4 3.7 4l4 1.7-.7 9.4.7 5.1-7.9 12.5v-16.7c1.5-.89 5.2-2.44 5.1-3.9-.1-1.4-6.1-1.9-6.1.2-.1.7.2 7.4-1.1 7.6-1.2-.23-1.3-5.28-1.3-7.42 0-1.89-5.8-2.15-6.1-.38-.2 1.63 3.2 2.98 5 3.9l.1 16.8-8-12.7.9-4.9-.8-9.5 4-1.6c.4-1.5 1.7-3.4 3.6-4l-1.5-9.3c2.9-.49 5.2-.46 8 0z" fill="#fc0" opacity=".709"/></g><g id="$flipper" stroke="#000"><path d="m924 34.4s-.5 5.78 7 9.6l47.8 28.1c11.2 4.69 11.3-8.8 11.3-8.8z" fill="#530000"/><path d="m935 18.8c-6.4 0-11.7 5.6-11.7 12.3 0 4.9 2.8 9.4 7.1 11.3l47.9 28.1c1.2.8 2.6 1.3 4 1.3 4.1 0 7.5-3.5 7.5-7.8 0-2.4-1-4.6-2.7-6.1-14.8-12-29.6-24.1-44.4-36.1-2.1-1.72-5.2-2.94-7.7-3z" fill="#800000"/><path d="m929 25c-2.7 2.87-2.5 8.85 1.6 11.9 17.8 9.38 33.7 21.8 49.2 29.7 3.8 1.34 5.4 0 6.2-1.15.8-1.12 1.6-3.22-1.7-6.09-14.7-12-29.7-23.8-44.5-35.7-4.3-3.83-8.2-1.56-10.8 1.3z" fill="#fc0"/></g><g id="$ball"><circle cx="670" cy="351" r="14.5" fill="url(#radialGradient6087-1)"/><circle cx="670" cy="351" r="14.5" fill="url(#radialGradient6065-2)"/></g><path id="$plunger" d="m716 342h53v18.2h-53z" fill="#800000" stroke="#fc0" stroke-linejoin="round" stroke-width="2"/><g id="$tree" stroke-linejoin="round"><path d="m836 278 10.6 94.7h-19.7z" fill="#502d16" stroke="#28170b"/><path d="m799 354 18.7-7.6 10.6 12.3 13.8-9.7 16.4 8.4 2.6-8.6 8.5 2.9c-7.4-10.5-33.5-60.1-33.5-60.1z" fill="#89a02c" stroke="#677821"/><path d="m835 285-26.2 46.6 8.7-4.8 5.5 6.9 4.8-7.7 6.7 12.6 8.1-12.4 5.3 8.5 4-9.7 10.6 6.7z" fill="#abc837" stroke="#89a02c"/><path d="m818 312c2.8-1 6.8-2.8 9.5-4.9 3.1 2.7 4.8 7.6 8.6 10.5 1.6 0 4-11 5.2-10.7 4 1.4 8.5 3.9 12.9 5.8-6.3-12.3-12.7-27.2-18.3-37.6-5.7 12.8-11.3 24.2-17.9 36.9z" fill="#bcd35f" stroke="#abc837"/></g><g id="$iron"><path d="m931 347c-.4-1.3-.5-3.3-.4-4.4.7-1.3 1.9-3.4 1.9-3.4s-1.2-4.7-1-6.3c2-2.7 4.5-5.4 7.2-6.9 5.3-1.3 13.8-2.1 13.8-2.1s4.2 1.5 4.7 2.2c.7.9-.1 1.2.9 2.9 1.2 1.2 3.2 3.3 3.2 3.3l-.4 1.9s1.3 1.8 1.4 2.4c-.1 1.8-.9 2.7-1.4 4.5 1.3 2.5 1.5 4.4 1.1 7.2-2.5 2.3-5.5 5.3-7.2 6.2-5.1 0-14.7 2-14.7 2s-1.1 3.7-2.2 5.4c-.3.5-1.7.8-2.2.9-1.6.1-3 .6-4.4 1.3-2.6.2-5.7-.2-7.9-1.5-.6-.8-.8-1.5-.9-1.9-.1-2-1-3.1-1-3.1s1.7-2.1 2-3.1c.4-1.4 0-4.3 0-4.3s2.2-1.4 3.8-1.4c.8-.9 1.6-1.9 1.6-1.9s.9.4 2.1.1z" fill="#999" stroke="#333"/><path d="m928 353c.3-.2.8-1.6 1.4-1.8 1.3.5 2.6 1.9 3.4 2.6-.8 1.4-1.4 3.4-2.4 2.8-1.7-1.2-4.6-2.2-2.4-3.6zm20.1-25.7c1 5.1 2.9 3.6 5.6 1.6-.5-1.8-1.6-2.2-3.2-3.5-1.1.5-1.9.8-2.4 1.9zm-10.7 5c1.3-1.3 4.3-2.4 5.1-2 .4 2.7 2.3 6.3.6 6.9-2 1.1-3.7 3.3-4.9 2.2-.1-2.6-1.6-4.9-.8-7.1z" fill="#d45500" stroke="#a40"/><path d="m950 344c-1 .6-2 .8-2.8 1.8-.6 4.9-3.4 2.5-5.8 3.9-2.3-2.4-11.8-9.2-10.4-2.4 4.6-1.9 7.3 2.4 9 5.3-4.2 6-10.8 9.3-17.5 8.3 3.7 5.8 8.6 2.9 13.2 2.3 2.5-.4 2.9-1.5 4.4-6.3 19.7-3.8 11.9.7 21.8-8.2.8-2.7-.1-5-1-7.3.5-1.6 1.2-3.1 1.4-4.5-2.7-3.5 1.1-3.6-4.2-7.6-.9-3.1-1.9-4.3-5.6-5.1 6.3 11.8 1.8 17.3-2.5 19.8z" opacity=".3"/></g><g id="$gold"><path d="m974 477h38.6v52.7h-38.6z" fill="#ffdd4f"/><g stroke="#d4aa00"><path d="m1e3 508a7.99 15.5 30 01-14.6 9.4 7.99 15.5 30 01.8-17.4 7.99 15.5 30 0114.8-9.4 7.99 15.5 30 01-1 17.4" fill="#ffd42a"/><path d="m999 507a7.99 15.5 30 01-14.6 9.4 7.99 15.5 30 01.8-17.4 7.99 15.5 30 0114.4-9.4 7.99 15.5 30 01-.6 17.4" fill="#ffd42a"/><path d="m989 507 4.7-7.5" fill="#a80" stroke-linejoin="round" stroke-width="2"/></g></g><g id="$lance"><path d="m662 561-1.5-.5-1.1 1-.4-.5-5.5 4.8-.6-.5 5.4-4.9-.4-.4 1-.9-.5-1.6 1.7-1.7 7.3-3-3.6 6.5z" fill="#fff" stroke="#000" stroke-width=".5"/></g><g id="$sword" fill="#fff" stroke="#000" stroke-width=".5"><path d="m718 561 7.3-6.7h3.3v2.9l-7.4 6.7z"/><path d="m716 561 1.1-.9 4.8 4.4-1 .9z"/><path d="m715 561 2-1.8-2.5-.4z"/><path d="m723 565-2 1.8 3 .4z"/><path d="m717 563-1.3 1.2h-2.5v4h4.5v-2.2l1.3-1.2zm-2.1 2.6h1.2v1.1h-1.2z"/></g><g id="$gutter" stroke="#000"><path d="m1028 10.2v153l218-.6v-46.8c0-.7 0-1.2-1-1.7-29-14-217-104-217-104z" color="#000000" fill="#fc0"/><path d="m1031 14.5 212 101v44.6h-212z" color="#000000" fill="#800000"/></g><g id="$small-mine-wall" stroke-width="2"><path d="m650 451c-3.3-12.8 8.8-26.5 21.9-21 31.4 2.9 61.5-3.8 89.3-.6 6.2 6.9 7.4 24.2-.3 29.7-28.4-.8-110 2.9-111-8.1z" fill="#666" stroke="#1a1a1a"/><path d="m756 454c-29.2-.6-73 5.7-105-5-5.5 12.8 65.1 10.7 110 10.6 7.7-5.5 6.5-22.8.3-29.8-3.2 3.4 2.9 17.3-5.7 24.2z" opacity=".3"/></g><path id="$cross" d="m107 19.4-21.8 23-17.1-18.9-7.3 6.7 17.6 19.4-16.8 17.7 7.2 6.8 16.3-17.2 16 17.6 7.3-6.6-16.5-18.1 22.3-23.5z" fill="#d40000" stroke="#000"/><path id="$check" d="m155 59.8c-4.2-4-10.6-9.42-19.7-11.5 1.5 10.9 18.3 26 21.1 26.5 11.1-20.3 27.4-42 34.2-55.6-14.6 10-30 31.4-35.5 40.6z" fill="#0f0" stroke="#000"/><g id="$fence"><path d="m1200 167h22v701h-22z" fill="url(#pattern2065)"/></g><g id="$sign"><path d="m201 161c-1.7 0-3 1.3-3 3v70.3c0 1.7 1.3 3 3 3h113c1.7 0 3-1.3 3-3v-70.3c0-1.7-1.3-3-3-3z" fill="#deaa87" stroke="#000"/><path d="m201 164h113v70.3h-113z" fill="#800000"/></g><g id="$enemy"><g stroke="#000"><path d="m721 667c0 3.1-2 5.3-4.5 5.3-8.9-2-4.5-9.7.8-10.9 2.5 0 3.7 2.5 3.7 5.6zm-27.2-7.7c2.4-1.2 8-2.5 11.2 1.8 1.4-.4.8-.5 2.8-.3 4.6 5.8.7 11.1-5.5 10-6.7.6-10.1-5.5-8.5-11.5zm-6.1 27.3c.4 17.7 11.2 14.5 10.8.8-.2-2.4-1.1-5.1-1.8-6-2 1.5-7 3.9-9 5.2zm-15.2 1.6c-.9 2.7-.2 8.7 4 8.5 2.8-.2 6.3-2.8 6.2-6.3-.5-7.9-7.2-4-10.2-2.2zm2.3-14.7c-4.5 0-8.1-3-8.1-6.7s3.6-6.7 8.1-6.7" fill="#fca"/><path d="m706 670c2.5-4.4 1.5-7.6 1.4-10.1 3-.7 6.8 1.2 6.4 7.5-.2 3.8-5.3 3.8-7.8 2.6zm-7.6 20.9c.9 3 1.2 7.6 1.1 10.5 9.5 8.5-13.9 6.9-13.6.5.8-2.5.3-7.2 1.6-10.3 5.5 2 7.2.5 10.9-.7zm-26.8.8c-.9 3.1-.7 6.2-.6 9.2-9.5 8.4 13.5 6.3 13.2 1.6-.9-2.5-.2-8.6-1.5-11.6-5.8 2.3-5.3 2.1-11.1.8zm3.6-30.9c-4.3 18.2 1.5 26.8 21.8 18.3-1.5-5.5-.5-4.1-.3-8.5-.6-4.2.7-10.1-5-10.6-4.9.7-11.5.5-16.4.8z" fill="#502d16"/><path d="m681 687c.8 1.7 4.1 1.4 6.1 1.2 3.1-2.2 5.9-3 9.7-5.6 1.8-1.2 1.1-3.5-1.1-2.5-7.9 1.4-14.3 3.9-14.7 6.9z" fill="#04a"/><path id="$armor.fx" d="m687 678c0 7.2-6.8 13.1-15.1 13.1-8.4 0-15.2-5.9-15.2-13.1s6.8-13.1 15.2-13.1c8.3 0 15.1 5.9 15.1 13.1m7.3-16.5c-.1-11.3-1.3-22.1-10.8-21.4-11 .8-9.8 15.3-8.8 24.1 2.4 1.1 8 1.8 10.3 1.7 3.6-.4 7.5-2.2 9.3-4.4z" fill="#d4aa00"/></g><path d="m682 655 3.6-.1-.2-4.5s5.4-.2 6.2 1.9c1.5 3.9-5.5 4.1-5.5 4.1l.5 8.9h-4.4l-.2-8.8s-6.3.9-6-3.7c.1-1.9 5.8-2.2 5.8-2.2z"/><path d="m718 634c3.9-6.6 4.9-14.7 8.1-22.6 5.2 9.3 2.6 27.6 0 38.2-4.6.6-5.6 11.8-5.6 11.8l-4.1-.7s3.8-20.6 1.6-26.7z" fill="#afc6e9" stroke="#000"/><path d="m690 654a.839.839 0 01-.8.9.839.839 0 01-.8-.9.839.839 0 01.8-.8.839.839 0 01.8.8m-9.1.2a.839.839 0 01-.8.8.839.839 0 01-.9-.8.839.839 0 01.9-.9.839.839 0 01.8.9z" fill="#f00"/><path transform="rotate(7.82)" d="m796 556h10.1v2.7h-10.1z" fill="#fc0" stroke="#000"/></g><g id="$bumper"><ellipse cx="1018" cy="342" rx="21" ry="18.8" fill="#540000"/><ellipse cx="1018" cy="335" rx="25.8" ry="21.8" fill="#fc0" stroke="#000"/><path d="m1010 314-1 8.8-13.2 1 7.2 6.9-9.6 9 13.6-.5-1 14.1 11-9.2 9 10.3 1-13.4 14 1.5-8-9 9-6.5-13-2.4-1-9.4-7 4.3-4-.8z" fill="#800000" stroke-width="2"/><ellipse cx="1018" cy="330" rx="14.2" ry="11.8" fill="#800000" stroke="#000"/><ellipse cx="1018" cy="329" rx="12" ry="9.7" fill="#600"/></g><g id="$deflector"><path d="m1125 456-64-61.5v-4.1l63 .3z" fill="#a68400" stroke="#000"/><path d="m1125 453-64-62.7h64z" fill="#fc0" stroke="#000" stroke-linejoin="round"/><path d="m1123 449-58-57h58z" fill="#800000"/></g><g id="$axe" fill="#fff" stroke="#000" stroke-width=".5"><path d="m696 555c.2-.3.6-.2.8 0 .3.2.3.4.1.7l-8.4 8.4c.4.2.2.6-.1.8-1.1 1.1-3.3 3.7-3.5 3.6-.4 0-1.6-1.1-1.6-1.4-.2-.3 2.6-2.7 3.7-3.8.2-.2.6.2.6.2 2.8-2.8 5.6-5.6 8.4-8.5z"/><path d="m693 560 2.9-3c1 .2 1.7-.1 2.5-.6.5 4.1-2.4 6.1-5.9 5.8.7-.7.7-1.5.5-2.2z"/><path d="m694 556-3 3.2c-1.1-.3-1.9.1-2.7.6-.6-4.5 1.5-6.6 6.3-6.1-.8.7-.8 1.6-.6 2.3z"/></g></g><g id="$layer2"><path id="$kicker.collider.3" d="m616 11.7 69.5 114-15.2 4-62.4-103z"/><path id="$kicker.collider.1" d="m616 11.6-8.3-3.6-7.6 6v77.6h14.2z"/><path id="$kicker.collider.2" d="m600 91.6 73.7 45 8.4-2 3.1-9-73.3-42z"/><path id="$bend.2.collider" d="m730 10.8h12.5v170l-12.8-5z"/><path id="$bend.1.collider" d="m734 179 148 86.7 6.7-11-146-84.7z"/><path id="$flipper.collider" d="m927 23.5 5-3.9 6-.7 52.2 41.4.7 7.5-4.6 3.8h-6.1l-52.9-30.9-3.9-7.9z"/><path id="$ball.collider" d="m683 358-3 3-3 2.2-3 1.3-4 .3-4-.6-3-1.6-3-2.5-3-3.1-1-3.6v-7.6l2-3.4 2-3 4-2.2 3-1.3 4-.3 4 .6 3 1.6 3 2.5 2 3.1 2 3.6v3.8l-1 3.8z"/><path id="$fence.collider" d="m1204 202h13v665h-13z"/><path id="$plunger.collider" d="m716 342h53v18.2h-53z"/><path id="$tree.collider" d="m809 274h54.5v98.3h-54.5z"/><path id="$iron.collider" d="m922 324h41.2v40.9h-41.2z"/><path id="$bumper.collider" d="m998 351-4-14.2 4-14.3 12.4-9h15l13 8.8 4 14.3-4 14.3-12 8.9h-16z"/><path id="$top-wall.collider" d="m1266 0h800v100h-800z"/><path id="$left-wall.collider" d="m1266 100h100v800h-100z"/><path id="$right-wall.collider" d="m1966 100h100v800h-100z"/><path id="$gold.collider" d="m974 477h38.8v52.5h-38.8z"/><path id="$enemy.collider" d="m665 636h56.9v71.5h-56.9z"/><path id="$small-mine-wall.collider" d="m650 429h117v31.4h-117z"/><path id="$deflector.collider" d="m1065 393 61 59.1v-59.6z"/><path id="$gutter.collider" d="m1027 10v153h218v-49z"/></g></svg>
