<?xml version="1.0" encoding="UTF-8"?>
<svg width="46mm" height="44mm" version="1.1" viewBox="0 0 46 44" xmlns="http://www.w3.org/2000/svg" xmlns:cc="http://creativecommons.org/ns#" xmlns:dc="http://purl.org/dc/elements/1.1/" xmlns:rdf="http://www.w3.org/1999/02/22-rdf-syntax-ns#">
 <metadata>
  <rdf:RDF>
   <cc:Work rdf:about="">
    <dc:format>image/svg+xml</dc:format>
    <dc:type rdf:resource="http://purl.org/dc/dcmitype/StillImage"/>
    <dc:title/>
   </cc:Work>
  </rdf:RDF>
 </metadata>
 <rect x="-.27" y=".067" width="47" height="45" ry=".27" fill="#4b2d2e"/>
 <g>
  <path d="m-0.18-0.12v15c0.69-2.3 3.7-3 5.1-0.92 2.4-1.3-0.53-3.4-0.8-4.9 1.6-0.54 3.9 0.42 5.2-1.3 1.8-1.6 2.2-4.3 1.3-6.5-1.7-2.2-8.2-1.3-11-1.3zm44 2.2c-1.8 1.7-1.1 4.7 0.23 6.5 1.2 1.5 2 0.3 1.7-1v-5.8c-0.66-0.11-1.3 0.074-1.9 0.38zm-22 8c-1.5 5.3-2.4 11-1.4 16 1.9 3.5 3.2 7.3 4.1 11 1.4-0.97 2.6-2.7 4.1-3.8 1.7-4-2.9-11 1.5-13 1.9-0.85 2.5-3.2 0.82-4.6-2.7-3.2-5.1-7.7-9.2-5.8zm13 9.2c-0.16 7 2.5 9.4 7.4 13 2.4-2.1 2.5-5.9 0.73-8.4-1.3-3.1-4.9-4.6-8.1-4.2z" fill="#623c34" stroke-width=".26"/>
  <path d="m28 1.9c-2.5 3.5 0.63 8.5 3.8 4.1 2.5-1.8 3.8 1.2 2.6 3.2 0.79 3.3 3.5 6.3 7 6.5 3.3 1.1 6.2-2.6 5-5.7-1.5-3.3-2.1-7.7-5.8-9.4-4.4-0.21-9.5-0.96-13 1.3zm-18 1.8c-1.6 3.1 3.2 5.2 1.6 8.5 2.4 3.5 0.44 7.9 1.5 12 1.9 3.4 5.5 9 10 7.4 5.5-10 1.2-19-3.5-27-4-3.7-7.7-3.5-9.6-0.23zm-9.4 6.4c-0.44 1.4 0.38 4.9 0.73 1.6-0.037-0.61-0.32-1.2-0.73-1.6zm7.7 5.1c-3.6 2.1-2.4 7.5 0.31 9.8 3.1-0.16-0.72-4.8 0.42-6.8 0.67-0.91 1.1-3.2-0.73-3zm-2.6 25c2 2.2 4.7 4.4 7.9 3.5 2.5 0.56 7.3-0.67 5.4-4.1-2.7-2.9-2.8-7.4-5.6-10-2.9-1.6-5.7-4.4-9.3-4.2-6.8 2.3-1.7 13 1.5 15zm30-7.4c-3.6-0.42-5.2 3.6-7.6 5.5-2.4-0.095-6.8-0.31-5.5 3.5 1.9 4.2 6.9 0.72 10 1.6 5.2 0.75 6.1-7.9 2.9-11z" fill="#80503f" stroke-width=".26"/>
  <path d="m-0.36 42c3.6 0.18 7.4 2.1 11 0.42 3.8-1.3 7.8-0.47 12-0.79 2 1.9 4.7 1.3 7.2 1.4 2.4 0.58 4.3-0.51 6.6-0.89 2.4-0.098 4.9 0.77 7.2-0.31 2.2-1.1 6 2.7 3.1 3.3-15-0.091-31 0.018-47 0zm47-42v5.2c-1.8-1.7-4.5 0.62-6.4-0.15-2.6 1.2-4.6-2.2-7.2-1.3-2.3 1-4.4-0.31-6.8 0.71-2.2 0.74-4.3 0.17-6.4 0.92-2-0.71-4-0.87-6.1-0.28-1.5-1.1-3.2-2.1-4.9-0.67-2.1-1.5-4.7 0.059-7-0.038-1.9 1-2.4-0.44-2.1-2v-2.5z" fill="#71c837" stroke="#5aa02c"/>
 </g>
</svg>
