<?xml version="1.0" encoding="UTF-8"?>
<svg width="600" height="800" version="1.1" viewBox="0 0 159 212" xmlns="http://www.w3.org/2000/svg" xmlns:cc="http://creativecommons.org/ns#" xmlns:dc="http://purl.org/dc/elements/1.1/" xmlns:rdf="http://www.w3.org/1999/02/22-rdf-syntax-ns#">
 <metadata>
  <rdf:RDF>
   <cc:Work rdf:about="">
    <dc:format>image/svg+xml</dc:format>
    <dc:type rdf:resource="http://purl.org/dc/dcmitype/StillImage"/>
    <dc:title/>
   </cc:Work>
  </rdf:RDF>
 </metadata>
 <g transform="matrix(.265 0 0 .265 -.202 -.116)">
  <g>
   <rect x=".765" y=".0829" width="600" height="800" fill="#71c837"/>
   <path d="m188 205c25.7-4 42.9 24.2 68.7 20.7 10.5 7.45 18.4 18.5 23.8 28.2 22.6 2.4 12.7 37 40.7 24.4 19.3 4.65 18-28 30-16 8.79-13.1 23.8-24.7 38.1-26 5.41-4.44 16.6-6.82 13.3 8.03-13.9 12 26.2-1.41 21.8 19.7 16.7-7.93 0.463 30.1 18.9 9.33 13.6 3.8 38.4 23.6 12.4 33.7 0.0211 4.16 14 25.1-6.71 20.8 6.09 12.1-13.5 16.3-1.76 29.3-8.09 8.3 0.587 31.2 13.2 18.5 10.4 2.13 23.9-0.828 22.1 15.2 12.6 11.5-28.4 19.8-4.24 31.1-2.08 7.01-30.8 16.3-11.1 14.5-3.33 26.8-42 20.8-44.3 48-2.34 21.9-8.43 42.2-30.5 51.9-13.8 23.8-39.3-0.69-57.4 7.04-16.3-25-32.4 14-52.5 19.6-6.67 13.5-14.9 6.81-18.9-5.44 0.183 26.1-14.3 1.26-26.2 3.11-7.75 2.73-15.3-25.7-29.9-25.3-12.1-10.2-20.3-16.4-18.7-30.5-16.3 7.05-39.4-1.44-37.7-23.9-20.2 9.79-14.4-24.8-24.4-37 8.42-11.9 9.57-7.75-1.39-13.7-0.0468-10.7 24.9-7.15 13.3-21.6 14.6-3.83 6.15-17.1 24-18.3-9.98-21.2 32.2-3.62 25.1-31.1-2.45-14.6 1.67-41.3-18-35.4-13.5-6.57 2.39-30-12.8-36.2 0.896-15.8 4.12-19.7-3.89-34 2.63-21.5 32.2-28.4 35-48.6zm433-140c-5.89 20.9 7.02 63.9-17.2 68.5-20.9 1.94-45.5 28.5-65.1 6.19-8-8.13-25.4-13.4-17.4-27.2-10.5 5.71-13.4-6.47-24.4-5.05 21.5-12.7-19.2-35.9 1.62-45.3 12.9-4.22-24.9-7.32-3.55-15.1 18.2 6.84-0.338-21.5 22.7-13.4 4.86-9.87 19.5-34.8 38.5-21 21.6 17.4 43.2 34.9 64.8 52.3z" fill="#f8e898" stroke="#f0c980" stroke-dashoffset="2.69" stroke-linecap="round" stroke-linejoin="round" stroke-width="2.65"/>
   <path d="m265 392c32.7 23 50.5-11.8 74-20.6 6.14 1.4 5.42 11 3.26 16-8.84 21.1-7.86 25.2 1.57 44.7-0.851 12.4 7.48 23.7 18.4 28.9 7.55 15.3-12 20.2-22.5 15.6-7-4.26-8.79-14.3-17-16.9-13.8-0.276-25.5 8.68-34.8 18-4.38 10.4-16.4 18.7-27.8 14.5-10.2-4.97-7.06-26-0.858-28.7 4.01-2.94 11.5-7.69 7.39-13.4-8.64-10.4 17-18.6 1.83-30.9-7.47-9.95-31.2-0.351-31.1-14 0.763-17.9 13.8-20.1 27.6-13.3z" fill="#71c837" stroke="#f0c980" stroke-dashoffset="2.69" stroke-linecap="round" stroke-linejoin="round" stroke-width="2.65"/>
  </g>
  <path d="m0.583 0.0829v254a142 174 0 0 0 56.1 29.2h52.8a142 174 0 0 0 87.4-66.3v-210a142 174 0 0 0-4.82-7.39z" fill="#53676c"/>
  <path d="m197 212c1.28 7.21-4.31 12.9-8.63 17.9-4.7 6.41-10.1 12.3-15.9 17.7-4.04 3.67-7.5 7.96-11.7 11.4-5.36 3.91-11.5 6.67-16.7 10.7-6.39 6.11-18.4 6.13-23.6 10.9" fill="none" stroke="#1c2422" stroke-dashoffset="2.69" stroke-linecap="round" stroke-linejoin="round" stroke-width="2.65"/>
 </g>
</svg>
