<?xml version="1.0" encoding="UTF-8"?>
<svg width="600" height="800" version="1.1" viewBox="0 0 159 212" xmlns="http://www.w3.org/2000/svg" xmlns:cc="http://creativecommons.org/ns#" xmlns:dc="http://purl.org/dc/elements/1.1/" xmlns:rdf="http://www.w3.org/1999/02/22-rdf-syntax-ns#">
 <metadata>
  <rdf:RDF>
   <cc:Work rdf:about="">
    <dc:format>image/svg+xml</dc:format>
    <dc:type rdf:resource="http://purl.org/dc/dcmitype/StillImage"/>
    <dc:title/>
   </cc:Work>
  </rdf:RDF>
 </metadata>
 <g transform="matrix(.265 0 0 .265 -.202 -.116)">
  <g>
   <rect x=".765" y=".0829" width="600" height="800" fill="#71c837"/>
   <path d="m188 205c9.05-6.22 15.9 8.57 27.5 4.65 6.8 3.63 9.68 11 18.8 9.8 3.18 11.5 31.9-1.93 30.6 16.5 6.19 6.66 11.3-2.16 11.2 16.6 2.57 7.64 13.1-10.2 14.8 5.18-0.313 9.53 12.6 1.51 6.5 13.7-9.11 21.3 13.9-0.817 23 6.64 10.4-0.606 28.9-3.82 20.4-15.6 7.17-11.5 4.5 1.33 10.4-0.265 3.73-9.54 10.7-15 21.8-16.7 4.75-11.5 11.2-12.7 19.3-7.84 8.14-19 16.6 9.09 5.32 12.7 11.6-3.24 27.2 0.434 26.9 13.5 18.8-6.75-1.16 22.7 14.5 13.3 12.8-16.1 17.6 14.7 28.6 12.1 6.39 9.36-2.01 13.1-8.22 12.1-9.67 3.86-8.83 9.58 0.537 10.3-2.29 6.2 7.63 19.3-6.99 14.7-14.1 2.74 7.33 10.2-6.99 15.3-11.1 4.44 9.33 13.6-2.17 21 4.27 5.28 9.84 6.75 1.98 15.4 5.93 16.7 10.1-18.2 16.8 0.0682 6.05 0.264 19.7-6.17 19.1 5.17-6.5 5.26 15.3 15.4-2.37 19.1-11.4 3.54-10.1 17.9-0.805 19.4-2.12 7.82-34.2 17.1-11.1 14.5 6.64 1.93-9.75 9.84-8.5 17.1-10.5 0.819-14.7 13.9-26.3 11.4-9.33 14.1-13.7 30-14 46.7-5.62 16.2-26 19.1-33.7 34-11.5 4.7-25.9-0.166-34.8-5.79-5.88 9.4-25.7 2.54-24.9-7.68-16.3-1.78-14.3 13.1-21.6 20.7-9.79 1.85-16.4 8.78-24.6 11.6-4.91 17.8-11.5-0.887-15.2-6.92-5.44 5.28 1.29 22.2-9.29 8.9-10.3 1.16-12.7-14.9-19.2-2.32 2.69-8.18-11.1-7.17-9.53-17.4-9.64 2.53-3.39-13.9-15-8.74-8.68-6.91-13.6-15.1-22.2-18.1 3.68-7.33 6.04-21.2-6.37-12-7.69 5.55-6.43-9.12-17-1.76-20.6 3.77 5.69-31.2-18.2-19.5-2.48-6.82-1.46-5.4-7.81-2.41 2.7-9.18-6.06-5.29-3.06-14-12.1-2.31 12.9-24.5-6.61-13.9-8.43-7.71 0.632-18.5 6.56-23.2-11.8 3.6-15.8-7.56-2.55-11 9.92-0.763 8.93-9.07 5.22-13.5 5.67-7.02 7.94-4.52 11.9-5.03-5.26-13.1 5.76-10.2 12.1-13.3-7.63-12.5 2.98-14.6 13.4-10.4 20.2-10.4 8.33-36.7 7.61-54.3-3.05-8.23-14.6 8-14.3-5.61-17.6-0.122 7.56-27-12-29.1-0.82-8.85-4.21-15.3 4.26-21.4-18-12.8-4.31-30.5 9.45-40.7 4.79-7.66 19.4-14.6 17-23.7zm433-140c-2.22 35.9-2.83 55.5-7.3 68.3-8.16 2.98-19.4-5.5-23.4 6.53-8.59 0.289-16.4 1.34-22.9 7.84-7.24 5.88-13.3 1.49-18.9-3.05-9.73 3.44-9.65-13.1-19.5-10.3 1.17-9.3-14.4-5.93-9.83-15.5 6.84-5.56 0.386-9.87-4.39-3.72-6.24 1.45-3.42-11.4-10.8-5.85-6.34 2.56-11.5-5.24-2.88-5.88 3.5-8.37 1.8-20.2-6.53-26.6-8.64-5.53-1.62-15.7 7.14-14.6 5.1-9.6-20.7 0.621-10.9-13.5 4.08-4.94 16.1 5.46 14.1-5.57-9.33-12 9.4-7.74 15.7-9.73 4-3.02-5.11-13.1 5.51-8.97 4.44-3.47 1.1-13.8 10.7-12.2 7.06-4.5 13.6-7.46 19.4 0.683 21.6 17.4 43.2 34.9 64.8 52.3z" fill="#f8e898" stroke="#f0c980" stroke-dashoffset="2.69" stroke-linecap="round" stroke-linejoin="round" stroke-width="2.65"/>
   <path d="m241 392c2.55-2.66 7.09-13.6 10.3-7.93-1.24 6.65 7.86 12.8 12.3 6.54 5.37-4.22 8.04 1.76 8.73 6.19 5.83 7.38 15.2 2.69 21.1-1.62 6.31-0.36 11.7 5.1 17.8 0.431 6.63-1.97 10.5-7.61 15.8-11.7 0.376-5.39 1.67-11.4 8.44-12.4 6.14-3.99 15.7-0.348 11.4 7.84-0.667 7.22-11.5 7.45-10.8 14.8 2.22 3.29 8.09 6.35 2.32 10.1-5.6 4.13-5.62 14.3 0.0971 18.2 5.88-0.0382 7.87 6.96 7.17 11.9 0.393 5.32-5.49 9.15-4.45 14.1 3.85 1.95 8.66 0.469 11.3 5.25 3.31 4.42 11.5-3.2 11.7 4.78-1.38 7.11 0.787 15.9-6.53 20.5-2.65 2.74-9.41 4.38-5.52-1.35 0.481-7.99-11.4 4.99-14.1-3.09 0.0247-3.3 1.13-3.9-2.32-2.24-5.97 0.999-7.33-5.91-3.47-9.19 1.63-4.38-3.05-10.5-5.49-3.7-5.43 4.01-14.5-5.83-17.5 4-4.17 8.33-13.9 4.44-20.1 8.33-3.6 5.06-2.33 12.4-10.2 13.8-3.47 2.5-1.54 8.48-7.69 7.76-6.57-2.08-16.8 2.66-20.4-4.83-1.72-5.99 9.93-7.03 4.92-13.8-1.92-3.33-11.5-1.18-6.23-6.64 5.6-3.54 12.5-3.9 17.7-8.46 3.1-1.4 8.34-2.75 3.23-5.88-4.56-0.882-15.7-6.02-7.73-10.4 4.04-0.316 5.23-3.25 4-6.3 3.48-5.53 15.3 2.29 11.4-6.46 0.945-8.64-9.25 2.98-10.4-5.5-2.1-3.94 2.08-8.99 2.41-11-4.46-0.745-10.4 4.78-12.4-2.12-5.44 1.06-10.4 6.36-16.2 6.14-6.63-4.08 4.03-13.3-2.09-15.6-8.46 1.99-1.64-10 3.32-5.17 4.74-0.333-1.92-3.47-1.94-5.2z" fill="#71c837" stroke="#f0c980" stroke-dashoffset="2.69" stroke-linecap="round" stroke-linejoin="round" stroke-width="2.65"/>
  </g>
  <path d="m0.583 0.0829v254a142 174 0 0 0 56.1 29.2h52.8a142 174 0 0 0 87.4-66.3v-210a142 174 0 0 0-4.82-7.39z" fill="#53676c"/>
  <path d="m197 212c1.26 1.97-1.02 4.19-0.892 5.92 0.0459 0.607 1.24 1.23 1.07 1.71-0.554 1.59-3.87 2.81-4.93 4.45-1.12 1.74 0.37 2.01 0.0878 2.81-0.299 0.841-2.83 0.934-3.48 1.65-0.572 0.625-0.0827 1.62-0.79 2.36-0.821 0.853-2.05 1.14-2.82 2.07-0.61 0.732-0.374 1.77-0.834 2.42-1.35 1.93-3.12 2.96-4.36 5.07-0.517 0.878-1.95 0.741-2.71 1.42-1.18 1.07-1.27 2.86-2.31 3.97-1.76 1.88-4.43 2.52-6.22 4.33-1.54 1.57-2.95 5.98-4.96 6.92-4.6 2.14-4.1 3.16-7.15 4.85-1.81 1-4.02 1.44-5.7 2.64-1.88 1.34-4.3 4.87-6.45 5.72-1.14 0.449-2.55 0.235-3.74 0.606-1.21 0.376-1.97 2.53-3.12 3.25-1.78 1.12-4.21 0.594-6.11 1.49-0.925 0.435-1.19 1.46-2.22 1.8-1.83 0.613-5.71 0.157-7.09 1.24-0.699 0.547-1.16 1.34-1.74 2.02" fill="none" stroke="#1c2422" stroke-dashoffset="2.69" stroke-linecap="round" stroke-linejoin="round" stroke-width="2.65"/>
 </g>
</svg>
