<?xml version="1.0" encoding="UTF-8"?>
<svg width="210mm" height="210mm" version="1.1" viewBox="0 0 210 210" xmlns="http://www.w3.org/2000/svg" xmlns:cc="http://creativecommons.org/ns#" xmlns:dc="http://purl.org/dc/elements/1.1/" xmlns:rdf="http://www.w3.org/1999/02/22-rdf-syntax-ns#">
 <metadata>
  <rdf:RDF>
   <cc:Work rdf:about="">
    <dc:format>image/svg+xml</dc:format>
    <dc:type rdf:resource="http://purl.org/dc/dcmitype/StillImage"/>
    <dc:title/>
   </cc:Work>
  </rdf:RDF>
 </metadata>
 <g>
  <ellipse cx="102" cy="113" rx="51.6" ry="42.3" fill="#540000" fill-rule="evenodd" stop-color="#000000" stroke="#000" stroke-width=".7" style="font-variation-settings:normal"/>
  <ellipse cx="103" cy="91.6" rx="62.8" ry="52.4" fill="#fc0" fill-rule="evenodd" stop-color="#000000" stroke="#000" style="font-variation-settings:normal"/>
  <path transform="scale(.265)" d="m317 156-12 82-122 9.19 68.6 64.3-91.2 84.1 127-4.95-7.07 132 95.5-86.3 90.5 96.2 10.6-124 128 14.1-77.8-84.1 82.7-60.8-117-22.6-7.07-87.7-71.4 40.3-32.5-7.07z" fill="#800000" stroke-dashoffset="2.69" stroke-width="2.65"/>
  <ellipse cx="103" cy="78.9" rx="35" ry="28.8" fill="#800000" fill-rule="evenodd" stop-color="#000000" stroke="#000" stroke-width=".7" style="font-variation-settings:normal"/>
  <g fill-rule="evenodd">
   <path transform="scale(.265)" d="m520 279a132 109 0 0 1 2.04 19.1 132 109 0 0 1-132 109 132 109 0 0 1-128-81 132 112 0 0 0 131 95.5 132 112 0 0 0 132-112 132 112 0 0 0-4.81-30.1z" opacity=".242" stop-color="#000000" stroke-width="0" style="font-variation-settings:normal"/>
   <ellipse cx="104" cy="78.1" rx="26.9" ry="21.2" opacity=".205" stop-color="#000000" stroke-width="0" style="font-variation-settings:normal"/>
   <path transform="scale(.265)" d="m597 250a264 209 0 0 1 9.79 56.3 264 209 0 0 1-264 209 264 209 0 0 1-107-17.7 237 198 0 0 0 154 47.3 237 198 0 0 0 238-198 237 198 0 0 0-30.1-96.6z" opacity=".252" stop-color="#000000" style="font-variation-settings:normal"/>
  </g>
 </g>
</svg>
