<?xml version="1.0" encoding="UTF-8"?>
<svg width="210mm" height="210mm" version="1.1" viewBox="0 0 210 210" xmlns="http://www.w3.org/2000/svg" xmlns:cc="http://creativecommons.org/ns#" xmlns:dc="http://purl.org/dc/elements/1.1/" xmlns:rdf="http://www.w3.org/1999/02/22-rdf-syntax-ns#">
 <metadata>
  <rdf:RDF>
   <cc:Work rdf:about="">
    <dc:format>image/svg+xml</dc:format>
    <dc:type rdf:resource="http://purl.org/dc/dcmitype/StillImage"/>
    <dc:title/>
   </cc:Work>
  </rdf:RDF>
 </metadata>
 <g>
  <ellipse cx="102" cy="113" rx="51.6" ry="42.3" fill="#540000" fill-rule="evenodd" stop-color="#000000" stroke="#000" stroke-width=".7" style="font-variation-settings:normal"/>
  <ellipse cx="103" cy="91.6" rx="62.8" ry="52.4" fill="#fc0" fill-rule="evenodd" stop-color="#000000" stroke="#000" style="font-variation-settings:normal"/>
  <path transform="scale(.265)" d="m317 156-12 82-122 9.19 68.6 64.3-91.2 84.1 127-4.95-7.07 132 95.5-86.3 90.5 96.2 10.6-124 128 14.1-77.8-84.1 82.7-60.8-117-22.6-7.07-87.7-71.4 40.3-32.5-7.07z" fill="#800000" stroke-dashoffset="2.69" stroke-width="2.65"/>
  <path transform="scale(.265)" d="m597 250a264 209 0 0 1 9.79 56.3 264 209 0 0 1-264 209 264 209 0 0 1-107-17.7 237 198 0 0 0 154 47.3 237 198 0 0 0 238-198 237 198 0 0 0-30.1-96.6z" fill-rule="evenodd" opacity=".252" stop-color="#000000" style="font-variation-settings:normal"/>
  <g>
   <g fill-rule="evenodd">
    <ellipse cx="103" cy="78.9" rx="35" ry="28.8" fill="#800000" stop-color="#000000" stroke="#000" stroke-width=".7" style="font-variation-settings:normal"/>
    <path transform="scale(.265)" d="m520 279a132 109 0 0 1 2.04 19.1 132 109 0 0 1-132 109 132 109 0 0 1-128-81 132 112 0 0 0 131 95.5 132 112 0 0 0 132-112 132 112 0 0 0-4.81-30.1z" opacity=".242" stop-color="#000000" stroke-width="0" style="font-variation-settings:normal"/>
    <ellipse cx="104" cy="77.9" rx="30.4" ry="24" opacity=".205" stop-color="#000000" stroke-width="0" style="font-variation-settings:normal"/>
   </g>
   <path transform="scale(.265)" d="m352 309-11.4 10.5-17.4 0.0332c-1.89-0.0601-3.29 0.268-3.69 2.93l0.0976 30.1c0.375 1.34 1.36 2.06 2.69 2.15l32 0.0469c0.543-0.0868 4.27-0.0165 3.89-2.67l0.158-16.6 11.3-10.2zm-18.7 23.1h11.1v10.1h-11.1zm70.1-7.43-17.6 15.9c-0.515 2.8 0.708 4.25 2.7 4.21l16.5 0.177c2.36-0.247 3.07-1.71 2.98-3.89l-0.0786-13.6c-0.145-2.76-2.23-2.91-4.5-2.79zm-68.3-30.2 17.5-15.8c0.511-2.78-0.703-4.22-2.68-4.18l-16.4-0.176c-2.34 0.245-3.05 1.7-2.96 3.86l0.0782 13.5c0.143 2.74 2.22 2.89 4.46 2.77zm8.05-0.244 9.49-8.48 42.9 39-9.23 8.43zm20.2-5.75 65.5-59.3 28.7 0.0497-0.0113 26.2-65.3 59.3-12.4-11.3 60.5-54.9-0.16-3.68-4 0.16-60.2 54.8z" fill="#fff"/>
  </g>
 </g>
</svg>
