<?xml version="1.0" encoding="UTF-8"?>
<svg width="210mm" height="210mm" version="1.1" viewBox="0 0 210 210" xmlns="http://www.w3.org/2000/svg" xmlns:cc="http://creativecommons.org/ns#" xmlns:dc="http://purl.org/dc/elements/1.1/" xmlns:rdf="http://www.w3.org/1999/02/22-rdf-syntax-ns#">
 <metadata>
  <rdf:RDF>
   <cc:Work rdf:about="">
    <dc:format>image/svg+xml</dc:format>
    <dc:type rdf:resource="http://purl.org/dc/dcmitype/StillImage"/>
    <dc:title/>
   </cc:Work>
  </rdf:RDF>
 </metadata>
 <g>
  <ellipse cx="102" cy="113" rx="51.6" ry="42.3" fill="#540000" fill-rule="evenodd" stop-color="#000000" stroke="#000" stroke-width=".7" style="font-variation-settings:normal"/>
  <g>
   <ellipse cx="103" cy="91.6" rx="62.8" ry="52.4" fill="#fc0" fill-rule="evenodd" stop-color="#000000" stroke="#000" style="font-variation-settings:normal"/>
   <path transform="scale(.265)" d="m317 156-12 82-122 9.19 68.6 64.3-91.2 84.1 127-4.95-7.07 132 95.5-86.3 90.5 96.2 10.6-124 128 14.1-77.8-84.1 82.7-60.8-117-22.6-7.07-87.7-71.4 40.3-32.5-7.07z" fill="#800000" stroke-dashoffset="2.69" stroke-width="2.65"/>
   <path transform="scale(.265)" d="m597 250a264 209 0 0 1 9.79 56.3 264 209 0 0 1-264 209 264 209 0 0 1-107-17.7 237 198 0 0 0 154 47.3 237 198 0 0 0 238-198 237 198 0 0 0-30.1-96.6z" fill-rule="evenodd" opacity=".252" stop-color="#000000" style="font-variation-settings:normal"/>
  </g>
  <g>
   <g fill-rule="evenodd">
    <ellipse cx="103" cy="78.9" rx="35" ry="28.8" fill="#800000" stop-color="#000000" stroke="#000" stroke-width=".7" style="font-variation-settings:normal"/>
    <path transform="scale(.265)" d="m520 279a132 109 0 0 1 2.04 19.1 132 109 0 0 1-132 109 132 109 0 0 1-128-81 132 112 0 0 0 131 95.5 132 112 0 0 0 132-112 132 112 0 0 0-4.81-30.1z" opacity=".242" stop-color="#000000" stroke-width="0" style="font-variation-settings:normal"/>
    <ellipse cx="104" cy="77.9" rx="30.4" ry="24" opacity=".205" stop-color="#000000" stroke-width="0" style="font-variation-settings:normal"/>
   </g>
   <path d="m110 73.8 7.41-7.39c0.909 0.262 2.11 0.277 3.42-0.0577 1.05-0.268 1.89-0.855 2.6-1.46 2.35 7.11-2.55 12.5-8.14 14.2-1.72 0.535-5.04 0.737-6.34 0.305 1.56-1.85 1.65-3.78 1.04-5.6zm2.7-11.1c-1.3-3.79 0.85-5.15 0.98-5.6-2.74-0.445-5.57-0.126-7.8 0.904-3.06 1.24-5.33 3.54-6.55 6.42-0.941 2.22-1.12 4.64-0.147 7.19 1.08-1 3.59-2.13 6.17-1.55l7.34-7.36m-17.6 20 20.9-21c0.562-0.514 1.36-0.417 1.87 0.0396 0.569 0.509 0.669 0.988 0.0656 1.73l-20.7 20.8c1.18 0.57 0.623 1.47-0.131 2.11l-8.27 8.2c-0.255 0.211-0.749 0.275-1.02 0.159-0.97-0.817-2.01-1.61-3.02-2.4-0.55-0.4-0.257-0.828 0.0124-1.09l8.86-8.87c0.575-0.546 1.08-0.184 1.51 0.326" fill="#fff"/>
  </g>
 </g>
</svg>
