<?xml version="1.0" encoding="UTF-8"?>
<svg width="210mm" height="210mm" version="1.1" viewBox="0 0 210 210" xmlns="http://www.w3.org/2000/svg" xmlns:cc="http://creativecommons.org/ns#" xmlns:dc="http://purl.org/dc/elements/1.1/" xmlns:rdf="http://www.w3.org/1999/02/22-rdf-syntax-ns#">
 <metadata>
  <rdf:RDF>
   <cc:Work rdf:about="">
    <dc:format>image/svg+xml</dc:format>
    <dc:type rdf:resource="http://purl.org/dc/dcmitype/StillImage"/>
    <dc:title/>
   </cc:Work>
  </rdf:RDF>
 </metadata>
 <g>
  <ellipse cx="102" cy="113" rx="52" ry="42" fill="#540000" fill-rule="evenodd" stop-color="#000000" stroke="#000" stroke-width=".7" style="font-variation-settings:normal"/>
  <ellipse cx="103" cy="92" rx="63" ry="52" fill="#fc0" fill-rule="evenodd" stop-color="#000000" stroke="#000" style="font-variation-settings:normal"/>
  <path transform="scale(.26)" d="m317 156-12 82-122 9.2 69 64-91 84 127-5-7.1 132 95-86 91 96 11-124 128 14-78-84 83-61-117-23-7.1-88-71 40-33-7.1z" fill="#800000" stroke-dashoffset="2.7" stroke-width="2.6"/>
  <ellipse cx="103" cy="79" rx="35" ry="29" fill="#800000" fill-rule="evenodd" stop-color="#000000" stroke="#000" stroke-width=".7" style="font-variation-settings:normal"/>
  <g fill-rule="evenodd">
   <path transform="scale(.26)" d="m520 279c1.4 6.3 2 13 2 19-5.6e-4 60-59 109-132 109-60 5.2e-4 -112-33-128-81 9.8 55 65 95 131 95 100-5.4 151-68 127-142z" opacity=".24" stop-color="#000000" stroke-width="0" style="font-variation-settings:normal"/>
   <ellipse cx="104" cy="78" rx="27" ry="21" opacity=".21" stop-color="#000000" stroke-width="0" style="font-variation-settings:normal"/>
   <path transform="scale(.26)" d="m597 250a264 209 0 0 1 9.8 56 264 209 0 0 1-264 209 264 209 0 0 1-107-18 237 198 0 0 0 154 47 237 198 0 0 0 238-198 237 198 0 0 0-30-97z" opacity=".25" stop-color="#000000" style="font-variation-settings:normal"/>
  </g>
 </g>
</svg>
