<?xml version="1.0" encoding="UTF-8"?>
<svg width="210mm" height="210mm" version="1.1" viewBox="0 0 210 210" xmlns="http://www.w3.org/2000/svg" xmlns:cc="http://creativecommons.org/ns#" xmlns:dc="http://purl.org/dc/elements/1.1/" xmlns:rdf="http://www.w3.org/1999/02/22-rdf-syntax-ns#">
 <metadata>
  <rdf:RDF>
   <cc:Work rdf:about="">
    <dc:format>image/svg+xml</dc:format>
    <dc:type rdf:resource="http://purl.org/dc/dcmitype/StillImage"/>
    <dc:title/>
   </cc:Work>
  </rdf:RDF>
 </metadata>
 <g stroke-dashoffset="2.69" stroke-linecap="round" stroke-linejoin="round">
  <path d="m14.4 74.7c-1.13 23.8 34.8 15.4 40.5 25.4-4.95 3.78-9.95 7.67-12 13.2-2.93 20.3-18 33.7-21.8 47.3 25.7-1.45 43.8-17.5 54-26.1-2.2 10.8 1.8 14.1 6 22.3 9.17 13 19.5 28.3 31.6 34 1.28-4.25 4.34-8.23 6.2-11.7 6.55-12.1 9.2-30.9 6.7-44.5 5.58 6.35 16.3 12.8 24.8 16.2 16.8 1.78 37.9 7.05 37.9 7.05s-3.14-17.6-5.59-21.6c-8.64-14.2-17-29.6-29.5-40.9 2.04 0.844 5.16 1.52 7.22 1.54 5.1 0 11.2-1.89 16-3.57 4.97-2.58 9.85-6.71 9.96-12.6-1.09 2.95-7.64-0.341-9.15-1.08-10.9-5.35-12.1-16.5-27.2-17.8-4.73-0.417-7.93 0.531-12 2.64-1.96 1-3.82 1.75-5.63 3 0.336-5.94 6.32-17.1 0.898-30.6-8.01 1.88-19.7 8.19-23.8 13.4-1.29 1.71-1.52 5.49-3.28 6.63-0.431 0.277-4.95-8.15-5.95-9.03-5.33-4.66-11.8-5.88-17.7-9.31-1.38-0.806-3.48-3.55-5.06-3.79 1.56 2.1-0.319 4.31-1.09 6.55-1.15 3.51 3.78 24.4 0.766 25.3-5.82-5.06-13.8-4.87-19.5-4.75-9.88 0.189-19 8.11-31 10.6z" fill="#250" stroke="#112b00" stroke-width="1.6"/>
  <path d="m123 108c5.62-2.53 11.6-6.73 18.2-6.29 12 3.44 24.8 16.5 26.9 27.3-1.29 6.78 6.76 12.9 4.52 18.7-2.21-1.33-3.17-5.63-5.28-7.47-2.05-1.8-4.98-2.77-7.26-4.21-9.6-5.39-17.2-12.2-22.9-19.9-4.29-1.25-9.87-8.06-14.2-8.17m-18.5 5.08c-6.26 2.5-14.2 5.44-16.6 12.5-2.24 6.65-1.42 15.7 2.83 21.4 6.42-0.519 11.6 33.7 12.2 33.5 11.2-13.5 1.19-32.9 10.5-46 2.38-3.26 8.41-6.8 5.39-10.9-3.04-4.5-13.5-11.2-14.3-10.5zm-49.2-9.07c-1.73-0.0237-3.46 0.0502-5.17 0.265-3.17 2.72-5.92 5.7-7.32 9.42-2.19 15.2-11.2 26.5-17.2 36.9 11.1-0.201 29.4-19 38.1-22.7 4.25-3.72 22.9-18.3 19.6-22.3-8.42 1.64-18.3-1.56-28-1.69zm5.85-41.6c-1.2-0.0083-2.36 0.0162-3.43 0.0377-9.88 0.189-19 8.11-31 10.6l-4.2 0.724c1.68 5.71 5.35 10.3 11.5 8.94 6.23-1.54 13.1-6.4 19.7-5.17 4.45 0.836 9.93 3.95 13.2 7.1 2.23 2.56 8.52 9.82 10.2 7.84 1.27-1.53 2.38-2.99 2.91-4.95 2.09-9.48-5.29-16.3-11.6-21-1.42-1.07-2.9-2.53-4.42-4.04-0.972-0.0608-1.93-0.0908-2.86-0.0972zm16.4-27c1.56 2.1-0.319 4.31-1.09 6.55-0.553 1.69 0.298 7.38 0.997 12.9 1.71 1.44 2.13 1.96 3.5 5.18 3.51 3.66 7.82 6.99 10.5 11.4 2.81 4.82 2.85 12 5.23 17.7 6.34 1.31 7.61-23.9 6.67-27.7-0.617-2.52-1.27-7.19-2.16-11.6-0.397-0.609-0.721-1.06-0.915-1.23-5.33-4.66-11.8-5.88-17.7-9.31-1.38-0.806-3.48-3.55-5.06-3.79zm51.2 3.53c-5.03 1.84-10.6 4.76-14.7 7.78 0.706 0.808 1.32 1.68 1.75 2.62 1.69 3.39 1.54 13 6.72 12.6 3.84-0.513 7.17-10.4 7.45-13.5 0.289-3.33-0.276-6.46-1.25-9.51zm19.6 23.5c-1.65-0.0298-3.13 0.132-4.57 0.472-6.16 6.73-12.6 15.4-16.3 15.4-0.724 0 0.685-6.45-0.821-8.92-1.81-2.97-6.52 2.37-7.24 4.34-0.8 2.16-2.23 3.57-3.16 5.62-2.06 4.99-2.69 10.9-3 14.5 0.368 0.0663 11.6-5.22 12.9-5.72 5.44-2.13 11.2-3.18 16.4-5.98 5.93-3.21 11.8-11.1 12.6-18.8-1.49-0.433-3.14-0.748-5.01-0.912-0.591-0.0521-1.16-0.0826-1.71-0.0925z" fill="#4a0" stroke="#338000" stroke-width="1.3"/>
 </g>
</svg>
