<?xml version="1.0" encoding="UTF-8"?>
<svg width="42mm" height="74mm" version="1.1" viewBox="0 0 42 74" xmlns="http://www.w3.org/2000/svg" xmlns:cc="http://creativecommons.org/ns#" xmlns:dc="http://purl.org/dc/elements/1.1/" xmlns:rdf="http://www.w3.org/1999/02/22-rdf-syntax-ns#">
 <metadata>
  <rdf:RDF>
   <cc:Work rdf:about="">
    <dc:format>image/svg+xml</dc:format>
    <dc:type rdf:resource="http://purl.org/dc/dcmitype/StillImage"/>
    <dc:title/>
   </cc:Work>
  </rdf:RDF>
 </metadata>
 <g transform="matrix(.79 .78 0 .78 2.9 2.5)">
  <rect x="-.27" y=".067" width="47" height="45" ry=".27" fill="#4b2d2e"/>
  <g>
   <path d="m-0.18-0.12v15c1-4.5 8.3 1 5-4.7-0.57-2.9 6.8-0.3 6.2-5.2 1.3-5.3-4.2-5.3-7.8-4.9-1.1-3e-4 -2.2-6e-4 -3.3-8.9e-4zm45 2.2c-4.3 2.7 3 10 1.9 3.4-0.28-1.6 1-5.1-1.9-3.4zm-22 8.1c-2 7-3.1 15 0.9 21-0.085 4.4 3.8 7.4 5.8 2.2 2.2-4.7-3.2-10 2.2-14 3.6-3.8-5-12-8.9-9.8zm13 9.2c0.5 4.5 1.3 12 6.9 12 5.5-2.9 0.83-12-4.3-12-0.84-0.15-1.7-0.15-2.6-0.0033z" fill="#623c34" stroke-width=".26"/>
   <path d="m28 1.9c-3.1 2.9 1.8 8.6 4.3 4.1 4.8 0.081 0.83 8 6.2 9 3.7 2.4 9.6-0.4 8-5.2-1.1-4.6-4.1-10-9.5-9.8-3 0.46-6.5-0.14-9 1.9zm-18 1.8c-0.57 3.9 2.7 7.2 2.7 11-0.19 5.1-0.42 11 4.1 14 2.7 4.1 8.7 2.2 8.3-2.8 0.84-5.1 1.3-11-1.8-15-2-4.2-4.8-12-11-10-1.2 0.58-2.1 1.6-2.7 2.8zm-9.4 6.4c-1.3 2.7 2 4.6 0 0zm7.7 5.1c-3.7 1.9-2.5 8.5 0.91 9.8 0.6-3.7 0.65-8.8-0.91-9.8zm-6.8 12c-3 6.4 2.4 14 8.3 16 3.1 1.6 11 1.3 9-4-2.2-4.4-4-9.4-8.5-12-2.5-1.4-6.9-3.2-8.8 0.055zm34 5.7c-5 0.43-7 7.1-12 6.4-2.5 4.7 3.9 5.4 7.1 4.3 3.6 0.2 7.6 0.7 7.2-4.2 0.49-2.3 0.26-5-1.8-6.5z" fill="#80503f" stroke-width=".26"/>
   <path d="m-0.36 42c4.4 1 9.1 1.4 13-0.12 4.8-0.74 9.7-0.023 14 1.3 4.8 0.44 9.6-1.6 14-0.89 1.8-0.62 6.6-0.32 4 2.3-3 1-6.2 0.12-9.4 0.38h-37c0.021-0.99 0.043-2 0.064-3zm47-42v5.2c-3.7-1.4-7.9 1.4-11-1.3-4.4-0.64-8.7 0.91-13 1.2-3.5-0.16-7 0.24-10-0.96-3.4-0.51-6.9-0.075-10 0.44-4.5-0.28-0.95-6.4 2.4-4.7 4.8 0.27 9.6 0.055 14 0.14 9.4 0.014 19 0.028 28 0.042z" fill="#71c837" stroke="#5aa02c"/>
  </g>
 </g>
 <path d="m40 2.1v37l-37-37c8.4 0 31-0.014 37-0.014z" fill="#71c837" stroke-dashoffset="2.7" stroke-linecap="round" stroke-linejoin="round" stroke-width=".7"/>
</svg>
