<?xml version="1.0" encoding="UTF-8"?>
<svg width="42mm" height="74.2mm" version="1.1" viewBox="0 0 42 74.2" xmlns="http://www.w3.org/2000/svg" xmlns:cc="http://creativecommons.org/ns#" xmlns:dc="http://purl.org/dc/elements/1.1/" xmlns:rdf="http://www.w3.org/1999/02/22-rdf-syntax-ns#">
 <metadata>
  <rdf:RDF>
   <cc:Work rdf:about="">
    <dc:format>image/svg+xml</dc:format>
    <dc:type rdf:resource="http://purl.org/dc/dcmitype/StillImage"/>
    <dc:title/>
   </cc:Work>
  </rdf:RDF>
 </metadata>
 <g transform="matrix(.787 .78 0 .78 2.94 2.51)">
  <rect x="-.267" y=".0668" width="46.6" height="44.6" ry=".267" fill="#4b2d2e"/>
  <path transform="scale(.265)" d="m-0.662-0.441v56.2c3.31-3.02 5.65-6.7 8.02-10.5 1.22-1.95 9.45 7.71 10.1 7.86 12.3-6.58-4.64-17.5-3.19-20.6 7.09-1.02 8.97 2.38 16.6-0.75 11.5-4.74 14.3-23.5 5.88-32.2zm168 8.16c-8.16 10.2-3.21 24.8 7.28 29v-30.4c-2.53-0.442-5.29 0.372-7.28 1.45zm-83.1 30.4c-4.5 13.4-12.9 60.5-0.06 71.9l-0.0078-4e-3c4.97 12.6 7.42 21.8 10.9 33.8 2.43-10.9 20.7-12.5 16.8-25.1-2.45-11.5-5.98-28.7-1.48-36.9 2.82-4.84 13.4-6.99 13-13.6-1.39-6.39-17.3-26.6-23-30-4.36-0.626-13.2-2.4-16.2-0.186zm47.9 34.8 0.0117 0.0195c0.215 4.23-1.07 8.88 0.617 13 6.94 7.56 3.12 6.15 3.96 13.8 0.221 1.67 6.84 14.7 8.05 15.3 2.49 1.35 6.16-0.732 8.88 0.5 4.69 2.14 1.02 11.3 7.37 3.82 3.74-4.1 6.76-10.3 6.71-15.3-0.262-9.49-9.11-25.2-17.9-29-5.71-0.422-12.8-3.18-17.7-2.12z" fill="#623c34" stroke-width="3.78"/>
  <path transform="scale(.265)" d="m104 7.03c0.0665-1.72 0.164-1.91-0.119 0-1.37 7.8-3.99 17.3-2.09 24.4 1.3 4.31 2.36 1.46 4.88-0.764 4.61-3.87 19.8-11.6 23.9-11.1 5.36 5.38-4.24 9.53-4.5 10.5 4.04 5.7 4.21 5.81 5.3 12.1 0.476 2.51 6.39 11.3 8.43 12.8 2.1 1.6 23.2 5.22 26.8 4.12 2.52-0.777 5.18-3.09 7.27-5.97v-17.6c-1.59-1.54-3.25-3.06-4.02-5.28-2.16-6.24-7.18-22-11.8-25.5-12.1-6.17-48.9-5.68-54 2.37zm-69.3 6.9c0.598 4.87-3.89 13.9 1.37 17.2 2.28 1.4 6.61-6.58 7.52 2.86 0.461 4.72-5.86 6.05-6.24 8.58-0.442 3.12 5.14 7.03 6.73 9.49 5.59 8.58-2.74 35.5 1.68 40.1 5.56 2.65 4.72 2.25 7.48 7.85 3.89 8.41 26.5 27.9 34.5 16.8 1.36-2.66-0.333-8.88 1.68-14 11-30.5 2.55-52.8-12.4-75.6-2.82-4.38-3.46-9.86-6.69-14.1-17.1-14.2-22.9-16.9-35.6 0.87zm-0.04 0.09c-0.0053-0.0432-0.0036-0.0922-0.0098-0.135l-0.0449 0.217c0.0195-0.0255 0.0354-0.0563 0.0547-0.082zm-35.5 24v14.4c3.58-2.02 3.59-12 0-14.4zm29.2 19.2 0.0117 0.0215c-1.59 2.27-5.14 2.51-6.54 5.1-4.84 9.11 0.498 24.2 6.8 31.3 2.53 3.16 4.29 4.77 8.11 5.72 0.236-1.59-1.86-4.16-2.28-5.71-0.896-3.3 0.22-7.03-0.805-10.2-1.02-3.18-3.85-5.97-3.78-9.37 0.147-7.37 12.1-13.5-1.52-16.9zm-25.8 44.8c-1.52 2.59-2.74 6.9-3.42 11.4v12.8c0.0251 0.0965 0.0434 0.206 0.0703 0.299 0.869 3.02 4.42 3.45 5.21 6.09-0.686 3.22 1.8 4.87 3.08 7.31 1.33 2.61 1.41 5.65 3.44 7.94 3.06 3.45 8.83 0.57 11.6 4.01 3.24 3.99 3.59 8.4 4.44 12.1h40.2c3.65-2.93 5.86-6.81 3.58-11.6-2.38-5.03-7.55-8.31-9.68-13.6-2.46-3.37-4.97-20.2-6.22-22.2-9.47-4.52-16.8-14-26.4-18.2-4.96-0.559-9.21-3.78-13.6-4.33-4.97 0.272-9.99 4.53-12.3 8.01zm130 21.6c-11.5 0.73-19 9.23-24.5 15.7-1.98 2.28-7.35 7.45-7.34 11.5-2.01-4.57-7.36-8.27-11.3-7.13-5.12 2.68-10.1 13.7-7.18 17.5 0.986 1.13 2.02 2.07 3.12 2.85h49.9c0.221-2.39 0.0184-5 1.12-7.18 1.06-2.08 5.35-5.17 5.14-7.48-0.189-1.7-6.03-1.81-4.16-8.01 0.699-2.38 5.86-3.08 4.2-6.54-0.82-1.73-3.22-2.68-4.42-4.12-3.13-3.34-0.669-6.28-4.54-6.97z" fill="#80503f" stroke-width="3.78"/>
  <path d="m-0.363 41.5c0.582-0.204 1-0.369 1.58-0.0542 2.17 1.17 4.61 1.19 7.32 0.92 0.419-0.0418 1.14 0.0155 1.52-0.0889 0.474-0.131 0.283-0.951 0.635-0.951 0.354 0 0.892 0.32 1.37 0.308 0.881-0.0225 1.59-0.339 2.42-0.407 1.77-0.145 3.66-0.0876 5.42-0.013 0.749 0.0318 1.7 0.0113 2.44-0.0653 0.102-0.0106 0.576-0.178 0.662-0.154 0.0128 0.0035-0.213 0.451-0.216 0.472-0.0418 0.312 0.411 0.74 0.815 0.907 0.763 0.324 2.09 0.0592 2.94 0.0455 1.27-0.0204 2.55 0.255 3.82 0.227 0.911-0.0198 3.1 0.0764 3.86-0.143 0.144-0.0418 0.201-1.04 0.431-0.939 0.188 0.087 0.25 0.112 0.513 0.115 0.285 0.0029 0.325 0.0095 0.666 0.0217 0.764 0.0273 1.53-0.0227 2.29 0.026 0.587 0.0375 1.35 0.175 1.9 0.175 0.841 0 1.77-0.107 2.62-0.139 0.265 0.0577 2.61-0.771 3.83-0.369v3.08h-46.9zm46.9-41.6v5.15c-0.805 0.128-0.673-1.36-1.92-1.03-0.754 0.404-0.545 1.14-1.33 1.19-2.21 0.128-1.18-1.05-2.65-0.851-1.69 0.228-0.0158 1.08-2.56 0.886-1.77-0.135-0.462-0.535-0.708-0.851-0.24-0.305-1.15-0.0963-1.51-0.298-0.415-0.236-1.07-0.804-1.67-0.845-0.219-0.014-0.388 0.091-0.579 0.13-1.57 0.319-1.02 0.993-2.82 0.993-0.0132 0-0.741-1.24-1.5-0.845-0.521 0.274-0.496 0.833-1.35 0.94-0.702 0.0881-1.23-0.792-2.19-0.455-0.872 0.306-0.806 1.25-2.06 1.23-0.626-0.00881-1.04-0.987-1.36-0.898-0.805 0.217-1.26 1.39-2.45 1.21-0.782-0.125-0.718-0.569-1.22-0.774-0.408-0.154-1.19-0.0411-1.37-0.527-1.23 0.0745-2.45 1.09-2.95 0.993-0.381-0.0768-0.984-0.151-1.25-0.33-0.246-0.161-1.2-1.57-1.31-1.58-1.47-0.0615-2.52 1.19-2.72 1.19-1.76 0.03-1.13-0.904-1.82-1.12-0.806-0.262-2.04 0.691-2.71 0.816-1.6 0.288-4.34-0.768-4.88 0.857v-5.25z" fill="#71c837" stroke="#5aa02c" stroke-width=".418"/>
 </g>
 <path d="m39.7 2.09v37l-37-36.9c8.37 0 31.1-0.0141 37-0.0141z" fill="#71c837" stroke-dashoffset="2.69" stroke-linecap="round" stroke-linejoin="round" stroke-width=".7"/>
</svg>
