<?xml version="1.0" encoding="UTF-8"?>
<svg width="201mm" height="266mm" version="1.1" viewBox="0 0 201 266" xmlns="http://www.w3.org/2000/svg" xmlns:cc="http://creativecommons.org/ns#" xmlns:dc="http://purl.org/dc/elements/1.1/" xmlns:rdf="http://www.w3.org/1999/02/22-rdf-syntax-ns#">
 <metadata>
  <rdf:RDF>
   <cc:Work rdf:about="">
    <dc:format>image/svg+xml</dc:format>
    <dc:type rdf:resource="http://purl.org/dc/dcmitype/StillImage"/>
    <dc:title/>
   </cc:Work>
  </rdf:RDF>
 </metadata>
 <g transform="translate(-19.3 32.7)">
  <g stroke="#000" stroke-width="1.5">
   <path d="m198 119a12 15 0 0 1-12 15 12 15 0 0 1-12-15 12 15 0 0 1 12-15 12 15 0 0 1 12 15zm-74.6-20.7c6.47-3.21 21.4-6.67 29.9 4.72 3.59-0.883 2.04-1.17 7.42-0.856 3.63 2.12 5.31 13.3 5.37 17.2-0.892 10-10.6 9.93-20 9.54-18 1.66-26.9-14.5-22.7-30.6zm-16.3 72.8c0.954 47.2 29.8 38.9 28.8 2.34-0.439-6.66-2.97-13.8-4.77-16.2-5.39 4.18-18.6 10.6-24 13.9zm-40.6 4.28c-2.52 7.27-0.469 23.2 10.6 22.6 7.52-0.341 16.8-7.41 16.6-16.8-1.38-20.9-19.2-10.6-27.2-5.82zm6.07-39.3c-12 0-21.6-7.99-21.6-17.8-3e-6 -9.85 9.69-17.8 21.6-17.8" fill="#fca" fill-rule="evenodd" stop-color="#000000" style="font-variation-settings:normal"/>
   <path d="m157 129c6.62-11.7 3.88-20.3 3.79-26.9 7.94-1.89 18.1 3.04 17.1 19.8-0.611 10.4-14.1 10.4-20.9 7.16zm-20.3 55.7c2.51 8.24 3.29 20.4 2.97 28.2 23 16.6-4.43 18.3-21 14.3-5.56-1.33-16.1-5.86-15.3-13.1 2.25-6.61 0.715-19.2 4.36-27.4 14.6 5.37 19.1 1.38 29-2.03zm-71.5 2.17c-2.51 8.24-1.88 16.7-1.55 24.5-23 16.6 3.49 17.9 20.1 13.9 5.56-1.33 15.8-2.27 15-9.55-2.25-6.61-0.436-22.8-4.08-31-15.4 6.31-14.1 5.54-29.5 2.04zm9.69-82.5c-2.69 16.4-2.31 34.8-0.213 51 28.9 12.8 44.2 3.67 58.2-2.14-3.83-14.6-1.2-10.9-0.814-22.5-1.6-11.4 2.05-27.2-13.3-28.4-13 1.89-30.6 1.18-43.8 1.97z" fill="#502d16" stroke-dashoffset="2.69" stroke-linejoin="round"/>
   <path d="m88.9 173c2.13 4.62 7.84 6.57 12.6 5.59 4.01-0.647 5.87-4.62 8.8-7.61 5.74-5.86 14.9-4.13 20.8-9.66 4.92-3.16 2.86-9.36-2.84-6.71-3.43 1.18-12.9 4.16-16.2 5.65-11.4 4.63-22.4 2.65-23.2 12.7z" fill="#04a" stroke-dashoffset="2.69" stroke-linejoin="round"/>
   <path d="m105 149a40.5 35 0 0 1-40.5 35 40.5 35 0 0 1-40.5-35 40.5 35 0 0 1 40.5-35 40.5 35 0 0 1 40.5 35m19.5-44.1c-0.306-30.2-3.62-59-28.8-57.1-29.6 2.17-26.2 40.9-23.6 64.4 6.52 2.83 21.3 4.73 27.6 4.55 8.59 0.237 19.2-4.76 24.9-11.8z" fill="#d4aa00" fill-rule="evenodd" stop-color="#000000" style="font-variation-settings:normal"/>
  </g>
  <path d="m92.8 88.7 9.49-0.267-0.535-11.8c5.99-2.22 16.5 0.299 16.7 6.24 0.215 7.43-11.3 8.86-14.9 9.63l1.49 23.7-11.9 0.243-0.935-23.4c-9.74-0.225-16-0.287-15.9-7.53 0.114-5.95 4.12-8.68 15.8-8.49 0.0192 2.72 0.146 8.56 0.691 11.6z" stroke="#28170b" stroke-dashoffset="2.69" stroke-linejoin="round" stroke-width=".5"/>
  <g>
   <path d="m182 103c0.975-17.5 12.4-59.6 4.42-71.7 10.3-17.8 13.1-39.3 21.5-60.3 14.1 24.6 7.09 73.5 0.19 102-12.3 1.58-12.9 19.8-15 31.3-2.89 4.24-11 4.04-11-1.67z" fill="#afc6e9" stroke="#000" stroke-dashoffset="2.69" stroke-linejoin="round" stroke-width="1.5"/>
   <path d="m112 84.2a2.24 2.24 0 0 1-2.24 2.24 2.24 2.24 0 0 1-2.24-2.24 2.24 2.24 0 0 1 2.24-2.24 2.24 2.24 0 0 1 2.24 2.24m-24.4 0.334a2.24 2.24 0 0 1-2.24 2.24 2.24 2.24 0 0 1-2.24-2.24 2.24 2.24 0 0 1 2.24-2.24 2.24 2.24 0 0 1 2.24 2.24z" fill="#f00" fill-rule="evenodd" stop-color="#000000" stroke-width="0" style="font-variation-settings:normal"/>
   <rect transform="rotate(10.2)" x="191" y="65.7" width="27.5" height="7.37" fill="#fc0" stroke="#000" stroke-dashoffset="2.69" stroke-linejoin="round" stroke-width="1.5"/>
  </g>
  <rect x="38.8" y="-8.61" width="61.2" height="29.4" fill="#93a7ac"/>
 </g>
</svg>
