<?xml version="1.0" encoding="UTF-8" standalone="no"?>
<svg
   xmlns:dc="http://purl.org/dc/elements/1.1/"
   xmlns:cc="http://creativecommons.org/ns#"
   xmlns:rdf="http://www.w3.org/1999/02/22-rdf-syntax-ns#"
   xmlns:svg="http://www.w3.org/2000/svg"
   xmlns="http://www.w3.org/2000/svg"
   xmlns:sodipodi="http://sodipodi.sourceforge.net/DTD/sodipodi-0.dtd"
   xmlns:inkscape="http://www.inkscape.org/namespaces/inkscape"
   sodipodi:docname="gold.svg"
   inkscape:version="1.0 (4035a4fb49, 2020-05-01)"
   id="svg8"
   version="1.1"
   viewBox="0 0 210 297"
   height="297mm"
   width="210mm">
  <defs
     id="defs2" />
  <sodipodi:namedview
     inkscape:window-maximized="1"
     inkscape:window-y="-8"
     inkscape:window-x="-8"
     inkscape:window-height="1017"
     inkscape:window-width="1920"
     showgrid="false"
     inkscape:document-rotation="0"
     inkscape:current-layer="layer1"
     inkscape:document-units="mm"
     inkscape:cy="560"
     inkscape:cx="400"
     inkscape:zoom="0.35"
     inkscape:pageshadow="2"
     inkscape:pageopacity="0.0"
     borderopacity="1.0"
     bordercolor="#666666"
     pagecolor="#ffffff"
     id="base" />
  <metadata
     id="metadata5">
    <rdf:RDF>
      <cc:Work
         rdf:about="">
        <dc:format>image/svg+xml</dc:format>
        <dc:type
           rdf:resource="http://purl.org/dc/dcmitype/StillImage" />
        <dc:title></dc:title>
      </cc:Work>
    </rdf:RDF>
  </metadata>
  <g
     id="layer1"
     inkscape:groupmode="layer"
     inkscape:label="Layer 1">
    <g
       style="display:inline"
       id="gold-1"
       transform="matrix(1.732,0,0,1.732,-35.74,-426)">
      <path
         d="M 60.6,303.6 H 88 c 7.6,0 13.6,6.1 13.6,13.6 V 357 c 0,7.6 -6,13.7 -13.6,13.7 H 60.6 C 53.1,370.7 47,364.6 47,357 v -39.8 c 0,-7.5 6.1,-13.6 13.6,-13.6 z"
         style="display:inline;fill:#e7e7d1;fill-opacity:1;stroke:none;stroke-width:0;stroke-linecap:round;stroke-linejoin:round;stop-color:#000000"
         id="rect1816-4-47" />
      <g
         style="display:inline"
         id="g1814-9-9">
        <path
           d="m 93.52,335.3 c 0,12.4 -8.74,22.5 -19.55,22.6 -10.81,-0.1 -19.53,-10.2 -19.54,-22.6 0,-12.4 8.73,-22.4 19.54,-22.6 10.81,0.2 19.53,10.2 19.55,22.6"
           style="display:inline;fill:#bb9f00;fill-opacity:1;stroke-width:0;stroke-linecap:round;stroke-linejoin:round;stop-color:#000000"
           id="path1590-0-4-2" />
        <path
           d="m 94.04,336.4 c 0,12.1 -8.01,22 -17.96,22.1 -9.94,-0.1 -17.95,-10 -17.95,-22.1 0,-12.2 8.01,-22.1 17.95,-22.2 9.95,0.1 17.95,10 17.96,22.2"
           style="fill:#fbd500;fill-opacity:1;stroke-width:0;stroke-linecap:round;stroke-linejoin:round;stop-color:#000000"
           id="path1590-4-6" />
        <g
           style="display:inline"
           id="g1766-5-2-9">
          <path
             style="display:inline;fill:#bbbbbb;fill-opacity:1;stroke:none;stroke-width:0.0700918;stroke-linecap:butt;stroke-linejoin:miter;stroke-opacity:1"
             d="m 80.43,325.7 c 0,0 0.66,3.4 0,4.8 -0.65,1.5 -2.91,6.9 -4.14,7.8 -0.78,0.8 -2.7,3.1 -4.46,3.8 -1.75,0.7 -5.67,-0.1 -5.98,-4.1 -0.74,-3.8 6.49,-10.2 6.94,-10.4 0.89,-0.2 7.65,-1.9 7.65,-1.9 z"
             id="path1648-9-5-3-4" />
          <path
             style="display:inline;fill:#585858;fill-opacity:1;stroke:none;stroke-width:0.0700918;stroke-linecap:butt;stroke-linejoin:miter;stroke-opacity:1"
             d="m 71.04,323.6 c 0,0 -1.21,1 -0.84,2.9 0.36,1.8 3.26,2.2 3.27,2.2 0.46,0 2.23,-0.6 2.23,-0.6 l 1.27,1.7 c 0,0 0.1,0.3 0.1,0.3 0.45,-0.2 0.38,-0.5 0.38,-0.5 l 0.44,-2.6 c 0,0 2.03,0.7 3.2,-0.5 1.18,-1.2 1.2,-3.6 0,-4.7 -1.16,-1.1 -10.05,1.8 -10.05,1.8 z"
             id="path1642-3-6-3-1" />
          <path
             d="m 76.22,323.5 c 0.16,0.8 0,1.7 -0.37,2.4 -0.4,0.7 -1.03,1.2 -1.74,1.3 -0.68,0.2 -1.42,0.1 -2.05,-0.3 -0.62,-0.5 -1.07,-1.2 -1.24,-2.1 -0.17,-0.8 0,-1.7 0.37,-2.4 0.4,-0.7 1.03,-1.2 1.74,-1.3 0.68,-0.2 1.42,-0.1 2.04,0.3 0.63,0.5 1.08,1.2 1.25,2.1"
             style="display:inline;fill:#000000;fill-opacity:1;stroke-width:0;stroke-linecap:round;stroke-linejoin:round;stop-color:#000000"
             id="path1623-2-2-3-6" />
          <path
             d="m 81.16,322.2 c 0.16,0.8 0,1.7 -0.37,2.4 -0.4,0.7 -1.03,1.2 -1.74,1.3 -0.68,0.2 -1.42,0.1 -2.05,-0.3 -0.62,-0.5 -1.08,-1.2 -1.24,-2.1 -0.17,-0.8 0,-1.7 0.36,-2.4 0.41,-0.7 1.04,-1.2 1.74,-1.3 0.68,-0.2 1.43,-0.1 2.05,0.3 0.63,0.5 1.08,1.2 1.25,2.1"
             style="display:inline;fill:#000000;fill-opacity:0.996;stroke-width:0;stroke-linecap:round;stroke-linejoin:round;stop-color:#000000"
             id="path1623-5-2-0-7-8" />
          <path
             style="display:inline;fill:#585858;fill-opacity:1;stroke:none;stroke-width:0.0700918;stroke-linecap:butt;stroke-linejoin:miter;stroke-opacity:1"
             d="m 75.44,329.2 c 0,0 -1.99,-0.6 -3.34,-0.2 -1.81,0.4 -7.38,10.5 -7.38,10.5 0,0 -0.8,3.2 -0.62,4.1 0.18,1 0.1,2.7 1.04,2.9 1,0.3 11.32,-14.5 11.68,-15.1 -0.1,-0.5 0.1,-1.9 -1.38,-2.2 z"
             id="path1644-2-1-6-8" />
          <path
             style="display:inline;fill:#000000;fill-opacity:1;stroke:none;stroke-width:0.0700918;stroke-linecap:butt;stroke-linejoin:miter;stroke-opacity:1"
             d="m 71.78,349.1 -2.19,0.9 2.5,0.7 0.86,-0.4 1.51,0.5 1.26,-0.8 -0.57,-0.5 0.33,-0.7 h -1.87 l -0.63,-3.2 c 0,0 0.7,-1.3 0.61,-1.7 -0.1,-0.4 -0.1,-0.4 -0.1,-0.4 0,0 1.04,0.5 1.18,1.2 0.6,0.7 1.51,2.9 1.51,2.9 l -0.81,0.7 0.1,0.4 0.12,0.6 1.92,0.2 0.79,-0.8 1.86,-0.1 1.81,-0.4 0.75,-1 -1.17,-1.2 -1.28,0.7 -2.31,0.2 -1.51,-2.9 c 0,0 0.53,-2.1 -0.11,-5.4 -1.1,-3.2 -6.93,3.2 -6.93,3.2 0,0 0.1,2.8 1.7,3.9 1.16,1.1 0.67,3.4 0.67,3.4 z"
             id="path1650-6-9-7-3" />
          <path
             style="display:inline;fill:#585858;fill-opacity:1;stroke:none;stroke-width:0.0700918;stroke-linecap:butt;stroke-linejoin:miter;stroke-opacity:1"
             d="m 67.8,343.2 c 0,0 0,2.6 -0.27,3.5 -0.3,0.9 -0.8,0.7 -0.77,0.9 -0.42,0.3 0.27,1.4 0.72,1.3 0.44,-0.2 1.94,-2.2 2.13,-3.7 0.19,-1.4 0.15,-4 0.15,-4 z"
             id="path1654-5-7-9-2" />
        </g>
      </g>
    </g>
  </g>
</svg>
