<?xml version="1.0" encoding="UTF-8"?>
<svg width="210mm" height="210mm" version="1.1" viewBox="0 0 210 210" xmlns="http://www.w3.org/2000/svg" xmlns:cc="http://creativecommons.org/ns#" xmlns:dc="http://purl.org/dc/elements/1.1/" xmlns:rdf="http://www.w3.org/1999/02/22-rdf-syntax-ns#">
 <metadata>
  <rdf:RDF>
   <cc:Work rdf:about="">
    <dc:format>image/svg+xml</dc:format>
    <dc:type rdf:resource="http://purl.org/dc/dcmitype/StillImage"/>
    <dc:title/>
   </cc:Work>
  </rdf:RDF>
 </metadata>
 <path d="m58.5 109c-0.896-7.08-3.84-15.6 0.22-22 7.84-7.19 6.73-17.7 3.52-26.9-4.56-9.38 1.81-17.4 8.46-23.4 7.17-6.33 13.7-14.6 22.9-17.8 13-1.81 26.5 2.35 39.2-2.12 8.44-1.8 16.3-9.06 25.1-4.85 9.43 2.13 14.2 10.2 15.2 19.1 3.53 6.64 14 10 14.1 17.8-4.05 8.68 9.58 15.7 2.46 25.2-6.69 7.16-1.44 15 1.3 22.4 0.235 7.99 2.55 18.7-6.41 22.7-8.12 6-12.2 16.5-22.1 20.3-9.25 5.53-20.5 0.134-30.3 3.38-11.7 2.01-23.4 4.12-35 6.68 1.45 8.93-5.78 16.5-10.1 23.7-6.87 4.55-15.9 2.31-22.8 6.35-6.04 4-15.2 3.36-21.5 1.4-6.78-3.81-18.9-1.34-20.3-12-0.778-5.44 0.575-10.4-2.86-15 4.11-7.36 8.36-14.3 4.94-23-1.83-7.81 6.22-15.5 13.7-14.4 7.82 1.77 8.74-12.2 17.7-7.15l1.11-0.17z" fill="#999" stroke="#333" stroke-dashoffset="2.69" stroke-linecap="round" stroke-linejoin="round" stroke-width=".7"/>
 <path d="m32.2 152c0.683-8.4 10.6-4.48 14.4-0.706 6.21 7.99-10.3 17.3-11.6 5.46-0.797-1.66-1.65-3.31-2.82-4.75zm20.1-27c1.31-5.82 8.9-9.91 12-3.62 7.75 1.8 9.29 10.5 4.44 15.8-3.1 7.67-10.4 1.53-14.5-1.52-4.49-2.04-7.6-7.91-1.88-10.6zm66.5-53.2c5.71-6.67 12.8 0.29 17.7 3.78 5.17 5.78-4.3 13.6-10.2 13.4-3.77-3.87-5.52-9.81-8.6-14.2-0.0236-1.07 0.457-2.08 1.05-2.94zm7.58-37c1.06 5.74 3.87 20.2 11.8 14.3 7.44-1.35 16.4-9.34 7.15-15.3-4.24-3.89-10.4-8.81-15.7-3.57-1.5 1.19-2.72 2.77-3.3 4.61zm-44.8 15.8c-0.285-9.35 10.6-11.7 17.6-14.1 5.3-2.81 13.2-0.612 10.7 6.46 3.32 5.72 3.38 11.7 2.33 17.8-4.59 5.94-12.3 8.77-17.5 14.2-8.84 4.52-8.98-7.3-9.11-12.9-0.253-4.23-3.44-7.42-3.96-11.4z" fill="#d45500" stroke="#a40" stroke-dashoffset="2.69" stroke-linecap="round" stroke-linejoin="round" stroke-width=".7"/>
 <path d="m150 10.7c9.22 9.27 9.76 23.3 10.2 35.6-0.318 9.7-2.3 19.4-0.785 29.1-0.986 9.28-7.68 16-16.6 17.9-9.81 2.54-17.8 9.53-17.9 20-5.47 8.01-17 5.4-24.1 3.36-3.49-9.96-8.34-19.5-19.3-22.9-8.53-3.67-17.4 3.14-24.3 7.44-2.33 13.3 13.7 1.19 20.4 4.91 11.2 3.14 11.3 16.7 17.8 24.1-2 9.79-16.2 9.1-19.1 18.6-3 8.67-10 14.1-19 13.1-7.23 4.65-15.3 10.9-24.4 8.52-4.43-1.17-14-6.82-9.34 1.88 5.46 7.96 16.2 6.76 24.2 10 9.88 2.39 17.3-4.68 26.8-5.41 11.1 0.341 18.5-9.05 21.3-18.8 0.0258-12.1 12.5-10.1 20.9-12.4 11.8-2.07 23.7-5.07 35.7-3.44 11.1-0.254 20-8.36 25.7-17.1 8.82-5.85 16.1-14.3 13.2-25.6-1.72-9.16-8.77-17.5-1.5-26.2 6.33-9.63-6.65-16.3-3.03-26.1-2.18-8.55-14.4-11.3-15.5-21.2 0.0512-10.2-12.7-14.5-21.2-15.3z" opacity=".304"/>
</svg>
