<?xml version="1.0" encoding="UTF-8"?>
<svg width="210mm" height="210mm" version="1.1" viewBox="0 0 210 210" xmlns="http://www.w3.org/2000/svg" xmlns:cc="http://creativecommons.org/ns#" xmlns:dc="http://purl.org/dc/elements/1.1/" xmlns:rdf="http://www.w3.org/1999/02/22-rdf-syntax-ns#">
 <metadata>
  <rdf:RDF>
   <cc:Work rdf:about="">
    <dc:format>image/svg+xml</dc:format>
    <dc:type rdf:resource="http://purl.org/dc/dcmitype/StillImage"/>
    <dc:title/>
   </cc:Work>
  </rdf:RDF>
 </metadata>
 <path d="m58 109c-5.5-12 2.3-24 6.3-35-2.1-11-6.4-23 0.81-32 11-9.6 21-23 36-23 16 3.3 33-0.43 48-7.1 11-1.5 21 8.1 23 18 6.3 8.5 14 17 15 28 5.4 13-5.7 27 0.92 39 5.3 9.1 0.55 19-6.9 25-7.9 6.7-14 17-24 19-9.8 2.3-20 0.81-30 2.4-9.6 1.2-20 2.5-28 7.1-7.3 7.3-6 21-18 25-9.7 2-19 4.9-29 7-8.2 0.4-17-1.2-24-5.3-7.4-5.1-11-15-7.2-24 1.8-10 3.4-21 4-31 10-4.6 21-11 32-13z" fill="#999" stroke="#333" stroke-dashoffset="2.7" stroke-linecap="round" stroke-linejoin="round" stroke-width=".7"/>
 <path d="m32 152c17-17 10 28 0 0zm20-27c26-20 10 37-1.1 5.8-3.7-2.8-0.19-4.1 1.1-5.8zm67-53c28-16 7 42 0 0zm7.6-37c-5.2 28 42-0.66 11-6.3-4.4-1-10 1.2-11 6.3zm-45 16c9.8-35 55 9.1 19 22-12 5.9-20-12-19-22z" fill="#d45500" stroke="#a40" stroke-dashoffset="2.7" stroke-linecap="round" stroke-linejoin="round" stroke-width=".7"/>
 <path d="m150 11c16 20 8.9 48 8 71-11 13-30 16-36 33-23 18-25-25-47-22-17-0.62-19 20 0.56 14 20 0.75 24 32 4.2 39-9 15-26 21-43 24-24-6.3 0.86 17 12 12 16-1.8 38-2.8 45-19 5-20 26-17 42-20 17 0.39 35-3 45-19 19-12 6.3-31 7.5-48 8.7-17-6.1-35-15-48-3.8-9.5-12-18-23-18z" opacity=".3"/>
</svg>
