<?xml version="1.0" encoding="UTF-8"?>
<svg width="210mm" height="210mm" version="1.1" viewBox="0 0 210 210" xmlns="http://www.w3.org/2000/svg" xmlns:cc="http://creativecommons.org/ns#" xmlns:dc="http://purl.org/dc/elements/1.1/" xmlns:rdf="http://www.w3.org/1999/02/22-rdf-syntax-ns#">
 <metadata>
  <rdf:RDF>
   <cc:Work rdf:about="">
    <dc:format>image/svg+xml</dc:format>
    <dc:type rdf:resource="http://purl.org/dc/dcmitype/StillImage"/>
    <dc:title/>
   </cc:Work>
  </rdf:RDF>
 </metadata>
 <path d="m58.5 109c-1.47-5.73-1.9-13.9-1.65-18.9 2.88-5.51 8.72-11.1 8.03-14.2 0.403-8.13-4.97-20-3.94-27 3.73-6.2 6.1-7.98 10.6-13.1 7.57-6.89 12.2-11.9 19.9-16.3 4.77-1.78 20.6-0.898 25.4-0.302 15.8-0.316 24.1-5.58 33.5-8.75 11.9 1.02 17.6 6.77 19.8 9.56 3 3.7-0.294 5.17 3.89 12.3 4.94 5.29 8.97 8.02 13.7 13.9-0.352 4.88-0.914 3.7-1.77 8.36 1.54 1.74 5.53 7.75 5.92 10-0.783 4.71-0.338 7.22-2.78 10.8-1.81 2.67-2.77 6.9-3.04 8.49 0.527 3.41 4.99 8.39 5.47 15 0.0213 2.72 0.0398 13.5-1.04 15.8-5.82 4.14-13.1 10.8-16.4 16-7.48 7.65-5.33 5.42-14.3 10.3-3.59 1.95-16.7 0.557-20.8 0.687-15 2.7-23.6 3.95-41.6 7.86 0.195 2.26 0.524 3.63 0.335 4.89-0.411 2.74-7.95 15.7-9.67 18.1-1.45 2.01-7.53 3.26-9.5 3.72-2.06 0.48-7.29 1.21-9.4 1.3-2.26 0.0977-7.02 3.85-9.24 4.51-2.75 0.814-11.6-0.518-14.3 0.338-1.17 0.374-3.99-3.1-5.2-2.99-9.56-1.93-6.94 0.266-14.4-3.9-2.58-3.4-3.19-6.36-3.7-8-0.789-2.54 0.867-5.76 0.357-8.27-1.36-1.66-3.01-2.66-2.79-5.25 0.84-4.93 5.9-8.66 6.52-12.9-1.01-6.25-3.19-14.3-0.0915-18.5 1.93-2.47 5.09-4.47 7.88-5.98 0.833-0.449 7.92 0.485 8.59 0.268 3.16-3.89 3.32-4.59 6.45-8.09 2.67-1.03 2.05 1.99 9.37 0.273z" fill="#999" stroke="#333" stroke-dashoffset="2.69" stroke-linecap="round" stroke-linejoin="round" stroke-width=".7"/>
 <path d="m32.2 152c0.0877-2.16 3.33-7 6.32-5.8 1.24 0.498 2.19 2.96 3.18 3.19 1.76 0.402 6.39 1.95 6.61 4.61 0.191 2.35-2.5 5.48-3.6 7.59-0.678 0.779-7.31 0.802-7.51 0.635-1.06-0.957-0.486-3.5-1.06-4.7-2.75-3.01-4.01-3.9-3.94-5.52zm20.1-27c1.01-0.668 3.55-6.73 5.78-7.61 2.63-1.04 4.32 3.31 5.42 4.13 1.55 1.17 3.99 0.807 5.52 1.81 0.678 0.442 0.35 2.48 1.01 3.25 0.299 0.351 2.49 0.874 2.61 2.05 0.171 1.59-2.2 3.58-2.91 5.06-1.36 2.83-2.03 10.4-7.3 7.05-7.42-5.1-19.6-9.49-10.1-15.7zm66.5-53.2c1.71-0.924 6.23-3.57 7.84-3.49 1.36 0.0662 6.1 7.35 11.8 8.17 0.471 3.91 0.0472 5.09-3.15 7.26-1.02 0.744-2.01 3.6-3.92 3.99-0.331 0.0662-6.65 1.86-6.94 1.14-2.17-5.25-1.46-8.16-3.6-9.65-3.28-2.3-4.24-2.38-2-7.41zm7.58-37c0.588 6.68 5.23 16.1 8.01 16.9 1.87 0.562 4.46-2.86 5.83-3.65 4.28-3.03 10.8-4.48 10.2-6.35-1.1-3.04-1.22-2.8-2.8-5.69-0.236-3.45-3.5-2.06-5.71-4.05-0.819-0.738-1.27-1.77-1.95-2.67-1.09-1.46-1.46-0.807-3.35-2.31-1.62 1.32-5.35 1.98-7.84 3.75-1.33 0.952-2.02 2.56-2.35 4.04zm-44.8 15.8c0.321-2.29 0.385-5.14 2.22-6.9 5.43-5.2 22.3-9.72 25.6-8.07 1.67 0.858-0.194 6.7 0.162 8.2 0.813 3.43 2.86 2.74 4.14 6.4 0.684 1.96-2.55 4.05-2.11 6.29 0.609 3.12 4.02 5.69-3.52 8.27-2.37 0.812-6.71 4.52-8.73 6.24-5.6 4.49-6.87 8.13-11.8 3.15-3.05-3.51-0.895-11-1.49-13.1-0.832-2.66-2.79-2.58-4.39-10.5z" fill="#d45500" stroke="#a40" stroke-dashoffset="2.69" stroke-linecap="round" stroke-linejoin="round" stroke-width=".7"/>
 <path transform="scale(.265)" d="m568 40.3c5.24 2.09 16 18.9 18.7 24.8 10.8 23.6 15 44.8 17.9 72.8 6.98 46.5-5.91 86.9-2.83 129 7.29 26.6-7.44 38.8-16.2 65.1-19.8 10.1-44.6 17.8-58.8 25.8-16.1 11-31.7 13.6-44.8 29.8-10.8 13.9 3.67 27.6-10.1 41.5-12.3 12.5-19.5 16.4-31 21.5-18.1-8.91-35-11.4-51.9-0.914-5.03-9.86-19.9-29-21.2-37.4-0.79-5.08-2.99-22.8-13.3-31.1-21.2-12.5-53.7-39-75.8-31.5-15.9 5.57-51.5 29-63 25.3 0.563 7.54 1.42 15.2 2.58 22.5 0.656 3.63 1.52 7.68 2.81 13.6 13.4-3.12 20.1-6.24 30.6-9.16 16-4.65 13.1-8.72 34-1.37 28.6 9.38 42.1 9.6 43.8 32.8 0.978 13.7 37 59.1 35.6 63.2-31.2 27-49.8 38.6-68.2 48.5-3.82 7.14-11.4 9.55-12.7 34.6-11.2 4.87-16.8 15.2-22.1 20-6.09 5.87 6e-4 4e-4 -11.1 11.7-6.16 0.0265-16.6-6-42.6 3.43-7.44 0.668-20.9 19.5-20.9 19.5-16 5.63-32.5 6.2-40.5 9.19-6.65 15.1-44.2-12.2-61.7-13.3-0.582 0.518-1.13 1.1-1.65 1.72 0.103 0.476 0.219 0.948 0.363 1.41 1.93 6.2 4.23 17.4 14 30.2 28.1 15.7 18.2 7.42 54.4 14.7 4.58-0.432 15.3 12.7 19.7 11.3 10.1-3.23 43.7 1.8 54.1-1.28 8.36-2.47 26.4-16.7 34.9-17 7.97-0.345 27.8-3.12 35.5-4.93 7.41-1.73 30.4-6.48 35.9-14.1 6.51-8.98 35-58 36.5-68.4 0.713-4.75-0.527-9.93-1.27-18.5 68-14.8 100-19.5 157-29.7 15.5-0.494 65.2 4.77 78.7-2.6 33.8-18.3 25.6-9.88 53.9-38.8 12.3-19.8 39.9-44.9 61.9-60.6 4.09-8.85 4.02-49.5 3.94-59.8-1.83-25-18.7-43.8-20.7-56.7 0.99-6.01 4.63-22 11.5-32.1 9.22-13.6 7.54-23.1 10.5-40.9-1.46-8.52-16.6-31.2-22.4-37.8 3.24-17.6 5.36-13.2 6.69-31.6-17.8-22-33-32.4-51.7-52.4-15.8-27-3.37-32.5-14.7-46.5-8.56-10.6-30.1-32.3-75-36.1z" opacity=".304"/>
</svg>
