<?xml version="1.0" encoding="UTF-8"?>
<svg width="210mm" height="210mm" version="1.1" viewBox="0 0 210 210" xmlns="http://www.w3.org/2000/svg" xmlns:cc="http://creativecommons.org/ns#" xmlns:dc="http://purl.org/dc/elements/1.1/" xmlns:rdf="http://www.w3.org/1999/02/22-rdf-syntax-ns#">
 <metadata>
  <rdf:RDF>
   <cc:Work rdf:about="">
    <dc:format>image/svg+xml</dc:format>
    <dc:type rdf:resource="http://purl.org/dc/dcmitype/StillImage"/>
    <dc:title/>
   </cc:Work>
  </rdf:RDF>
 </metadata>
 <g fill-rule="evenodd" stroke="#000">
  <path d="m66.2 58.5c-13.3-0.585-20.6 8.98-20.6 20.5 5.1e-5 8.33 6.58 15.9 13.6 19.7l71.5 38.9c2.36 1.28 12 6.63 15.7 6.76 4.29 0.139 7.65-1.58 8.8-6.52 0.898-3.87 0.233-7.14-2.09-9.98-2.97-3.63-53.5-45.9-66.3-56.5-5.37-4.46-14.3-12.6-20.6-12.9z" fill="#420000" stop-color="#000000" style="font-variation-settings:normal"/>
  <path transform="scale(.265)" d="m250 211c-50.2-2.21-77.9 33.9-77.9 77.5 1.9e-4 31.5 24.9 60 51.5 74.5l270 147c8.91 4.85 45.2 25.1 59.5 25.5 16.2 0.527 28.9-5.99 33.3-24.7 3.4-14.6 0.88-27-7.89-37.7-11.2-13.7-202-173-251-214-20.3-16.8-54.1-47.7-78-48.8z" fill="#800000" stop-color="#000000" stroke-width="3.78" style="font-variation-settings:normal"/>
  <g>
   <path d="m64.1 61.5c-7.09-1.56e-4 -12.8 6.39-12.8 14.3 1.4e-5 4.89 1.41 7.92 5.95 12.1 1.2 1.09 82.6 48.2 86 49.7 1.66 0.718 4.98 1.29 6.87-1.03 1.93-2.38 2.83-4.96-0.813-8.84-2.15-2.29-51.3-42.1-76.5-62.3-2.6-1.93-5.8-3.61-8.69-3.78z" fill="#8b6f00" stop-color="#000000" stroke-width=".7" style="font-variation-settings:normal"/>
   <path transform="scale(.265)" d="m242 226c-26.8-5.9e-4 -48.5 24.2-48.5 54 5e-5 18.5 5.34 29.9 22.5 45.5 4.53 4.13 312 182 325 188 6.29 2.71 18.8 4.89 26-3.88 7.31-8.98 10.7-18.8-3.07-33.4-8.12-8.65-194-159-289-236-9.83-7.3-21.9-13.7-32.9-14.3z" fill="#fc0" stop-color="#000000" stroke-width="2.65" style="font-variation-settings:normal"/>
  </g>
 </g>
</svg>
