<?xml version="1.0" encoding="UTF-8"?>
<svg width="180mm" height="180mm" version="1.1" viewBox="0 0 180 180" xmlns="http://www.w3.org/2000/svg" xmlns:cc="http://creativecommons.org/ns#" xmlns:dc="http://purl.org/dc/elements/1.1/" xmlns:rdf="http://www.w3.org/1999/02/22-rdf-syntax-ns#">
 <metadata>
  <rdf:RDF>
   <cc:Work rdf:about="">
    <dc:format>image/svg+xml</dc:format>
    <dc:type rdf:resource="http://purl.org/dc/dcmitype/StillImage"/>
    <dc:title/>
   </cc:Work>
  </rdf:RDF>
 </metadata>
 <g transform="translate(-19 -15)">
  <path d="m152 160v-13l-10 2.5-0.23 11c0.063 1.3 0.78 2.5 1.7 3.4 1.3 1.2 4 1.4 5.1 1.1 2.4-0.6 3.7-3.1 3.6-5.2zm-75-36v-13l8.4 2.9 1.1 10c-0.063 1.3 0.26 3.3-0.91 3.8-0.47 0.2-2.1 1.4-5.1 1.1-2.9-0.29-3.7-3.1-3.6-5.2z" fill="#fc0" stroke="#000" stroke-dashoffset="2.7" stroke-linecap="square" stroke-width=".85"/>
  <path d="m82 123 0.094 6.9 3.9-1.4 0.94-3.7 61 33 0.19 8.3 2.7-0.94 1.4-3.3v-11z" opacity=".35" stroke-dashoffset="2.7" stroke-linecap="round" stroke-linejoin="round" stroke-width=".1"/>
  <g stroke="#000" stroke-dashoffset="2.7">
   <path d="m141 159c1.5 0.26 4.7 1.4 8.4-1.1 2.4-1.6 2.3-3.9 2.3-6-3e-3 -1.5-0.29-2.4-1-3.6l-59-100c-0.53-1.2-0.82-2.1-2.6-3.7-1.6-1.2-4.4-1.9-6.3-1.6-3.6 0.64-6.6 4.2-6.4 8l0.18 65c0.38 3.5 1.9 5.2 4.3 7.2 9.1 5.9 43 25 60 36z" fill="#b69200"/>
   <path d="m142 155c1.4 0.76 5.2 0.78 8.4-2.2 0.61-0.66 2-3.6 1.7-5.6-0.03-1.4-0.29-2.7-1-3.9l-59-97c-0.53-1.1-0.82-2.1-2.6-3.6-1.6-1.2-4.4-1.9-6.3-1.6-3.6 0.63-6.6 4.2-6.4 7.9l0.18 63c0.38 3.5 1.9 5.1 4.3 7 9.1 5.8 43 26 61 36z" fill="#fc0"/>
   <path d="m83 116c-1.4-0.92-3.2-2-3.2-4.8-0.038-6.3-0.62-61-0.25-63 0.2-1.2 0.76-2.1 1.5-2.9 0.81-0.92 2.6-1.4 4-1.2 1.1 0.11 2.7 1.4 3.7 3 18 32 40 65 59 98 0.97 1.6 0.93 3.4 0.35 4.8-0.41 1-1.6 2.9-3.2 3-2 0.097-3.7-0.86-4.9-1.5-2.4-1.3-55-33-57-34z" fill="#800000" stroke-linecap="round" stroke-linejoin="round" stroke-width=".7"/>
  </g>
  <path d="m107 86-1.4 8.3c0.63 0.25 2.7 1.3 3.3 3.6l3.6 1.5-0.75 8.4 0.76 4.5-7.1 11 0.01-15c1.6-0.63 4.6-2.5 4.6-3.5-0.13-1.3-5.5-1.7-5.5 0.19-0.18 0.59 0.12 6.7-1.1 6.7-1.4 0.074-0.4-6.4-1.5-7.5-1.1-0.55-5-0.72-5.1 0.53 0.45 2 3.2 2.7 4.5 3.5l0.047 15-7.2-11 0.83-4.5-0.78-8.4 3.6-1.5c0.38-1.3 1.5-3 3.2-3.6l-1.3-8.3c2.1-0.52 4.7-0.57 7.1-0.0021z" fill="#fc0" opacity=".71"/>
 </g>
</svg>
