<?xml version="1.0" encoding="UTF-8" standalone="no"?>
<svg
   xmlns:dc="http://purl.org/dc/elements/1.1/"
   xmlns:cc="http://creativecommons.org/ns#"
   xmlns:rdf="http://www.w3.org/1999/02/22-rdf-syntax-ns#"
   xmlns:svg="http://www.w3.org/2000/svg"
   xmlns="http://www.w3.org/2000/svg"
   xmlns:sodipodi="http://sodipodi.sourceforge.net/DTD/sodipodi-0.dtd"
   xmlns:inkscape="http://www.inkscape.org/namespaces/inkscape"
   sodipodi:docname="m_wall.svg"
   inkscape:version="1.0 (4035a4fb49, 2020-05-01)"
   id="svg861"
   version="1.1"
   viewBox="0 0 19 74"
   height="74mm"
   width="19mm">
  <defs
     id="defs855" />
  <sodipodi:namedview
     inkscape:window-maximized="1"
     inkscape:window-y="-8"
     inkscape:window-x="54"
     inkscape:window-height="1417"
     inkscape:window-width="2498"
     showgrid="false"
     inkscape:document-rotation="0"
     inkscape:current-layer="layer1"
     inkscape:document-units="mm"
     inkscape:cy="92.625538"
     inkscape:cx="-205.85832"
     inkscape:zoom="2.8"
     inkscape:pageshadow="2"
     inkscape:pageopacity="0.0"
     borderopacity="1.0"
     bordercolor="#666666"
     pagecolor="#ffffff"
     id="base" />
  <metadata
     id="metadata858">
    <rdf:RDF>
      <cc:Work
         rdf:about="">
        <dc:format>image/svg+xml</dc:format>
        <dc:type
           rdf:resource="http://purl.org/dc/dcmitype/StillImage" />
        <dc:title></dc:title>
      </cc:Work>
    </rdf:RDF>
  </metadata>
  <g
     id="layer1"
     inkscape:groupmode="layer"
     inkscape:label="Calque 1">
    <g
       inkscape:label="mur grotte 1"
       transform="matrix(0.73989745,0,0,0.96666897,-4.6013222,-1.745739)"
       stroke="#1c2422"
       stroke-dashoffset="2.69"
       stroke-linecap="round"
       stroke-linejoin="round"
       stroke-width="0.7"
       id="g1669"
       style="display:inline">
      <path
         sodipodi:nodetypes="cccccccccc"
         d="M 10.293353,75.036004 C 7.4997317,69.338267 11.290579,63.308764 10.821029,57.442877 9.8690718,52.317373 7.9594936,47.030092 9.6202801,41.826042 10.94645,38.051917 9.8922665,34.274984 9.2082911,30.569697 9.2494799,26.453649 11.447459,22.835814 10.150853,18.737542 8.9428255,13.140206 6.4326835,3.1994991 15.84003,3.1397598 c 16.371584,-0.5420605 12.60903,3.537195 13.517975,9.9771122 0.760736,8.159381 -0.838977,16.296703 -0.632982,24.46402 -0.136839,10.206739 -0.25631,20.435205 0.227727,30.628602 0.92281,10.90857 -16.803429,10.200789 -18.659397,6.82651 z"
         style="opacity:1;fill:#666666;stroke:#1a1a1a;stroke-width:0.827701;stroke-linecap:round;stroke-linejoin:round;stroke-dashoffset:2.69405"
         id="path848" />
      <path
         sodipodi:nodetypes="ccccc"
         transform="matrix(0.3575946,0,0,0.27370624,6.2188648,1.8059326)"
         d="M 53.605469,6.9902344 C 60.020007,84.794015 43.638965,183.07695 53.574219,231.17969 47.390986,272.90456 25.342426,267.61767 9.8261719,262.34766 22.062634,289.38089 67.230767,272.42559 63.574219,242.60938 54.568274,194.89561 80.045063,2.7168271 53.605469,6.9902344 Z"
         style="opacity:0.300654;fill:#000000;stroke:none;stroke-width:2.64567;stroke-linecap:round;stroke-linejoin:round;stroke-dashoffset:2.69405"
         id="path876" />
    </g>
  </g>
</svg>
