<?xml version="1.0" encoding="UTF-8"?>
<svg width="34.5mm" height="11.4mm" version="1.1" viewBox="0 0 34.5 11.4" xmlns="http://www.w3.org/2000/svg" xmlns:cc="http://creativecommons.org/ns#" xmlns:dc="http://purl.org/dc/elements/1.1/" xmlns:rdf="http://www.w3.org/1999/02/22-rdf-syntax-ns#">
 <metadata>
  <rdf:RDF>
   <cc:Work rdf:about="">
    <dc:format>image/svg+xml</dc:format>
    <dc:type rdf:resource="http://purl.org/dc/dcmitype/StillImage"/>
    <dc:title/>
   </cc:Work>
  </rdf:RDF>
 </metadata>
 <path d="m1.52 7.97c-0.911-3.54 2.44-7.32 6.08-5.82 8.67 0.817 17-1.05 24.7-0.166 1.72 1.93 2.04 6.72-0.073 8.24-3.75 1.06-8.31-0.0866-12.5 0.0229-3.67-0.269-18.4 1.45-18.2-2.28z" fill="#666" stroke="#1a1a1a" stroke-dashoffset="2.69" stroke-linecap="round" stroke-linejoin="round" stroke-width=".7"/>
 <path d="m30.7 8.66c-7.83 0.155-20.4 2.37-29.2-0.605-0.265 3.23 18.2 2.19 30.7 2.16 2.11-1.53 1.79-6.31 0.073-8.24-0.881 0.933 0.807 4.78-1.58 6.68z" opacity=".294"/>
</svg>
