<?xml version="1.0" encoding="UTF-8"?>
<svg width="19mm" height="74mm" version="1.1" viewBox="0 0 19 74" xmlns="http://www.w3.org/2000/svg" xmlns:cc="http://creativecommons.org/ns#" xmlns:dc="http://purl.org/dc/elements/1.1/" xmlns:rdf="http://www.w3.org/1999/02/22-rdf-syntax-ns#">
 <metadata>
  <rdf:RDF>
   <cc:Work rdf:about="">
    <dc:format>image/svg+xml</dc:format>
    <dc:type rdf:resource="http://purl.org/dc/dcmitype/StillImage"/>
    <dc:title/>
   </cc:Work>
  </rdf:RDF>
 </metadata>
 <g transform="matrix(.74 0 0 .967 -4.6 -1.75)" stroke-dashoffset="2.69" stroke-linecap="round" stroke-linejoin="round" stroke-width=".7">
  <path d="m10.3 75c-2.79-5.7 0.997-11.7 0.528-17.6-0.952-5.13-2.86-10.4-1.2-15.6 1.33-3.77 0.272-7.55-0.412-11.3 0.0412-4.12 2.24-7.73 0.943-11.8-1.21-5.6-3.72-15.5 5.69-15.6 16.4-0.542 12.6 3.54 13.5 9.98 0.761 8.16-0.839 16.3-0.633 24.5-0.137 10.2-0.256 20.4 0.228 30.6 0.923 10.9-16.8 10.2-18.7 6.83z" fill="#666" stroke="#1a1a1a" stroke-dashoffset="2.69" stroke-linecap="round" stroke-linejoin="round" stroke-width=".828"/>
  <path transform="matrix(.358 0 0 .274 6.22 1.81)" d="m53.6 6.99c6.41 77.8-9.97 176-0.0312 224-6.18 41.7-28.2 36.4-43.7 31.2 12.2 27 57.4 10.1 53.7-19.7-9.01-47.7 16.5-240-9.97-236z" opacity=".301"/>
 </g>
</svg>
