<?xml version="1.0" encoding="UTF-8" standalone="no"?>
<svg
   xmlns:dc="http://purl.org/dc/elements/1.1/"
   xmlns:cc="http://creativecommons.org/ns#"
   xmlns:rdf="http://www.w3.org/1999/02/22-rdf-syntax-ns#"
   xmlns:svg="http://www.w3.org/2000/svg"
   xmlns="http://www.w3.org/2000/svg"
   xmlns:sodipodi="http://sodipodi.sourceforge.net/DTD/sodipodi-0.dtd"
   xmlns:inkscape="http://www.inkscape.org/namespaces/inkscape"
   width="19mm"
   height="74mm"
   viewBox="0 0 19 74"
   version="1.1"
   id="svg861"
   inkscape:version="1.0 (4035a4fb49, 2020-05-01)"
   sodipodi:docname="mine_wall.svg">
  <defs
     id="defs855" />
  <sodipodi:namedview
     id="base"
     pagecolor="#ffffff"
     bordercolor="#666666"
     borderopacity="1.0"
     inkscape:pageopacity="0.0"
     inkscape:pageshadow="2"
     inkscape:zoom="2.8"
     inkscape:cx="-58.379155"
     inkscape:cy="198.9383"
     inkscape:document-units="mm"
     inkscape:current-layer="g1669"
     inkscape:document-rotation="0"
     showgrid="false"
     inkscape:window-width="2498"
     inkscape:window-height="1417"
     inkscape:window-x="54"
     inkscape:window-y="-8"
     inkscape:window-maximized="1" />
  <metadata
     id="metadata858">
    <rdf:RDF>
      <cc:Work
         rdf:about="">
        <dc:format>image/svg+xml</dc:format>
        <dc:type
           rdf:resource="http://purl.org/dc/dcmitype/StillImage" />
        <dc:title></dc:title>
      </cc:Work>
    </rdf:RDF>
  </metadata>
  <g
     inkscape:label="Calque 1"
     inkscape:groupmode="layer"
     id="layer1">
    <g
       style="display:inline"
       id="g1669"
       stroke-width="0.7"
       stroke-linejoin="round"
       stroke-linecap="round"
       stroke-dashoffset="2.69"
       stroke="#1c2422"
       transform="matrix(0.73989745,0,0,0.96666897,-4.6013222,-1.745739)"
       inkscape:label="mur grotte 1">
      <path
         id="path1663"
         fill="#374845"
         d="m 22,2.64 c 3.8,5.5 4.44,12.4 7.04,18.4 0.35,3.06 1.99,5.9 1.67,9.04 0.0608,4.32 -0.191,8.62 -0.122,12.9 -0.106,4.23 -0.474,8.45 -0.937,12.7 -2.63,2.59 -0.297,6.25 -0.327,9.32 -0.106,3.36 -1.25,7.97 -1.54,11.3 -5,2 -12.9,0.96 -13.3,-0.678 -6.81,-9.09 -4.19,-8.72 -3.78,-11.7 2.06,-15.2 5.34,-30.2 8.18,-45.2 1.05,-5.36 2.11,-10.7 3.14,-16.1 z" />
      <path
         id="path1665"
         fill="#536c67"
         d="m 12,19.1 c 0.376,7.75 0.506,12.8 -1.59,20.4 -0.422,3.42 -2.09,13.3 -1.71,16.9 0.0172,3.71 0.351,7.43 0.922,11.1 1.4,2.5 4.22,-0.778 6.22,0.808 5.18,0.397 3.59,-13 3.99,-16.2 -0.0085,-7.82 2.83,-14.2 1.91,-21.5 0.363,-6.6 1.32,-12.4 0.384,-19.2 0.225,-2.5 2.07,-7.02 -0.097,-8.79 -2.41,0.131 -5.04,-0.461 -7.42,0.0959 -3.68,2.58 -3.05,12.2 -2.62,16.4 z" />
      <path
         id="path1667"
         fill="none"
         d="m 24.2,29.1 c 0.771,1.29 2.21,3.09 2.29,4.17 0.852,-1.91 2.15,-9.77 0.575,-7.72 m -1.84,44.6 c 0.162,-2.51 0.223,-5.06 0.279,-7.59 0.0046,-0.206 0.166,-2.83 0,-2.78 m -2.97,-5.05 c 0.384,0.0707 2.1,2.45 2.23,1.99 0.544,-3.5 1.87,-10.8 3.4,-13.2 0.243,-0.359 2.69,1.32 0.887,0.942 m -1.21,31.8 c -4.24,-2.1 -7.28,-5.21 -9.76,-8.82 m 4.67,-57.8 c -4.91,2.3 -2.02,3.71 -1.76,6.84 -1.59,6.28 -4.52,6.13 -8.64,8.47 m 1.25,7.1 c 1.63,-0.103 7.3,-2.57 7.64,-3.4 m -10.8,10.8 c 2.49,-1.11 3.87,-0.154 6.59,0.944 2.42,2.22 -6.19,6.36 -6.9,5.31 m 3.72,6.03 c 0.188,5.17 0.196,10.5 0.104,15.6 m -4.2,-14.9 c 2.37,-0.589 7.81,-0.63 9.27,0.241" />
    </g>
  </g>
</svg>
