<?xml version="1.0" encoding="UTF-8" standalone="no"?>
<svg
   xmlns:dc="http://purl.org/dc/elements/1.1/"
   xmlns:cc="http://creativecommons.org/ns#"
   xmlns:rdf="http://www.w3.org/1999/02/22-rdf-syntax-ns#"
   xmlns:svg="http://www.w3.org/2000/svg"
   xmlns="http://www.w3.org/2000/svg"
   xmlns:sodipodi="http://sodipodi.sourceforge.net/DTD/sodipodi-0.dtd"
   xmlns:inkscape="http://www.inkscape.org/namespaces/inkscape"
   width="39.5mm"
   height="26.4mm"
   viewBox="0 0 39.5 26.4"
   version="1.1"
   id="svg1762"
   inkscape:version="1.0 (4035a4fb49, 2020-05-01)"
   sodipodi:docname="mine_wall2.svg">
  <defs
     id="defs1756" />
  <sodipodi:namedview
     id="base"
     pagecolor="#ffffff"
     bordercolor="#666666"
     borderopacity="1.0"
     inkscape:pageopacity="0.0"
     inkscape:pageshadow="2"
     inkscape:zoom="5.6"
     inkscape:cx="-6.5292638"
     inkscape:cy="37.265589"
     inkscape:document-units="mm"
     inkscape:current-layer="layer1"
     inkscape:document-rotation="0"
     showgrid="false"
     inkscape:window-width="2498"
     inkscape:window-height="1417"
     inkscape:window-x="54"
     inkscape:window-y="-8"
     inkscape:window-maximized="1" />
  <metadata
     id="metadata1759">
    <rdf:RDF>
      <cc:Work
         rdf:about="">
        <dc:format>image/svg+xml</dc:format>
        <dc:type
           rdf:resource="http://purl.org/dc/dcmitype/StillImage" />
        <dc:title></dc:title>
      </cc:Work>
    </rdf:RDF>
  </metadata>
  <g
     inkscape:label="Calque 1"
     inkscape:groupmode="layer"
     id="layer1">
    <g
       style="display:inline"
       id="g1727"
       stroke-width="0.7"
       stroke-linejoin="round"
       stroke-linecap="round"
       stroke-dashoffset="2.69"
       stroke="#1c2422"
       transform="matrix(1.231022,0,-0.06668647,1.231022,-3.9602125,-5.8522186)"
       inkscape:label="mur grotte 2">
      <path
         id="path1719"
         fill="#374845"
         d="m 34.3,9.99 c -0.799,3.11 -1.07,6.33 -1.8,9.45 -0.252,1.83 -0.309,3.67 -0.346,5.51 -1.27,0.259 -2.58,0.358 -3.87,0.441 -2.79,-0.0016 -5.6,0.081 -8.38,-0.144 -1.28,-0.204 -2.46,-0.878 -3.79,-0.647 -1.74,0.108 -3.51,0.353 -5.24,-0.0143 -1.22,-0.0513 -2.7,0.408 -3.65,-0.617 -1.07,-2.49 -0.849,-5.33 -2.04,-7.78 -0.538,-1.48 -0.398,-3.07 -0.32,-4.6 -0.0569,-0.991 -0.343,-2.04 0.103,-2.99" />
      <path
         id="path1721"
         fill="#536c67"
         d="m 5.02,6.08 c 1.67,-0.972 3.6,-0.127 5.38,-0.0767 3.04,1.77 4.38,2.33 7.96,2.53 3.1,0.193 5.39,-1.86 8.19,-2.22 1.5,-0.00252 3.11,0.645 4.52,-0.167 1.11,-0.498 2.63,-1.14 3.71,-0.293 0.278,1.1 -1.17,2.03 -0.593,3.17 0.327,1.01 -0.155,2.7 -1.48,2.37 -2.17,-0.429 -4.47,-0.267 -6.58,0.404 -1.85,0.696 -3.91,1.06 -5.85,0.546 -1.83,-0.0655 -3.69,1.05 -5.48,0.26 -2.69,-2.73 -5.35,-0.836 -8.84,-1.69 -2.28,-1.07 -1.08,-3.25 -0.94,-4.83 z" />
      <path
         id="path1723"
         fill="none"
         d="m 31.2,6.4 c -0.158,1.46 0.12,3.52 -0.0629,4.63 m -6.76,-3.71 c 0.344,1.67 0.521,2.93 0.933,4.51 m -4.81,-3.3 c 0.0508,1.21 0.809,2.66 0.514,3.86 m -5.46,-3.65 c 0.0314,1.05 0.488,3.19 0.577,3.94 m -4.31,-5.88 c 0.168,0.898 0.954,3.62 0.64,4.27" />
      <path
         id="path1725"
         fill="none"
         d="m 10.7,17.6 c -0.192,1.4 1.36,1.44 1.87,2.37 0.41,1.21 0.206,2.96 0.334,3.88 m -1.14,-10.4 c -0.232,1.16 0.296,3.42 -0.471,4.04 -1.01,0.715 -3.57,-0.864 -3.67,0.141 m 21.4,1.2 c -0.644,0.924 0.797,1.34 1.44,0.917 0.876,0.508 0.0796,1.77 0.25,2.61 m -4.61,-5.61 c 1.86,-0.186 3.73,0.427 5.43,0.106 0.556,-0.551 0.311,-1.72 0.603,-2.2 -2.68,-0.163 -0.897,-2.54 -1.52,-2.23 m -15.4,7.88 c 0.885,-0.0866 1.83,-0.688 2.69,-0.166 0.902,0.334 1.95,0.852 2.89,0.334 0.841,-0.456 1.84,0.814 2.57,0.0076 m -8.28,-2.6 c 1.67,0.243 3.29,-0.79 4.96,-0.361 0.929,0.151 1.9,0.225 2.81,-0.0778 m -2.52,-2.7 c -1.91,3.2 -0.999,6.25 -1.58,9.13" />
    </g>
  </g>
</svg>
