<?xml version="1.0" encoding="UTF-8" standalone="no"?>
<svg
   xmlns:dc="http://purl.org/dc/elements/1.1/"
   xmlns:cc="http://creativecommons.org/ns#"
   xmlns:rdf="http://www.w3.org/1999/02/22-rdf-syntax-ns#"
   xmlns:svg="http://www.w3.org/2000/svg"
   xmlns="http://www.w3.org/2000/svg"
   xmlns:sodipodi="http://sodipodi.sourceforge.net/DTD/sodipodi-0.dtd"
   xmlns:inkscape="http://www.inkscape.org/namespaces/inkscape"
   width="210mm"
   height="210mm"
   viewBox="0 0 210 210"
   version="1.1"
   id="svg8"
   inkscape:version="1.0 (4035a4fb49, 2020-05-01)"
   sodipodi:docname="peon_sprite_1.svg">
  <defs
     id="defs2">
    <filter
       inkscape:collect="always"
       style="color-interpolation-filters:sRGB"
       id="filter879"
       x="-0.48883206"
       width="1.9776641"
       y="-0.46846405"
       height="1.9369281">
      <feGaussianBlur
         inkscape:collect="always"
         stdDeviation="0.31301542"
         id="feGaussianBlur881" />
    </filter>
    <filter
       inkscape:collect="always"
       style="color-interpolation-filters:sRGB"
       id="filter885"
       x="-0.50905696"
       width="2.0181139"
       y="-0.41116139"
       height="1.8223228">
      <feGaussianBlur
         inkscape:collect="always"
         stdDeviation="0.29762121"
         id="feGaussianBlur887" />
    </filter>
    <filter
       height="1.2058042"
       y="-0.1029021"
       width="1.5954245"
       x="-0.29771226"
       id="filter1030"
       style="color-interpolation-filters:sRGB"
       inkscape:collect="always">
      <feGaussianBlur
         id="feGaussianBlur1032"
         stdDeviation="2.0992467"
         inkscape:collect="always" />
    </filter>
    <filter
       height="1.1976936"
       y="-0.098846783"
       width="1.055177"
       x="-0.027588513"
       id="filter1036"
       style="color-interpolation-filters:sRGB"
       inkscape:collect="always">
      <feGaussianBlur
         id="feGaussianBlur1038"
         stdDeviation="0.22570035"
         inkscape:collect="always" />
    </filter>
    <filter
       height="1.2589232"
       y="-0.12946162"
       width="1.2920931"
       x="-0.14604655"
       id="filter1042"
       style="color-interpolation-filters:sRGB"
       inkscape:collect="always">
      <feGaussianBlur
         id="feGaussianBlur1044"
         stdDeviation="0.67862795"
         inkscape:collect="always" />
    </filter>
    <filter
       height="1.0937941"
       y="-0.046897039"
       width="1.6751268"
       x="-0.33756342"
       id="filter1048"
       style="color-interpolation-filters:sRGB"
       inkscape:collect="always">
      <feGaussianBlur
         id="feGaussianBlur1050"
         stdDeviation="0.43136797"
         inkscape:collect="always" />
    </filter>
    <filter
       height="1.241688"
       y="-0.12084399"
       width="1.9376329"
       x="-0.46881645"
       id="filter1054"
       style="color-interpolation-filters:sRGB"
       inkscape:collect="always">
      <feGaussianBlur
         id="feGaussianBlur1056"
         stdDeviation="1.0187599"
         inkscape:collect="always" />
    </filter>
    <filter
       height="1.3733496"
       y="-0.1866748"
       width="1.3346483"
       x="-0.16732414"
       id="filter1063"
       style="color-interpolation-filters:sRGB"
       inkscape:collect="always">
      <feGaussianBlur
         id="feGaussianBlur1065"
         stdDeviation="0.96801124"
         inkscape:collect="always" />
    </filter>
  </defs>
  <sodipodi:namedview
     guidetolerance="1"
     objecttolerance="1"
     id="base"
     pagecolor="#ffffff"
     bordercolor="#666666"
     borderopacity="1.0"
     inkscape:pageopacity="0.0"
     inkscape:pageshadow="2"
     inkscape:zoom="1.2777778"
     inkscape:cx="353.9257"
     inkscape:cy="371.26635"
     inkscape:document-units="mm"
     inkscape:current-layer="layer2"
     inkscape:document-rotation="0"
     showgrid="false"
     inkscape:window-width="2498"
     inkscape:window-height="1417"
     inkscape:window-x="54"
     inkscape:window-y="-8"
     inkscape:window-maximized="1" />
  <metadata
     id="metadata5">
    <rdf:RDF>
      <cc:Work
         rdf:about="">
        <dc:format>image/svg+xml</dc:format>
        <dc:type
           rdf:resource="http://purl.org/dc/dcmitype/StillImage" />
        <dc:title></dc:title>
      </cc:Work>
    </rdf:RDF>
  </metadata>
  <g
     inkscape:groupmode="layer"
     id="layer2"
     inkscape:label="dessin">
    <g
       id="g1080"
       inkscape:label="bras gauche">
      <path
         inkscape:label="bras"
         id="path1074"
         d="m 76.679808,122.81848 c 2.304677,-1.34006 5.0546,-2.01257 7.422594,-3.2665 0.843785,-0.44681 1.610072,-1.06878 2.387769,-1.61756 0.798761,-0.56364 1.775624,-0.89649 2.619968,-1.3805 0.44251,-0.25367 2.021202,-1.39876 2.159442,-1.34216 0.0697,0.0285 0.301567,0.96237 0.394734,1.19225 0.779741,1.92397 1.841767,4.22035 1.826625,6.34824 -0.03645,5.12223 -7.349802,6.68604 -11.246122,7.29645 -0.983803,0.15413 -2.40879,0.51712 -3.397829,0.30329 -0.198663,-0.0429 -1.270635,-0.12014 -1.404798,-0.28934 -0.159115,-0.20067 -0.0024,-1.58939 0.01548,-1.87554 0.06022,-0.9656 -0.17204,-1.94446 -0.328948,-2.89348 -0.06954,-0.42059 -0.459729,-3.10663 -0.824302,-2.70523"
         style="opacity:1;fill:#fecda8;fill-opacity:1;stroke:#000000;stroke-width:1;stroke-miterlimit:4;stroke-dasharray:none;stroke-dashoffset:2.69405;stroke-opacity:1" />
      <path
         inkscape:label="lanières"
         id="path1072"
         d="m 88.618654,113.92886 c -3.510957,1.68924 -7.016538,3.69556 -9.907114,6.29943 -0.309464,0.27877 -0.04261,2.52266 0.1161,3.04687 0.0034,0.0112 0.555606,-0.0749 0.580493,-0.0732 0.330345,0.0224 1.30593,0.37648 1.636995,0.10807 0.495097,-0.40139 0.871588,-1.09669 1.31966,-1.56527 0.888561,-0.92923 1.921095,-1.75137 2.941174,-2.52395 0.622187,-0.47123 1.388663,-0.98183 1.911763,-1.56178 0.362876,-0.40232 0.646285,-1.06903 0.646285,-0.99704 0,0.82178 -1.376786,2.10614 -1.842104,2.73313 -1.318059,1.776 -2.658221,3.51443 -3.924146,5.32679 -0.210968,0.30204 -1.083027,1.37229 -1.048761,1.55133 0.109638,0.57282 0.390139,1.10299 0.572754,1.6594 0.538621,1.6411 0.825757,0.36963 2.252321,-0.0314 0.663337,-0.18647 1.710524,-0.18709 2.298761,-0.54035 0.04001,-0.024 0.266571,-1.11984 0.325078,-1.27592 0.721688,-1.92532 3.619378,-7.01672 3.192722,-8.93842 -0.01013,-0.0457 -0.03872,0.0863 -0.04644,0.13247 -0.0758,0.45313 -0.147259,0.90896 -0.236069,1.35959 -0.250021,1.26859 -0.485309,2.5406 -0.839782,3.78593 -0.356944,1.254 -1.666518,4.81019 -1.110681,6.02402 0.15503,0.33855 0.557974,0.57404 0.801084,0.83318 0.201983,0.21531 0.430641,0.78059 0.669504,0.93429 0.121611,0.0782 0.298482,-0.16114 0.348295,-0.21266 1.123363,-1.16186 2.235769,-2.25533 3.560371,-3.19677 1.531853,-1.08875 2.495201,-3.71034 2.287148,-5.52202 -0.08479,-0.73838 -0.294397,-1.46458 -0.390866,-2.20323 -0.07637,-0.58476 0.02479,-1.19324 -0.131578,-1.76747 -0.13595,-0.49929 -0.442994,-0.97357 -0.619196,-1.46417 -0.03851,-0.10723 -0.525338,-0.16287 -0.657894,-0.34861 -0.205904,-0.28853 -0.284607,-0.59647 -0.607584,-0.79484 -0.746022,-0.4582 -2.217801,-0.91731 -3.103713,-0.93777 -0.37936,-0.009 -0.587823,0.20886 -0.99458,0.16036 z"
         style="opacity:1;fill:#aa4400;fill-opacity:1;stroke:#000000;stroke-width:1;stroke-miterlimit:4;stroke-dasharray:none;stroke-dashoffset:2.69405;stroke-opacity:1" />
      <path
         inkscape:label="épaule"
         id="path1070"
         d="m 96.745583,107.77586 c -1.35817,-0.0712 -2.237886,1.11499 -3.316563,1.757 -1.491734,0.88785 -2.864324,2.28505 -3.831265,3.7197 -0.103076,0.15293 -1.094126,0.84176 -1.03715,0.9273 0.07559,0.1135 4.218402,1.43431 5.104484,1.86508 1.527223,0.74247 3.318518,3.69648 4.303403,4.07528 0.591767,0.22761 1.519981,-0.0374 2.105258,-0.16733 0.97797,-0.21705 1.7138,-0.78204 2.21749,-1.64197 2.11753,-3.61516 1.12524,-8.57734 -2.952781,-10.26663 -0.813019,-0.33679 -1.758434,-0.72725 -2.592876,-0.26843 z"
         style="opacity:1;fill:#2c61af;fill-opacity:1;stroke:#000000;stroke-width:1;stroke-miterlimit:4;stroke-dasharray:none;stroke-dashoffset:2.69405;stroke-opacity:1" />
      <rect
         style="opacity:1;fill:#aa4400;fill-opacity:1;stroke:#000000;stroke-width:0.392153;stroke-miterlimit:4;stroke-dasharray:none;stroke-dashoffset:2.69405;stroke-opacity:1"
         id="rect1223"
         width="2.2761538"
         height="129.65126"
         x="47.549191"
         y="69.78157"
         inkscape:transform-center-y="7.2099167"
         transform="matrix(0.99489552,-0.10091035,0.11140086,0.99377555,0,0)"
         inkscape:transform-center-x="-0.87024597"
         inkscape:label="manche" />
      <g
         id="g1111"
         inkscape:label="main">
        <path
           inkscape:label="doigt 3"
           id="path1096"
           d="m 61.014186,126.16865 c -0.8299,0.53034 -1.761154,1.43696 -1.567336,2.53441 0.392853,2.22444 6.0585,1.02408 6.756961,-1.27244 0.114945,-0.37794 0.02603,-0.7846 -0.112229,-1.13996 -0.185862,-0.47766 -0.591388,-1.06157 -1.114552,-1.20968 -1.023572,-0.28979 -3.238677,0.26059 -3.962844,1.08767 z"
           style="opacity:1;fill:#ffccaa;fill-opacity:1;stroke:#000000;stroke-width:1;stroke-miterlimit:4;stroke-dasharray:none;stroke-dashoffset:2.69405;stroke-opacity:1" />
        <path
           inkscape:label="doigt 2"
           id="path1094"
           d="m 65.263407,124.10137 c -1.431803,-1.90536 -3.128748,-1.71891 -5.259281,-1.4572 -0.634865,0.078 -1.482577,0.20288 -1.633128,0.9796 -0.120599,0.62221 0.227923,1.19476 0.708205,1.54087 1.629225,1.17411 3.13276,0.82287 4.949685,0.37999 0.411877,-0.10039 0.781968,0.0155 1.160992,-0.24054 0.345673,-0.23354 0.745455,-1.37295 0.07353,-1.20272 z"
           style="opacity:1;fill:#ffccaa;fill-opacity:1;stroke:#000000;stroke-width:1;stroke-miterlimit:4;stroke-dasharray:none;stroke-dashoffset:2.69405;stroke-opacity:1" />
        <path
           inkscape:label="doigt 1"
           id="path1092"
           d="m 64.253347,118.9454 c -1.136615,-0.49785 -5.115189,-1.21681 -5.948137,-0.27889 -0.200454,0.22571 -0.225356,0.70614 -0.270899,0.99703 -0.297035,1.89734 1.415984,3.10856 3.173373,2.99458 1.370898,-0.0889 4.209576,-1.08535 3.726778,-2.94926 -0.06007,-0.23192 -0.471602,-0.69988 -0.681115,-0.76346 -0.27069,-0.0822 -0.449561,0.0592 -0.712073,-0.0453"
           style="opacity:1;fill:#ffccaa;fill-opacity:1;stroke:#000000;stroke-width:1;stroke-miterlimit:4;stroke-dasharray:none;stroke-dashoffset:2.69405;stroke-opacity:1" />
        <path
           id="path1098"
           d="m 70.348543,122.44198 c -0.462471,-0.92523 -0.491257,-2.41408 -0.987814,-3.48761 -0.319659,-0.6911 -1.25181,-1.70282 -2.066861,-1.56162 -1.257361,0.21782 -2.292803,1.84537 -2.689413,2.94895 -0.120939,0.33652 -0.03406,0.77933 -0.105355,1.13713 -0.131172,0.65834 -0.4049,1.61676 0.170485,2.17419 0.806214,0.78106 2.054338,-0.69346 2.472954,-1.30624 0.145256,-0.21263 0.249156,-0.4723 0.32181,-0.71955 0.0325,-0.11061 0.15534,-0.43376 0.12451,-0.32268 -0.0038,0.0135 -0.05315,0.10236 -0.16665,0.23468"
           style="opacity:1;fill:#ffccaa;fill-opacity:1;stroke:#000000;stroke-width:1;stroke-miterlimit:4;stroke-dasharray:none;stroke-dashoffset:2.69405;stroke-opacity:1" />
        <path
           id="path1104"
           d="m 69.998602,121.75492 c 0.148492,0.28255 0.150128,0.61322 0.239443,0.91626 0.164269,0.55738 0.370554,1.08447 0.427164,1.6686 0.07177,0.74055 -0.01646,1.49293 0.05172,2.23804 0.113456,1.24005 0.303659,3.21625 -0.697254,4.20515 -0.14622,0.14446 -0.773838,0.16309 -0.946275,0.16737 -0.659971,0.0164 -2.986225,-1.29954 -3.122324,-1.9861 -0.171185,-0.86356 0.367083,-1.60168 0.162822,-2.47788 -0.229557,-0.98471 -0.912294,-0.86111 -0.494207,-2.04477 0.07193,-0.20363 0.126423,-0.4037 0.126423,-0.62119 0,-0.16681 -0.04995,-0.27535 -0.03831,-0.28817 0.238731,-0.26284 0.918194,-0.61128 1.208702,-0.92144 0.228433,-0.24388 0.658944,-0.98499 0.658944,-1.32176 0,-0.0978 -0.124423,0.15674 -0.153241,0.2502"
           style="opacity:1;fill:#ffccaa;fill-opacity:1;stroke:#000000;stroke-width:1;stroke-miterlimit:4;stroke-dasharray:none;stroke-dashoffset:2.69405;stroke-opacity:1" />
      </g>
      <path
         style="opacity:1;fill:#ffd42a;fill-opacity:1;stroke:#000000;stroke-width:1;stroke-miterlimit:4;stroke-dasharray:none;stroke-dashoffset:2.69405;stroke-opacity:1"
         d="m 70.348543,122.44198 c 1.506453,-1.78394 1.689706,0.42627 1.869194,0.39393 0.651007,-0.11729 1.252371,-0.27822 1.965944,-0.24403 0.192532,0.009 0.374369,0.19654 0.568883,0.16734 0.197207,-0.0296 -0.04647,-0.42177 0.05031,-0.59613 0.13145,-0.23683 0.843986,-0.37432 1.10681,-0.30329 1.478947,0.39967 1.863003,6.87637 1.664086,8.22028 -0.03987,0.2694 -0.328618,0.61727 -0.510836,0.80878 -0.603578,0.63433 -1.259417,-0.33289 -1.470589,-0.84016 -0.02674,-0.0642 -0.10841,0.0923 -0.174146,0.11505 -0.17866,0.0619 -0.364408,0.11023 -0.545666,0.16384 -0.46976,0.13895 -1.225579,-0.0861 -1.722136,-0.11853 -0.436393,-0.0285 -0.820073,0.0121 -1.14164,-0.31375 -0.05864,-0.0594 -0.276582,-0.15666 -0.236066,-0.0837 0.284324,0.51225 -1.169885,1.68443 -1.482199,1.47811 -0.679783,-0.44906 -0.122798,-0.99703 -0.0077,-1.57573 0.375098,-1.88657 0.353502,-3.84068 0.313468,-5.7521 -0.01095,-0.5224 -0.383146,-1.05217 -0.247679,-1.51995 z"
         id="path1084"
         inkscape:label="bracelet" />
      <path
         style="opacity:1;fill:#808080;fill-opacity:1;stroke:#000000;stroke-width:0.4;stroke-miterlimit:4;stroke-dasharray:none;stroke-dashoffset:2.69405;stroke-opacity:1"
         d="m 53.913505,64.312656 c 0.485312,0.357579 4.275473,0.759344 4.275473,-0.118837 0,-0.30978 -0.209142,-1.169059 -0.239858,-1.639417 -0.07468,-1.143712 -0.203988,-2.299589 -0.245853,-3.443586 -0.0662,-1.809001 -0.03009,-4.677269 -0.566244,-6.473938 -0.201126,-0.673981 -0.0557,-0.72946 -0.423173,-1.334221 -0.259491,-0.42705 -0.738871,-0.889571 -0.857494,-1.388237 1.162183,-1.304492 2.715731,-2.498661 3.702815,-3.457088 -0.402131,-2.693351 -0.902505,-4.621609 -1.151321,-5.439513 -0.868985,-2.856513 -1.46743,-5.817132 -2.230681,-8.70214 -1.226468,-5.921781 -1.657319,-9.464573 -4.158546,-15.540696 -0.373953,1.755667 -0.608105,3.666049 -0.797529,5.212642 -0.422196,7.231754 -0.980816,20.146797 -1.233442,24.739792 0.406111,0.442849 3.40587,3.073431 3.512097,3.400371 0.05655,0.174046 0.105466,0.39039 0.07196,0.575281 -0.01871,0.103272 -0.317373,0.278662 -0.383773,0.375418 -0.401971,0.585753 -0.578864,1.316429 -0.626629,2.014833 -0.120163,1.756892 0.276323,3.56348 0.407757,5.309873 0.148458,1.972545 -0.09527,4.18038 0.944444,5.909463 z"
         id="path1228"
         sodipodi:nodetypes="ssssssccsccccsssssss"
         inkscape:label="pointe" />
      <path
         style="opacity:1;fill:#808080;fill-opacity:1;stroke:#000000;stroke-width:0.4;stroke-miterlimit:4;stroke-dasharray:none;stroke-dashoffset:2.69405;stroke-opacity:1"
         d="m 52.018623,16.774983 c 0.438401,5.954736 1.387408,11.991313 2.398585,17.912042 0.435187,2.548152 1.042374,5.024665 1.289238,7.605594 0.242374,2.53401 0.08533,5.728464 0.14991,7.621801"
         id="path1230" />
    </g>
    <g
       id="g1004"
       inkscape:label="tête"
       style="display:inline">
      <path
         inkscape:label="casque oreille"
         style="display:inline;opacity:1;fill:#999999;stroke:#000000;stroke-width:1;stroke-miterlimit:4;stroke-dasharray:none;stroke-dashoffset:2.69405;stroke-opacity:1"
         d="m 119.08883,82.889576 c 0.48629,1.673857 0.70015,3.462851 0.87848,5.197811 0.0536,0.52184 0.87432,5.299765 1.12229,5.560369 0.28181,0.296164 1.02022,-0.199149 1.32353,0.02439 0.48175,0.355065 0.0377,1.879129 1.15712,1.760492 0.92319,-0.09784 1.87182,-0.245893 2.79412,-0.156876 0.48486,0.0468 0.95643,0.0406 1.43962,-0.01744 0.0988,-0.01185 0.29025,0.169224 0.29025,0.06972 0,-0.670804 -0.70214,-1.543095 -0.92879,-2.168369 -0.49958,-1.378204 -0.54148,-2.924943 -0.91718,-4.340225 -0.2881,-1.085287 -0.88918,-6.063247 -1.55186,-6.693358 -0.39627,-0.376801 -5.15828,0.534697 -5.60758,0.763461 z"
         id="path917" />
      <path
         style="opacity:1;fill:#999999;stroke:#000000;stroke-width:1;stroke-miterlimit:4;stroke-dasharray:none;stroke-dashoffset:2.69405;stroke-opacity:1"
         d="m 122.52536,93.748854 c -0.0822,-0.969542 -0.17112,-1.986148 -0.31734,-2.966694 -0.25502,-1.710193 -0.44891,-3.483538 -0.44891,-5.215242 0,-0.825706 -0.10414,-1.656103 -0.18963,-2.464689 -0.0195,-0.184544 0.10354,-1.251476 -0.0735,-0.753001"
         id="path919" />
      <path
         inkscape:label="casque nez"
         id="path939"
         d="m 80.216776,88.59636 c -0.01892,2.391252 0.852205,4.733314 0.98297,7.118668 0.113707,2.07418 0.44247,4.217945 0.758515,6.281992 0.388525,2.53743 0.238043,6.07298 0.804952,8.1157 0.101717,0.36651 0.47942,-0.61205 0.804953,-0.80878 0.897371,-0.54232 1.604698,-1.2329 2.383898,-1.92434 2.308802,-2.04876 5.046927,-4.36551 6.571203,-7.11169 0.165261,-0.297742 -1.214073,-3.093655 -1.385449,-3.58374 -1.484413,-4.245022 -2.791214,-9.498171 -8.452003,-8.450365 -0.991973,0.183612 -1.556581,-0.244978 -2.469039,0.362555 z"
         style="opacity:1;fill:#999999;stroke:#000000;stroke-width:1;stroke-miterlimit:4;stroke-dasharray:none;stroke-dashoffset:2.69405;stroke-opacity:1" />
      <path
         inkscape:label="visage"
         id="path951"
         d="m 85.565069,91.963959 c 1.76395,5.367575 4.947031,12.925661 8.335907,17.256311 0.944845,1.20742 2.308328,2.04492 3.32817,3.18632 0.512572,0.57367 2.939834,3.94523 3.382354,4.06482 4.42457,1.19572 12.18662,-5.8221 14.80648,-8.63164 1.63263,-1.75083 6.1991,-5.99966 6.63313,-8.541009 0.33216,-1.944923 -1.67913,-5.933842 -2.1517,-7.920474 -0.40779,-1.714277 -0.48011,-3.501847 -0.59598,-5.250103 -0.0132,-0.198228 -0.26492,-1.31617 -0.0387,-1.519949 0.15419,-0.138896 0.36773,0.21191 0.57276,0.244028 0.50172,0.0786 1.08195,0.0057 1.57894,-0.05578 3.64249,-0.450363 7.33895,-2.046258 7.82507,-6.337773 0.51192,-4.519208 -5.15079,-3.065034 -7.59287,-2.203231 -0.13536,0.04777 -3.67752,1.498558 -3.19659,1.715172 0.15525,0.06993 0.28186,-0.78051 0.31734,-0.864558 0.44319,-1.04984 1.28599,-1.95001 1.54024,-3.060819 0.2002,-0.874643 0.13937,-1.829919 0.20898,-2.719175 0.47236,-6.034538 -3.76746,-8.719291 -8.78482,-10.79304 -2.59049,-1.070686 -7.71067,0.09737 -10.27863,1.296837 -1.837603,0.858324 -3.473381,2.01522 -3.428791,1.757008"
         style="display:inline;opacity:1;fill:#ffccaa;stroke:#000000;stroke-width:1;stroke-miterlimit:4;stroke-dasharray:none;stroke-dashoffset:2.69405;stroke-opacity:1" />
      <path
         inkscape:label="pif"
         sodipodi:nodetypes="csssscccssssssssc"
         id="path945"
         d="m 98.026359,63.586907 c -0.578982,2.725444 -2.176912,5.120214 -4.249222,6.930414 -0.50298,0.439361 -1.825897,0.93994 -2.136222,1.499034 -2.495743,4.496403 6.631848,3.265307 6.099067,4.225181 -0.219104,0.394745 -3.193399,0.456806 -3.637769,0.536863 -1.91088,0.344271 -3.968557,0.252289 -5.78947,0.662364 -3.359619,0.707846 -7.263862,1.174571 -10.402467,1.485085 -2.210629,-0.104709 -6.360945,0.323596 -8.165629,1.234088 -0.777385,0.466855 -1.262504,1.599782 -1.300308,2.468176 -0.23155,5.318877 5.821219,6.939755 10.417948,8.492197 4.533913,1.531227 3.561198,0.676384 4.721359,0.780894 2.393884,0.215643 4.005591,0.182943 6.478323,-0.348613 2.183466,-0.469374 4.360627,-2.40094 6.068105,-3.751069 1.443572,-1.141455 2.926649,-2.574425 4.094426,-4.002072 0.61184,-0.747996 1.03564,-1.618898 1.39319,-2.510009 0.63622,-1.58564 -0.36077,-0.9603 -1.51703,-0.990061 -2.005173,-0.05161 -3.375051,-0.802862 -3.970586,0.515948"
         style="display:inline;opacity:1;fill:#ffccaa;stroke:#000000;stroke-width:1;stroke-miterlimit:4;stroke-dasharray:none;stroke-dashoffset:2.69405;stroke-opacity:1" />
      <path
         inkscape:label="ombre"
         id="path948"
         d="m 112.0953,110.62139 c -0.94122,-1.69996 -3.25719,-3.54114 -3.10802,-5.69117 0.10211,-1.47167 1.59806,-2.94295 2.25999,-4.21682 0.50313,-0.968244 0.80695,-2.027654 1.2466,-3.025104 0.76243,-1.72974 1.70878,-3.485499 2.27695,-5.29394 0.56721,-1.805352 0.95531,-3.712432 1.56038,-5.500192 0.4679,-1.382509 1.03712,-2.758459 1.38652,-4.174803 0.22598,-0.916045 0.29882,-1.88224 0.51306,-2.815029 0.0909,-0.395668 0.43706,-0.70281 0.54274,-1.115316 0.16415,-0.640803 -0.21115,-1.067168 0.34769,-1.638602 0.45617,-0.466455 3.64721,-1.170289 4.35886,-1.344491 0.7324,-0.179284 3.47238,-0.815612 4.22317,-0.477448 2.78536,1.254545 1.05033,5.980573 -0.76322,7.325955 -1.80992,1.342686 -3.52283,1.938774 -5.77507,2.074032 -0.15391,0.0092 -1.63332,0.310983 -1.68757,0.469807 -0.10671,0.312394 0.36916,0.872853 0.34345,1.256641 -0.0333,0.496647 -0.32411,0.9856 -0.28833,1.481998 0.0312,0.433485 0.36398,0.903239 0.43249,1.352132 0.22664,1.484757 0.48489,2.964156 0.77171,4.44981 0.0952,0.492839 0.44454,0.897813 0.57242,1.375047 0.76882,2.869195 0.99664,5.142603 -0.89467,7.570403 -0.37211,0.47767 -0.97803,0.82949 -1.42045,1.24901 -0.74743,0.70873 -1.22396,1.68748 -1.86566,2.48654 -1.15484,1.43806 -2.40892,2.7513 -3.45995,4.25502 -0.44645,0.63873 -1.45932,0.94211 -1.57309,-0.0535 z"
         style="opacity:0.291667;fill:#000000;stroke:none;stroke-width:0.4;stroke-dashoffset:2.69405" />
      <g
         style="display:inline"
         inkscape:label="yeux"
         id="g895">
        <path
           style="opacity:1;fill:#ffffff;stroke:#000000;stroke-width:1;stroke-miterlimit:4;stroke-dasharray:none;stroke-dashoffset:2.69405;stroke-opacity:1"
           d="m 96.293283,62.476178 c -12.292912,6.885796 3.012219,20.701004 4.093767,4.84138 0.21851,-3.20415 -1.600755,-3.945011 -4.093767,-4.84138 z"
           id="path865"
           sodipodi:nodetypes="csc"
           inkscape:label="oeil droit" />
        <path
           style="opacity:1;fill:#ffffff;stroke:#000000;stroke-width:1;stroke-miterlimit:4;stroke-dasharray:none;stroke-dashoffset:2.69405;stroke-opacity:1"
           d="m 106.05704,66.716084 c 3.047,-0.719416 4.29304,0.356932 4.6958,3.510248 1.76071,13.785059 -15.425703,7.684499 -4.6958,-3.510248 z"
           id="path869"
           sodipodi:nodetypes="csc"
           inkscape:label="oeil gauche" />
        <ellipse
           style="font-variation-settings:normal;opacity:1;vector-effect:none;fill:#000000;fill-opacity:1;fill-rule:evenodd;stroke-width:0;stroke-linecap:butt;stroke-linejoin:miter;stroke-miterlimit:4;stroke-dasharray:none;stroke-dashoffset:0;stroke-opacity:1;stop-color:#000000;stop-opacity:1"
           id="path873"
           cx="97.085655"
           cy="69.022354"
           rx="1.403165"
           ry="2.0713389" />
        <ellipse
           style="font-variation-settings:normal;opacity:1;vector-effect:none;fill:#000000;fill-opacity:1;fill-rule:evenodd;stroke-width:0;stroke-linecap:butt;stroke-linejoin:miter;stroke-miterlimit:4;stroke-dasharray:none;stroke-dashoffset:0;stroke-opacity:1;stop-color:#000000;stop-opacity:1"
           id="path875"
           cx="105.70509"
           cy="72.663902"
           rx="1.3363476"
           ry="1.5702084" />
        <ellipse
           style="font-variation-settings:normal;opacity:0.689542;vector-effect:none;fill:#ffffff;fill-opacity:1;fill-rule:evenodd;stroke-width:0;stroke-linecap:butt;stroke-linejoin:miter;stroke-miterlimit:4;stroke-dasharray:none;stroke-dashoffset:0;stroke-opacity:1;filter:url(#filter879);stop-color:#000000;stop-opacity:1"
           id="path877"
           cx="106.07259"
           cy="72.697311"
           rx="0.76839989"
           ry="0.8018086" />
        <ellipse
           style="font-variation-settings:normal;opacity:0.686275;vector-effect:none;fill:#ffffff;fill-opacity:1;fill-rule:evenodd;stroke-width:0;stroke-linecap:butt;stroke-linejoin:miter;stroke-miterlimit:4;stroke-dasharray:none;stroke-dashoffset:0;stroke-opacity:1;filter:url(#filter885);stop-color:#000000;stop-opacity:1"
           id="path883"
           cx="97.653603"
           cy="68.487816"
           rx="0.70158249"
           ry="0.86862594" />
      </g>
      <path
         inkscape:label="barbe"
         id="path961"
         d="m 85.565069,91.963959 c 2.223815,0.298362 4.47258,-0.69414 6.625381,-1.275924 2.665489,-0.720334 5.155721,-4.288431 6.702782,-4.106654 4.253638,0.499793 8.882418,3.123721 11.725998,6.365663 1.40928,1.606714 2.37119,3.567473 3.73065,5.180381 0.93968,1.11488 4.15011,4.645205 3.94736,6.288965 -0.19478,1.57913 -4.14388,4.66897 -5.59597,5.76605 -1.43875,1.08701 -10.01262,7.746 -12.00464,6.36566 -1.10461,-0.76542 -1.654038,-2.02248 -2.484512,-3.0399 -1.945831,-2.38385 -4.28779,-4.87274 -5.866868,-7.50213 -1.583301,-2.63642 -2.755522,-5.56366 -4.102164,-8.310924 -0.845886,-1.725674 -1.343991,-4.352177 -2.678017,-5.731187 z"
         style="display:inline;opacity:0.432692;fill:#241c1c;fill-opacity:1;stroke:none;stroke-width:1;stroke-miterlimit:4;stroke-dasharray:none;stroke-dashoffset:2.69405;stroke-opacity:1" />
      <path
         inkscape:label="dents"
         id="path967"
         d="m 92.898295,95.559366 c 0.163287,0.85181 0.187603,1.717 0.243546,2.580917 0.04594,0.709398 0.08209,2.793907 0.558242,3.179937 0.09439,0.0765 2.017368,-0.0366 2.347899,-0.007 0.830839,0.0734 1.699419,0.30022 2.471042,0.37469 0.523994,0.0506 1.088578,0.0158 1.603576,0.106 0.64318,0.11266 1.24524,0.44867 1.87996,0.59161 0.71076,0.16007 1.56744,0.28219 2.18918,0.68776 0.32287,0.2106 0.5529,0.54254 0.73612,0.87263 0.0978,0.17621 0.16377,-0.36831 0.24628,-0.55218 0.18814,-0.41923 0.2868,-0.86432 0.35848,-1.31634 0.0878,-0.55339 0.14897,-2.490054 -0.0903,-2.982724 -0.55518,-1.143138 -5.623169,-2.456559 -6.961598,-2.824959 -0.698902,-0.192374 -1.449946,-0.220195 -2.167292,-0.32539 -0.582827,-0.08547 -1.069991,-0.407686 -1.650098,-0.488082 -0.643117,-0.08913 -1.292839,0.164298 -1.765027,0.103534 z"
         style="opacity:1;fill:#f2f2f2;fill-opacity:1;stroke:none;stroke-width:1;stroke-miterlimit:4;stroke-dasharray:none;stroke-dashoffset:2.69405;stroke-opacity:1" />
      <path
         inkscape:label="dent1"
         id="path973"
         d="m 100.52311,96.968147 c -0.28439,1.535679 -0.32102,3.139203 -0.2846,4.703343 0.0144,0.61909 0.49494,1.03627 0.0821,0.74938"
         style="opacity:1;fill:#f2f2f2;fill-opacity:1;stroke:#000000;stroke-width:1;stroke-miterlimit:4;stroke-dasharray:none;stroke-dashoffset:2.69405;stroke-opacity:1" />
      <path
         inkscape:label="dent2"
         id="path971"
         d="m 96.670147,95.977193 c 0.08053,0.420513 0.0335,0.846071 0.02736,1.271971 -0.0083,0.574958 0.42418,4.428386 0.197028,4.195536"
         style="opacity:1;fill:#f2f2f2;fill-opacity:1;stroke:#000000;stroke-width:1;stroke-miterlimit:4;stroke-dasharray:none;stroke-dashoffset:2.69405;stroke-opacity:1" />
      <path
         inkscape:label="dent3"
         id="path969"
         d="m 92.898303,95.559768 c 0.195207,1.285504 0.30603,2.598142 0.4005,3.903022 0.05389,0.74435 0.260635,1.65225 0.301013,1.54313 0.0273,-0.0738 -0.08402,-0.10697 -0.24081,-0.19721"
         style="opacity:1;fill:#f2f2f2;fill-opacity:1;stroke:#000000;stroke-width:1;stroke-miterlimit:4;stroke-dasharray:none;stroke-dashoffset:2.69405;stroke-opacity:1" />
      <path
         inkscape:label="bouche"
         id="path963"
         d="m 90.619243,95.938138 c 1.293847,-0.04401 2.546448,-0.569979 3.862226,-0.481084 1.434722,0.09693 9.974351,2.025036 10.820431,3.625569 0.40978,0.775192 0.23248,2.058207 0.20123,2.921377 -0.024,0.66339 0.11112,2.0636 -0.42569,2.60762 -0.38029,0.38539 -0.56704,-0.9633 -1.01393,-1.26895 -0.93653,-0.64054 -3.81728,-1.27802 -4.860681,-1.47115 -0.663123,-0.12274 -6.774402,-0.80171 -6.9582,-0.13944 -0.078,0.28104 0.176127,0.81407 0.224459,1.09464 0.108079,0.62743 0.02981,1.38223 0.456655,1.85462"
         style="opacity:1;fill:none;fill-opacity:1;stroke:#000000;stroke-width:1;stroke-miterlimit:4;stroke-dasharray:none;stroke-dashoffset:2.69405;stroke-opacity:1" />
      <g
         sodipodi:insensitive="true"
         id="g1054"
         inkscape:label="crête">
        <path
           inkscape:label="crête"
           sodipodi:nodetypes="ccccccccccccccsccscsssssscssssc"
           id="path1015"
           d="m 105.98192,44.888935 c 0.0859,-2.840983 0.30617,-8.620438 0.0378,-11.284448 -0.48378,-4.121343 -0.44732,-5.378846 -0.72915,-9.111431 -0.0447,-0.550539 -0.14215,-1.328731 -0.58332,-3.858687 1.27631,-0.205371 2.32441,-0.32881 3.22755,-0.411362 0.12237,0.856564 0.54111,3.485159 1.25959,6.567447 0.36534,-2.522918 0.3956,-6.19636 0.3956,-6.19636 1.41128,-0.01602 2.89594,0.221553 2.89594,0.221553 l 0.33975,3.797822 1.50235,-3.253987 c 1.81596,0.01648 3.30131,0.171368 4.4195,0.77392 -0.78756,1.801266 -0.50706,0.692066 -1.3777,3.918403 2.41169,-2.204316 3.0085,-3.289158 3.0085,-3.289158 0,0 2.36586,0.161012 2.89327,1.31905 -1.23808,1.069867 -2.5929,3.563 -2.45886,3.482506 1.03708,-0.622792 2.43933,-2.054328 3.64638,-2.462076 2.51856,0.980368 6.12813,2.872732 6.9432,4.373053 0.6601,1.297374 1.68069,2.579633 2.29641,3.880928 0.69597,1.470903 2.50925,4.045226 2.62619,5.678023 0.0802,1.119098 -2.48544,2.913092 -1.95046,3.988128 0.24763,0.49761 2.69077,-0.967152 3.28947,-0.404392 0.33846,0.318149 0.17751,1.448589 0.22446,1.854618 0.31728,2.743817 1.57857,7.161496 1.42414,9.503175 -0.18529,2.809687 -0.88702,7.013853 -1.5325,9.872704 -0.26059,1.154139 -1.16965,1.345645 -2.35294,1.345645 -0.14027,0 -0.52218,-0.142687 -0.41796,-0.04881 3.08076,2.775193 2.96167,1.246891 1.63313,5.828797 -0.19532,0.673619 -0.3722,2.517595 -0.90557,2.998068 -0.17076,0.153815 -0.32503,-0.325215 -0.47988,-0.49503 -0.49691,-0.544931 -1.2772,-1.022864 -1.90402,-1.415365 -1.56437,-0.97957 -4.00887,-2.093915 -5.16254,-2.705232 l -11.99482,-7.550359 z"
           style="opacity:1;fill:#0044aa;fill-opacity:1;stroke:#000000;stroke-width:1;stroke-miterlimit:4;stroke-dasharray:none;stroke-dashoffset:2.69405;stroke-opacity:1" />
        <path
           id="path1017"
           d="m 115.0579,44.839691 c 1.50993,-2.183032 3.32327,-4.198437 5.09674,-6.187869 0.55254,-0.619818 0.9359,-1.647031 1.57895,-2.168371 1.86878,-1.515081 3.73982,-3.741476 5.29024,-5.598716 0.67748,-0.811543 1.44006,-1.638845 2.24071,-2.32873 0.11219,-0.09666 0.51084,-0.330176 0.51084,-0.34164 0,-0.06136 -0.11657,-0.100352 -0.14319,-0.122013"
           style="opacity:1;fill:#0044aa;fill-opacity:1;stroke:#000000;stroke-width:1;stroke-miterlimit:4;stroke-dasharray:none;stroke-dashoffset:2.69405;stroke-opacity:1" />
        <path
           id="path1019"
           d="m 107.95651,44.083202 c 0.50704,-2.66301 0.43618,-5.373124 0.37539,-8.056432 -0.007,-0.296932 0.15648,-0.700408 0.13545,-0.791351"
           style="opacity:1;fill:#0044aa;fill-opacity:1;stroke:#000000;stroke-width:1;stroke-miterlimit:4;stroke-dasharray:none;stroke-dashoffset:2.69405;stroke-opacity:1" />
        <path
           id="path1021"
           d="m 109.69799,43.870549 c 0.38617,-0.590849 0.37911,-1.345274 0.49923,-2.025439 0.39778,-2.25236 0.33228,-4.542993 0.68112,-6.79097 0.0563,-0.362987 0.50343,-1.679093 0.031,-1.628018"
           style="opacity:1;fill:#0044aa;fill-opacity:1;stroke:#000000;stroke-width:1;stroke-miterlimit:4;stroke-dasharray:none;stroke-dashoffset:2.69405;stroke-opacity:1" />
        <path
           id="path1023"
           d="m 111.424,44.111092 c 0.54399,-0.89798 0.80704,-1.965264 1.0565,-2.980637 0.52041,-2.118265 1.15038,-4.21323 1.59443,-6.351717 0.20619,-0.993018 0.49226,-1.940886 0.67337,-2.935317 0.10798,-0.592897 0.31541,-1.252807 0.30573,-1.251519 -0.66998,0.08904 -0.0666,0.02812 -0.24768,0.104585"
           style="opacity:1;fill:#0044aa;fill-opacity:1;stroke:#000000;stroke-width:1;stroke-miterlimit:4;stroke-dasharray:none;stroke-dashoffset:2.69405;stroke-opacity:1" />
        <path
           id="path1025"
           d="m 113.24288,44.407412 c 1.83474,-2.72928 3.63549,-5.625547 5.17802,-8.561922 0.23156,-0.440801 0.96722,-1.332219 0.71207,-1.830213"
           style="opacity:1;fill:#0044aa;fill-opacity:1;stroke:#000000;stroke-width:1;stroke-miterlimit:4;stroke-dasharray:none;stroke-dashoffset:2.69405;stroke-opacity:1" />
        <path
           id="path1027"
           d="m 118.64923,47.157965 c 1.66655,-0.410353 2.63191,-2.637208 3.83126,-3.771987 0.98872,-0.935488 2.94575,-1.774685 3.35526,-3.120081"
           style="opacity:1;fill:#0044aa;fill-opacity:1;stroke:#000000;stroke-width:1;stroke-miterlimit:4;stroke-dasharray:none;stroke-dashoffset:2.69405;stroke-opacity:1" />
        <path
           id="path1029"
           d="m 120.62678,49.476236 c 0.19608,-0.145254 0.39981,-0.280707 0.58823,-0.435763 1.15755,-0.952572 2.3369,-1.904961 3.45975,-2.900455 0.0961,-0.08519 1.17258,-0.881992 0.69273,-0.881992"
           style="opacity:1;fill:#0044aa;fill-opacity:1;stroke:#000000;stroke-width:1;stroke-miterlimit:4;stroke-dasharray:none;stroke-dashoffset:2.69405;stroke-opacity:1" />
        <path
           id="path1031"
           d="m 123.82337,52.760165 c 2.03693,-1.611294 4.08744,-3.261392 6.05263,-4.971211 0.48471,-0.42173 0.79764,-0.719849 0.68498,-1.004004"
           style="opacity:1;fill:#0044aa;fill-opacity:1;stroke:#000000;stroke-width:1;stroke-miterlimit:4;stroke-dasharray:none;stroke-dashoffset:2.69405;stroke-opacity:1" />
        <path
           id="path1033"
           d="m 125.91315,55.883733 c 2.45382,-2.166814 6.7957,-2.811032 8.92027,-4.978186"
           style="opacity:1;fill:#0044aa;fill-opacity:1;stroke:#000000;stroke-width:1;stroke-miterlimit:4;stroke-dasharray:none;stroke-dashoffset:2.69405;stroke-opacity:1" />
        <path
           id="path1035"
           d="m 126.71036,59.028218 c 0.32508,-0.02789 0.65053,-0.05171 0.97524,-0.08367 0.97815,-0.09626 1.95252,-0.231474 2.92956,-0.338156 0.003,-2.65e-4 1.13315,-0.25095 0.81656,0.02439"
           style="opacity:1;fill:#0044aa;fill-opacity:1;stroke:#000000;stroke-width:1;stroke-miterlimit:4;stroke-dasharray:none;stroke-dashoffset:2.69405;stroke-opacity:1" />
        <path
           id="path1037"
           d="m 127.77461,61.580061 c 1.96927,-0.180086 4.67033,1.222769 6.51702,1.077211"
           style="opacity:1;fill:#0044aa;fill-opacity:1;stroke:#000000;stroke-width:1;stroke-miterlimit:4;stroke-dasharray:none;stroke-dashoffset:2.69405;stroke-opacity:1" />
        <path
           id="path1039"
           d="m 128.09581,64.822156 c 1.65653,0.268267 3.01434,1.245828 4.48529,1.973147 0.22928,0.113366 0.92341,0.429929 0.71208,0.285861"
           style="opacity:1;fill:#0044aa;fill-opacity:1;stroke:#000000;stroke-width:1;stroke-miterlimit:4;stroke-dasharray:none;stroke-dashoffset:2.69405;stroke-opacity:1" />
      </g>
      <g
         style="display:inline;fill:#999999"
         inkscape:label="casque"
         id="g937">
        <path
           style="opacity:1;fill:#999999;stroke:#000000;stroke-width:1;stroke-miterlimit:4;stroke-dasharray:none;stroke-dashoffset:2.69405;stroke-opacity:1"
           d="m 118.57904,76.912906 c -0.0887,-1.029899 -0.1136,-1.901214 1.01288,-2.104165 0.32548,-0.05864 0.59079,-0.09737 0.8514,0.146417 0.28748,0.268931 0.72676,1.778426 0.29799,1.554811"
           id="path913" />
        <path
           style="opacity:1;fill:#999999;stroke:#000000;stroke-width:1;stroke-miterlimit:4;stroke-dasharray:none;stroke-dashoffset:2.69405;stroke-opacity:1"
           d="m 105.51021,55.855263 c -1.15292,3.918154 -2.11773,7.890045 -3.17059,11.867349 -0.32808,1.239366 -0.61495,3.094995 -1.12616,4.016015"
           id="path911" />
        <path
           style="opacity:1;fill:#999999;stroke:#000000;stroke-width:1;stroke-miterlimit:4;stroke-dasharray:none;stroke-dashoffset:2.69405;stroke-opacity:1"
           d="m 93.828398,57.196013 c 0.205613,2.74916 0.300255,2.466214 0.878909,4.63765 1.819883,1.255994 4.933373,1.392768 4.933373,5.114137 0,2.368518 -0.948827,5.610118 -2.221029,6.885409 0.548187,2.330473 1.088165,3.1624 1.648732,3.294678 0.992557,0.234215 2.485427,-0.818846 4.368987,-2.156298 -0.33047,-1.650629 -0.46549,-3.956705 0.41731,-5.289216 1.39461,-2.105051 5.16609,-2.445692 8.17678,-0.555459 1.643,0.707377 4.45065,7.240907 0.4642,11.05671 -1.97844,1.893746 -4.56515,3.561526 -7.91067,4.089405 -0.27054,6.784555 -0.19942,16.881231 0.13397,24.204241 7.18911,-4.11765 12.16209,-19.535905 13.86008,-31.564363 1.56637,0 7.47278,-1.044776 8.16353,-2.350005 2.02708,-3.830371 0.76825,-13.541877 -2.50984,-20.148905 -2.4986,-5.035943 -7.04876,-8.773326 -9.43195,-9.365809 -4.24159,-1.054498 -6.20085,-0.684898 -9.44052,-0.77485 -0.0313,1.591056 -0.18343,5.275019 -0.19761,8.024218 -2.93812,0.549173 -4.55036,0.644841 -5.369204,0.923498 -3.217716,1.095015 -3.952514,3.211218 -5.965048,3.974959 z"
           id="path897"
           sodipodi:nodetypes="ccscscscscccsssccsc" />
        <path
           style="opacity:1;fill:#999999;stroke:#000000;stroke-width:1;stroke-miterlimit:4;stroke-dasharray:none;stroke-dashoffset:2.69405;stroke-opacity:1"
           d="m 105.36026,44.273337 c 0.1296,0.368901 0.2453,0.742982 0.3888,1.106705 0.016,0.04059 0.46948,-0.0978 0.5147,-0.104585 1.53501,-0.176211 4.73517,0.449289 6.05408,0.631566 1.25119,0.161012 2.59465,1.015838 3.78096,1.550162 2.10573,0.948436 6.46269,6.661959 7.39326,8.804208 0.69406,1.597782 0.74805,2.344917 1.28562,3.959076 0.0967,0.290325 0.55176,0.554942 0.75851,0.777404 0.45492,0.489474 1.07367,1.645386 1.1726,2.049841"
           id="path899"
           sodipodi:nodetypes="csccssssc" />
        <path
           style="opacity:1;fill:#999999;stroke:#000000;stroke-width:1;stroke-miterlimit:4;stroke-dasharray:none;stroke-dashoffset:2.69405;stroke-opacity:1"
           d="m 105.16265,52.297554 c 2.99415,1.719175 3.62298,1.686187 5.51287,2.118522 2.34109,-0.437124 4.0065,0.254714 5.16012,0.448549 2.94049,0.855945 6.40571,3.103475 8.30737,4.916595 0.36213,0.355877 1.10032,0.936302 0.61532,1.101616"
           id="path901"
           sodipodi:nodetypes="ccccc" />
        <path
           style="opacity:1;fill:#999999;stroke:#000000;stroke-width:1;stroke-miterlimit:4;stroke-dasharray:none;stroke-dashoffset:2.69405;stroke-opacity:1"
           d="m 110.67552,54.416076 c -0.15006,-2.198164 1.59089,-4.02254 2.63932,-5.776508 0.23051,-0.385636 0.83127,-1.612731 0.89009,-1.694257"
           id="path903" />
        <path
           style="opacity:1;fill:#999999;stroke:#000000;stroke-width:1;stroke-miterlimit:4;stroke-dasharray:none;stroke-dashoffset:2.69405;stroke-opacity:1"
           d="m 93.828398,57.196013 c 3.208449,-0.207163 9.443052,-1.253237 11.681812,-1.340749 2.62811,2.027528 5.25719,3.856847 7.28606,5.550489 1.95999,1.621661 4.01157,3.061558 5.78947,4.898007 2.81582,1.904907 5.16612,4.535942 7.75154,6.201814 0.18797,0.108855 1.11225,0.817655 0.71981,0.54732"
           id="path905"
           sodipodi:nodetypes="cccccc" />
        <path
           id="path953"
           d="m 105.51021,55.855263 c -0.47771,1.448827 -0.99349,2.897349 -1.30739,4.391936 -0.71225,3.39136 -1.72633,6.598229 -2.89473,9.872704 -0.0323,0.0906 -0.40399,2.377535 -0.51858,2.377535 -0.28973,0 0.2364,-0.537969 0.42395,-0.758811"
           style="opacity:1;fill:#999999;stroke:#000000;stroke-width:1;stroke-miterlimit:4;stroke-dasharray:none;stroke-dashoffset:2.69405;stroke-opacity:1" />
        <path
           inkscape:label="ombre"
           transform="scale(0.26458333)"
           d="m 492.54688,110.88867 c -4.53658,0.10483 -11.3035,8.67327 -13.60743,11.02539 -7.03287,7.18005 -15.16243,13.48735 -21.66601,21.16406 -4.07199,4.80647 -5.65099,10.04777 -9.23047,14.92579 -10.64013,14.50003 -23.03782,28.15532 -28.07813,45.64843 1.9149,5.58561 11.4539,1.76208 16.95508,4.09961 4.18934,1.7801 6.68224,6.61869 10.86524,8.51758 1.67238,0.75919 6.01476,13.95887 7.91211,15.50586 -1.04951,-0.14058 -2.10102,-0.16133 -3.14649,0.0508 -3.48699,0.70746 -6.29891,2.32092 -8.81445,4.79297 -1.94774,1.91405 -3.20833,4.09218 -4.42383,6.52539 -0.20874,0.41785 -0.22273,2.72905 -0.70508,2.68555 -1.89108,-0.17035 -7.95584,7.53112 -9.71094,9.70117 -1.58415,1.95866 -3.30933,3.78349 -4.29492,6.14844 15.6915,13.90716 12.54835,36.65275 -4.80664,47.72656 -3.18931,2.03504 -22.9458,9.86464 -23.39844,11.08789 -6.10938,16.51027 -1.13134,36.96052 -1.3789,54.13477 -0.0417,2.88817 1.29424,36.03753 2.6289,36.63867 0.9622,0.43336 5.30166,-4.39524 6.1211,-5.02344 9.92598,-7.60978 17.57987,-23.78333 21.69336,-35.82617 4.39147,-12.85665 10.98318,-20.05165 13.91601,-33.4375 3.03814,-13.86641 4.09922,-29.77837 9.55274,-42.76172 2.70954,-6.4507 16.81756,-4.36152 21.66601,-7.91016 1.82276,-1.33412 2.96101,-3.34976 4.93555,-4.5625 1.55316,-0.95395 3.46112,-0.52632 4.00586,-2.68554 1.10674,-4.3867 3.09364,-19.39023 2.7168,-27.52344 1.46325,3.83959 3.10069,7.97402 5.01953,12.57422 0.0678,0.0713 10.80682,4.54314 13.49414,6.72656 1.91645,1.55712 8.40544,8.80664 10.35156,8.80664 1.77823,0 7.22112,-21.64911 6.50781,-23.79101 -0.60419,-1.81429 -8.36529,-7.23724 -5.89843,-9.18164 2.34122,-1.84539 6.03055,-3.1605 7.5,-5.89063 1.78673,-3.31961 5.47648,-47.59019 5.41601,-51.16211 -0.14128,-8.33551 -1.62863,-17.90107 -5.19141,-25.52344 -1.86497,-3.9899 -11.23092,-1.48233 -11.31445,-1.58789 -3.2479,-4.09605 5.61783,-14.47274 6.79492,-18.47851 1.7726,-6.03236 -16.4933,-30.82851 -21.05859,-32.88477 -0.41416,-0.18654 -0.85882,-0.2667 -1.32812,-0.25586 z"
           style="opacity:0.291667;fill:#000000;stroke:none;stroke-width:1.51181;stroke-dashoffset:2.69405"
           id="path940" />
      </g>
      <path
         id="path957"
         d="m 103.43737,74.971589 c -0.68654,0.583676 -1.39128,1.146596 -2.05962,1.751034 -0.0927,0.08384 0.23844,0.573778 0.30186,0.655391 0.88329,1.136687 1.75731,1.739659 3.02631,2.440286 0.2395,0.132231 2.4513,0.823958 1.60217,0.320723"
         style="display:inline;opacity:1;fill:none;stroke:#000000;stroke-width:1;stroke-miterlimit:4;stroke-dasharray:none;stroke-dashoffset:2.69405;stroke-opacity:1" />
      <path
         id="path959"
         d="m 92.608891,75.370006 c -0.586261,0.709983 -0.505531,0.982052 -0.668173,1.469983"
         style="display:inline;opacity:1;fill:none;stroke:#000000;stroke-width:1;stroke-miterlimit:4;stroke-dasharray:none;stroke-dashoffset:2.69405;stroke-opacity:1" />
      <path
         style="display:inline;opacity:1;fill:none;fill-opacity:1;stroke:#000000;stroke-width:1;stroke-miterlimit:4;stroke-dasharray:none;stroke-dashoffset:2.69405;stroke-opacity:1"
         d="m 120.00137,79.86719 c 0.41041,-0.243401 0.70139,-0.601522 1.10006,-0.852911 1.21517,-0.766249 1.97901,-1.148529 3.41513,-0.631057 0.31813,0.11463 2.26023,1.027284 1.36276,0.852913"
         id="path1007" />
      <path
         sodipodi:insensitive="true"
         style="display:inline;opacity:1;fill:none;fill-opacity:1;stroke:#000000;stroke-width:1;stroke-miterlimit:4;stroke-dasharray:none;stroke-dashoffset:2.69405;stroke-opacity:1"
         d="m 120.00137,79.86719 c 0.36486,-0.200493 0.71199,-0.437353 1.09459,-0.601474 0.28084,-0.120471 0.47552,0.392758 0.74979,0.527523 0.33147,0.162864 0.87692,0.110998 1.24237,0.09367 0.78808,-0.03736 1.57445,-0.594485 1.95384,-0.887421 0.0736,-0.05679 0.31297,-0.199355 0.22987,-0.157766 -0.54529,0.272892 -0.25293,0.193464 0.60749,0.394412"
         id="path1009" />
      <path
         style="opacity:1;fill:none;fill-opacity:1;stroke:#000000;stroke-width:1;stroke-miterlimit:4;stroke-dasharray:none;stroke-dashoffset:2.69405;stroke-opacity:1"
         d="m 101.2038,60.334961 c -0.23597,0.842937 -0.4454,2.729852 -0.4454,2.729852 0,0 -2.92924,-2.297158 -3.956923,-3.445643"
         id="path1011"
         sodipodi:nodetypes="ccc"
         inkscape:label="sourcil gauche" />
      <path
         style="opacity:1;fill:none;fill-opacity:1;stroke:#000000;stroke-width:1;stroke-miterlimit:4;stroke-dasharray:none;stroke-dashoffset:2.69405;stroke-opacity:1"
         d="m 106.50505,63.681593 c -0.21472,0.339444 -1.23419,2.316364 -1.49931,3.462921 2.81736,-1.625218 4.76117,-2.185357 6.81821,-3.175"
         id="path1013"
         sodipodi:nodetypes="ccc"
         inkscape:label="sourcil droit" />
    </g>
    <g
       id="g1207"
       inkscape:label="jambe droite">
      <path
         style="opacity:1;fill:#aa4400;fill-opacity:1;stroke:#000000;stroke-width:0.4;stroke-miterlimit:4;stroke-dasharray:none;stroke-dashoffset:2.69405;stroke-opacity:1"
         d="m 122.47913,194.70052 c -0.53962,-0.23625 -1.02195,-0.11596 -1.48405,0.24827 -0.74462,0.58693 -0.3639,1.29395 0.23745,1.75701 1.27387,0.98095 5.31475,1.24546 6.88598,1.27956 2.37065,0.0515 4.7246,0.3169 7.10647,0.22154 1.32483,-0.053 2.35343,-0.0769 3.64228,0.17188 1.66991,0.32234 6.21367,0.54827 7.88665,0.0687 0.87268,-0.25013 0.9004,-1.43406 0.30953,-1.99764 -1.79583,-1.71287 -6.94363,-0.66311 -9.25198,-0.84795 -1.2233,-0.098 -2.17472,-0.95843 -3.36667,-1.08858 -1.02874,-0.11232 -2.0794,0.10105 -3.10802,0.10695 -1.38525,0.008 -2.78965,-0.0659 -4.17229,-0.14514 -1.12255,-0.0643 -3.8551,-0.38365 -4.68535,0.22535 z"
         id="path1212"
         inkscape:label="semelle" />
      <path
         style="opacity:1;fill:#ffccaa;fill-opacity:1;stroke:#000000;stroke-width:0.4;stroke-miterlimit:4;stroke-dasharray:none;stroke-dashoffset:2.69405;stroke-opacity:1"
         d="m 122.86074,190.64795 c -2.38266,0.8337 -2.88029,4.24156 -0.22048,5.10678 2.16055,0.70281 5.57274,0.1194 7.87817,0.0687 2.43357,-0.0535 4.76433,0.91661 7.15311,1.15351 0.59804,0.0593 3.0705,-0.48631 3.46419,-0.23299 1.40758,0.90569 3.13292,0.99362 4.71927,0.67606 2.01873,-0.40411 2.4946,-3.29058 0.37737,-3.94944 -1.41931,-0.44168 -2.7651,0.58067 -4.07901,0.81739 -0.47541,0.0856 0.82382,-0.55069 1.29749,-0.64551 0.54329,-0.10876 2.96212,0.0138 3.09953,-0.0688 0.14189,-0.0852 0.0913,-0.47777 0.0509,-0.6035 -0.37339,-1.16193 -3.96589,-0.002 -4.03661,-0.12986 -0.19019,-0.34264 3.36028,-0.19193 3.31154,-0.82121 -0.0432,-0.55721 -0.72936,-0.56153 -1.12788,-0.51183 -2.2126,0.27598 -4.77224,0.10464 -6.99198,-0.0382 -1.42011,-0.0914 -3.00619,-0.30217 -4.29526,-0.93198 -0.65684,-0.32092 -1.16229,-0.82362 -1.92502,-1.01601 -1.69347,-0.42714 -3.14965,-0.1154 -4.78711,0.15279 -1.46404,0.23978 -2.53699,0.008 -3.88821,0.97399 z"
         id="path1209"
         inkscape:label="pied" />
      <path
         style="opacity:1;fill:#aa4400;fill-opacity:1;stroke:#000000;stroke-width:0.4;stroke-miterlimit:4;stroke-dasharray:none;stroke-dashoffset:2.69405;stroke-opacity:1"
         d="m 121.39789,191.6143 c 0.30222,0.71085 0.83713,1.24525 1.30597,1.84104 0.42952,0.54583 0.80813,1.11487 1.24235,1.6577 1.6119,2.01505 3.83645,-0.38916 3.63804,-1.02747 -0.20009,-0.64373 -4.61352,-3.65191 -5.1348,-3.47582 -0.48982,0.16547 -0.77763,0.60305 -1.05156,1.00455 z"
         id="path1215" />
      <path
         style="opacity:1;fill:#aa4400;fill-opacity:1;stroke:#000000;stroke-width:0.4;stroke-miterlimit:4;stroke-dasharray:none;stroke-dashoffset:2.69405;stroke-opacity:1"
         d="m 132.88442,189.99098 c -1.12275,0.63738 -2.08882,1.50429 -3.17586,2.17716 -0.62068,0.3842 -2.70293,1.94182 -2.97657,2.68135 -0.0363,0.0982 0.17667,0.34917 0.22896,0.43161 0.51707,0.81511 1.52298,1.26933 2.52712,1.03129 1.18998,-0.2821 7.07181,-4.03882 6.51709,-5.33214 -0.0333,-0.0776 -2.11194,-0.99801 -2.36175,-1.03892 -0.28312,-0.0464 -0.46146,0.10403 -0.75899,0.0497 z"
         id="path1217" />
      <path
         inkscape:label="cuisse"
         id="path1201"
         d="m 119.41351,160.62733 c 0.86555,1.5299 1.65234,3.30905 2.51864,4.91198 0.48415,0.89582 1.60888,4.36852 2.44232,4.74392 1.28025,0.57663 3.00004,0.0555 4.29102,-0.19098 4.10755,-0.78427 5.28035,-2.74043 3.96029,-6.66135 -0.65565,-1.94744 -1.9276,-3.84963 -3.64228,-5.01511 -0.66444,-0.45162 -1.44903,-0.4983 -2.23455,-0.56148 -3.95088,-0.31777 -4.63689,2.34404 -7.33544,2.77302 z"
         style="opacity:1;fill:#ffccaa;fill-opacity:1;stroke:#000000;stroke-width:0.8;stroke-miterlimit:4;stroke-dasharray:none;stroke-dashoffset:2.69405;stroke-opacity:1" />
      <path
         inkscape:label="jambière"
         id="path1203"
         d="m 121.70742,171.02804 c 2.6138,-4.03975 8.00784,-3.64365 11.96567,-5.23664 0.27551,-0.1109 2.3105,-0.82362 2.65433,-0.35904 0.12684,0.1714 -0.31814,0.30288 -0.39858,0.50036 -0.32137,0.78904 -0.56379,1.61272 -0.85227,2.41398 -1.45882,4.0519 -1.62192,8.1285 -1.80205,12.3678 -0.0866,2.03831 -0.11987,4.19452 0.11024,6.22591 0.0959,0.8468 1.14916,2.39479 0.42825,3.10914 -0.80244,0.79513 -1.83807,0.73612 -2.81121,1.13059 -2.76554,1.12106 -6.40606,2.22378 -8.70924,-0.37432 -0.43613,-0.49198 -0.17041,-3.06496 -0.15264,-3.64005 0.0972,-3.14682 0.55234,-6.31337 0.33921,-9.45728 -0.12188,-1.79782 -1.28153,-4.94012 -0.77171,-6.68045 z"
         style="opacity:1;fill:#999999;fill-opacity:1;stroke:#000000;stroke-width:0.799999;stroke-miterlimit:4;stroke-dasharray:none;stroke-dashoffset:2.69405;stroke-opacity:1" />
      <path
         style="opacity:1;fill:#aa4400;fill-opacity:1;stroke:#000000;stroke-width:0.4;stroke-miterlimit:4;stroke-dasharray:none;stroke-dashoffset:2.69405;stroke-opacity:1"
         d="m 135.81012,190.67087 c -0.54656,0.96035 -1.01458,1.97849 -1.59853,2.89906 -0.27066,0.42666 -1.0136,1.76753 -0.89467,2.3032 0.23564,1.06135 2.41352,1.42251 3.19282,0.6035 0.14983,-0.15747 2.67977,-4.82773 2.67977,-4.95018 0,-0.67584 -2.69242,-1.31971 -3.37939,-0.85558 z"
         id="path1219" />
      <path
         style="opacity:1;fill:#aa4400;fill-opacity:1;stroke:#000000;stroke-width:0.4;stroke-miterlimit:4;stroke-dasharray:none;stroke-dashoffset:2.69405;stroke-opacity:1"
         d="m 139.13439,190.86949 c -0.44496,0.59546 -0.96939,1.15513 -1.37381,1.78374 -0.55775,0.86694 -1.62648,2.22229 -1.53069,3.32685 0.14449,1.66604 3.02426,2.1651 3.71012,1.44762 0.38974,-0.40771 0.35507,-1.30032 0.58514,-1.8143 0.53381,-1.19253 1.72375,-2.28572 1.87414,-3.61332 0.21955,-1.93814 -2.98819,-1.29678 -3.83732,-0.78683"
         id="path1221" />
    </g>
    <g
       id="g1199"
       inkscape:label="jambe gauche">
      <path
         inkscape:label="semelle"
         id="path1184"
         d="m 69.523466,192.33493 c -0.06048,0.73387 -0.163084,1.79182 0.485495,2.29939 1.372311,1.07394 4.081534,0.46119 5.707224,0.57102 2.647592,0.17888 5.313981,0.59371 7.986299,0.72954 1.519576,0.0772 3.027815,-0.0746 4.545425,-0.1375 1.063885,-0.0441 2.104528,0.005 3.154662,-0.18716 1.233786,-0.22605 3.134344,-0.44368 3.587155,-1.84868 0.06235,-0.19346 0.15418,-0.47197 0.0636,-0.67224 -0.438878,-0.9704 -3.325829,-1.11844 -4.140494,-1.15734 -1.329547,-0.0635 -2.646426,-0.16975 -3.973007,-0.26355 -1.764538,-0.12476 -3.530137,-0.25279 -5.293812,-0.38769 -2.806957,-0.21468 -5.722284,-0.20223 -8.526915,0.10695 -1.221372,0.13465 -2.7363,-0.0943 -3.595635,0.94726 z"
         style="opacity:1;fill:#aa4400;fill-opacity:1;stroke:#000000;stroke-width:0.4;stroke-miterlimit:4;stroke-dasharray:none;stroke-dashoffset:2.69405;stroke-opacity:1" />
      <path
         inkscape:label="pied"
         id="path1170"
         d="m 82.966818,186.96078 c -0.0871,0.79206 -3.495037,1.40221 -4.159572,1.29293 -0.279022,-0.0459 -0.54396,-0.15474 -0.816227,-0.23109 -1.06485,-0.29858 -2.284357,-0.36719 -3.38787,-0.56911 -0.856398,-0.15671 -2.664405,-1.0229 -3.551113,-0.67798 -0.53148,0.20674 -0.953143,0.55432 -1.091835,1.10959 -0.08357,0.33456 0.399785,0.50964 0.373131,0.51564 -0.243639,0.0549 -0.774856,-0.27956 -1.047313,0.3113 -0.109604,0.23769 -0.105818,0.46368 0.01484,0.7028 0.03538,0.0701 0.399915,0.44709 0.383733,0.49082 -0.0019,0.005 -0.325414,-0.059 -0.360413,-0.0668 -0.384035,-0.0865 -0.63536,0.002 -0.956151,0.22344 -0.510172,0.35144 -0.120854,1.94352 0.0742,2.35668 0.182888,0.38738 0.439338,0.68226 0.742024,0.9759 0.631643,0.61276 2.945868,0.53461 3.741923,0.254 0.315074,-0.11106 0.582832,-0.30745 0.875585,-0.46216 0.184587,-0.0976 0.721244,-0.1713 0.797148,-0.41061 0.0046,-0.0146 -0.243891,0.18411 -0.254408,0.19289 -0.24058,0.20086 -0.688681,0.35049 -0.356171,0.68943 0.712689,0.72648 1.607034,0.91094 2.611924,0.79257 0.740799,-0.0873 1.483625,-0.21873 2.230311,-0.30366 0.476996,-0.0542 0.992129,-0.014 1.460727,-0.12223 0.410946,-0.0949 0.815517,-0.26609 1.242359,-0.29028 0.510839,-0.029 1.023472,0.0257 1.53493,0.0114 0.297513,-0.008 0.546005,-0.16991 0.820468,-0.21008 0.40568,-0.0594 1.282742,-0.13941 1.740574,-0.13941 0.885984,0 1.724007,0.4627 2.580124,0.64742 0.974924,0.21035 3.117932,0.60778 4.009049,0.32275 0.359005,-0.11483 0.668425,-0.35421 1.036714,-0.46217 0.591376,-0.17334 1.274596,-0.34406 1.713016,-0.80593 0.811072,-0.85446 0.53695,-3.07465 -0.281969,-3.8826 -0.110953,-0.10947 -0.397222,-0.25132 -0.557581,-0.26737 -0.123835,-0.0124 -0.476628,0.13453 -0.364651,0.0802 0.008,-0.004 -0.37316,-0.31943 -0.682662,-0.56339 -0.617516,-0.48673 -1.30601,-0.88085 -2.043745,-1.1516 -0.815679,-0.29935 -1.61925,-0.70264 -2.476241,-0.88232 -0.583268,-0.1223 -1.160052,-0.0834 -1.751176,-0.10313 -0.304303,-0.0102 -0.587349,-0.13563 -0.888307,-0.15469 -0.76386,-0.0484 -2.361536,0.19682 -2.955377,0.78683 z"
         style="opacity:1;fill:#ffccaa;fill-opacity:1;stroke:#000000;stroke-width:0.4;stroke-miterlimit:4;stroke-dasharray:none;stroke-dashoffset:2.69405;stroke-opacity:1" />
      <path
         inkscape:label="laniere 1"
         id="path1182"
         d="m 88.750366,190.77463 c -0.406103,0.33808 -0.777083,0.69691 -1.134237,1.08858 -0.186954,0.20502 -0.39285,0.3642 -0.449455,0.65315 -0.04216,0.21521 0.110188,0.43648 0.214127,0.61304 0.567166,0.96344 1.479127,1.357 2.569522,0.92243 0.779301,-0.31058 1.276808,-0.93744 1.918663,-1.43807 0.675188,-0.52663 2.306561,-1.34932 2.671287,-2.15806 0.303392,-0.67274 0.348162,-1.05371 -0.150525,-1.5794 -0.208737,-0.22004 -0.490791,-0.418 -0.799266,-0.44116 -0.799936,-0.06 -1.779939,0.28047 -2.499561,0.63596 -0.535467,0.26452 -1.177068,0.58555 -1.647293,0.95871 -0.268931,0.21342 -0.35709,0.63737 -0.693262,0.74482 z"
         style="opacity:1;fill:#aa4400;fill-opacity:1;stroke:#000000;stroke-width:0.4;stroke-miterlimit:4;stroke-dasharray:none;stroke-dashoffset:2.69405;stroke-opacity:1" />
      <path
         inkscape:label="laniere 2"
         id="path1180"
         d="m 79.386024,187.81064 c 0.853932,0.30401 1.385835,1.06791 2.037384,1.63669 0.542449,0.47353 1.112528,0.91672 1.636694,1.40942 0.778547,0.73182 1.302563,1.6816 2.050106,2.43308 0.372877,0.37483 1.055454,0.86974 1.587931,0.95871 0.665327,0.11117 2.788772,-0.12601 1.969545,-1.20699 -0.742445,-0.97966 -1.553601,-1.94514 -2.459281,-2.78065 -0.382661,-0.35302 -0.841856,-0.60159 -1.240239,-0.93198 -1.061609,-0.88042 -2.005254,-2.50116 -3.580794,-1.84104 -0.412192,0.1727 -1.000684,0.25379 -1.443768,0.24255 -0.229862,-0.006 -0.534509,-0.0894 -0.536377,-0.0745 -0.0065,0.0516 -0.01413,0.10312 -0.02119,0.15469 z"
         style="opacity:1;fill:#aa4400;fill-opacity:1;stroke:#000000;stroke-width:0.4;stroke-miterlimit:4;stroke-dasharray:none;stroke-dashoffset:2.69405;stroke-opacity:1" />
      <path
         inkscape:label="lanière 3"
         sodipodi:nodetypes="sssscssssscs"
         id="path1178"
         d="m 76.986108,187.59483 c 0,1.19409 0.779001,1.79859 1.13046,2.83572 0.24765,0.73081 1.19342,1.45606 1.345778,2.21949 0.08886,0.44523 0.02715,1.46434 0.360413,1.80094 0.11386,0.115 0.708535,-0.0982 0.875588,-0.10504 0.433395,-0.0176 1.056603,0.19392 1.460727,0.0726 0.101373,-0.0304 0.206174,-0.20695 0.241687,-0.29793 0.301469,-0.77227 -0.842791,-2.99959 -1.136357,-3.68589 -0.247951,-0.57967 -0.359899,-1.26347 -0.699621,-1.79902 -0.241433,-0.3806 -0.527468,-0.81019 -0.93707,-1.02174 -0.324027,-0.16735 -2.407404,-0.5395 -2.641605,-0.0191 z"
         style="opacity:1;fill:#aa4400;fill-opacity:1;stroke:#000000;stroke-width:0.4;stroke-miterlimit:4;stroke-dasharray:none;stroke-dashoffset:2.69405;stroke-opacity:1" />
      <path
         inkscape:label="lanière 4"
         sodipodi:nodetypes="sssscssssssss"
         id="path1176"
         d="m 73.736043,187.40958 c 0.50161,0.30867 0.738097,0.7398 0.970989,1.26428 0.382315,0.86099 0.769427,1.70051 0.90315,2.64697 0.07657,0.54193 -0.0074,3.0484 0.445214,3.39783 0.270185,0.20862 1.570579,-0.19102 1.920617,-0.15822 0.455875,0.0432 0.875642,0.38073 1.258063,0.0261 0.325046,-0.30142 -0.07214,-1.75279 -0.125782,-2.13133 -0.136985,-0.96662 -0.345971,-1.98592 -0.856509,-2.83604 -0.152733,-0.25433 -0.375422,-0.44774 -0.532138,-0.69326 -0.30422,-0.4766 -0.498588,-0.98783 -0.915868,-1.3865 -0.302982,-0.28947 -0.815758,-0.33901 -1.210559,-0.37623 -0.48478,-0.0457 -1.872845,-0.2334 -1.857179,0.24636 z"
         style="opacity:1;fill:#aa4400;fill-opacity:1;stroke:#000000;stroke-width:0.4;stroke-miterlimit:4;stroke-dasharray:none;stroke-dashoffset:2.69405;stroke-opacity:1" />
      <path
         id="path1172"
         d="m 70.369374,188.44087 c 0.692483,0.2169 1.445429,0.15639 2.16459,0.26355 0.204301,0.0304 0.666668,0.33439 0.604219,0.13751 -0.01614,-0.0509 -0.121674,0.0419 -0.131445,0.0497"
         style="opacity:1;fill:#000000;fill-opacity:1;stroke:#000000;stroke-width:0.4;stroke-miterlimit:4;stroke-dasharray:none;stroke-dashoffset:2.69405;stroke-opacity:1" />
      <path
         id="path1174"
         d="m 69.60191,189.93051 c 0.266687,0.0983 0.546806,0.15598 0.828945,0.18715 0.716745,0.0792 1.467128,-0.16965 2.16459,-0.29601 0.1187,-0.0215 0.872125,-0.3057 0.578779,-0.0745"
         style="opacity:1;fill:#000000;fill-opacity:1;stroke:#000000;stroke-width:0.4;stroke-miterlimit:4;stroke-dasharray:none;stroke-dashoffset:2.69405;stroke-opacity:1" />
      <path
         inkscape:label="cuisse"
         id="path1168"
         d="m 89.276144,157.02928 c -1.21516,0.78129 -2.247395,2.85916 -2.73489,4.18244 -0.434432,1.17925 -1.121587,2.42828 -1.199959,3.7069 -0.112877,1.84159 1.279112,3.84777 2.592845,4.96928 0.788839,0.67341 1.783342,1.4318 2.853611,1.5412 0.996354,0.10184 2.348714,-1.35035 3.004137,-2.00719 1.90395,-1.90806 3.288641,-4.25104 4.288898,-6.73965 0.424961,-1.05729 1.106403,-2.45214 0.657223,-3.62669 -0.106971,-0.27971 -0.338267,-0.47866 -0.513059,-0.71426 -1.394301,-1.87943 -3.610621,-2.24256 -5.836547,-2.03202 -0.78032,0.0738 -1.559957,0.16194 -2.338435,0.24254 -0.289507,0.03 -0.439976,0.0687 -0.674182,0.23491 -0.07128,0.0506 -0.06374,0.32224 -0.09964,0.24254 -0.03991,-0.0886 -0.02827,-0.19225 -0.0424,-0.28837"
         style="opacity:1;fill:#ffccaa;fill-opacity:1;stroke:#000000;stroke-width:0.799999;stroke-miterlimit:4;stroke-dasharray:none;stroke-dashoffset:2.69405;stroke-opacity:1" />
      <path
         inkscape:label="jambière"
         id="path1160"
         d="m 82.34877,162.40476 c 1.405657,-0.4778 2.92418,0.30072 4.285599,0.66864 0.817928,0.22104 1.614337,0.4053 2.424536,0.67107 2.36012,0.77423 4.190172,2.52416 6.157502,3.95815 0.285779,0.20831 0.496896,0.67308 0.73955,0.83702 0.03907,0.0264 0.05062,-0.12979 0.0921,-0.10737 0.01154,0.006 -0.396213,1.71677 -0.541795,2.48177 -0.185832,0.97651 -0.09327,1.99454 -0.265477,2.97959 -0.110956,0.63468 -0.382858,1.24372 -0.525542,1.87414 -0.34357,1.51798 -0.441915,3.11594 -0.560758,4.66339 -0.167553,2.18167 -0.194551,4.36841 -0.363003,6.54973 -0.0208,0.26914 0.03478,1.90759 -0.130032,2.16209 -0.384133,0.5932 -1.635549,0.78433 -2.240323,0.93707 -1.423823,0.35961 -3.179654,0.60804 -4.515863,-0.18058 -1.027033,-0.60614 -1.651339,-1.7485 -2.654797,-2.31095 -0.589484,-0.33041 -1.400749,-0.52715 -2.072368,-0.68328 -0.05035,-0.0117 -0.289877,-0.0195 -0.31424,-0.0634 -0.05061,-0.0912 0.197683,-0.0964 0.251936,-0.18546 0.191969,-0.31512 0.303573,-0.65832 0.441563,-0.99808 0.660559,-1.62645 1.201436,-3.39634 1.386994,-5.15144 0.2619,-2.47719 -0.05418,-5.06361 -0.211299,-7.54049 -0.03863,-0.60891 0.03645,-1.21281 -0.0081,-1.83022 -0.191651,-2.65439 -0.486711,-5.3736 -1.00503,-7.96753 -0.05762,-0.28839 -0.287608,-0.48794 -0.371129,-0.76381 z"
         style="opacity:1;fill:#999999;fill-opacity:1;stroke:#000000;stroke-width:0.799999;stroke-miterlimit:4;stroke-dasharray:none;stroke-dashoffset:2.69405;stroke-opacity:1" />
    </g>
    <g
       id="g1136"
       inkscape:label="jupes">
      <path
         inkscape:label="sous-jupe"
         sodipodi:nodetypes="csssssssc"
         id="path1130"
         d="m 95.278254,138.77626 c 0.417597,2.11152 -1.111248,5.24597 -2.398252,6.985 -1.624812,2.19548 -6.490354,9.28747 -5.50908,12.0719 0.795334,2.25681 5.528942,2.24273 7.33267,2.65734 2.848665,0.6548 5.833168,1.74006 8.727178,2.09136 4.43911,0.53884 8.91199,0.60906 13.37044,0.57288 1.11116,-0.009 2.29041,-0.45932 3.40965,-0.55218 3.76588,-0.31245 10.457,-1.41681 12.77279,-4.89364 0.56099,-0.84224 -12.76837,-14.15783 -13.06275,-14.86498"
         style="opacity:1;fill:#2c61af;fill-opacity:1;stroke:#000000;stroke-width:0.799999;stroke-miterlimit:4;stroke-dasharray:none;stroke-dashoffset:2.69405;stroke-opacity:1" />
      <path
         inkscape:label="jupe-lanières"
         id="path1132"
         d="m 95.278254,138.77626 c -0.436743,-0.0253 -0.875149,-0.12165 -1.310228,-0.0759 -0.01431,0.002 -1.301596,2.25152 -1.547751,2.47788 -0.766805,0.70514 -7.86896,11.42957 -7.976291,12.20305 -0.17626,1.27023 0.84722,2.77636 1.225945,3.93424 0.07099,0.21705 0.440142,2.63294 0.651279,2.74706 0.0042,0.002 0.420987,-0.50191 0.452067,-0.53147 0.399587,-0.37995 1.035045,-0.56828 1.524768,-0.80755 0.702818,-0.34338 3.44102,-0.91993 3.455625,-0.9594 0.971436,-2.62525 2.460463,-6.25101 3.32537,-9.33864 0.09264,-0.33074 1.245399,-4.33961 1.532427,-4.21033 0.356296,0.16048 -0.599334,3.63659 -0.64362,3.88592 -0.320252,1.80305 -0.247036,3.65434 -0.582321,5.46652 -0.861074,4.65401 -1.776273,4.75804 0.934781,8.68294 0.169608,0.24555 0.735808,1.4813 1.049713,1.5944 0.199787,0.072 0.210013,-0.36969 0.329472,-0.54527 0.237228,-0.34867 0.594297,-0.53126 0.927119,-0.77304 3.977691,-2.88965 3.884701,-1.59868 3.884701,-6.26028 0,-2.76393 0.25127,-6.17316 1.21829,-8.78646 0.0393,-0.10631 0.0664,0.21842 0.0766,0.3313 0.0751,0.82836 0.19476,1.64262 0.32947,2.46408 0.20118,1.22677 0.35473,2.41679 0.5057,3.65125 0.24219,1.98028 -0.538,5.14325 0.32181,6.95049 0.42445,0.89215 1.80378,1.67652 2.42124,2.45717 0.65512,0.82828 0.80215,2.17824 1.40217,2.89892 0.002,0.003 0.78459,-1.38732 0.82751,-1.45636 0.73542,-1.18301 2.02276,-1.94752 2.98057,-2.95414 0.16529,-0.1737 0.76348,-0.52309 0.7892,-0.73162 0.0735,-0.59555 -1.73128,-12.62966 -2.12241,-14.03903 -0.021,-0.0757 0.005,0.15816 0.023,0.23468 0.13623,0.58012 0.42111,1.12124 0.65895,1.66342 0.55522,1.26569 1.26503,2.43712 1.84657,3.68576 0.86867,1.86517 1.31243,3.94122 1.77762,5.93587 0.18989,0.81424 0.0334,1.9306 0.4444,2.67114 0.27666,0.49844 2.70769,0.95818 3.63186,2.55381 1.72569,2.97951 1.37479,0.61843 3.10317,-1.50468 0.47606,-0.58478 1.85737,-1.2124 1.99215,-2.00163 0.24668,-1.44439 -0.7744,-4.2095 -1.0727,-5.68739 -0.19233,-0.95292 -0.6512,-1.87739 -0.63595,-1.87739 0.59306,0 1.00258,1.32268 1.14932,1.73245 0.83675,2.33666 1.73818,5.53453 3.6625,7.26799 0.25075,0.22588 1.13145,0.0719 1.51711,0.11733 3.28534,0.38723 2.8642,1.28426 4.78117,-1.51157 0.0545,-0.0795 1.08431,-1.45103 1.03439,-1.51848 -1.46031,-1.97321 -1.78281,-3.46632 -2.97291,-5.43891 -1.99567,-3.30783 -9.13592,-12.96222 -12.42033,-14.9087 -2.14278,-1.2699 -8.2384,0.0767 -10.36688,0.16565 -3.2377,0.13531 -6.45474,-0.53106 -9.677284,-0.37272 -1.10309,0.0542 -2.098477,0.61308 -3.126155,0.69022 -0.466667,0.035 -0.767821,-0.24531 -1.333212,-0.17255 z"
         style="opacity:1;fill:#aa4400;fill-opacity:1;stroke:#000000;stroke-width:0.799999;stroke-miterlimit:4;stroke-dasharray:none;stroke-dashoffset:2.69405;stroke-opacity:1" />
      <path
         style="opacity:1;fill:#ffcc00;fill-opacity:1;stroke:#000000;stroke-width:0.799999;stroke-miterlimit:4;stroke-dasharray:none;stroke-dashoffset:2.69405;stroke-opacity:1"
         d="m 130.82311,156.61895 c -2.22561,-0.54746 -2.17227,4.09371 -0.26818,4.15166 0.57067,0.0174 0.98768,-0.29316 1.44049,-0.59014 1.32333,-0.86792 0.65965,-2.35212 -0.39844,-3.1957 -0.22375,-0.1784 -0.52647,-0.19946 -0.77387,-0.36582 z"
         id="path1148" />
      <path
         style="opacity:1;fill:#ffcc00;fill-opacity:1;stroke:#000000;stroke-width:0.799999;stroke-miterlimit:4;stroke-dasharray:none;stroke-dashoffset:2.69405;stroke-opacity:1"
         d="m 120.13059,156.24278 c -2.63821,-0.0439 -2.52704,4.57198 0.0728,4.7349 0.41986,0.0263 0.9148,-0.27766 1.18763,-0.59014 1.38452,-1.58572 0.1629,-3.23376 -1.26042,-4.14476"
         id="path1146" />
      <path
         style="opacity:1;fill:#ffcc00;fill-opacity:1;stroke:#000000;stroke-width:0.799999;stroke-miterlimit:4;stroke-dasharray:none;stroke-dashoffset:2.69405;stroke-opacity:1"
         d="m 109.61047,157.43341 c -0.2651,0.0143 -0.50748,0.14433 -0.76622,0.18636 -2.34703,0.38126 -1.54573,4.24468 0.43291,4.38633 2.01587,0.14431 2.52472,-2.71668 1.42133,-3.9722 -0.35719,-0.40644 -0.66261,-0.38759 -1.08802,-0.60049 z"
         id="path1144" />
      <path
         style="opacity:1;fill:#ffcc00;fill-opacity:1;stroke:#000000;stroke-width:0.799999;stroke-miterlimit:4;stroke-dasharray:none;stroke-dashoffset:2.69405;stroke-opacity:1"
         d="m 98.473545,156.09439 c -0.701162,0.11265 -1.521799,-0.20373 -2.053453,0.43483 -1.15919,1.39229 0.501534,4.81714 2.463379,3.61674 1.377109,-0.84262 1.119609,-4.38492 -0.409926,-4.05157 z"
         id="path1142" />
      <path
         style="opacity:1;fill:#ffcc00;fill-opacity:1;stroke:#000000;stroke-width:0.799999;stroke-miterlimit:4;stroke-dasharray:none;stroke-dashoffset:2.69405;stroke-opacity:1"
         d="m 89.911101,152.6364 c -0.761801,0.0219 -2.145069,-0.38078 -2.601296,0.4797 -0.276293,0.52111 -0.344233,2.81552 0.222203,3.16464 0.427582,0.26354 1.136705,0.045 1.601388,0.0242 1.847045,-0.0827 2.310341,-1.49809 1.340874,-3.07837 -0.158562,-0.25846 -0.396936,-0.30188 -0.563169,-0.59013 z"
         id="path1140" />
    </g>
    <g
       id="g1068"
       inkscape:label="plastron">
      <path
         sodipodi:nodetypes="cssssscsssssssscc"
         id="path1056"
         d="m 95.501414,112.19812 c 3.01345,4.5304 7.078366,5.22159 12.117126,2.88906 2.01358,-0.93213 4.13632,-2.4738 5.77945,-3.95396 2.78929,-2.51264 8.08834,-12.205611 11.88726,-11.694259 5.99269,0.806639 4.02189,3.809619 4.33459,8.598139 0.15798,2.41934 -0.60322,4.7464 -0.91946,7.12896 -0.32172,2.42384 0.0105,4.86939 -0.63486,7.25714 -2.36817,8.76169 -8.48705,17.59315 -16.56118,21.77143 -2.12582,1.10009 -5.70661,2.81259 -8.16565,2.29744 -2.46731,-0.51689 -4.78282,-3.48742 -6.217283,-5.40342 -0.977249,-1.3053 -1.956691,-2.84232 -3.130531,-3.96382 -0.6642,-0.63458 -2.076014,-0.63745 -2.397154,-1.57764 -0.528593,-1.54753 0.03825,-3.39579 0.186079,-4.96956 0.164057,-1.74656 -0.318437,-3.48373 -0.372161,-5.22594 -0.07641,-2.47791 0.571088,-5.11923 1.061755,-7.53323 0.303913,-1.49521 0.203761,-2.71444 1.03986,-4.10186 0,0 0.55368,-1.26669 1.992159,-1.51848"
         style="opacity:1;fill:#999999;fill-opacity:1;stroke:#000000;stroke-width:1;stroke-miterlimit:4;stroke-dasharray:none;stroke-dashoffset:2.69405;stroke-opacity:1" />
      <path
         id="path1058"
         d="m 101.29666,116.53997 c -3.188659,5.95155 -3.197422,13.08494 -1.559595,19.53973 0.516625,2.03604 0.963315,4.09353 1.737615,6.05191 0.0894,0.22625 1.22386,2.8211 0.92879,2.13002"
         style="opacity:1;fill:#999999;fill-opacity:1;stroke:#000000;stroke-width:1;stroke-miterlimit:4;stroke-dasharray:none;stroke-dashoffset:2.69405;stroke-opacity:1" />
      <path
         id="path1060"
         d="m 92.52732,130.61694 c 1.662819,-0.56724 3.336589,-0.0574 5.030954,0.0104 2.112992,0.0846 4.267296,0.22177 6.381576,0.1499 2.04248,-0.0694 4.05035,-0.31113 6.09132,-0.0558 1.78205,0.22295 3.65414,0.56974 5.34443,1.18528 0.31355,0.11418 2.40362,0.93593 1.91176,1.02143"
         style="opacity:1;fill:#999999;fill-opacity:1;stroke:#000000;stroke-width:1;stroke-miterlimit:4;stroke-dasharray:none;stroke-dashoffset:2.69405;stroke-opacity:1" />
      <path
         id="path1062"
         d="m 93.521899,136.11456 c 1.612916,-0.60822 3.514273,-0.30753 5.220584,-0.31724 1.765877,-0.0101 3.512797,-0.0876 5.267027,0.16036 1.47414,0.20837 2.91112,0.63119 4.38467,0.83319 1.38075,0.18927 2.75412,0.292 4.1099,0.62401 1.40108,0.3431 2.82607,0.4683 4.2144,0.87153 0.63406,0.18417 1.48525,0.29386 1.4551,0.32421 -0.11351,0.11429 -0.30611,0.10055 -0.46052,0.14642"
         style="opacity:1;fill:#999999;fill-opacity:1;stroke:#000000;stroke-width:1;stroke-miterlimit:4;stroke-dasharray:none;stroke-dashoffset:2.69405;stroke-opacity:1" />
    </g>
    <path
       inkscape:label="ombre plastron"
       id="path972"
       d="m 102.64006,130.57233 c 1.2544,-0.86741 8.24467,0.10495 8.79404,-0.48891 0.17162,-0.18551 -0.16866,-3.09219 -0.0339,-3.9418 0.55803,-3.51876 1.00671,-7.85892 2.58649,-11.06915 1.05262,-2.139 6.65963,-8.60843 8.64139,-8.51766 0.93548,0.0429 2.00348,1.27389 2.63737,1.90979 1.18737,1.19115 1.17398,3.37477 1.25508,4.92726 0.0637,1.22002 0.46862,2.50105 0.35617,3.72791 -0.18559,2.0248 -1.36406,4.30442 -2.13703,6.13424 -1.85567,4.39287 -3.4538,8.2026 -6.1058,12.14627 -1.0726,1.59502 -1.15679,3.83349 -2.12006,5.56894 -1.01059,1.82071 -9.95045,6.54863 -11.77062,6.2412 -0.90072,-0.15214 -1.80602,-0.31589 -2.41688,-1.12296 -1.68131,-2.22134 -2.960959,-11.00526 -2.17095,-13.5977 0.37627,-1.23474 1.13278,-2.84773 2.48472,-1.91743 z"
       style="opacity:0.291667;fill:#000000;stroke:none;stroke-width:0.4;stroke-dashoffset:2.69405" />
    <g
       id="g1128"
       inkscape:label="bouclier">
      <path
         sodipodi:nodetypes="ssccccsssscccss"
         id="path1113"
         d="m 128.25097,159.73386 c -0.93299,-0.74379 -2.04999,-1.21251 -2.8986,-2.06936 -2.3781,-2.40118 -3.23207,-3.96182 -4.78371,-6.89707 -2.569,-5.37415 -3.66752,-11.47348 -4.62118,-15.61701 -1.47613,-6.41732 -0.61096,-9.58286 0.0979,-16.07662 0.97169,-4.68233 1.88245,-8.74029 3.85657,-12.15263 2.16682,-3.76098 4.75881,-7.36844 8.7229,-9.429267 4.32491,-2.248405 11.53209,-2.765658 15.65357,0.85085 2.90108,2.545637 5.4781,6.306467 6.81747,9.742447 3.54849,9.10316 4.34445,16.76693 3.50805,26.65036 -0.38929,4.59998 -2.47025,14.96314 -6.87716,20.63182 -1.96974,2.09147 -3.11706,4.32421 -5.47578,5.52806 0.18661,-2.90797 -0.57593,-8.52973 -6.26316,-9.24869 -4.23728,-1.18118 -7.71041,5.15944 -7.73684,8.08711 z"
         style="opacity:1;fill:#2c61af;fill-opacity:1;stroke:#000000;stroke-width:1;stroke-miterlimit:4;stroke-dasharray:none;stroke-dashoffset:2.69405;stroke-opacity:1" />
      <ellipse
         ry="24.648932"
         rx="13.751018"
         cy="126.33163"
         cx="137.22954"
         id="path1115"
         style="font-variation-settings:normal;opacity:1;vector-effect:none;fill:#999999;fill-opacity:1;fill-rule:evenodd;stroke:#000000;stroke-width:0.8;stroke-linecap:butt;stroke-linejoin:miter;stroke-miterlimit:4;stroke-dasharray:none;stroke-dashoffset:0;stroke-opacity:1;stop-color:#000000;stop-opacity:1" />
      <ellipse
         ry="18.194374"
         rx="10.336649"
         cy="126.23808"
         cx="138.11821"
         id="path1117"
         style="font-variation-settings:normal;opacity:1;vector-effect:none;fill:none;fill-opacity:1;fill-rule:evenodd;stroke:#000000;stroke-width:0.8;stroke-linecap:butt;stroke-linejoin:miter;stroke-miterlimit:4;stroke-dasharray:none;stroke-dashoffset:0;stroke-opacity:1;stop-color:#000000;stop-opacity:1" />
      <ellipse
         ry="14.68646"
         rx="8.1383572"
         cy="126.3784"
         cx="138.25853"
         id="path1119"
         style="font-variation-settings:normal;opacity:1;vector-effect:none;fill:none;fill-opacity:1;fill-rule:evenodd;stroke:#000000;stroke-width:0.8;stroke-linecap:butt;stroke-linejoin:miter;stroke-miterlimit:4;stroke-dasharray:none;stroke-dashoffset:0;stroke-opacity:1;stop-color:#000000;stop-opacity:1" />
      <ellipse
         ry="9.447978"
         rx="5.425571"
         cy="126.28485"
         cx="138.53915"
         id="path1121"
         style="font-variation-settings:normal;opacity:1;vector-effect:none;fill:#2c61af;fill-opacity:1;fill-rule:evenodd;stroke:#000000;stroke-width:0.8;stroke-linecap:butt;stroke-linejoin:miter;stroke-miterlimit:4;stroke-dasharray:none;stroke-dashoffset:0;stroke-opacity:1;stop-color:#000000;stop-opacity:1" />
    </g>
    <path
       inkscape:label="ombre bouclier"
       d="m 140.51765,96.708733 a 19.693115,37.482811 0 0 1 7.07089,28.770857 19.693115,37.482811 0 0 1 -7.11792,28.84527 c 1.76693,2.09138 2.04817,5.12195 1.92702,7.0099 2.35872,-1.20384 3.50589,-3.43687 5.47563,-5.52834 4.40691,-5.66868 6.48781,-16.03183 6.8771,-20.63181 0.8364,-9.88344 0.0402,-17.5469 -3.50831,-26.65006 -1.33937,-3.43598 -3.91608,-7.19692 -6.81716,-9.742564 -1.11543,-0.978763 -2.4581,-1.652423 -3.90725,-2.073253 z"
       style="opacity:0.359477;fill:#000000;fill-opacity:1;stroke:none;stroke-width:1;stroke-miterlimit:4;stroke-dasharray:none;stroke-dashoffset:2.69405;stroke-opacity:1"
       id="path954" />
    <path
       id="path974"
       d="m 69.846843,130.63344 c 1.502587,-0.27558 -0.126646,-3.17585 1.009152,-3.46818 0.881999,-0.227 1.717188,-0.0771 2.603445,-0.19861 1.251984,-0.17163 2.500008,-0.63406 3.782202,-0.63406 0.266849,0 0.357326,2.19667 0.347689,2.54384 -0.01251,0.45098 -0.157342,1.8126 -0.661461,2.03966 -0.994709,0.44803 -0.976669,-0.85058 -1.492527,-0.81739 -0.645547,0.0415 -3.071945,0.43931 -3.409069,-0.16806 -0.169839,-0.30599 -0.331409,0.64862 -0.619062,0.84795 -0.959315,0.66474 -0.87934,0.37928 -1.560369,-0.14515 z"
       style="opacity:0.291667;fill:#000000;stroke:none;stroke-width:0.4;stroke-dashoffset:2.69405" />
    <path
       id="path976"
       d="m 58.712245,121.17616 c 0.12627,0.81813 0.833787,1.40781 1.687573,1.45908 0.817309,0.0491 5.254196,-1.48337 3.536275,-2.1466 -0.372618,-0.14386 -3.550639,1.06434 -5.223848,0.68752 z"
       style="opacity:0.291667;fill:#000000;stroke:none;stroke-width:0.4;stroke-dashoffset:2.69405" />
    <path
       id="path978"
       d="m 58.949692,124.6749 c 0.48449,0.45497 1.143265,1.38086 1.925021,1.25282 0.506656,-0.083 1.099577,-0.42015 1.568853,-0.42015 6.718331,0 -2.855699,-2.55731 -3.493874,-0.83267 z"
       style="opacity:0.291667;fill:#000000;stroke:none;stroke-width:0.4;stroke-dashoffset:2.69405" />
    <path
       id="path980"
       d="m 60.569424,129.57924 c 0.628957,-0.28198 1.092652,0.10138 1.679093,-0.0229 0.475671,-0.10083 1.015725,-0.31102 1.467089,-0.48891 0.386913,-0.15249 2.699297,-1.37264 1.551889,-1.96327 -0.658791,-0.33911 -2.849287,1.06944 -3.434511,1.39033 -0.118023,0.0647 -1.560296,0.26918 -1.492528,0.51947 0.05313,0.19623 0.152646,0.37686 0.228968,0.56529 z"
       style="opacity:0.291667;fill:#000000;stroke:none;stroke-width:0.4;stroke-dashoffset:2.69405" />
    <path
       id="path982"
       d="m 66.149444,129.40354 c 2.095749,1.60721 2.159542,-3.38647 3.867004,-3.24664 0.656463,0.0538 0.363369,4.12983 -0.771704,4.67516 -0.48196,0.23155 -2.596134,-1.1864 -3.0953,-1.42852 z"
       style="opacity:0.291667;fill:#000000;stroke:none;stroke-width:0.4;stroke-dashoffset:2.69405" />
    <path
       id="path984"
       d="m 65.191174,123.50611 c -0.701543,-2.97076 3.75059,-3.59886 1.696053,-1.23755 -0.671243,0.77147 -0.671478,1.03395 -1.696053,1.23755 z"
       style="opacity:0.291667;fill:#000000;stroke:none;stroke-width:0.4;stroke-dashoffset:2.69405" />
    <path
       id="path986"
       d="m 77.572372,130.15218 c 1.272331,-2.62791 -1.179148,-3.20402 1.882621,-3.94945 0.336169,-0.0819 0.919848,-0.44068 1.27204,-0.22917 0.359651,0.21598 0.191537,2.30088 0.975233,2.5362 0.944094,0.28348 2.179257,-0.877 3.129219,-0.74864 1.188374,0.16057 2.388936,-2.09341 2.654327,-1.90215 0.141107,0.10169 -0.440857,1.20772 -0.398574,1.47436 0.07626,0.48083 0.815324,1.09181 0.763225,1.4438 -2.65e-4,0.002 -5.87003,1.58771 -6.55525,1.71117 -1.082503,0.19502 -2.590409,-0.27237 -3.722841,-0.33612 z"
       style="opacity:0.291667;fill:#000000;stroke:none;stroke-width:0.4;stroke-dashoffset:2.69405" />
    <path
       id="path988"
       d="m 82.168679,91.818874 c 0.567034,1.471592 0.139888,3.060414 0.305292,4.583496 0.142396,1.311236 0.482327,2.637489 0.542737,3.95708 0.08274,1.80742 0.58333,3.55869 0.619059,5.39325 0.0033,0.16678 -0.08599,1.0073 0.03392,1.11532 0.0062,0.006 0.744921,-0.90358 1.492528,-1.40561 0.983962,-0.66074 4.027178,-2.18051 4.33342,-3.55985 0.0734,-0.33058 -4.098975,-9.960027 -4.172294,-9.999654 -1.001488,-0.541295 -2.091788,-0.342392 -3.154664,-0.08403 z"
       style="opacity:0.291667;fill:#000000;stroke:none;stroke-width:0.4;stroke-dashoffset:2.69405" />
    <path
       id="path990"
       d="m 80.031652,123.11651 c 0.03093,-0.91986 0.666071,-0.0118 0.881947,-0.20626 0.224321,-0.20207 -0.681466,0.432 -0.881947,0.20626 -0.324887,-0.36583 0.155242,-1.10878 0.415534,-1.39797 1.480256,-1.64457 3.262347,-2.90511 4.850715,-4.41543 0.118702,-0.11287 2.342792,-1.5335 2.264232,-0.93198 -0.176866,1.35426 -5.802519,6.16338 -6.724856,6.83705"
       style="opacity:0.291667;fill:#000000;stroke:none;stroke-width:0.4;stroke-dashoffset:2.69405" />
    <path
       id="path992"
       d="m 83.618807,127.80695 c 0.730925,-0.50395 1.691796,-0.40315 2.399916,-0.90906 1.762861,-1.25945 3.697399,-5.46178 3.697399,-7.46346 0,-0.42509 0.374147,-2.62472 -0.279847,-2.72718 -0.473149,-0.0741 -1.293866,1.38706 -1.53493,1.68062 -0.583523,0.7106 -4.466614,8.36388 -4.282538,9.41908 z"
       style="opacity:0.291667;fill:#000000;stroke:none;stroke-width:0.4;stroke-dashoffset:2.69405" />
    <path
       id="path994"
       d="m 88.902018,129.34242 c 0.854781,-0.67391 1.025022,-1.55912 1.068514,-2.59731 0.02474,-0.5906 -0.03866,-1.17624 0.03392,-1.76465 0.05636,-0.45692 0.04089,-0.93286 0.110244,-1.38268 0.104791,-0.67967 -0.211498,-1.45844 0.05088,-2.10841 1.161653,-2.8777 2.620854,9.90427 -1.26356,7.85305 z"
       style="opacity:0.291667;fill:#000000;stroke:none;stroke-width:0.4;stroke-dashoffset:2.69405" />
    <path
       id="path996"
       d="m 90.326704,157.8976 c 0.822677,-1.47401 1.057674,-3.1602 1.789337,-4.69808 0.788612,-1.65758 1.25394,-3.303 1.517967,-5.1106 0.116034,-0.79438 1.088102,-5.12773 2.11159,-4.23209 0.171794,0.15033 0.564597,0.14124 0.593619,0.38959 0.133704,1.14422 -3.78837,13.09845 -4.765913,13.65882 -0.369361,0.21173 -0.846654,0.0849 -1.2466,-0.008 z"
       style="opacity:0.291667;fill:#000000;stroke:none;stroke-width:0.4;stroke-dashoffset:2.69405" />
    <path
       id="path998"
       d="m 100.9016,161.06785 c 2.39961,-2.11572 0.79651,-5.284 1.53493,-7.94472 0.10373,-0.37377 0.95254,-5.33978 0.69539,-5.33978 -0.93794,0 -0.87862,1.15633 -0.96676,1.80285 -0.27346,2.00589 -1.78543,9.937 -1.26356,11.48165 z"
       style="opacity:0.291667;fill:#000000;stroke:none;stroke-width:0.4;stroke-dashoffset:2.69405" />
    <path
       id="path1000"
       d="m 111.2645,146.85901 c -1.38054,0.78811 -0.93076,2.70834 -0.72931,4.06404 0.22317,1.50184 0.42402,2.97817 0.42402,4.49946 0,1.531 0.21098,3.72305 0.90739,5.1488 0.8287,1.69661 1.69014,-0.0307 1.62821,-1.31394 -0.13749,-2.84864 -2.9295,-10.10804 -2.23031,-12.39836 z"
       style="opacity:0.291667;fill:#000000;stroke:none;stroke-width:0.4;stroke-dashoffset:2.69405" />
    <path
       id="path1002"
       d="m 124.45132,160.54839 c 1.31397,-1.74078 0.41494,-3.81919 -0.95827,-5.21755 -0.20594,-0.20971 -0.74375,-0.34034 -0.84802,-0.57293 -0.2354,-0.52508 -1.61061,-4.21495 -2.56105,-3.90361 -0.88745,0.2907 1.73529,4.43656 2.27272,5.17171 0.75124,1.02763 0.46066,7.30705 2.09462,4.52238 z"
       style="opacity:0.291667;fill:#000000;stroke:none;stroke-width:0.4;stroke-dashoffset:2.69405" />
    <path
       id="path1004"
       d="m 87.706299,155.91142 c 0.908095,-0.43584 1.558423,-0.95864 2.018306,-1.87923 0.02281,-0.0457 0.02911,-0.88759 0.161123,-0.84795 1.778164,0.53393 0.4206,3.6975 -2.179429,2.72718 z"
       style="opacity:0.291667;fill:#000000;stroke:none;stroke-width:0.4;stroke-dashoffset:2.69405" />
    <path
       id="path1006"
       d="m 97.721501,160.05184 c 4.789459,-0.74433 0.31546,-4.35893 0.491855,-3.64388 0.559699,2.26883 -0.006,1.63075 -0.491855,3.64388 z"
       style="opacity:0.291667;fill:#000000;stroke:none;stroke-width:0.4;stroke-dashoffset:2.69405" />
    <path
       id="path1008"
       d="m 109.67021,157.79065 c 1.97104,0.3751 1.84498,1.76654 1.06851,3.26192 -0.19136,0.36854 -0.41959,0.80858 -0.76322,1.06185 -0.22315,0.16446 -1.10828,0.0306 -0.83107,0.0306 0.78658,0 1.11698,-1.58452 1.00067,-2.23063 -0.14976,-0.83195 -0.71803,-1.27194 -0.47489,-2.12369 z"
       style="opacity:0.291667;fill:#000000;stroke:none;stroke-width:0.4;stroke-dashoffset:2.69405" />
    <path
       id="path1010"
       d="m 119.70237,156.6295 c 0.75263,0.50092 0.69697,0.79424 0.58514,1.58894 -0.0789,0.56082 -0.55732,1.60516 -0.40705,2.14661 0.18503,0.66674 3.11156,-1.17174 1.34836,-3.30776 -0.40847,-0.49484 -0.96142,-0.60019 -1.52645,-0.42779 z"
       style="opacity:0.291667;fill:#000000;stroke:none;stroke-width:0.4;stroke-dashoffset:2.69405" />
    <path
       id="path1012"
       d="m 130.63344,157.11841 c 2.29574,0.56815 0.20353,2.16438 0.20353,3.30011 0,0.71255 3.13028,-1.6536 1.01763,-3.28484 -0.54002,-0.41696 -0.53318,-0.43704 -1.22116,-0.0153 z"
       style="opacity:0.291667;fill:#000000;stroke:none;stroke-width:0.4;stroke-dashoffset:2.69405" />
    <path
       id="path1014"
       d="m 131.31186,153.85649 c 0.0767,0.95315 0.68446,1.67993 1.08548,2.50564 0.22779,0.46903 0.4837,1.02872 0.57666,1.54311 0.23014,1.27354 2.0912,2.53441 1.88262,0.71808 -0.14445,-1.25779 -2.04051,-6.05935 -3.54476,-4.76683 z"
       style="opacity:0.291667;fill:#000000;stroke:none;stroke-width:0.4;stroke-dashoffset:2.69405" />
    <path
       id="path1016"
       d="m 90.742237,164.35269 c 3.167049,2.19682 5.513813,2.22338 4.842235,6.59259 -0.159901,1.0403 -0.542737,2.04527 -0.542737,3.10914 0,2.3758 -1.000673,4.62732 -1.000673,6.93636 0,1.53481 0.294606,6.6238 -0.29681,7.8225 -1.172519,2.3765 -7.369172,1.15393 -8.319148,-0.98545 -0.480351,-1.08177 1.481111,-1.36991 1.79782,-2.13897 1.545918,-3.75393 2.22917,-8.30023 2.790008,-12.2914 0.309075,-2.19951 -0.801812,-9.18126 -0.627539,-9.25103 0.415271,-0.16626 0.945174,0.1657 1.356844,0.20626 z"
       style="opacity:0.291667;fill:#000000;stroke:none;stroke-width:0.4;stroke-dashoffset:2.69405" />
    <path
       id="path1018"
       d="m 92.862304,165.07841 c 0.661916,0.77722 1.426543,2.56031 2.620406,2.34522 0.25571,-0.0461 0.601438,-1.12899 0.686901,-1.33685 0.304951,-0.7417 0.778341,-1.46174 1.051555,-2.20008 0.101425,-0.2741 -1.956194,-3.1792 -2.298155,-3.36123 -0.281535,-0.14986 -1.306962,-0.23097 -1.670614,-0.26737 -0.906243,-0.0907 -4.653375,5.04959 -0.390093,4.82031 z"
       style="opacity:0.291667;fill:#000000;stroke:none;stroke-width:0.4;stroke-dashoffset:2.69405" />
    <path
       id="path1020"
       d="m 201.32368,188.14612 c -0.34164,0 -0.68329,0 -1.02493,0"
       style="opacity:0.291667;fill:#000000;stroke:none;stroke-width:0.4;stroke-dashoffset:2.69405" />
    <path
       id="path1022"
       d="m 130.70128,167.07478 c 0.99134,-0.57528 3.97337,-2.65151 5.24081,-1.7952 0.26011,0.17573 -0.27427,0.57138 -0.33921,0.8785 -0.22874,1.08179 -0.26517,2.18676 -0.55122,3.25428 -0.98955,3.69297 -2.53494,10.71543 -2.17943,14.43037 0.1,1.0447 1.1654,6.02409 1.02612,6.32523 -0.0429,0.0928 -7.60316,3.07165 -6.87751,2.20007 0.6722,-0.80737 0.10927,-7.23395 0.17809,-8.54822 0.15756,-3.0089 1.05581,-5.81158 1.49253,-8.76211 0.18251,-1.23306 0.0747,-2.50744 0.27985,-3.74319 0.19148,-1.1535 -0.0407,-4.44228 1.72997,-4.23973 z"
       style="opacity:0.291667;fill:#000000;stroke:none;stroke-width:0.4;stroke-dashoffset:2.69405" />
    <path
       id="path1024"
       d="m 122.25493,165.56222 c 0.26081,1.46887 0.79136,-0.16077 1.35685,-0.56529 0.2492,-0.17827 0.53572,0.41404 0.83954,0.37432 0.3258,-0.0426 3.01374,-2.23646 4.50303,-1.39797 0.64676,0.36414 -0.54199,1.64413 -0.008,2.1848 0.0552,0.0559 0.72305,-0.13973 0.89042,-0.10695 4.42236,0.86603 3.90509,-2.90558 2.00135,-3.94945 -2.13467,-1.17048 -12.96316,-0.58015 -9.58271,3.46054 z"
       style="opacity:0.291667;fill:#000000;stroke:none;stroke-width:0.4;stroke-dashoffset:2.69405" />
    <path
       id="path1026"
       d="m 52.182434,17.426195 c 2.164882,5.575744 1.846268,11.620525 2.79001,17.371447 0.548442,3.342066 0.367115,6.474751 0.551217,9.846876 0.129551,2.372911 -0.722355,4.546595 -0.678421,6.92108 0.01318,0.712549 0.649857,1.407482 0.788665,2.116047 0.179067,0.914067 -0.178237,1.739435 -0.118724,2.650789 0.096,1.470057 0.380929,2.921627 0.525778,4.392515 0.04444,0.451268 0.272671,5.656757 1.908061,3.552211 0.571084,-0.734917 -0.698035,-9.602102 -1.102437,-10.717742 -0.25735,-0.709964 -0.549587,-2.763909 -1.026112,-3.193169 -0.05081,-0.04577 -0.286589,-0.25523 -0.237448,-0.343762 1.847321,-3.328186 3.725508,-1.963894 3.510833,-6.218275 -0.06297,-1.248021 -1.350489,-2.569255 -1.687573,-3.81958 C 56.19343,35.485869 51.965335,18.364914 52.182434,17.426195 Z"
       style="opacity:0.291667;fill:#000000;stroke:none;stroke-width:0.4;stroke-dashoffset:2.69405" />
    <path
       id="path1028"
       d="m 121.914,146.044 c -2.0918,-5.20506 -4.33628,-10.86088 -4.68323,-16.53461 -0.45843,-7.4968 1.23058,-21.15863 7.02185,-26.6736 1.62162,-1.54425 3.22411,-2.74151 5.19893,-3.797397 0.80965,-0.432901 1.80398,-0.437671 2.67442,-0.912889 0.48445,-0.264483 1.62417,-0.510683 1.89488,0.243078 0.46318,1.28964 -1.80852,3.337478 -2.48853,4.137698 -4.99339,5.87617 -8.12872,11.96398 -8.64689,19.73242 -0.42966,6.44151 1.27187,12.4996 2.11075,18.80872 0.10162,0.76422 1.09396,4.50134 0.53968,5.66639 -0.18137,0.38124 -2.92176,-0.29943 -3.62186,-0.66981 z"
       style="opacity:0.395425;fill:#ffffff;stroke:none;stroke-width:0.4;stroke-dashoffset:2.69405;filter:url(#filter1030)" />
    <path
       id="path1034"
       d="m 77.456257,80.505156 c -2.370334,-0.610888 -6.526231,2.272107 -1.756963,3.159996 4.594666,0.855382 8.615597,-0.219433 12.97034,-1.496272 1.207,-0.353901 3.66128,-0.707197 4.305459,-1.987828 0.805251,-1.600843 -1.506083,-1.747808 -2.386592,-1.674527 -3.176595,0.26438 -6.164583,1.562317 -9.288513,2.068852 -1.404143,0.227679 -2.425485,-0.900647 -3.843731,-0.07022 z"
       style="opacity:0.291667;fill:#ffffff;stroke:none;stroke-width:0.4;stroke-dashoffset:2.69405;filter:url(#filter1036)" />
    <path
       id="path1040"
       d="m 95.943339,116.14018 c -0.34622,1.9301 -0.745968,3.85682 -1.043384,5.79602 -0.242353,1.58019 -1.119748,5.23344 0.185891,6.63869 0.754571,0.81215 5.379574,-2.02328 5.822564,-2.19309 1.53598,-0.58878 3.10381,-0.0431 4.58729,-0.3295 0.16722,-0.0323 -0.20577,-0.27743 -0.26385,-0.43754 -0.27836,-0.76745 -0.28023,-0.87694 -0.41975,-1.63671 -0.27877,-1.51814 0.59371,-3.51717 -0.054,-4.85073 -0.0791,-0.16285 -1.61744,0.52636 -2.00281,0.54017 -0.79687,0.0285 -1.50702,-0.36706 -2.28465,-0.46455 -2.042322,-0.25601 -4.032925,-0.73315 -4.527331,-3.06276"
       style="opacity:0.291667;fill:#ffffff;stroke:none;stroke-width:0.4;stroke-dashoffset:2.69405;filter:url(#filter1042)" />
    <path
       id="path1046"
       d="m 84.711973,164.19011 c 1.120203,1.16906 0.663649,2.97823 0.76155,4.451 0.27989,4.21056 0.391504,8.37144 -0.05397,12.59677 -0.09083,0.86153 -0.814273,3.61531 -0.323807,4.39699 0.08454,0.13473 0.171841,-0.26947 0.233862,-0.41593 0.20628,-0.48716 0.502767,-0.9267 0.69559,-1.42065 0.680863,-1.74417 1.0331,-3.58708 0.99541,-5.46112 -0.04234,-2.10537 -0.322448,-4.19896 -0.28783,-6.30919 0.02559,-1.56022 0.300178,-3.12646 0.215874,-4.68328 -0.08935,-1.65006 0.112816,-2.89025 -1.679009,-3.65695 -0.572828,-0.2451 -0.961758,-0.0126 -1.313225,0.34031"
       style="opacity:0.291667;fill:#ffffff;stroke:none;stroke-width:0.4;stroke-dashoffset:2.69405;filter:url(#filter1048)" />
    <path
       id="path1052"
       d="m 124.37255,170.12658 c -1.11153,5.23897 -1.9714,10.68975 -1.70899,16.09707 0.0439,0.90486 0.46897,3.00134 1.77495,3.05736 0.86438,0.0371 1.80789,-1.89902 2.04479,-2.44697 1.10847,-2.56376 0.4397,-5.67251 0.73157,-8.37803 0.29082,-2.69583 1.31407,-6.40932 -0.1619,-8.89121 -0.82255,-1.38313 -2.20461,0.36158 -2.47054,1.17758"
       style="opacity:0.568627;fill:#ffffff;stroke:none;stroke-width:0.4;stroke-dashoffset:2.69405;filter:url(#filter1054)" />
    <path
       id="path1059"
       d="m 143.1856,163.99565 c 0.069,-0.13804 0.13804,-0.27609 0.20706,-0.41413"
       style="opacity:0.291667;fill:#ffffff;stroke:none;stroke-width:0.4;stroke-dashoffset:2.69405" />
    <path
       id="path1061"
       d="m 107.10875,49.15368 c 0.41962,4.211807 -5.28614,5.573524 -6.21833,8.372639 -0.2991,0.898115 -0.14814,2.498129 0.83351,2.943926 0.77296,0.351028 2.29828,-0.378354 3.10616,-0.334904 2.66556,0.143351 5.7827,1.652955 8.01727,-0.680615 1.79313,-1.872577 2.72359,-7.159746 0.43774,-9.139679 -0.66815,-0.578731 -2.06543,-0.07141 -2.8903,-0.442939 -1.11308,-0.501345 -0.62393,-1.917776 -2.11674,-1.490871 -0.47636,0.136223 -0.66748,0.62176 -1.16931,0.772443 z"
       style="opacity:0.291667;fill:#ffffff;stroke:none;stroke-width:0.4;stroke-dashoffset:2.69405;filter:url(#filter1063)" />
  </g>
  <g
     inkscape:label="Modèle"
     inkscape:groupmode="layer"
     id="layer1"
     style="display:inline" />
</svg>
