<?xml version="1.0" encoding="UTF-8"?>
<svg width="180mm" height="180mm" version="1.1" viewBox="0 0 180 180" xmlns="http://www.w3.org/2000/svg" xmlns:cc="http://creativecommons.org/ns#" xmlns:dc="http://purl.org/dc/elements/1.1/" xmlns:rdf="http://www.w3.org/1999/02/22-rdf-syntax-ns#">
 <metadata>
  <rdf:RDF>
   <cc:Work rdf:about="">
    <dc:format>image/svg+xml</dc:format>
    <dc:type rdf:resource="http://purl.org/dc/dcmitype/StillImage"/>
    <dc:title/>
   </cc:Work>
  </rdf:RDF>
 </metadata>
 <g transform="matrix(-1 0 0 1 209 -15)">
  <path d="m152 160v-13l-10.1 2.48-0.234 11.1c0.0628 1.27 0.78 2.53 1.7 3.39 1.26 1.18 4.03 1.39 5.06 1.13 2.39-0.601 3.68-3.09 3.57-5.17zm-75.4-35.7v-13l8.42 2.85 1.12 10.3c-0.0628 1.27 0.255 3.33-0.91 3.82-0.468 0.197-2.05 1.43-5.06 1.13-2.85-0.287-3.68-3.09-3.57-5.17z" fill="#fc0" stroke="#000" stroke-dashoffset="2.69" stroke-linecap="square" stroke-width=".847"/>
  <path d="m81.7 123 0.0935 6.92 3.93-1.4 0.935-3.74 60.9 32.6 0.187 8.33 2.71-0.935 1.4-3.27v-11z" opacity=".35" stroke-dashoffset="2.69" stroke-linecap="round" stroke-linejoin="round" stroke-width=".1"/>
  <g stroke="#000" stroke-dashoffset="2.69">
   <path d="m141 159c1.53 0.263 4.71 1.41 8.39-1.05 2.39-1.6 2.27-3.91 2.27-6-3e-3 -1.51-0.294-2.36-1.04-3.58l-59-99.5c-0.534-1.18-0.822-2.11-2.65-3.73-1.57-1.23-4.38-1.95-6.31-1.6-3.64 0.642-6.64 4.25-6.42 8.04l0.185 64.6c0.382 3.54 1.92 5.21 4.31 7.19 9.12 5.95 42.6 24.8 60.3 35.6z" fill="#b69200" stroke-width="1.01"/>
   <path d="m142 155c1.35 0.763 5.17 0.783 8.39-2.19 0.608-0.657 2-3.61 1.74-5.59-0.0295-1.38-0.294-2.7-1.04-3.89l-59-97.2c-0.534-1.15-0.822-2.06-2.65-3.64-1.57-1.21-4.38-1.9-6.31-1.57-3.64 0.627-6.64 4.15-6.42 7.86l0.185 63.1c0.382 3.46 1.92 5.09 4.31 7.02 9.12 5.81 42.9 26 60.8 36.1z" fill="#fc0"/>
   <path d="m82.7 116c-1.44-0.924-3.17-1.95-3.18-4.79-0.0382-6.33-0.622-61.2-0.252-63.5 0.197-1.19 0.764-2.09 1.51-2.93 0.814-0.92 2.65-1.37 3.96-1.25 1.15 0.112 2.69 1.39 3.7 2.97 18.3 31.7 39.8 65.3 59.2 97.6 0.968 1.61 0.931 3.36 0.349 4.81-0.414 1.03-1.59 2.94-3.24 3.03-1.95 0.0967-3.68-0.86-4.91-1.52-2.43-1.3-54.9-33-57.1-34.4z" fill="#800000" stroke-linecap="round" stroke-linejoin="round" stroke-width=".7"/>
  </g>
  <path d="m107 85.7-1.36 8.26c0.633 0.246 2.7 1.27 3.28 3.55l3.64 1.52-0.748 8.42 0.76 4.54-7.11 11.1 0.0105-14.9c0.551-0.276 1.16-0.544 1.64-0.818 0.824-0.567 3.06-1.63 2.96-2.64-0.126-1.26-5.55-1.71-5.49 0.186-0.18 0.591 0.114 6.61-1.06 6.74-0.768 0.086-0.969-2.44-0.982-2.85-0.0151-0.482-0.0828-0.924-0.111-1.46-0.0494-0.934 0.188-2.82-0.371-3.17-0.981-0.663-3.19-0.887-4.64 0.0452-0.176 0.113-0.455 0.192-0.47 0.487-0.038 0.752 0.684 1.25 1.21 1.63 0.543 0.401 1.19 0.746 1.71 1.08 0.215 0.137 1.12 0.52 1.61 0.812l0.0468 14.9-7.16-11.2 0.829-4.47-0.783-8.44 3.58-1.45c0.384-1.29 1.53-3 3.25-3.55l-1.31-8.33c0.497-0.0687 1.22-0.146 1.74-0.191 0.576-0.0503 2.18-0.103 3.34-0.0315 0.702 0.0437 1.54 0.108 1.99 0.22z" fill="#fc0" opacity=".709"/>
 </g>
</svg>
