<?xml version="1.0" encoding="UTF-8"?>
<svg width="71mm" height="50mm" version="1.1" viewBox="0 0 71 50" xmlns="http://www.w3.org/2000/svg" xmlns:cc="http://creativecommons.org/ns#" xmlns:dc="http://purl.org/dc/elements/1.1/" xmlns:rdf="http://www.w3.org/1999/02/22-rdf-syntax-ns#">
 <metadata>
  <rdf:RDF>
   <cc:Work rdf:about="">
    <dc:format>image/svg+xml</dc:format>
    <dc:type rdf:resource="http://purl.org/dc/dcmitype/StillImage"/>
    <dc:title/>
   </cc:Work>
  </rdf:RDF>
 </metadata>
 <g transform="translate(-4.8 -4)">
  <g transform="matrix(-1 0 0 1 81 0)" shape-rendering="auto" stroke="#000" stroke-linecap="round" stroke-linejoin="round" stroke-width=".3">
   <path d="m12 9.3 57 27v12h-57z" color="#000000" color-rendering="auto" dominant-baseline="auto" fill="#800000" fill-opacity=".98" image-rendering="auto" solid-color="#000000" stop-color="#000000" style="font-feature-settings:normal;font-variant-alternates:normal;font-variant-caps:normal;font-variant-east-asian:normal;font-variant-ligatures:normal;font-variant-numeric:normal;font-variant-position:normal;font-variation-settings:normal;inline-size:0;isolation:auto;mix-blend-mode:normal;shape-margin:0;shape-padding:0;text-decoration-color:#000000;text-decoration-line:none;text-decoration-style:solid;text-indent:0;text-orientation:mixed;text-transform:none;white-space:normal"/>
   <path d="m12 8.8a0.5 0.5 0 0 0-0.49 0.5v39a0.5 0.5 0 0 0 0.5 0.5h57a0.5 0.5 0 0 0 0.5-0.5v-12a0.5 0.5 0 0 0-0.28-0.45l-57-27a0.5 0.5 0 0 0-0.23-0.049zm0.51 1.3 56 27v11h-56z" color="#000000" color-rendering="auto" dominant-baseline="auto" fill="#fc0" image-rendering="auto" solid-color="#000000" stop-color="#000000" style="font-feature-settings:normal;font-variant-alternates:normal;font-variant-caps:normal;font-variant-east-asian:normal;font-variant-ligatures:normal;font-variant-numeric:normal;font-variant-position:normal;font-variation-settings:normal;inline-size:0;isolation:auto;mix-blend-mode:normal;shape-margin:0;shape-padding:0;text-decoration-color:#000000;text-decoration-line:none;text-decoration-style:solid;text-indent:0;text-orientation:mixed;text-transform:none;white-space:normal"/>
  </g>
 </g>
</svg>
