<?xml version="1.0" encoding="UTF-8"?>
<svg width="180mm" height="180mm" version="1.1" viewBox="0 0 180 180" xmlns="http://www.w3.org/2000/svg" xmlns:cc="http://creativecommons.org/ns#" xmlns:dc="http://purl.org/dc/elements/1.1/" xmlns:rdf="http://www.w3.org/1999/02/22-rdf-syntax-ns#">
 <metadata>
  <rdf:RDF>
   <cc:Work rdf:about="">
    <dc:format>image/svg+xml</dc:format>
    <dc:type rdf:resource="http://purl.org/dc/dcmitype/StillImage"/>
    <dc:title/>
   </cc:Work>
  </rdf:RDF>
 </metadata>
 <g transform="matrix(-1 0 0 1 208.94 -14.967)">
  <path d="m76.382 124.61v-12.956l8.419 2.8531 1.1239 10.328c-0.06284 1.2706 0.25548 3.3277-0.91036 3.8183-0.46782 0.19687-2.051 1.4308-5.0631 1.1274-2.853-0.28741-3.6837-3.0929-3.5695-5.1706z" fill="#fc0" stroke="#000" stroke-dashoffset="2.694" stroke-linecap="square" stroke-width=".847"/>
  <path d="m151.79 160.34v-12.956l-10.103 2.4789-0.23386 11.132c0.0628 1.2706 0.77955 2.5252 1.7041 3.3883 1.2629 1.1791 4.027 1.3882 5.0631 1.1274 2.3883-0.60106 3.6837-3.0929 3.5694-5.1706z" fill="#fc0" stroke="#000" stroke-dashoffset="2.694" stroke-linecap="square" stroke-width=".847"/>
  <g fill="#a80">
   <path d="m151.27 155.45c0.053 0.98585 0.16223 2.0518 0.0934 3.0088-0.0466 0.64774 0.10155 2.6728-0.26291 3.6937-0.36555 1.024-1.417 2.4972-2.5929 2.8385-0.32317 0.0938-0.65448 0.27148-1.7714 0.16666 6e-3 -1.7208-0.33033-7.0927 0.99862-8.5891 0.53078-0.59767 1.2356-0.0717 1.9186-0.49392 0.43225-0.26721 1.134-0.8989 1.6167-0.62464" opacity=".70915"/>
   <path d="m80.642 122.71c0.06696 0.87029-0.0088 1.736-0.04597 2.6016-0.04703 1.0941-0.09452 3.0243 0.1581 4.096 1.0684 0.23067 3.6073-0.70272 4.1034-1.0876 0.51156-0.39332 1.0875-1.9885 0.07526-3.0767-1.2493-1.3431-2.9855-1.0259-4.2908-2.5334z" opacity=".70915"/>
   <path d="m141.59 160.37c1.5311 0.26337 5.1685 0.80129 8.3889-2.2439 0.60775-0.67289 1.9972-3.6949 1.7395-5.7212-0.0295-1.4162-0.29442-2.7662-1.0356-3.9872l-59.028-99.529c-0.53354-1.1766-0.82204-2.1118-2.6482-3.7307-1.5742-1.234-4.3763-1.9468-6.3119-1.605-3.6365 0.64222-6.6414 4.2499-6.4158 8.0445l0.18485 64.625c0.38168 3.5402 1.9234 5.2127 4.3069 7.191 9.1189 5.947 43.118 26.104 60.819 36.957z" stroke="#000" stroke-dashoffset="2.694" stroke-width="1.0118"/>
  </g>
  <path d="m141.59 155c1.5311 0.25724 5.1685 0.78265 8.3889-2.1917 0.60775-0.65724 1.9972-3.609 1.7395-5.5882-0.0295-1.3832-0.29442-2.7019-1.0356-3.8945l-59.028-97.215c-0.53354-1.1492-0.82204-2.0627-2.6482-3.644-1.5742-1.2053-4.3763-1.9015-6.3119-1.5677-3.6365 0.62729-6.6414 4.1511-6.4158 7.8575l0.18485 63.122c0.38168 3.4578 1.9234 5.0915 4.3069 7.0238 9.1189 5.8087 43.118 25.497 60.819 36.098z" fill="#fc0" stroke="#000" stroke-dashoffset="2.694"/>
  <path d="m79.242 111.43 0.08279 0.99657 0.01407 0.16941c0.07512 0.26628 0.174 0.52457 0.29379 0.77278 0.14432 0.29904 0.319 0.58344 0.51905 0.84949s0.42547 0.51376 0.67128 0.73942c0.19636 0.18027 0.40573 0.34647 0.62558 0.49672l58.641 34.822 0.23436 0.13917c0.19588 0.14293 0.39835 0.28239 0.60653 0.41442 0.28618 0.18151 0.58313 0.34899 0.88852 0.49215 0.30539 0.14317 0.61921 0.26203 0.93914 0.34629 0.31993 0.0843 0.64596 0.13393 0.97576 0.13873 0.11587 2e-3 0.23221-2e-3 0.34892-0.012 0.21535-0.0193 0.42966-0.0541 0.64106-0.10331 0.32593-0.0759 0.64496-0.18603 0.95029-0.32677 0.30533-0.14073 0.59697-0.31201 0.86809-0.51011 0.27113-0.1981 0.52174-0.42301 0.74505-0.67099 0.0368-0.0409 0.0729-0.0824 0.10821-0.12454 0.1788-0.21335 0.33272-0.44135 0.46271-0.68056 0.15566-0.28646 0.277-0.58899 0.36564-0.90172 0.0886-0.31272 0.14456-0.63564 0.16941-0.96284 0.0249-0.3272 0.0186-0.65869-0.0171-0.98857s-0.10087-0.65816-0.19388-0.97892c-0.093-0.32077-0.21388-0.63403-0.36098-0.93389-0.0739-0.15069-0.15447-0.298-0.24144-0.44118l-0.25825-0.42515-2.0766-3.4187-1.5574-2.564-2.0766-3.4187-1.5574-2.564-1.5574-2.564-2.0766-3.4187-1.5574-2.564-2.0766-3.4187-0.51915-0.85469-0.51916-0.85468-0.51915-0.85468-1.5574-2.564-2.0766-3.4187-1.5574-2.564-1.5574-2.564-2.0766-3.4187-1.5574-2.564-33.086-54.47c-0.04653-0.07661-0.09581-0.15091-0.14767-0.22293-0.19284-0.26783-0.42126-0.504-0.67625-0.7091-0.25498-0.2051-0.53653-0.37914-0.83562-0.52271-0.29908-0.14357-0.61571-0.25666-0.94084-0.33988-0.32514-0.08322-0.65879-0.13655-0.99194-0.1606-0.0398-0.0029-0.0796-0.0053-0.11937-0.0074-0.29312-0.01502-0.58267 0.0042-0.86556 0.05401-0.32128 0.05651-0.63397 0.15236-0.93356 0.28197-0.2996 0.12961-0.5861 0.293-0.85501 0.48459s-0.52021 0.4114-0.74941 0.65385-0.43628 0.50755-0.61675 0.78974c-0.18047 0.28219-0.33432 0.58147-0.45705 0.89228-0.12273 0.31081-0.21433 0.63315-0.2703 0.96146-0.02475 0.1452-0.04253 0.29156-0.05296 0.43861l-4.5e-5 0.55774-1.62e-4 2-8e-5 1-2.43e-4 3-8e-5 1-2.43e-4 3-8e-5 1-2.43e-4 3-8e-5 1-3.24e-4 4-8e-5 1-2.43e-4 3-8e-5 1-2.43e-4 3-8e-5 1-2.43e-4 3-8e-5 1-2.43e-4 3-8e-5 1-3.24e-4 4-8e-5 1-2.43e-4 3-8e-5 1-2.43e-4 3-8e-5 1-2.43e-4 3-8e-5 1-3.24e-4 4-8e-5 1-2.43e-4 3-8e-5 1-4.8e-5 0.5904 0.04028 0.40761" fill="#800000" stroke="#000" stroke-dashoffset="2.694" stroke-width=".7"/>
  <path d="m107.16 85.685-1.3577 8.2616c0.63277 0.24614 2.7032 1.2729 3.2837 3.5504l3.6365 1.5201-0.74835 8.419 0.76005 4.5369-7.1101 11.081 0.0105-14.865c0.55078-0.27631 1.1613-0.54375 1.6387-0.81815 0.82419-0.56678 3.057-1.6339 2.9567-2.6424-0.12573-1.2642-5.5472-1.7095-5.4899 0.18557-0.17969 0.59135 0.11433 6.6103-1.0579 6.7416-0.76788 0.086-0.96935-2.4446-0.98205-2.8499-0.0151-0.48247-0.0828-0.92404-0.11098-1.457-0.0494-0.93446 0.18847-2.8189-0.37129-3.1735-0.98078-0.66333-3.1887-0.88673-4.6372 0.0452-0.17576 0.11309-0.45505 0.19238-0.46992 0.48704-0.03796 0.75231 0.68364 1.2474 1.2066 1.6342 0.54286 0.40146 1.1902 0.74606 1.7122 1.078 0.21519 0.13684 1.1222 0.5202 1.608 0.81181l0.0468 14.92-7.1561-11.225 0.82938-4.4667-0.7826-8.4424 3.5832-1.4533c0.38402-1.2894 1.5315-3.0019 3.2455-3.5513l-1.3096-8.3254c0.49663-0.06874 1.2234-0.14555 1.744-0.19096 0.57643-0.05027 2.1808-0.10345 3.3358-0.03154 0.70213 0.04372 1.5384 0.10834 1.9862 0.22043z" fill="#fc0" opacity=".70915"/>
 </g>
</svg>
