<?xml version="1.0" encoding="UTF-8"?>
<svg width="40mm" height="42.5mm" version="1.1" viewBox="0 0 40 42.5" xmlns="http://www.w3.org/2000/svg" xmlns:cc="http://creativecommons.org/ns#" xmlns:dc="http://purl.org/dc/elements/1.1/" xmlns:rdf="http://www.w3.org/1999/02/22-rdf-syntax-ns#">
 <metadata>
  <rdf:RDF>
   <cc:Work rdf:about="">
    <dc:format>image/svg+xml</dc:format>
    <dc:type rdf:resource="http://purl.org/dc/dcmitype/StillImage"/>
    <dc:title/>
   </cc:Work>
  </rdf:RDF>
 </metadata>
 <g transform="translate(-6.91 -15.7)">
  <g>
   <path transform="matrix(.265 0 0 .265 6.91 15.7)" d="m132 37c1.26 6.7-15.9 15.4-43.8 15.1-29.2 0.484-47.6-7.62-47.6-14.1v106h91.3z" fill="#502d16" stroke="#28170b" stroke-dashoffset="2.69" stroke-linecap="round" stroke-linejoin="round" stroke-width="3.78"/>
   <ellipse cx="29.7" cy="25.8" rx="12.1" ry="3.76" fill="#d38d5f" fill-rule="evenodd" stop-color="#000000" stroke="#a05a2c" stroke-width=".983" style="font-variation-settings:normal"/>
   <path d="m20.4 35.7-5.69-5.69-3.99 0.119 2.71 2.83-0.953 0.119 0.149 0.953 1.99-0.0298 5.72 5.78" fill="#502d16" stroke="#28170b" stroke-dashoffset="2.69" stroke-linecap="round" stroke-linejoin="round" stroke-width=".1"/>
   <ellipse cx="12.7" cy="30" rx="1.99" ry=".625" fill="#d38d5f" fill-rule="evenodd" stop-color="#000000" stroke="#a05a2c" stroke-width=".1" style="font-variation-settings:normal"/>
  </g>
  <path d="m10.9 30.4 3.05 3.17-1.4 0.134 0.0744 0.387 1.99-0.0447 5.73 5.76v-2.31l-7.38-6.83s-0.641 0.0126-0.958-0.0258c-0.377-0.0457-1.11-0.242-1.11-0.242z" opacity=".365"/>
 </g>
 <path d="m31.5 6.94s2.07 1.17 1.74 2.89c-0.276 1.46-3.04 3.28-3.04 3.28l2.2 1.82-0.0055 23.7 2.74-0.0596 0.179-3.22v-25.2s0.0157-1.26-1.53-2.08c-1.1-0.585-2.29-1.04-2.29-1.04z" opacity=".359"/>
</svg>
