<?xml version="1.0" encoding="UTF-8"?>
<svg width="93mm" height="126mm" version="1.1" viewBox="0 0 93 126" xmlns="http://www.w3.org/2000/svg" xmlns:cc="http://creativecommons.org/ns#" xmlns:dc="http://purl.org/dc/elements/1.1/" xmlns:rdf="http://www.w3.org/1999/02/22-rdf-syntax-ns#">
 <metadata>
  <rdf:RDF>
   <cc:Work rdf:about="">
    <dc:format>image/svg+xml</dc:format>
    <dc:type rdf:resource="http://purl.org/dc/dcmitype/StillImage"/>
    <dc:title/>
   </cc:Work>
  </rdf:RDF>
 </metadata>
 <g stroke-dashoffset="2.69" stroke-linecap="round" stroke-linejoin="round">
  <g transform="translate(-6.91 -15.7)">
   <rect x="42.9" y="106" width="24.2" height="32.1" fill="#502d16" stroke="#28170b"/>
   <path d="m30.7 78.9-8.57 16.9-12.3 19.6 12.1-4.1 10.9-5.16 13 15.1 16.9-12 20.1 10.4 3.2-10.6 10.4 3.45-12.3-19-11.3-23.8z" fill="#89a02c" stroke="#677821"/>
   <path transform="scale(.265)" d="m244 188-92.3 17.6-27.5 55-42.2 71 40.1-22.1 25.7 32 22.1-35.6 31.1 58.1 37.4-57.2 24.8 39.2 18.5-45 49.1 31.1z" fill="#abc837" stroke="#89a02c" stroke-width="3.78"/>
   <path d="m32.3 63.4c3.44-1.19 8.29-3.39 11.6-5.95 3.84 3.31 5.95 9.27 10.6 12.9 1.96 0 4.87-13.5 6.41-13.1 4.86 1.61 10.4 4.73 15.8 7.08-1.9-5.84-10.2-20.4-11.8-23.8-3.96-8.2-6.2-14.2-10.6-22.4-2.53 4.77-7.09 14.3-9.8 21.6z" fill="#bcd35f" stroke="#abc837"/>
  </g>
  <path d="m47.3 2.37 16 40.6-4.88-2.02-6.39-2.69-4.17 15.8 6.79-10.8 6.63 2.61 9.95 17.1-4.83-1.13-0.43-0.403-3.81 9.89-5.72-9.05-10.5 17.1 10.7-10.5 5.84 8.69 5.92-10.3 5.32 13.1 6.91 9.1-5.56-1.85-2.02 9.6-16.3-6.57-18 14.7 18-8.38v24.7h3.37v-26.2l15.8 8.21 3.2-10.6 10.4 3.45-12.3-19-5.25-11 8.45 5.35-15.4-25.6c1.58 0.762 3.17 1.52 4.73 2.2-1.9-5.84-10.2-20.4-11.8-23.8-3.96-8.2-6.2-14.2-10.6-22.4z" opacity=".449" stroke="#000"/>
 </g>
</svg>
