<?xml version="1.0" encoding="UTF-8"?>
<svg width="26mm" height="175mm" version="1.1" viewBox="0 0 26 175" xmlns="http://www.w3.org/2000/svg" xmlns:cc="http://creativecommons.org/ns#" xmlns:dc="http://purl.org/dc/elements/1.1/" xmlns:rdf="http://www.w3.org/1999/02/22-rdf-syntax-ns#">
 <metadata>
  <rdf:RDF>
   <cc:Work rdf:about="">
    <dc:format>image/svg+xml</dc:format>
    <dc:type rdf:resource="http://purl.org/dc/dcmitype/StillImage"/>
    <dc:title/>
   </cc:Work>
  </rdf:RDF>
 </metadata>
 <path d="m10 149v16c1.2 0.84 2 1.3 3.2 1.3 1.4 6e-3 1.8-0.35 3.1-1.5v-16zm0-28v16c1.2 0.84 2 1.3 3.2 1.3 1.4 6e-3 1.8-0.35 3.1-1.5v-16zm0-28v16c1.2 0.84 2 1.3 3.2 1.3 1.4 6e-3 1.8-0.35 3.1-1.5v-16zm0-27v16c1.2 0.84 2 1.3 3.2 1.3 1.4 0.0063 1.8-0.35 3.1-1.5v-16zm0-29v16c1.2 0.84 2 1.3 3.2 1.3 1.4 0.0063 1.8-0.35 3.1-1.5v-16zm0-28v16c1.2 0.84 2 1.3 3.2 1.3 1.4 6e-3 1.8-0.35 3.1-1.5v-16z" fill="#502d16" stroke="#28170b" stroke-dashoffset="2.7" stroke-linecap="round" stroke-linejoin="round" stroke-width=".7"/>
 <path transform="scale(.26)" d="m60 39c-0.66 28-5.5 53-13 65 6.4 1.2 12-2.8 15-5.6v-59z" opacity=".29"/>
 <g transform="translate(0 28)">
  <path d="m16 11c-0.18 7.5-1.4 14-3.3 17 1.7 0.32 3.1-0.74 3.9-1.5v-16z" opacity=".29"/>
 </g>
 <g transform="translate(0 56)">
  <path d="m16 11c-0.18 7.5-1.4 14-3.3 17 1.7 0.32 3.1-0.74 3.9-1.5v-16z" opacity=".29"/>
 </g>
 <g transform="translate(0 83)">
  <path d="m16 11c-0.18 7.5-1.4 14-3.3 17 1.7 0.32 3.1-0.74 3.9-1.5v-16z" opacity=".29"/>
 </g>
 <g transform="translate(0 111)">
  <path d="m16 11c-0.18 7.5-1.4 14-3.3 17 1.7 0.32 3.1-0.74 3.9-1.5v-16z" opacity=".29"/>
  <path d="m12 37v-17c0.55-1 1.9-1.2 2.4 0.052 0.072 2.4 0.14 11 0.032 17zm0-28v-17c0.55-1 1.9-1.2 2.4 0.052 0.072 2.4 0.14 11 0.032 17zm0-27v-17c0.55-1 1.9-1.2 2.4 0.052 0.072 2.4 0.14 11 0.032 17zm0-29v-17c0.55-1 1.9-1.2 2.4 0.052 0.072 2.4 0.14 11 0.032 17zm0-28v-17c0.55-1 1.9-1.2 2.4 0.052 0.072 2.4 0.14 11 0.032 17z" fill="#502d16" stroke="#28170b" stroke-dashoffset="2.7" stroke-linecap="round" stroke-linejoin="round" stroke-width=".7"/>
 </g>
 <g transform="translate(0 139)">
  <path d="m16 11c-0.18 7.5-1.4 14-3.3 17 1.7 0.32 3.1-0.74 3.9-1.5v-16z" opacity=".29"/>
  <path d="m13 7.7c-1.4-0.042-2.7 0.86-2.8 2.1-0.36 3.6 4.1 4.4 5.9 2.1 1.7-2.2-1.2-4.2-3.1-4.3zm0-28c-1.4-0.042-2.7 0.86-2.8 2.1-0.36 3.6 4.1 4.4 5.9 2.1 1.7-2.2-1.2-4.2-3.1-4.3zm0-28c-1.4-0.042-2.7 0.86-2.8 2.1-0.36 3.6 4.1 4.4 5.9 2.1 1.7-2.2-1.2-4.2-3.1-4.3zm0-27c-1.4-0.042-2.7 0.86-2.8 2.1-0.36 3.6 4.1 4.4 5.9 2.1 1.7-2.2-1.2-4.2-3.1-4.3zm0-29c-1.4-0.042-2.7 0.86-2.8 2.1-0.36 3.6 4.1 4.4 5.9 2.1 1.7-2.2-1.2-4.2-3.1-4.3zm0-28c-1.4-0.042-2.7 0.86-2.8 2.1-0.36 3.6 4.1 4.4 5.9 2.1 1.7-2.2-1.2-4.2-3.1-4.3z" fill="#e9c6af" stroke="#28170b" stroke-dashoffset="2.7" stroke-linecap="round" stroke-linejoin="round" stroke-width=".7"/>
 </g>
</svg>
