<?xml version="1.0" encoding="UTF-8"?>
<svg width="26mm" height="175mm" version="1.1" viewBox="0 0 26 175" xmlns="http://www.w3.org/2000/svg" xmlns:cc="http://creativecommons.org/ns#" xmlns:dc="http://purl.org/dc/elements/1.1/" xmlns:rdf="http://www.w3.org/1999/02/22-rdf-syntax-ns#">
 <metadata>
  <rdf:RDF>
   <cc:Work rdf:about="">
    <dc:format>image/svg+xml</dc:format>
    <dc:type rdf:resource="http://purl.org/dc/dcmitype/StillImage"/>
    <dc:title/>
   </cc:Work>
  </rdf:RDF>
 </metadata>
 <path d="m10.2 149v15.9c1.18 0.835 2.05 1.25 3.23 1.26 1.35 6e-3 1.82-0.346 3.15-1.55v-15.6zm0-28.1v15.9c1.18 0.835 2.05 1.25 3.23 1.26 1.35 6e-3 1.82-0.346 3.15-1.55v-15.6zm0-27.7v15.9c1.18 0.835 2.05 1.25 3.23 1.26 1.35 6e-3 1.82-0.346 3.15-1.55v-15.6zm0-27.1v15.9c1.18 0.835 2.05 1.25 3.23 1.26 1.35 0.0063 1.82-0.346 3.15-1.55v-15.6zm0-28.6v15.9c1.18 0.835 2.05 1.25 3.23 1.26 1.35 0.0063 1.82-0.346 3.15-1.55v-15.6zm0-27.5v15.9c1.18 0.835 2.05 1.25 3.23 1.26 1.35 6e-3 1.82-0.346 3.15-1.55v-15.6z" fill="#502d16" stroke="#28170b" stroke-dashoffset="2.69" stroke-linecap="round" stroke-linejoin="round" stroke-width=".7"/>
 <path transform="scale(.265)" d="m60.4 39.4a20.9 77.6 0 0 1-12.5 64.6c0.953 0.18 1.94 0.278 2.99 0.283 5.11 0.0238 6.87-1.31 11.9-5.85v-59z" opacity=".294"/>
 <g transform="translate(0 27.5)">
  <path d="m16 10.6a5.52 20.5 0 0 1-3.32 17.1c0.252 0.0475 0.513 0.0736 0.792 0.0749 1.35 0.0063 1.82-0.346 3.15-1.55v-15.6z" opacity=".294"/>
 </g>
 <g transform="translate(0 56.1)">
  <path d="m16 10.6a5.52 20.5 0 0 1-3.32 17.1c0.252 0.0475 0.513 0.0736 0.792 0.0749 1.35 0.0063 1.82-0.346 3.15-1.55v-15.6z" opacity=".294"/>
 </g>
 <g transform="translate(0 83.3)">
  <path d="m16 10.6a5.52 20.5 0 0 1-3.32 17.1c0.252 0.0475 0.513 0.0736 0.792 0.0749 1.35 0.0063 1.82-0.346 3.15-1.55v-15.6z" opacity=".294"/>
 </g>
 <g transform="translate(0 111)">
  <path d="m16 10.6a5.52 20.5 0 0 1-3.32 17.1c0.252 0.0475 0.513 0.0736 0.792 0.0749 1.35 0.0063 1.82-0.346 3.15-1.55v-15.6z" opacity=".294"/>
  <path d="m12.1 37.4v-17c0.0987-0.501 0.541-0.812 1.32-0.806 0.857 0.0071 1.02 0.775 1.06 0.858 0.0723 2.38 0.145 11.5 0.032 17.1zm0-27.7v-17c0.0987-0.501 0.541-0.812 1.32-0.806 0.857 0.0071 1.02 0.775 1.06 0.858 0.0723 2.38 0.145 11.5 0.032 17.1zm0-27.1v-17c0.0987-0.501 0.541-0.812 1.32-0.806 0.857 0.0071 1.02 0.775 1.06 0.858 0.0723 2.38 0.145 11.5 0.032 17.1zm0-28.6v-17c0.0987-0.501 0.541-0.812 1.32-0.806 0.857 0.0071 1.02 0.775 1.06 0.858 0.0723 2.38 0.145 11.5 0.032 17.1zm0-27.5v-17c0.0987-0.501 0.541-0.812 1.32-0.806 0.857 0.0071 1.02 0.775 1.06 0.858 0.0723 2.38 0.145 11.5 0.032 17.1z" fill="#502d16" stroke="#28170b" stroke-dashoffset="2.69" stroke-linecap="round" stroke-linejoin="round" stroke-width=".7"/>
 </g>
 <g transform="translate(0 139)">
  <path d="m16 10.6a5.52 20.5 0 0 1-3.32 17.1c0.252 0.0475 0.513 0.0736 0.792 0.0749 1.35 0.0063 1.82-0.346 3.15-1.55v-15.6z" opacity=".294"/>
  <path d="m13.1 7.74c-1.4-0.0418-2.71 0.863-2.83 2.14-0.362 3.62 4.1 4.38 5.91 2.12 1.74-2.17-1.18-4.2-3.07-4.26zm0-28.1c-1.4-0.0418-2.71 0.863-2.83 2.14-0.362 3.62 4.1 4.38 5.91 2.12 1.74-2.17-1.18-4.2-3.07-4.26zm0-27.7c-1.4-0.0418-2.71 0.863-2.83 2.14-0.362 3.62 4.1 4.38 5.91 2.12 1.74-2.17-1.18-4.2-3.07-4.26zm0-27.1c-1.4-0.0418-2.71 0.863-2.83 2.14-0.362 3.62 4.1 4.38 5.91 2.12 1.74-2.17-1.18-4.2-3.07-4.26zm0-28.6c-1.4-0.0418-2.71 0.863-2.83 2.14-0.362 3.62 4.1 4.38 5.91 2.12 1.74-2.17-1.18-4.2-3.07-4.26zm0-27.5c-1.4-0.0418-2.71 0.863-2.83 2.14-0.362 3.62 4.1 4.38 5.91 2.12 1.74-2.17-1.18-4.2-3.07-4.26z" fill="#e9c6af" stroke="#28170b" stroke-dashoffset="2.69" stroke-linecap="round" stroke-linejoin="round" stroke-width=".7"/>
 </g>
</svg>
